<svg xmlns="http://www.w3.org/2000/svg" viewBox="0 0 1078.84 155.5"><defs><style>.a595af55-c68d-4f9c-8c37-809a2034fd03{fill:#2ea127;}.a19be173-512d-4394-ba6a-7c3559864e3f,.a5c0438a-7dbe-4ee1-99bc-2b358bded697,.a9fb985f-7a13-4b7e-82c3-f7f6fd0f8b8b,.b2b96be3-c08f-4cd3-901e-5b91ad6785ca,.b7aea6ac-1d61-469d-a122-fda5c3f9de60,.bb9a2389-448c-4e51-a515-0e36fcbd7011,.bcd66b8f-61fb-4041-bd98-185e53fddf46,.eb31c88f-5e27-4bb3-9e8c-0045c7da8baf{isolation:isolate;}.a19be173-512d-4394-ba6a-7c3559864e3f,.a5c0438a-7dbe-4ee1-99bc-2b358bded697,.a9fb985f-7a13-4b7e-82c3-f7f6fd0f8b8b,.b2b96be3-c08f-4cd3-901e-5b91ad6785ca,.b2c56cf7-6992-4499-a37b-7fb36aa3aa89,.b7aea6ac-1d61-469d-a122-fda5c3f9de60,.bb9a2389-448c-4e51-a515-0e36fcbd7011,.bcd66b8f-61fb-4041-bd98-185e53fddf46,.eb31c88f-5e27-4bb3-9e8c-0045c7da8baf{font-size:39.6px;fill:#eae7e7;}.a19be173-512d-4394-ba6a-7c3559864e3f,.a5c0438a-7dbe-4ee1-99bc-2b358bded697,.a6de0bcf-96cd-4e3a-9102-fe4b84fc8bb5,.a9fb985f-7a13-4b7e-82c3-f7f6fd0f8b8b,.b2b96be3-c08f-4cd3-901e-5b91ad6785ca,.b2c56cf7-6992-4499-a37b-7fb36aa3aa89,.b7aea6ac-1d61-469d-a122-fda5c3f9de60,.bb9a2389-448c-4e51-a515-0e36fcbd7011,.bcd66b8f-61fb-4041-bd98-185e53fddf46,.eb31c88f-5e27-4bb3-9e8c-0045c7da8baf{font-family:Constantia;}.a5c0438a-7dbe-4ee1-99bc-2b358bded697{letter-spacing:-0.01em;}.b2b96be3-c08f-4cd3-901e-5b91ad6785ca{letter-spacing:-0.02em;}.a2d05833-5edd-4da9-a82d-200521fb0dd4,.a9fb985f-7a13-4b7e-82c3-f7f6fd0f8b8b{letter-spacing:-0.02em;}.a19be173-512d-4394-ba6a-7c3559864e3f{letter-spacing:-0.03em;}.a04baaa0-bb9b-4f74-b038-d3eba636de39,.eb31c88f-5e27-4bb3-9e8c-0045c7da8baf{letter-spacing:-0.02em;}.b7aea6ac-1d61-469d-a122-fda5c3f9de60{letter-spacing:-0.02em;}.bb9a2389-448c-4e51-a515-0e36fcbd7011{letter-spacing:0.02em;}.a6de0bcf-96cd-4e3a-9102-fe4b84fc8bb5{font-size:119px;fill:#fff;stroke:#fff;stroke-miterlimit:10;stroke-width:0.75px;}.b7c2f9ca-3863-4ceb-91aa-27796cd3520a{letter-spacing:-0.01em;}.bf2ec7bc-52e7-48e2-9427-6c24d682fb21{letter-spacing:0em;}.a88466ea-1791-47bf-b5b9-9b1c070985a7{letter-spacing:-0.02em;}</style></defs><title>Asset 1_1</title><g id="a1c97f4e-7856-45de-8133-7ccf3fa4c587" data-name="Layer 2"><g id="a567bdb2-edc7-477b-8e09-46a6d01f3403" data-name="Layer 1"><path class="a595af55-c68d-4f9c-8c37-809a2034fd03" d="M.4,84H102.18c6.21,0,6.56-.24,6.55-6.44,0-16.27-2.08-32.13-10.44-46.48-8.69-15-21.87-21.48-38.92-19.9C48.31,12.25,40.1,18.69,34.92,28c-4.1,7.42-7,15.64-9.73,23.72-1.1,3.17-2.81,4.1-5.24,3.17-1.22-.45-2.44-2.73-2.45-4.28q-.12-20,.32-40c0-1.48,1.36-4.2,2-4.1,2.2.15,5.61.63,6.28,2.06,2.29,4.84,4.84,3.6,8.31,1.7C60.71-4.16,97.68,3.44,116.27,30c10.19,14.59,14.44,30.56,14.5,48,0,6.16.35,6.14,6.15,6.2,3.76,0,4.2-1.85,4.1-4.89a83.31,83.31,0,0,1,7.24-36.65C162.31,12.27,192.32-2.66,224.48,5c5.13,1.2,9.94,3.88,14.78,6.14,2.63,1.22,4.65,1.56,5.87-1.59,1.37-3.58,4.51-3.8,7.2-2.73,1.19.44,2,3.33,2.06,5.14.16,14.1.08,28.19.08,42.25-5.69,2-6.26,1.45-8.21-4-2.73-7.6-5.08-15.58-9.24-22.38C224.72,7.61,197.37,5,180.83,22c-10.15,10.33-14.28,23.4-16.26,37.26A146,146,0,0,0,163.2,78c-.08,5.93.37,6.1,6.36,6.1H271.09c2.12,6.06,1.51,7.15-4.1,7.79-8.2,1-12.15,5.08-12.18,13.32,0,10,.23,19.92.53,29.89.09,2.54-.27,4.1-3,5.3a111.58,111.58,0,0,1-52.33,10A55.89,55.89,0,0,1,168,138.07c-13.58-10.64-21.72-24.81-25.11-41.62-.78-3.87-2.17-5.47-6.25-5.28s-6.45,0-7.57,5.34c-5.47,25.8-20.13,44.5-45.85,52-13.67,4.1-28.3,2.85-42.28-.89-7.08-1.9-13.86-4.85-20.83-7.16-2.64-.88-3.48-2.41-3.38-5.13.34-9,.6-18.07.64-27.11,0-11.91-2.33-14.63-14.13-16.79C-.25,90.83-.4,90.51.4,84Zm194.66,6.7v.51H168.4c-2.38,0-4.64.37-3.59,3.57,2.87,8.68,4.78,17.91,9.06,25.84a41.48,41.48,0,0,0,57.34,16.9c2.91-1.63,4.77-3.54,4.84-7.11.12-7.49.67-15,.71-22.49,0-10.94-4.1-15.33-15-16-8.89-.55-17.8-.82-26.66-1.22Zm-87.41.93c-2.27-.15-4.1-.38-5.81-.38H62.76c-4.1,0-8.21.23-12.39.58-11.17.92-14.7,4.56-14.86,15.56a213.45,213.45,0,0,0,.42,22c.23,2.61,2,6.18,4.19,7.38,14.12,7.86,28.89,8.82,42.74,0C99,126.7,104.6,110.12,107.63,91.67Z"/><text class="a5c0438a-7dbe-4ee1-99bc-2b358bded697" transform="translate(405.7 145.58)">A</text><text class="bcd66b8f-61fb-4041-bd98-185e53fddf46" transform="translate(431.82 145.58)"> </text><text class="b2b96be3-c08f-4cd3-901e-5b91ad6785ca" transform="translate(440.79 145.58)">c</text><text class="a9fb985f-7a13-4b7e-82c3-f7f6fd0f8b8b" transform="translate(458.29 145.58)">o</text><text class="a5c0438a-7dbe-4ee1-99bc-2b358bded697" transform="translate(479.69 145.58)">m</text><text class="b2c56cf7-6992-4499-a37b-7fb36aa3aa89" transform="translate(513.99 145.58)">pu<tspan class="a2d05833-5edd-4da9-a82d-200521fb0dd4" x="44.7" y="0">t</tspan></text><text class="a9fb985f-7a13-4b7e-82c3-f7f6fd0f8b8b" transform="translate(572.09 145.58)">e</text><text class="a19be173-512d-4394-ba6a-7c3559864e3f" transform="translate(591.06 145.58)">r</text><text class="bcd66b8f-61fb-4041-bd98-185e53fddf46" transform="translate(604.88 145.58)"> </text><text class="eb31c88f-5e27-4bb3-9e8c-0045c7da8baf" transform="translate(614.05 145.58)">s</text><text class="a9fb985f-7a13-4b7e-82c3-f7f6fd0f8b8b" transform="translate(630.08 145.58)">c</text><text class="b2c56cf7-6992-4499-a37b-7fb36aa3aa89" transform="translate(648.35 145.58)">ien<tspan class="a2d05833-5edd-4da9-a82d-200521fb0dd4" x="53.23" y="0">c</tspan></text><text class="b7aea6ac-1d61-469d-a122-fda5c3f9de60" transform="translate(719.07 145.58)">e</text><text class="bcd66b8f-61fb-4041-bd98-185e53fddf46" transform="translate(737.07 145.58)"> </text><text class="a9fb985f-7a13-4b7e-82c3-f7f6fd0f8b8b" transform="translate(746.43 145.58)">p</text><text class="a9fb985f-7a13-4b7e-82c3-f7f6fd0f8b8b" transform="translate(768.59 145.58)">o</text><text class="b2c56cf7-6992-4499-a37b-7fb36aa3aa89" transform="translate(789.99 145.58)">rtal </text><text class="bb9a2389-448c-4e51-a515-0e36fcbd7011" transform="translate(859.02 145.58)">f</text><text class="a9fb985f-7a13-4b7e-82c3-f7f6fd0f8b8b" transform="translate(870.99 145.58)">o</text><text class="a19be173-512d-4394-ba6a-7c3559864e3f" transform="translate(892.39 145.58)">r</text><text class="bcd66b8f-61fb-4041-bd98-185e53fddf46" transform="translate(906.22 145.58)"> </text><text class="bcd66b8f-61fb-4041-bd98-185e53fddf46" transform="translate(915.19 145.58)">g</text><text class="b7aea6ac-1d61-469d-a122-fda5c3f9de60" transform="translate(934.32 145.58)">e</text><text class="a9fb985f-7a13-4b7e-82c3-f7f6fd0f8b8b" transform="translate(953.3 145.58)">e</text><text class="b2c56cf7-6992-4499-a37b-7fb36aa3aa89" transform="translate(972.26 145.58)">k<tspan class="a04baaa0-bb9b-4f74-b038-d3eba636de39" x="21.17" y="0">s</tspan></text><text class="a6de0bcf-96cd-4e3a-9102-fe4b84fc8bb5" transform="translate(321.24 100.72) scale(0.99 1)">Geeks<tspan class="b7c2f9ca-3863-4ceb-91aa-27796cd3520a" x="309.18" y="0">f</tspan><tspan class="bf2ec7bc-52e7-48e2-9427-6c24d682fb21" x="345.15" y="0">orGeek</tspan><tspan class="a88466ea-1791-47bf-b5b9-9b1c070985a7" x="716.09" y="0">s</tspan></text></g></g></svg>