<svg id="Layer_1" data-name="Layer 1" xmlns="http://www.w3.org/2000/svg" xmlns:xlink="http://www.w3.org/1999/xlink" viewBox="0 0 1920 1080"><defs><style>.cls-1{opacity:0.9;fill:url(#linear-gradient);}.cls-2,.cls-3,.cls-4,.cls-5{fill:none;stroke-miterlimit:10;stroke-width:5px;}.cls-2{stroke:url(#linear-gradient-2);}.cls-3{stroke:url(#linear-gradient-3);}.cls-4{stroke:url(#linear-gradient-4);}.cls-5{stroke:url(#linear-gradient-5);}</style><linearGradient id="linear-gradient" x1="484.5" y1="484.5" x2="905.5" y2="484.5" gradientUnits="userSpaceOnUse"><stop offset="0" stop-color="#72049b"/><stop offset="1" stop-color="#0a53e5"/></linearGradient><linearGradient id="linear-gradient-2" x1="484.62" y1="452.81" x2="552.48" y2="452.81" gradientUnits="userSpaceOnUse"><stop offset="0" stop-color="#0513c6"/><stop offset="1" stop-color="#00abe0"/></linearGradient><linearGradient id="linear-gradient-3" x1="542.43" y1="441.07" x2="775.09" y2="441.07" xlink:href="#linear-gradient-2"/><linearGradient id="linear-gradient-4" x1="765.72" y1="453.05" x2="838.82" y2="453.05" xlink:href="#linear-gradient-2"/><linearGradient id="linear-gradient-5" x1="829.35" y1="453.05" x2="902.06" y2="453.05" xlink:href="#linear-gradient-2"/></defs><title>Artboard 1</title><rect class="cls-1" x="484.5" y="480.5" width="421" height="8" rx="4"/><path class="cls-2" d="M525.19,470.07a19.18,19.18,0,0,1-9,2.19,18.69,18.69,0,0,1-6.55-1.17,19.75,19.75,0,0,1-5.67-3.2l34.63-34.53H550v-9.7H516.22a29.15,29.15,0,1,0,0,58.3,28.48,28.48,0,0,0,13.68-3.4,28.92,28.92,0,0,0,10.18-8.92l-8-5.63A18.86,18.86,0,0,1,525.19,470.07Zm-28.37-17.21a18.84,18.84,0,0,1,1.55-7.62,19.66,19.66,0,0,1,10.33-10.33,18.61,18.61,0,0,1,7.52-1.55h8.63L498.18,460A19.5,19.5,0,0,1,496.82,452.86Z"/><path class="cls-3" d="M772.59,433.65V424H732.53a29.6,29.6,0,0,0-9.65,2.18,27.67,27.67,0,0,0-8.3,5.29V399.89h-9.7v24h-21V399.8h-9.7v24.25H658.91V453a18.42,18.42,0,0,1-1.56,7.52A19.66,19.66,0,0,1,647,470.8a19.24,19.24,0,0,1-15.13,0,19.66,19.66,0,0,1-10.33-10.33A18.58,18.58,0,0,1,620,453v-28.9h-5v-.2h-4.85a6.56,6.56,0,0,1-4.85-2.08,6.76,6.76,0,0,1-2-4.9V412h-.1V399.8h-9.7v31.62a28.53,28.53,0,0,0-9-5.58,29.15,29.15,0,0,0-31,47.87,29.1,29.1,0,0,0,35.11,4.66V466.05a20,20,0,0,1-6.45,4.75,18.8,18.8,0,0,1-8.1,1.75,18.61,18.61,0,0,1-7.52-1.55,19.75,19.75,0,0,1-10.33-10.33,18.61,18.61,0,0,1-1.55-7.52,18.84,18.84,0,0,1,1.55-7.62,19.66,19.66,0,0,1,10.33-10.33,18.61,18.61,0,0,1,7.52-1.55,19.09,19.09,0,0,1,7.52,1.5,19.94,19.94,0,0,1,6.16,4.08,19.59,19.59,0,0,1,5.82,13.53v29.39h9.7V431.9a15.38,15.38,0,0,0,7,1.65h.1V453a29.15,29.15,0,1,0,58.3,0v-19.2h5.52V453a29,29,0,0,0,29.1,29.1h1.65v.29h9.61l.09-29.19a18.84,18.84,0,0,1,1.55-7.62,19.75,19.75,0,0,1,10.33-10.33,18.61,18.61,0,0,1,7.52-1.55,19.09,19.09,0,0,1,7.52,1.5,19.94,19.94,0,0,1,6.16,4.08,19.59,19.59,0,0,1,5.82,13.53v29.29h9.7V452.57a28.1,28.1,0,0,0-7.47-18.92Zm-69.36,38.7a18.4,18.4,0,0,1-7.51-1.55,19.66,19.66,0,0,1-10.33-10.33,18.42,18.42,0,0,1-1.56-7.52v-19.4h21v38.8Z"/><path class="cls-4" d="M810.22,438.6a19.32,19.32,0,0,1,4.85,6.45,18.8,18.8,0,0,1,1.75,8.1,18.61,18.61,0,0,1-1.55,7.52A19.75,19.75,0,0,1,804.94,471a18.84,18.84,0,0,1-7.62,1.55,18.56,18.56,0,0,1-7.51-1.55,19.75,19.75,0,0,1-10.33-10.33,18.45,18.45,0,0,1-1.56-7.52,19.39,19.39,0,0,1,5.63-13.78,20.18,20.18,0,0,1,6.16-4.17,18.58,18.58,0,0,1,7.52-1.55h21.82l-.1-.1h17.37v-9.7h-40v.1a29.24,29.24,0,1,0,30.17,29.2,28.46,28.46,0,0,0-3.88-14.55Z"/><path class="cls-5" d="M899.56,423.85H859.5v.1a28,28,0,0,0-18,7.37v-.09a29.92,29.92,0,0,0-7.08,9.4,27,27,0,0,0-2.62,11.84v29.78h9.61l.09-29.2a18.64,18.64,0,0,1,1.56-7.61,19.66,19.66,0,0,1,10.33-10.33,18.41,18.41,0,0,1,7.51-1.56,19.06,19.06,0,0,1,7.52,1.51,19.3,19.3,0,0,1,10.33,10.13,19.2,19.2,0,0,1,1.65,7.47V482h9.7V452.47a28.82,28.82,0,0,0-7.47-18.92h16.88Z"/></svg>