<svg xmlns="http://www.w3.org/2000/svg" viewBox="0 0 1074.91 159.46"><defs><style>.f4da7090-3487-445e-8328-28ec923b9da3{fill:#2ea127;}.a200fb1d-295e-4a12-b18a-b94e842b76c3,.a3f1a343-e39f-4c8c-898c-e688eb58b0b0,.a6f7c5b2-0323-4171-921c-d642066bcc05,.aa6c9ead-5a5e-4157-9b94-e6854d2f54ce,.ba243e81-a202-4622-8a10-dd723bc88efa,.be8aac62-e1af-48ad-8840-8c11c44455b2,.f3870acd-ce12-40da-b042-82ca3561d022,.fa69dc28-7a65-4365-9f05-714562665fbb{isolation:isolate;}.a200fb1d-295e-4a12-b18a-b94e842b76c3,.a3f1a343-e39f-4c8c-898c-e688eb58b0b0,.a6f7c5b2-0323-4171-921c-d642066bcc05,.aa6c9ead-5a5e-4157-9b94-e6854d2f54ce,.aa871aa4-4961-44f0-8268-667c4ca602d3,.ba243e81-a202-4622-8a10-dd723bc88efa,.be8aac62-e1af-48ad-8840-8c11c44455b2,.f3870acd-ce12-40da-b042-82ca3561d022,.fa69dc28-7a65-4365-9f05-714562665fbb{font-size:39.6px;fill:#eae7e7;}.a200fb1d-295e-4a12-b18a-b94e842b76c3,.a3f1a343-e39f-4c8c-898c-e688eb58b0b0,.a6f7c5b2-0323-4171-921c-d642066bcc05,.aa6c9ead-5a5e-4157-9b94-e6854d2f54ce,.aa871aa4-4961-44f0-8268-667c4ca602d3,.b24d6515-126f-4f72-8fe1-bbc71593ca32,.ba243e81-a202-4622-8a10-dd723bc88efa,.be8aac62-e1af-48ad-8840-8c11c44455b2,.f3870acd-ce12-40da-b042-82ca3561d022,.fa69dc28-7a65-4365-9f05-714562665fbb{font-family:Constantia;}.a3f1a343-e39f-4c8c-898c-e688eb58b0b0{letter-spacing:-0.01em;}.be8aac62-e1af-48ad-8840-8c11c44455b2{letter-spacing:-0.02em;}.ba243e81-a202-4622-8a10-dd723bc88efa,.bd385168-cec1-4026-8344-0af8ebe53691{letter-spacing:-0.02em;}.fa69dc28-7a65-4365-9f05-714562665fbb{letter-spacing:-0.03em;}.a200fb1d-295e-4a12-b18a-b94e842b76c3,.a5c920e6-983e-4ec6-9260-2abe71f5df3c{letter-spacing:-0.02em;}.a6f7c5b2-0323-4171-921c-d642066bcc05{letter-spacing:-0.02em;}.f3870acd-ce12-40da-b042-82ca3561d022{letter-spacing:0.02em;}.b24d6515-126f-4f72-8fe1-bbc71593ca32{font-size:117.03px;fill:#fff;stroke:#fff;stroke-miterlimit:10;stroke-width:2px;}.acbe62f6-dc1b-41c0-be20-9930d5a7e925{letter-spacing:-0.01em;}.f32337b5-e8b2-49b1-b125-d5a596d00de6{letter-spacing:0em;}.bd31c33c-f06c-49a0-b713-8b523c73ea15{letter-spacing:-0.02em;}</style></defs><title>Asset 1</title><g id="b615b93a-46bd-4675-a6d3-ec4baddc611d" data-name="Layer 2"><g id="a47648b1-259d-432b-a691-030dd0d8a6fd" data-name="Layer 1"><path class="f4da7090-3487-445e-8328-28ec923b9da3" d="M.4,88H102.18c6.21,0,6.56-.25,6.55-6.44,0-16.27-2.08-32.14-10.44-46.49-8.69-15-21.87-21.48-38.92-19.9C48.31,16.21,40.1,22.65,34.92,32c-4.1,7.42-7,15.64-9.73,23.72-1.1,3.17-2.81,4.1-5.24,3.17-1.22-.45-2.44-2.73-2.45-4.28q-.12-20,.32-40c0-1.47,1.36-4.2,2-4.1,2.2.15,5.61.63,6.28,2.07,2.29,4.84,4.84,3.59,8.31,1.69C60.71-.2,97.68,7.4,116.27,34c10.19,14.59,14.44,30.56,14.5,48,0,6.16.35,6.14,6.15,6.2,3.76,0,4.2-1.85,4.1-4.88a83.33,83.33,0,0,1,7.24-36.66c14.05-30.42,44.06-45.35,76.22-37.74,5.13,1.2,9.94,3.88,14.78,6.14,2.63,1.22,4.65,1.56,5.87-1.59,1.37-3.58,4.51-3.8,7.2-2.73,1.19.44,2,3.34,2.06,5.14.16,14.1.08,28.19.08,42.25-5.69,2-6.26,1.45-8.21-4-2.73-7.6-5.08-15.58-9.24-22.38C224.72,11.57,197.37,9,180.83,25.92c-10.15,10.32-14.28,23.39-16.26,37.26A145.67,145.67,0,0,0,163.2,82c-.08,5.94.37,6.1,6.36,6.1H271.09c2.12,6.06,1.51,7.15-4.1,7.79-8.2,1-12.15,5.08-12.18,13.32,0,10,.23,19.92.53,29.89.09,2.54-.27,4.1-3,5.31a111.7,111.7,0,0,1-52.33,10A55.89,55.89,0,0,1,168,142c-13.58-10.64-21.72-24.8-25.11-41.62-.78-3.87-2.17-5.47-6.25-5.28s-6.45,0-7.57,5.35c-5.47,25.8-20.13,44.49-45.85,52-13.67,4.11-28.3,2.85-42.28-.89-7.08-1.9-13.86-4.85-20.83-7.16-2.64-.88-3.48-2.41-3.38-5.13.34-9,.6-18.07.64-27.11,0-11.91-2.33-14.63-14.13-16.79C-.25,94.79-.4,94.47.4,88Zm194.66,6.7v.5H168.4c-2.38,0-4.64.37-3.59,3.57,2.87,8.68,4.78,17.91,9.06,25.84a41.48,41.48,0,0,0,57.34,16.9c2.91-1.62,4.77-3.54,4.84-7.11.12-7.49.67-15,.71-22.49,0-10.94-4.1-15.33-15-16-8.89-.54-17.8-.82-26.66-1.21Zm-87.41.93c-2.27-.16-4.1-.39-5.81-.39H62.76c-4.1,0-8.21.23-12.39.58-11.17.93-14.7,4.56-14.86,15.56a213.45,213.45,0,0,0,.42,22c.23,2.61,2,6.18,4.19,7.39,14.12,7.86,28.89,8.81,42.74,0C99,130.67,104.6,114.08,107.63,95.64Z"/><text class="a3f1a343-e39f-4c8c-898c-e688eb58b0b0" transform="translate(416.7 149.54)">A</text><text class="aa6c9ead-5a5e-4157-9b94-e6854d2f54ce" transform="translate(442.82 149.54)"> </text><text class="be8aac62-e1af-48ad-8840-8c11c44455b2" transform="translate(451.79 149.54)">c</text><text class="ba243e81-a202-4622-8a10-dd723bc88efa" transform="translate(469.29 149.54)">o</text><text class="a3f1a343-e39f-4c8c-898c-e688eb58b0b0" transform="translate(490.69 149.54)">m</text><text class="aa871aa4-4961-44f0-8268-667c4ca602d3" transform="translate(524.99 149.54)">pu<tspan class="bd385168-cec1-4026-8344-0af8ebe53691" x="44.7" y="0">t</tspan></text><text class="ba243e81-a202-4622-8a10-dd723bc88efa" transform="translate(583.09 149.54)">e</text><text class="fa69dc28-7a65-4365-9f05-714562665fbb" transform="translate(602.06 149.54)">r</text><text class="aa6c9ead-5a5e-4157-9b94-e6854d2f54ce" transform="translate(615.88 149.54)"> </text><text class="a200fb1d-295e-4a12-b18a-b94e842b76c3" transform="translate(625.05 149.54)">s</text><text class="ba243e81-a202-4622-8a10-dd723bc88efa" transform="translate(641.08 149.54)">c</text><text class="aa871aa4-4961-44f0-8268-667c4ca602d3" transform="translate(659.35 149.54)">ien<tspan class="bd385168-cec1-4026-8344-0af8ebe53691" x="53.23" y="0">c</tspan></text><text class="a6f7c5b2-0323-4171-921c-d642066bcc05" transform="translate(730.07 149.54)">e</text><text class="aa6c9ead-5a5e-4157-9b94-e6854d2f54ce" transform="translate(748.07 149.54)"> </text><text class="ba243e81-a202-4622-8a10-dd723bc88efa" transform="translate(757.43 149.54)">p</text><text class="ba243e81-a202-4622-8a10-dd723bc88efa" transform="translate(779.59 149.54)">o</text><text class="aa871aa4-4961-44f0-8268-667c4ca602d3" transform="translate(800.99 149.54)">rtal </text><text class="f3870acd-ce12-40da-b042-82ca3561d022" transform="translate(870.02 149.54)">f</text><text class="ba243e81-a202-4622-8a10-dd723bc88efa" transform="translate(881.99 149.54)">o</text><text class="fa69dc28-7a65-4365-9f05-714562665fbb" transform="translate(903.39 149.54)">r</text><text class="aa6c9ead-5a5e-4157-9b94-e6854d2f54ce" transform="translate(917.22 149.54)"> </text><text class="aa6c9ead-5a5e-4157-9b94-e6854d2f54ce" transform="translate(926.19 149.54)">g</text><text class="a6f7c5b2-0323-4171-921c-d642066bcc05" transform="translate(945.32 149.54)">e</text><text class="ba243e81-a202-4622-8a10-dd723bc88efa" transform="translate(964.3 149.54)">e</text><text class="aa871aa4-4961-44f0-8268-667c4ca602d3" transform="translate(983.26 149.54)">k<tspan class="a5c920e6-983e-4ec6-9260-2abe71f5df3c" x="21.17" y="0">s</tspan></text><text class="b24d6515-126f-4f72-8fe1-bbc71593ca32" transform="translate(329.24 99.69) scale(0.99 1)">Geeks<tspan class="acbe62f6-dc1b-41c0-be20-9930d5a7e925" x="304.06" y="0">f</tspan><tspan class="f32337b5-e8b2-49b1-b125-d5a596d00de6" x="339.43" y="0">orGeek</tspan><tspan class="bd31c33c-f06c-49a0-b713-8b523c73ea15" x="704.23" y="0">s</tspan></text></g></g></svg>