<svg xmlns="http://www.w3.org/2000/svg" xmlns:xlink="http://www.w3.org/1999/xlink" viewBox="0 0 500 77.3"><defs><style>.a3c1eb86-3e86-473a-9d59-e84485747a29{isolation:isolate;}.ee2152b8-d31c-4131-8508-bc88146f4364{fill:#1c1d1d;}.b87d1bd2-7a65-4e5a-bf8f-2bd87cd8a62f{fill:#093aa8;}.a08ed7a9-7e66-4945-9383-d008717da912{fill:#8dd7f7;}.ebb27c5f-ab63-4170-b53c-c64926680dfe{fill:#00bcf1;}.bda7074a-0f47-4255-9f32-094199264908{mix-blend-mode:multiply;fill:url(#a04d695f-97c3-4bee-a764-0ac885fc7d58);}</style><linearGradient id="a04d695f-97c3-4bee-a764-0ac885fc7d58" x1="-597.75" y1="-1280.67" x2="-582.32" y2="-1261.8" gradientTransform="matrix(0.86, -0.52, -0.52, -0.86, 250.03, -1371.64)" gradientUnits="userSpaceOnUse"><stop offset="0" stop-color="#fff"/><stop offset="1" stop-color="#0089bb"/></linearGradient></defs><title>Asset 3</title><g class="a3c1eb86-3e86-473a-9d59-e84485747a29"><g id="b19f69c9-590c-401a-b499-c0ea2fbbfdf8" data-name="Layer 2"><g id="a8a630a4-b021-43ed-b30f-f61092d7095c" data-name="Background"><path class="ee2152b8-d31c-4131-8508-bc88146f4364" d="M212.24,54.84c49.15-12.53,92.24-34,144.66-41.5,34.76-5,90.28-5.95,143.1,22.71V77.3H0V46.16A478.23,478.23,0,0,0,79.39,61.75C123.67,66.68,170.37,65.53,212.24,54.84Z"/><path class="b87d1bd2-7a65-4e5a-bf8f-2bd87cd8a62f" d="M121.07,52.09c42.48-.06,83.44-7.07,121.74-18C280.23,23.38,316.26,10.64,356.9,4.85,387.65.46,434.64-.81,481.64,18.79,431.13,1,383.6,4.86,353.18,11c-39.63,8-73.64,22.67-109.33,35.37C227.31,52.26,209.77,57.62,192.06,62a273.63,273.63,0,0,1-66,8.32c-1,0-2,.06-3,.15-14.66-.2-29.31-1.16-43.71-2.76A478.23,478.23,0,0,1,0,52.16V36.37S80.53,52.15,121.07,52.09Z"/><path class="a08ed7a9-7e66-4945-9383-d008717da912" d="M109.84,26.56c42,3.92,84.22.84,124.82-6.38C274.33,13.12,313.13,3.92,354.75,2a277.84,277.84,0,0,1,27.9.12,271.58,271.58,0,0,0-31.57,2C310.12,9,273.39,21,235.37,30.83,196.47,41,155.13,47.07,112.67,46.22,72.15,45.41,0,28,0,28V0S69.76,22.81,109.84,26.56Z"/><path class="ebb27c5f-ab63-4170-b53c-c64926680dfe" d="M117.1,32.5c42.2,3,84.22-1,124.38-9.06,39.24-7.9,77.49-17.93,119-20.73a272.41,272.41,0,0,1,27.9-.48A269.14,269.14,0,0,0,356.9,4.85c-40.64,5.79-76.67,18.53-114.09,29.22-38.3,11-79.26,18-121.74,18C56,52.09,0,36.37,0,36.37v-28S76.84,29.61,117.1,32.5Z"/><g id="a022923f-0c26-42b4-beb4-ab8076fe1c43" data-name="Shadow"><path class="bda7074a-0f47-4255-9f32-094199264908" d="M497.33,53.67C474.72,40.21,409.57,9.2,301.77,37c0,0,5.7,36.93,8.62,33C405,54,500.47,55.54,497.33,53.67Z"/></g></g></g></g></svg>