<svg xmlns="http://www.w3.org/2000/svg" id="fc5a1eda-3bbe-46e8-8f17-461a999ed3d8" data-name="eqv68vri9tyf1" viewBox="0 0 300 360.39"><defs><style>.be2a627a-b7c0-4d31-8c6e-9de167f4de3b,.f79859cb-0826-4d54-a81b-dc22084229e0{fill:#300ba6}.f79859cb-0826-4d54-a81b-dc22084229e0{opacity:.92}.b47fce54-4255-4da7-8386-11fdb2c01209{fill:#3f3d56}.b78b435b-6787-436e-97e2-e96fd07ec415{fill:#fbc661}.f14669ed-2107-4f7c-a41a-57f1d171b2a5{fill:#fbb3b2}.ef961681-88ee-41cf-904f-978f03b299a2{opacity:.05}.af96c424-0f1b-4332-8d39-8e09ada11331,.b0c8e1d1-eeaa-42f8-a072-e606bff32173,.b54f51c1-9e9b-4d8c-ba12-f6adc72b5d1d,.bc2ea3c9-9d5f-4597-aa21-f6216a6f2520,.be2a627a-b7c0-4d31-8c6e-9de167f4de3b,.ef961681-88ee-41cf-904f-978f03b299a2{isolation:isolate}.b54f51c1-9e9b-4d8c-ba12-f6adc72b5d1d{opacity:.1}.a04d93b5-d764-41ac-a1c5-7a47a2b27f3e{fill:#6c63ff}.b8bfe432-d3e9-4a87-a2d3-54b3635c0dbb{fill:#eeeff3}.a35cc74d-565f-48ff-a27c-a2c11d0c3ff8{opacity:.8}.be2a627a-b7c0-4d31-8c6e-9de167f4de3b{opacity:.75}.b0c8e1d1-eeaa-42f8-a072-e606bff32173{font-size:28.3px}.af96c424-0f1b-4332-8d39-8e09ada11331,.b0c8e1d1-eeaa-42f8-a072-e606bff32173,.bc2ea3c9-9d5f-4597-aa21-f6216a6f2520{fill:#fff;font-family:CeraPro-Bold,Cera Pro;font-weight:700}.a50a8799-2f15-4daf-ac77-5bd092b4b51a,.ba2042ec-8319-4b34-bea5-b98286367a94{letter-spacing:-.05em}.b065da5c-6546-4e40-9753-469a3959ad94{letter-spacing:-.07em}.e4ce4cfa-d101-4a3c-a185-b1dbee80c7c8{letter-spacing:0}.af96c424-0f1b-4332-8d39-8e09ada11331{font-size:30px}.b0afaf00-c79b-44a1-ad64-2c232bf84790{letter-spacing:-.02em}.bc2ea3c9-9d5f-4597-aa21-f6216a6f2520{opacity:0;font-size:47.7px;letter-spacing:0}.bfaac607-c6eb-419a-8f98-8636681781f0{letter-spacing:0}</style></defs><title>bestgirls</title><g id="f76d9a14-93f3-43e9-ac7e-61980e2fb89d" data-name="eqv68vri9tyf2"><g id="b0e7c15e-9757-4964-8904-f2986c8a56c9" data-name="eqv68vri9tyf3"><rect id="e73de9eb-f0ce-48f8-9918-258629c96a58" width="300" height="360" y=".35" class="f79859cb-0826-4d54-a81b-dc22084229e0" data-name="eqv68vri9tyf4"/><path d="M136.27,152.82c-4.33,7.36-5,16.22-6.45,24.63-2.29,13-6.77,25.6-9,38.63-.79,4.56-1.3,9.19-2.55,13.64-1.72,6.12-4.79,11.77-7.67,17.42-4.89,9.66-9.34,19.7-11.17,30.37-.57,3.33-.13,7.84,3.17,8.56.94.21,2,0,2.8.58a6.74,6.74,0,0,1,1.15,1.23c1.45,1.59,3.94,1.78,6,1.2s3.87-1.86,5.79-2.86c7.62-3.92,16.64-3.45,25.19-2.89,1.57.1,3.34.29,4.33,1.52a12.65,12.65,0,0,1,1.09,2.14,5.91,5.91,0,0,0,7.46,2.56c1-.46,1.83-1.2,2.85-1.58,3.13-1.16,6.42,1.36,9.77,1.38,4.81,0,8.43-5.08,13.24-5.25,3.28-.12,6.28,2.12,9.56,2.14,2.46,0,4.73-1.24,6.87-2.45l14.62-8.26a60.62,60.62,0,0,0-14.17-14.15c-4-2.85-5.11-8.56-7.57-12.84a35.63,35.63,0,0,1-4.05-8.86c-.57-2.29-.68-4.66-1.25-7-.78-3.15-2.39-6-3.66-9-5.07-11.83-4.9-25.32-9.53-37.32-1.31-3.38-3-6.61-4.15-10-1.52-4.52-2.12-9.31-3.66-13.83s-4.28-8.94-8.65-10.89a17.4,17.4,0,0,0-6-1.29A31.57,31.57,0,0,0,136.27,152.82Z" class="b47fce54-4255-4da7-8386-11fdb2c01209"/><rect width="20.34" height="27.12" x="134.96" y="92.86" class="b78b435b-6787-436e-97e2-e96fd07ec415"/><path d="M154.75,113.9a20.44,20.44,0,0,0-3.13,0c-2.57,0-3.31,3.07-5.87,3.32-3.13.31-7.46-1.67-10.08.08a10.22,10.22,0,0,1-1.51.87c-2.14.94-4.75.59-6.71,1.87s-2.67,3.81-2.67,6.15a6.23,6.23,0,0,0,.35,2.46c.28.67.73,1.25,1,1.91.19.47.29,1,.45,1.46a11.87,11.87,0,0,0,1.79,3.08l4.52,6.3c1.19,1.66.72,3.7.91,5.73.14,1.56.51,3.1.5,4.66a5.71,5.71,0,0,1-1.6,4.28q4-.24,8-.74c2.2-.27,4.39-.59,6.6-.75a86.11,86.11,0,0,1,13.9.52,7.36,7.36,0,0,1-1.29-3.47c-.63-4-1-8.16.28-12a31,31,0,0,1,1.48-3.33l1.41-2.83c2-4,3.86-8.12,4.28-12.58a6.83,6.83,0,0,0-.39-3.38,5.52,5.52,0,0,0-3.39-2.82,12,12,0,0,0-4.49-.4A23.09,23.09,0,0,1,154.75,113.9Z" class="b47fce54-4255-4da7-8386-11fdb2c01209"/><path d="M140.11,112a4.33,4.33,0,0,1,.46,2.64c-.47,1.74-2.87,2.09-3.92,3.56a.74.74,0,0,0-.16.75.71.71,0,0,0,.19.23c2,1.7,4.79,1.85,7.38,1.82,3.79,0,7.83-.36,10.83-2.65.83-.64,1.62-1.71,1.19-2.68-.33-.73-1.2-1-1.92-1.38a7.35,7.35,0,0,1-3.43-4.07,15.89,15.89,0,0,1-.84-5.35,1.13,1.13,0,0,0-1.34-1.33,34.48,34.48,0,0,0-7.32.3c-.68.1-2,.19-2.47.75s-.2,1.22-.11,1.83A27.45,27.45,0,0,0,140.11,112Z" class="f14669ed-2107-4f7c-a41a-57f1d171b2a5"/><path d="M140.11,112a4.33,4.33,0,0,1,.46,2.64c-.47,1.74-2.87,2.09-3.92,3.56a.74.74,0,0,0-.16.75.71.71,0,0,0,.19.23c2,1.7,4.79,1.85,7.38,1.82,3.79,0,7.83-.36,10.83-2.65.83-.64,1.62-1.71,1.19-2.68-.33-.73-1.2-1-1.92-1.38a7.35,7.35,0,0,1-3.43-4.07,15.89,15.89,0,0,1-.84-5.35,1.13,1.13,0,0,0-1.34-1.33,34.48,34.48,0,0,0-7.32.3c-.68.1-2,.19-2.47.75s-.2,1.22-.11,1.83A27.45,27.45,0,0,0,140.11,112Z" class="ef961681-88ee-41cf-904f-978f03b299a2"/><circle cx="144.71" cy="99.43" r="9.13" class="f14669ed-2107-4f7c-a41a-57f1d171b2a5"/><path d="M153.42,288a12.54,12.54,0,0,0-2.06,1.14,5.83,5.83,0,0,0,5.45.43c.69-.32,1.31-.78,2-1.16C157,287.83,155.16,287.34,153.42,288Z" class="b54f51c1-9e9b-4d8c-ba12-f6adc72b5d1d"/><path d="M112.51,286.24c-1.55.79-3,1.76-4.61,2.42a6.57,6.57,0,0,0,5,.42,33.35,33.35,0,0,0,5.78-2.85,32.77,32.77,0,0,1,13.5-3.21C125.4,282.79,118.52,283.15,112.51,286.24Z" class="b54f51c1-9e9b-4d8c-ba12-f6adc72b5d1d"/><path d="M199.54,261.38c-4-2.85-5.11-8.56-7.57-12.84a35.53,35.53,0,0,1-4.05-8.87c-.57-2.28-.68-4.65-1.25-6.94-.78-3.15-2.38-6-3.66-9-5.06-11.82-4.9-25.31-9.53-37.31-1.31-3.38-3-6.62-4.15-10-1.52-4.52-2.14-9.32-3.66-13.83s-4.28-8.95-8.65-10.89a17.3,17.3,0,0,0-6-1.29,29.64,29.64,0,0,0-5.16.09,16,16,0,0,1,4.91,1.21c4.35,1.94,7.1,6.37,8.64,10.89s2.14,9.3,3.67,13.83c1.16,3.43,2.85,6.66,4.14,10,4.64,12,4.47,25.5,9.53,37.32,1.28,3,2.89,5.86,3.67,9,.56,2.28.67,4.66,1.25,6.94a35.69,35.69,0,0,0,4,8.87c2.46,4.28,3.54,10,7.57,12.84a60.58,60.58,0,0,1,14.17,14.14l-14.62,8.26a24.67,24.67,0,0,1-3.83,1.87,11,11,0,0,0,3.21.58c2.46,0,4.72-1.25,6.86-2.45l14.62-8.26A60.56,60.56,0,0,0,199.54,261.38Z" class="b54f51c1-9e9b-4d8c-ba12-f6adc72b5d1d"/><path d="M176.43,284.11c-3.76.14-6.81,3.3-10.26,4.64a11.52,11.52,0,0,0,3.24.6c3.88,0,7-3.28,10.55-4.66A10.58,10.58,0,0,0,176.43,284.11Z" class="b54f51c1-9e9b-4d8c-ba12-f6adc72b5d1d"/><path d="M144.16,151.69V145h-3.27a34.88,34.88,0,0,0,.64-5.95s1.53-4.15.28-7.61a1.11,1.11,0,0,0,1.35-.82.69.69,0,0,0,0-.28c.14-1.39,2.08-4.85-1.66-5.82l-.38-1.07a2.63,2.63,0,0,0,.38-1.42c0-1.15-.62-2.08-1.38-2.08s-1.38.93-1.38,2.08a2.54,2.54,0,0,0,.46,1.55l-.19,1.23s-3.87-1-2.21,5.54c0,0,.41,1.1,1.1,1.1,0,0-.41,5,.28,6.78,0,0-.28,4.42.28,5.39V145H135v6.85c-1.78.41-2.91,1-2.91,1.73,0,1.23,3.47,2.22,7.75,2.22s7.75-1,7.75-2.22C147.62,152.76,146.25,152.08,144.16,151.69Z" class="a04d93b5-d764-41ac-a1c5-7a47a2b27f3e"/><path d="M140.22,121.91a2.69,2.69,0,0,1-.38,1.43l.38,1.07c3.73,1,1.8,4.42,1.66,5.8a1.13,1.13,0,0,1-1.11,1.14,1.24,1.24,0,0,1-.27,0c1.24,3.46-.28,7.61-.28,7.61a36.9,36.9,0,0,1-.64,5.95h1.24a34.83,34.83,0,0,0,.65-5.95s1.52-4.15.27-7.61a1.13,1.13,0,0,0,1.36-.83,1.27,1.27,0,0,0,0-.28c.14-1.38,2.07-4.84-1.66-5.8l-.38-1.07a2.79,2.79,0,0,0,.38-1.43c0-1.15-.62-2.08-1.38-2.08a1.1,1.1,0,0,0-.63.23A2.35,2.35,0,0,1,140.22,121.91Z" class="b54f51c1-9e9b-4d8c-ba12-f6adc72b5d1d"/><path d="M144.09,151.62v-6.74h-1.24v6.74c2.08.4,3.46,1.07,3.46,1.84,0,1.17-3.14,2.12-7.13,2.21h.62c4.28,0,7.75-1,7.75-2.22C147.55,152.69,146.17,152,144.09,151.62Z" class="b54f51c1-9e9b-4d8c-ba12-f6adc72b5d1d"/><path d="M147.79,86.61c-2.85-.72-5.92-1.26-8.64-.17a12.56,12.56,0,0,0-3.39,2.24,8.34,8.34,0,0,0-2.31,2.81,11.64,11.64,0,0,0-.56,4.37,6.41,6.41,0,0,1-1.21,4.16,6.32,6.32,0,0,0-1.13,1.3,2.71,2.71,0,0,0,.23,2.31,9.8,9.8,0,0,1,1,2.2A4.43,4.43,0,0,1,131,109c-.6,1-1.39,1.76-2,2.69a3.31,3.31,0,0,0-.54,3.29c.35.66,1.09,1.07,1.46,1.72.18.31.27.67.45,1a3.33,3.33,0,0,0,2.6,1.13c1.56.17,3.3.22,4.51-.78a4.7,4.7,0,0,0,1.45-2.81c.21-1.06.21-2.14.4-3.21a8.59,8.59,0,0,0,.29-2.3,8,8,0,0,0-1.15-2.85,7.87,7.87,0,0,1-.95-4.2,4.54,4.54,0,0,1,2.18-3.56c.9-.5,2-.62,2.77-1.31,1.21-1.07,1-3,1.25-4.56a2.13,2.13,0,0,1,.34-1,2.3,2.3,0,0,1,1.71-.71,6.76,6.76,0,0,1,4.33.86,5.66,5.66,0,0,1,2.25,3.45,9.87,9.87,0,0,1-.08,4.19c0-.6,1-.76,1.41-.35a1.86,1.86,0,0,1,.33,1.71c-.5,2.49-2.76,4.27-3.52,6.7a6,6,0,0,0,1.3,5.81,1.7,1.7,0,0,0,.71.51,3.18,3.18,0,0,0,.87,0,4.89,4.89,0,0,1,3,1.52,5.38,5.38,0,0,0,2.94,1.63c1.16.09,2.4-.95,2.06-2a2.38,2.38,0,0,0-.58-.85,11.18,11.18,0,0,1-2.14-2.21c-.86-1.51-.34-3.39.2-5s1.07-3.54.19-5a20.79,20.79,0,0,1-1.42-2,3.86,3.86,0,0,1-.28-1.38c-.07-1.72.36-3.48,0-5.16a6.31,6.31,0,0,0-3-3.88,8.59,8.59,0,0,0-2.38-1c-.33-.08-.82-.06-1-.31s-.3-.67-.59-.94A6,6,0,0,0,147.79,86.61Z" class="b78b435b-6787-436e-97e2-e96fd07ec415"/><path d="M153.62,97.73a1,1,0,0,0-1.14-.09,11.4,11.4,0,0,1-.25,2.25.89.89,0,0,1,1.39-.22.86.86,0,0,1,.2.26c.05-.16.09-.33.13-.49A1.87,1.87,0,0,0,153.62,97.73Z" class="ef961681-88ee-41cf-904f-978f03b299a2"/><path d="M157.23,97.08a3,3,0,0,0,0,.43,19.25,19.25,0,0,0,.07-2.94A21.15,21.15,0,0,0,157.23,97.08Z" class="ef961681-88ee-41cf-904f-978f03b299a2"/><path d="M152.23,99.89s0,.08,0,.12Z" class="ef961681-88ee-41cf-904f-978f03b299a2"/><path d="M158.18,109.59a16.08,16.08,0,0,1,.57-2.14,8.09,8.09,0,0,0,.56-4.06,14.33,14.33,0,0,1-.56,2.14A8.08,8.08,0,0,0,158.18,109.59Z" class="ef961681-88ee-41cf-904f-978f03b299a2"/><path d="M152.29,95.82a8.17,8.17,0,0,1,.14.84,9,9,0,0,0-.14-2.78A5.59,5.59,0,0,0,150,90.43a6.84,6.84,0,0,0-4.33-.87,2.27,2.27,0,0,0-1.71.72,2.1,2.1,0,0,0-.34,1c-.22,1.6,0,3.49-1.25,4.56-.76.69-1.87.82-2.77,1.31a4.6,4.6,0,0,0-2.18,3.57,6.63,6.63,0,0,0,.06,1.54,4.48,4.48,0,0,1,2.14-3.19c.9-.49,2-.62,2.77-1.3,1.21-1.07,1-3,1.25-4.57a2.08,2.08,0,0,1,.33-1,2.32,2.32,0,0,1,1.72-.71,6.76,6.76,0,0,1,4.33.86A5.61,5.61,0,0,1,152.29,95.82Z" class="ef961681-88ee-41cf-904f-978f03b299a2"/><path d="M160.93,115a2.18,2.18,0,0,1-1.71.71,5.53,5.53,0,0,1-2.94-1.62,5,5,0,0,0-3-1.53,3.09,3.09,0,0,1-.86,0,1.67,1.67,0,0,1-.72-.51,5.93,5.93,0,0,1-1.49-3.1,6.11,6.11,0,0,0,1.49,5,1.67,1.67,0,0,0,.72.51,3.09,3.09,0,0,0,.86,0,4.89,4.89,0,0,1,3,1.52,5.48,5.48,0,0,0,2.94,1.63c1.16.09,2.4-.95,2.06-2A1.94,1.94,0,0,0,160.93,115Z" class="ef961681-88ee-41cf-904f-978f03b299a2"/><path d="M131.67,105.51a3.39,3.39,0,0,0,.09-1.61,9.8,9.8,0,0,0-1-2.2c-.07-.15-.13-.3-.19-.45,0,0,0,0,0,.07a2.74,2.74,0,0,0,.23,2.32A13.93,13.93,0,0,1,131.67,105.51Z" class="ef961681-88ee-41cf-904f-978f03b299a2"/><path d="M139.46,109.12c-.06.32-.13.63-.19.95-.19,1.07-.2,2.14-.4,3.21a4.62,4.62,0,0,1-1.45,2.81c-1.21,1-2.95,1-4.51.78a3.33,3.33,0,0,1-2.6-1.13c-.18-.31-.27-.66-.45-1-.36-.65-1.1-1.07-1.46-1.72a.83.83,0,0,1-.07-.13,2.49,2.49,0,0,0,.07,2.07c.35.66,1.09,1.07,1.46,1.72.18.31.27.67.45,1a3.33,3.33,0,0,0,2.6,1.13c1.56.16,3.3.21,4.51-.78a4.7,4.7,0,0,0,1.45-2.81c.21-1.06.21-2.14.4-3.21a8.64,8.64,0,0,0,.29-2.3A3,3,0,0,0,139.46,109.12Z" class="ef961681-88ee-41cf-904f-978f03b299a2"/><path d="M126.17,122.67s-1.78,1-2.9,10-1.66,18.55-1.66,18.55,0,8,7.61,8.3a14.93,14.93,0,0,1,4,1.25c1,.69,16.19-4,9-5s-9.82-.55-9.82-.55-3.88-2.5-3.88-4.84S132.4,134,132.4,134Z" class="f14669ed-2107-4f7c-a41a-57f1d171b2a5"/><path d="M126.15,129.73c.19.47.29,1,.45,1.45a12.12,12.12,0,0,0,1.78,3.08c.91,1.27,2.36,4.24,3.26,5.5A21.62,21.62,0,0,1,134,134.5l-7.82-12.66s-.61.33-1.34,2.39c0,.38-.06.75-.07,1.12a6.21,6.21,0,0,0,.36,2.46C125.42,128.48,125.87,129.06,126.15,129.73Z" class="b47fce54-4255-4da7-8386-11fdb2c01209"/><path d="M153,104.08a.42.42,0,0,0-.28-.39v-.47a.4.4,0,0,0,.28-.38.42.42,0,1,0-.84,0,.41.41,0,0,0,.28.4v.47a.41.41,0,0,0,0,.78v.47a.4.4,0,0,0-.25.52.43.43,0,0,0,.25.26v.46a.43.43,0,0,0-.25.53.41.41,0,0,0,.53.25.4.4,0,0,0,.25-.53.44.44,0,0,0-.25-.25v-.46a.42.42,0,0,0,.26-.53.43.43,0,0,0-.26-.25v-.47A.41.41,0,0,0,153,104.08Z" class="b8bfe432-d3e9-4a87-a2d3-54b3635c0dbb"/><path d="M166.3,117.14a38.79,38.79,0,0,1,4.57,11.48c1.38,6.51,2.35,7.89,2.35,7.89s6.09,15.5-.69,16.47-18.68,0-18.68,0-24.08,4.15-15.64-1.39,15.09-4.84,15.09-4.84,10.11-.28,11.49-1.25l2.63-.27-6.23-17.71Z" class="f14669ed-2107-4f7c-a41a-57f1d171b2a5"/><path d="M159.87,127.31l2.9,6.77c2-4,4.22-8.8,4.64-13.19a16.58,16.58,0,0,0-.06-2.44,7.22,7.22,0,0,0-1.24-1.8Z" class="b47fce54-4255-4da7-8386-11fdb2c01209"/><g id="f513668c-b9cf-407b-b4b1-ed02b1f17a64" class="a35cc74d-565f-48ff-a27c-a2c11d0c3ff8" data-name="eqv68vri9tyf5 to"><path id="f0f49540-8d41-4a58-895d-c5d1006c8e4d" d="M300,65.5V353c0,4.08-2,7.39-4.4,7.39H4.4C2,360.35,0,357,0,353V138.73c28,22.21,65,38.36,100,33.62C162,164,181,96.82,230,75,255.94,63.45,281.6,63.18,300,65.5Z" class="be2a627a-b7c0-4d31-8c6e-9de167f4de3b" data-name="eqv68vri9tyf5"/></g><g id="bb920984-d14d-434a-9978-8acdf119ce4d" class="a35cc74d-565f-48ff-a27c-a2c11d0c3ff8" data-name="eqv68vri9tyf6 to"><path id="e283295c-e254-4b78-ac25-fa2bb3bc4c77" d="M0,345V8.64C0,3.87,2,0,4.4,0H295.6C298,0,300,3.87,300,8.64V259.31c-28-26-65-44.88-100-39.34-62,9.82-81,88.38-130,113.91C44.06,347.39,18.4,347.71,0,345Z" class="be2a627a-b7c0-4d31-8c6e-9de167f4de3b" data-name="eqv68vri9tyf6"/></g><text id="ed389272-6b09-4983-9527-889ad965374d" class="b0c8e1d1-eeaa-42f8-a072-e606bff32173" data-name="eqv68vri9tyf7" transform="translate(18.59 54.77) scale(1.09 1)">Best<tspan x="58.33" y="0" class="a50a8799-2f15-4daf-ac77-5bd092b4b51a"> </tspan><tspan x="64.84" y="0">All Girls</tspan><tspan x="166.93" y="0" class="ba2042ec-8319-4b34-bea5-b98286367a94"> </tspan><tspan x="173.43" y="0" class="b065da5c-6546-4e40-9753-469a3959ad94">T</tspan><tspan x="187.95" y="0" class="e4ce4cfa-d101-4a3c-a185-b1dbee80c7c8">eam</tspan></text><text id="b22bf8b4-9d12-4dc3-befb-b68991442d89" class="af96c424-0f1b-4332-8d39-8e09ada11331" data-name="eqv68vri9tyf7" transform="translate(38.42 333.12) scale(1.09 1)">E<tspan x="17.19" y="0" class="b0afaf00-c79b-44a1-ad64-2c232bf84790">x</tspan><tspan x="32.52" y="0">clusi</tspan><tspan x="96.27" y="0" class="b0afaf00-c79b-44a1-ad64-2c232bf84790">v</tspan><tspan x="112.44" y="0">e Prize</tspan></text><text id="e123c19f-b8a7-4ba3-8553-9f529233cc52" class="bc2ea3c9-9d5f-4597-aa21-f6216a6f2520" data-name="eqv68vri9tyf7" transform="translate(36.17 70.69) scale(1.09 1)">R<tspan x="30.29" y="0" class="bfaac607-c6eb-419a-8f98-8636681781f0">s. 3,500</tspan></text></g></g></svg>