<?xml version="1.0" encoding="UTF-8" standalone="no"?><!DOCTYPE svg PUBLIC "-//W3C//DTD SVG 1.1//EN" "http://www.w3.org/Graphics/SVG/1.1/DTD/svg11.dtd"><svg width="100%" height="100%" viewBox="0 0 358 258" version="1.1" xmlns="http://www.w3.org/2000/svg" xmlns:xlink="http://www.w3.org/1999/xlink" xml:space="preserve" xmlns:serif="http://www.serif.com/" style="fill-rule:evenodd;clip-rule:evenodd;stroke-linejoin:round;stroke-miterlimit:2;"><path d="M350.964,128.324l-13.064,0c-45.194,-80.15 -154.65,-32.131 -134.523,50.425l-23.437,0l0,-21.914l-6.223,0l0,21.914l-22.179,0l0,-22.112l-28.731,0l0,22.112l-21.052,0l0,-22.178l-7.547,0l0,22.178l-21.251,0l0,-22.112l-14.764,0l0,22.112l-58.193,0c0,-133.373 126.251,-201.477 230.323,-171.706c1.268,-3.311 4.28,-5.752 8.802,-7.043c4.256,2.347 7.316,6.526 8.836,13.057c3.244,1.306 6.456,2.713 9.631,4.225c0,0 5.764,-5.829 13.84,-5.762c4.105,5.958 4.039,15.643 4.039,15.643c32.76,20.797 60.041,54.062 75.493,101.161" style="fill:#fc5252;fill-rule:nonzero;"/><path d="M260.751,54.528c0,9.945 -8.063,18.008 -18.008,18.008c-9.945,0 -18.007,-8.063 -18.007,-18.008c0,-9.945 8.062,-18.007 18.007,-18.007c9.945,0 18.008,8.062 18.008,18.007" style="fill:#f9ffff;fill-rule:nonzero;"/><path d="M256.515,59.825c0,3.803 -3.084,6.885 -6.885,6.885c-3.803,0 -6.886,-3.082 -6.886,-6.885c0,-3.802 3.083,-6.885 6.886,-6.885c3.801,0 6.885,3.083 6.885,6.885" style="fill:#fc5252;fill-rule:nonzero;"/><g><path d="M2.095,256.692l0,-62.945l23.615,0c4.809,0 8.667,0.637 11.572,1.911c2.905,1.273 5.181,3.234 6.827,5.882c1.646,2.648 2.469,5.417 2.469,8.308c0,2.691 -0.73,5.224 -2.19,7.6c-1.46,2.376 -3.664,4.294 -6.612,5.753c3.807,1.117 6.733,3.02 8.78,5.711c2.047,2.691 3.07,5.868 3.07,9.532c0,2.948 -0.622,5.689 -1.868,8.222c-1.245,2.533 -2.783,4.487 -4.615,5.861c-1.832,1.374 -4.129,2.412 -6.892,3.113c-2.762,0.701 -6.147,1.052 -10.154,1.052l-24.002,0Zm8.33,-36.496l13.611,0c3.693,0 6.34,-0.244 7.943,-0.73c2.118,-0.63 3.714,-1.675 4.788,-3.134c1.073,-1.46 1.61,-3.292 1.61,-5.496c0,-2.09 -0.501,-3.929 -1.503,-5.518c-1.002,-1.588 -2.433,-2.676 -4.294,-3.263c-1.86,-0.587 -5.052,-0.88 -9.574,-0.88l-12.581,0l0,19.021Zm0,29.068l15.672,0c2.691,0 4.58,-0.1 5.668,-0.301c1.917,-0.343 3.52,-0.916 4.808,-1.717c1.289,-0.802 2.348,-1.968 3.178,-3.5c0.83,-1.531 1.245,-3.299 1.245,-5.302c0,-2.347 -0.601,-4.387 -1.803,-6.119c-1.203,-1.731 -2.87,-2.948 -5.003,-3.649c-2.132,-0.702 -5.202,-1.052 -9.209,-1.052l-14.556,0l0,21.64Z" style="fill:#fff;fill-rule:nonzero;"/><path d="M102.395,193.747l8.33,0l0,36.367c0,6.326 -0.716,11.35 -2.147,15.071c-1.431,3.721 -4.015,6.748 -7.75,9.081c-3.736,2.333 -8.638,3.499 -14.706,3.499c-5.897,0 -10.72,-1.016 -14.47,-3.048c-3.749,-2.033 -6.426,-4.974 -8.029,-8.824c-1.603,-3.85 -2.404,-9.109 -2.404,-15.779l0,-36.367l8.33,0l0,36.324c0,5.467 0.508,9.496 1.524,12.087c1.016,2.59 2.762,4.587 5.238,5.989c2.476,1.403 5.503,2.104 9.081,2.104c6.126,0 10.491,-1.388 13.096,-4.165c2.605,-2.776 3.907,-8.115 3.907,-16.015l0,-36.324Z" style="fill:#fff;fill-rule:nonzero;"/><path d="M154.047,232.003l0,-7.385l26.664,-0.043l0,23.358c-4.093,3.263 -8.315,5.717 -12.666,7.363c-4.351,1.646 -8.817,2.469 -13.396,2.469c-6.183,0 -11.801,-1.324 -16.853,-3.971c-5.052,-2.648 -8.866,-6.477 -11.443,-11.486c-2.576,-5.009 -3.864,-10.605 -3.864,-16.788c0,-6.126 1.281,-11.843 3.843,-17.153c2.562,-5.31 6.247,-9.253 11.056,-11.829c4.809,-2.576 10.348,-3.864 16.617,-3.864c4.551,0 8.666,0.737 12.344,2.211c3.678,1.474 6.562,3.528 8.651,6.161c2.09,2.634 3.679,6.068 4.766,10.305l-7.513,2.061c-0.945,-3.206 -2.119,-5.725 -3.521,-7.557c-1.403,-1.832 -3.407,-3.299 -6.011,-4.401c-2.605,-1.102 -5.496,-1.653 -8.674,-1.653c-3.807,0 -7.098,0.58 -9.875,1.739c-2.776,1.159 -5.016,2.683 -6.719,4.573c-1.704,1.889 -3.027,3.964 -3.972,6.225c-1.603,3.893 -2.405,8.115 -2.405,12.667c0,5.61 0.967,10.304 2.899,14.083c1.932,3.778 4.744,6.583 8.437,8.415c3.692,1.832 7.614,2.748 11.764,2.748c3.607,0 7.128,-0.694 10.563,-2.082c3.435,-1.388 6.039,-2.87 7.814,-4.444l0,-11.722l-18.506,0Z" style="fill:#fff;fill-rule:nonzero;"/><path d="M190.157,236.469l7.857,-0.687c0.372,3.148 1.238,5.732 2.598,7.75c1.36,2.018 3.471,3.649 6.333,4.894c2.863,1.246 6.083,1.868 9.661,1.868c3.177,0 5.982,-0.472 8.415,-1.417c2.433,-0.944 4.244,-2.24 5.432,-3.885c1.188,-1.646 1.782,-3.442 1.782,-5.389c0,-1.975 -0.573,-3.7 -1.718,-5.174c-1.145,-1.474 -3.034,-2.712 -5.667,-3.714c-1.689,-0.658 -5.425,-1.681 -11.207,-3.07c-5.782,-1.388 -9.832,-2.698 -12.151,-3.928c-3.005,-1.575 -5.245,-3.528 -6.719,-5.861c-1.474,-2.333 -2.212,-4.945 -2.212,-7.836c0,-3.177 0.902,-6.147 2.705,-8.909c1.804,-2.763 4.437,-4.859 7.901,-6.291c3.463,-1.431 7.313,-2.146 11.55,-2.146c4.665,0 8.78,0.751 12.344,2.254c3.564,1.502 6.304,3.714 8.222,6.633c1.918,2.92 2.948,6.226 3.092,9.919l-7.987,0.601c-0.429,-3.979 -1.882,-6.985 -4.358,-9.017c-2.476,-2.032 -6.132,-3.048 -10.97,-3.048c-5.038,0 -8.709,0.923 -11.013,2.769c-2.304,1.846 -3.456,4.072 -3.456,6.677c0,2.261 0.815,4.122 2.447,5.581c1.603,1.46 5.789,2.956 12.559,4.487c6.769,1.532 11.414,2.87 13.933,4.015c3.664,1.689 6.369,3.828 8.115,6.419c1.746,2.59 2.619,5.574 2.619,8.952c0,3.349 -0.959,6.505 -2.877,9.468c-1.918,2.962 -4.673,5.266 -8.265,6.912c-3.593,1.646 -7.636,2.469 -12.13,2.469c-5.696,0 -10.469,-0.83 -14.319,-2.49c-3.85,-1.66 -6.87,-4.158 -9.06,-7.493c-2.189,-3.334 -3.341,-7.106 -3.456,-11.313Z" style="fill:#fff;fill-rule:nonzero;"/><path d="M251.814,256.692l0,-62.945l45.512,0l0,7.428l-37.183,0l0,19.278l34.822,0l0,7.385l-34.822,0l0,21.426l38.643,0l0,7.428l-46.972,0Z" style="fill:#fff;fill-rule:nonzero;"/><path d="M310.465,256.692l0,-62.945l45.512,0l0,7.428l-37.182,0l0,19.278l34.821,0l0,7.385l-34.821,0l0,21.426l38.642,0l0,7.428l-46.972,0Z" style="fill:#fff;fill-rule:nonzero;"/></g></svg>