<svg xmlns="http://www.w3.org/2000/svg" viewBox="0 0 263.55 264.54"><defs><style>.cls-1{fill:#fff}</style></defs><title>contacticon</title><g id="Layer_2" data-name="Layer 2"><g id="Layer_1-2" data-name="Layer 1"><path d="M25.8,215.21c5.55,0,10.76.43,15.84-.08,10-1,16.61-9,15-17.67-1.34-7.44-8.66-13-17.42-13.19-4.39-.08-8.79,0-13.33,0v-13.9c3.7,0,7.42.18,11.11-.06a35.94,35.94,0,0,0,9.21-1.43c7.56-2.59,11.89-10,10.35-16.91-1.6-7.11-8.68-12.51-16.91-12.74-4.49-.13-9,0-13.69,0V125.35c4.39,0,8.77.06,13.16,0,7.68-.14,14.35-4.41,16.77-10.64,3.8-9.76-4.19-20-16.1-20.43-4.55-.17-9.13,0-14,0v-14c4.66,0,9.12.07,13.58,0,7.55-.14,14.2-4.43,16.57-10.57,3.85-10-4.55-20.33-16.78-20.57-4.33-.09-8.66,0-13.38,0,0-.85,0-1.6,0-2.35v-19C25.81,12.26,39.94,0,58,0Q113,0,168.15.09C189,.09,209.81,0,230.64,0c16.3,0,28.91,8.73,32.34,22.46a20.61,20.61,0,0,1,.53,5.13c0,7.61-.12,15.22-.16,22.83,0,2.44.18,4.88.18,7.32q0,89.29,0,178.6A24.64,24.64,0,0,1,258.3,252c-6.26,8-15.07,12.37-26.23,12.46-18.65.16-37.31-.09-56-.09-20.66,0-41.31.12-62,.15q-27.72,0-55.43,0c-19.05,0-32.92-12-32.92-28.41q0-9,0-18.1Zm39.48-82.94q0,48.36,0,96.72c0,8.2,6.78,14.25,16.27,14.26q69.62.08,139.23,0c10,0,16.65-6,16.67-14.59,0-9,0-18.06,0-27.09q.12-72.06.23-144.1c0-7.11.17-14.22-.17-21.31a17.07,17.07,0,0,0-2.38-8c-3.22-5.18-8.81-6.94-15.5-6.93q-61.74.09-123.48,0c-5.36,0-10.74-.16-16.08.14-8.53.48-14.71,6.35-14.77,13.72,0,5.74,0,11.48,0,17.22Z" class="cls-1"/><path d="M25.82,99.1c4.32,0,8.65,0,13,0,6.82.09,12.15,4.47,12.46,10.16s-4.48,10.72-11.12,11c-9.62.35-19.29.35-28.92,0C4.48,120,0,114.86.33,108.93c.31-5.41,5.68-9.74,12.26-9.82C17,99.06,21.41,99.1,25.82,99.1Z" class="cls-1"/><path d="M25.53,75.37c-4.41,0-8.82,0-13.23,0C6.19,75.27.86,71,.34,65.89c-.57-5.74,3.58-10.65,10-11.6a42.34,42.34,0,0,1,6-.28c7.08,0,14.17.05,21.25-.06,6.77-.1,12.53,4.11,13.39,8.9,1.17,6.55-4.36,12.55-12.18,12.52C34.35,75.35,29.94,75.37,25.53,75.37Z" class="cls-1"/><path d="M25.64,165.43c-4.33,0-8.66,0-13,0C5.93,165.36.58,161,.31,155.41c-.27-5.86,4.4-10.92,11.16-11.14,9.57-.31,19.17-.29,28.73,0,6.5.21,11.37,5.47,11,11.07s-5.63,9.94-12.1,10c-4.49.07-9,0-13.5,0Z" class="cls-1"/><path d="M25.74,189.16c4.24,0,8.49,0,12.74,0,6.69,0,12,4.31,12.43,9.94S46.5,210,40,210.28c-9.62.39-19.28.13-28.92.14a6.44,6.44,0,0,1-1-.15c-6-.92-10.6-5.91-10.09-10.93.58-5.77,5.55-10.05,12-10.16,4.58-.08,9.16,0,13.74,0Z" class="cls-1"/><path d="M214.49,187.4H87.83A80.8,80.8,0,0,1,89.16,178c4.64-18,17.22-30.49,36.82-37.17,24-8.17,46.8-5.53,67.17,8.39,13.55,9.26,20.65,21.69,21.56,36.64a6.17,6.17,0,0,1,0,.86A3.63,3.63,0,0,1,214.49,187.4Z" class="cls-1"/><path d="M185,104c-.29,16.3-15.55,28.94-34.25,28.63-18.93-.32-33.31-13.53-32.9-30.06.38-15.54,16.12-28.24,34.52-27.85C170.48,75.09,185.35,88.43,185,104Z" class="cls-1"/></g></g></svg>