<?xml version="1.0" encoding="utf-8"?>
<!-- Generator: Adobe Illustrator 23.0.3, SVG Export Plug-In . SVG Version: 6.00 Build 0)  -->
<svg version="1.1" id="Layer_1" xmlns="http://www.w3.org/2000/svg" xmlns:xlink="http://www.w3.org/1999/xlink" x="0px" y="0px"
	 viewBox="0 0 315 76.1" style="enable-background:new 0 0 315 76.1;" xml:space="preserve">
<style type="text/css">
	.st0{fill:#FFFFFF;}
	.st1{fill-rule:evenodd;clip-rule:evenodd;fill:#2BBDF7;}
	.st2{fill-rule:evenodd;clip-rule:evenodd;fill:#2891F9;}
	.st3{fill-rule:evenodd;clip-rule:evenodd;fill:#2B6DEF;}
</style>
<title>blue_dark</title>
<g>
	<g id="Layer_1-2">
		<path class="st0" d="M216.8,24.5h8v37.2h-8v-5.4c-3.1,4.3-7.4,6.3-13,6.3c-5,0.1-9.8-2-13.1-5.7c-3.6-3.7-5.5-8.8-5.4-13.9
			c-0.1-5.2,1.8-10.2,5.4-13.9c3.4-3.7,8.1-5.7,13.1-5.7c5.7,0,10,2.1,13,6.3L216.8,24.5z M205,55c3.1,0.1,6.2-1.1,8.4-3.3
			c2.2-2.3,3.4-5.4,3.4-8.6c0.1-3.2-1.1-6.2-3.4-8.5c-4.7-4.6-12.2-4.6-16.8,0c-2.2,2.2-3.4,5.3-3.3,8.5c-0.1,3.2,1.1,6.3,3.3,8.6
			C198.8,53.9,201.9,55.1,205,55z"/>
		<path class="st0" d="M256,32.2h-9.2v17.9c0,4.8,3.1,4.7,9.2,4.4v7.2c-12.3,1.5-17.3-1.9-17.3-11.6V32.2h-6.9v-7.7h6.9V14h8.1v10.4
			h9.2V32.2z"/>
		<path class="st0" d="M263.7,17.4c-2-2-2-5.2,0-7.3c2-2,5.2-2,7.3,0s2,5.2,0,7.3c0,0,0,0,0,0C269,19.4,265.8,19.4,263.7,17.4
			C263.8,17.4,263.7,17.4,263.7,17.4z M263.4,61.7V24.5h8v37.2H263.4z"/>
		<path class="st0" d="M284.2,57c-3.7-3.7-5.7-8.7-5.6-13.9c-0.1-5.2,1.9-10.3,5.6-13.9c3.7-3.7,8.8-5.8,14.1-5.7
			c7.2,0,13.6,3.8,16.6,9.6l-6.9,4c-1.7-3.6-5.3-5.7-9.8-5.7c-3.1-0.1-6.1,1.2-8.2,3.4c-2.2,2.2-3.3,5.2-3.3,8.3
			c-0.1,3.1,1.1,6.1,3.3,8.3c2.2,2.2,5.2,3.4,8.3,3.3c4.1,0.1,7.9-2.1,9.8-5.8l6.9,4c-3.4,6.1-9.8,9.8-16.8,9.7
			C293,62.8,287.9,60.8,284.2,57z"/>
		<polygon class="st1" points="37.4,31.6 48.2,55.6 64.3,46.3 64.3,46.3 64.3,27.8 		"/>
		<path class="st2" d="M85,13.9l-10-3.8L64.3,9.3v18.5l0,0v39l0,0L80.4,76l12.7-25.9l-8-25.1L85,13.9z"/>
		<polygon class="st1" points="84.1,9.3 80.4,18.5 80.4,18.5 80.4,76.1 96.4,66.8 96.4,9.3 		"/>
		<polygon class="st3" points="80.4,0 64.3,9.3 80.4,18.5 96.4,9.3 		"/>
		<polygon class="st2" points="48.2,37 48.2,37 32.2,19.1 0,9.3 0,66.8 0,66.8 16.1,76.1 20.7,44.2 32.2,46.3 32.2,46.3 48.2,55.6 
			48.2,37 48.2,37 		"/>
		<polygon class="st0" points="169.5,14.1 153.7,40.1 138,14.1 128.7,14.1 128.7,61.7 137.3,61.7 137.3,28.9 151.5,52.5 155.9,52.5 
			170.1,29 170.1,61.7 178.7,61.7 178.7,14.1 		"/>
		<polygon class="st3" points="16.1,0 0,9.3 48.2,37 55.5,32.8 64.3,27.8 		"/>
		<polygon class="st1" points="16.1,37 16.1,37 16.1,76.1 32.2,66.8 32.2,66.8 32.2,46.3 32.2,46.3 		"/>
	</g>
</g>
</svg>
