<svg id="f2547a13-9bd6-4051-9d45-a243051925ff" data-name="Layer 1" xmlns="http://www.w3.org/2000/svg" viewBox="0 0 1080 159.35"><defs><style>.beff7f23-8108-47d0-b20b-5ab467793f74{fill:#0093ff;}.a94910f9-4165-45e1-803d-96305f91e192,.beff7f23-8108-47d0-b20b-5ab467793f74,.f5e1dd9d-c71c-4dab-b57e-ead73e28be4c{fill-rule:evenodd;}.f5e1dd9d-c71c-4dab-b57e-ead73e28be4c{fill:#1c1d1d;}.a94910f9-4165-45e1-803d-96305f91e192{fill:none;}</style></defs><title>curveimpove</title><path class="beff7f23-8108-47d0-b20b-5ab467793f74" d="M1080,594.79V748.14L0,747.34V697.57c1.65-1.38,3.33-2.72,5-4,80-62,204.9-60.4,330-29.34,141.68,35.18,153.63,44.46,285,32.53,85.36-7.75,131.82-13.79,200.11-40.2C924,616.38,952,600.51,1047.8,595.89l3.76-.17C1060.42,595.32,1069.87,595,1080,594.79Z" transform="translate(0 -594.79)"/><path class="f5e1dd9d-c71c-4dab-b57e-ead73e28be4c" d="M1080,595.25V754.14l-1080,0V696.94q2.43-1.7,5-3.4c39.17-25.62,107.06-51,212.51-39.49,124.47,13.54,176.92,84,411.7,63.84,221.07-19,239.24-113.21,418.57-122l3.76-.17Q1065.13,595.15,1080,595.25Z" transform="translate(0 -594.79)"/><path class="a94910f9-4165-45e1-803d-96305f91e192" d="M1080,594.79V754.14l-1080,0V696.94q2.43-1.7,5-3.4c80-62,204.9-60.4,330-29.34,141.68,35.18,153.63,44.46,285,32.53,85.36-7.75,131.82-13.79,200.11-40.2C924,616.38,952,600.51,1047.8,595.89l3.76-.17C1060.42,595.32,1069.87,595,1080,594.79Z" transform="translate(0 -594.79)"/></svg>