<svg xmlns="http://www.w3.org/2000/svg" id="a4ded304-2cee-4224-8055-5c2305812efa" data-name="Layer 1" viewBox="0 0 1105.74 161.49"><defs><style>.b58be741-c891-4e74-a7da-f4e46999c602{fill:#0093ff}.abb18e3d-afe0-4dbe-b7d5-69d7b1a0abe9,.b58be741-c891-4e74-a7da-f4e46999c602{fill-rule:evenodd}.abb18e3d-afe0-4dbe-b7d5-69d7b1a0abe9{fill:#1c1d1d}</style></defs><title>curvenew</title><path d="M-5.7,699.47c79.3-71,209.89-70.75,340.71-38.27,141.68,35.18,153.63,44.46,285,32.53,85.36-7.75,131.82-13.79,200.11-40.2,116.86-45.19,137.61-59.62,267.22-61.88,2.08,0,1.24,153.5,1.24,153.5L-6.12,744.34s-.33-44.2.42-44.87Z" class="b58be741-c891-4e74-a7da-f4e46999c602" transform="translate(10.98 -591.65)"/><path d="M-10.34,703.68c35.5-28.57,107-63.79,227.87-50.63,124.47,13.54,176.92,84,411.7,63.84,239-20.5,240.85-129,465.52-122.37,0,0-.13,158.62-.13,158.62l-1105.08,0s-1.25-48.33.12-49.43Z" class="abb18e3d-afe0-4dbe-b7d5-69d7b1a0abe9" transform="translate(10.98 -591.65)"/></svg>