<svg xmlns="http://www.w3.org/2000/svg" xmlns:xlink="http://www.w3.org/1999/xlink" width="100%" height="100%" version="1.1" viewBox="0 0 7984 1148" xml:space="preserve" style="fill-rule:evenodd;clip-rule:evenodd;stroke-linejoin:round;stroke-miterlimit:2"><g><path d="M52.55,785.78c572.581,-512.614 1515.5,-510.8 2460.03,-276.299c1023.01,253.986 1109.31,321.009 2058.25,234.878c687.918,-62.44 1014.66,-123.898 1444.84,-290.253c843.769,-326.298 993.64,-430.471 1929.45,-446.813c15.058,-0.263 8.994,1108.3 8.994,1108.3l-7904.61,-5.805c0,0 -2.363,-319.163 3.046,-324.006Z" style="fill:#0093ff"/><path d="M4.632,790.254c256.353,-206.318 772.727,-460.592 1645.31,-365.623c898.779,97.82 1277.44,606.434 2972.68,461.003c1725.54,-148.03 1739.07,-931.228 3361.25,-883.546c0.221,-0.276 -0.965,1145.26 -0.965,1145.26l-7979.16,-0.198c0,0 -8.986,-348.947 0.889,-356.895Z" style="fill:#1c1d1d"/></g></svg>