<svg xmlns="http://www.w3.org/2000/svg" viewBox="0 0 219.59 219.59"><defs><style>.cls-1{fill:#fff;}</style></defs><title>dollaricon</title><g id="Layer_2" data-name="Layer 2"><g id="Layer_1-2" data-name="Layer 1"><path class="cls-1" d="M120.19,159.45v14.66H99.59V159.46c-9.24,0-17.15-2.19-22.77-9.6-4.56-6-5-12.82-4.26-20.35h20c1.37,8.86,1.37,8.86,10.42,8.85,6.5,0,13-.11,19.49,0,3.06.08,4-1.13,4.13-4.09.64-14.06.71-14.06-13.1-14.07-6,0-12,.06-18,0-13.15-.17-23-10.07-23.15-23.12,0-4,0-8,0-12,0-14.55,9.14-24.06,23.7-24.68,1,0,1.92-.13,3.38-.23V45.49h20.75V60.26c9.14-.06,16.86,2.18,22.46,9.37,4.75,6.1,5.16,13.06,4.44,20.64H127.27c-.27-.42-.57-.69-.6-1-.62-8-.61-8-8.78-8-6.83,0-13.67.12-20.49-.06-3.28-.09-4.29,1.14-4.39,4.35-.43,13.83-.52,13.83,13.35,13.82,5.83,0,11.67,0,17.5,0,13.47.14,23.33,10,23.41,23.37,0,3.84,0,7.67,0,11.5,0,14.93-9.08,24.35-24,24.93C122.49,159.28,121.68,159.35,120.19,159.45Z"/><path class="cls-1" d="M186.07,219.59H33.53A33.56,33.56,0,0,1,0,186.07V33.53A33.57,33.57,0,0,1,33.53,0H186.07a33.56,33.56,0,0,1,33.52,33.53V186.07A33.56,33.56,0,0,1,186.07,219.59ZM33.53,15A18.55,18.55,0,0,0,15,33.53V186.07a18.55,18.55,0,0,0,18.53,18.52H186.07a18.54,18.54,0,0,0,18.52-18.52V33.53A18.55,18.55,0,0,0,186.07,15Z"/></g></g></svg>