<?xml version="1.0" encoding="utf-8"?>
<!-- Generator: Adobe Illustrator 23.0.3, SVG Export Plug-In . SVG Version: 6.00 Build 0)  -->
<svg version="1.1" id="Layer_1" xmlns:serif="http://www.serif.com/"
	 xmlns="http://www.w3.org/2000/svg" xmlns:xlink="http://www.w3.org/1999/xlink" x="0px" y="0px" viewBox="0 0 1080 1080"
	 style="enable-background:new 0 0 1080 1080;" xml:space="preserve">
<style type="text/css">
	.st0{fill:#2EA127;}
	.st1{fill:#EAE7E7;}
	.st2{font-family:'Constantia';}
	.st3{font-size:39.5974px;}
	.st4{fill:#FFFFFF;stroke:#FFFFFF;stroke-width:2;stroke-miterlimit:10;}
	.st5{font-size:117.028px;}
</style>
<path class="st0" d="M0.4,544.6h101.8c6.2,0,6.6-0.2,6.5-6.4c0-16.3-2.1-32.1-10.4-46.5c-8.7-15-21.9-21.5-38.9-19.9
	c-11.1,1-19.3,7.5-24.4,16.8c-4.1,7.4-7,15.6-9.7,23.7c-1.1,3.2-2.8,4.1-5.2,3.2c-1.2-0.5-2.4-2.7-2.4-4.3c-0.1-13.3,0-26.7,0.3-40
	c0-1.5,1.4-4.2,2-4.1c2.2,0.2,5.6,0.6,6.3,2.1c2.3,4.8,4.8,3.6,8.3,1.7c26.3-14.4,63.3-6.8,81.9,19.7c10.2,14.6,14.4,30.6,14.5,48
	c0,6.2,0.4,6.1,6.2,6.2c3.8,0,4.2-1.8,4.1-4.9c-0.4-12.6,2.1-25.1,7.2-36.7c14.1-30.4,44.1-45.4,76.2-37.7c5.1,1.2,9.9,3.9,14.8,6.1
	c2.6,1.2,4.6,1.6,5.9-1.6c1.4-3.6,4.5-3.8,7.2-2.7c1.2,0.4,2,3.3,2.1,5.1c0.2,14.1,0.1,28.2,0.1,42.2c-5.7,2-6.3,1.4-8.2-4
	c-2.7-7.6-5.1-15.6-9.2-22.4c-12.3-20.2-39.7-22.7-56.2-5.8c-10.1,10.3-14.3,23.4-16.3,37.3c-0.9,6.2-1.3,12.5-1.4,18.8
	c-0.1,5.9,0.4,6.1,6.4,6.1h101.5c2.1,6.1,1.5,7.2-4.1,7.8c-8.2,0.9-12.2,5.1-12.2,13.3c0,10,0.2,19.9,0.5,29.9
	c0.1,2.5-0.3,4.1-3,5.3c-16.4,7.5-34.3,10.9-52.3,10c-11.7-0.6-22.9-4.9-32.1-12.3c-13.6-10.6-21.7-24.8-25.1-41.6
	c-0.8-3.9-2.2-5.5-6.2-5.3c-4.1,0.2-6.5,0-7.6,5.3c-5.5,25.8-20.1,44.5-45.8,52c-13.7,4.1-28.3,2.8-42.3-0.9
	c-7.1-1.9-13.9-4.9-20.8-7.2c-2.6-0.9-3.5-2.4-3.4-5.1c0.3-9,0.6-18.1,0.6-27.1c0-11.9-2.3-14.6-14.1-16.8
	C-0.2,551.4-0.4,551.1,0.4,544.6L0.4,544.6z M195.1,551.3v0.5h-26.7c-2.4,0-4.6,0.4-3.6,3.6c2.9,8.7,4.8,17.9,9.1,25.8
	c7.1,13.7,21.4,22.3,36.8,22.3c7.2,0,14.3-1.9,20.5-5.4c2.9-1.6,4.8-3.5,4.8-7.1c0.1-7.5,0.7-15,0.7-22.5c0-10.9-4.1-15.3-15-16
	C212.8,552,203.9,551.7,195.1,551.3L195.1,551.3z M107.6,552.3c-2.3-0.2-4.1-0.4-5.8-0.4H62.8c-4.1,0-8.2,0.2-12.4,0.6
	c-11.2,0.9-14.7,4.6-14.9,15.6c-0.2,7.4-0.1,14.7,0.4,22.1c0.2,2.6,2,6.2,4.2,7.4c14.1,7.9,28.9,8.8,42.7,0
	C99,587.3,104.6,570.7,107.6,552.3L107.6,552.3z"/>
<text transform="matrix(1 0 0 1 416.6953 606.1797)" class="st1 st2 st3">A</text>
<text transform="matrix(1 0 0 1 442.8164 606.1797)" class="st1 st2 st3"> </text>
<text transform="matrix(1 0 0 1 451.7886 606.1797)" class="st1 st2 st3">c</text>
<text transform="matrix(1 0 0 1 469.2861 606.1797)" class="st1 st2 st3">o</text>
<text transform="matrix(1 0 0 1 490.6899 606.1797)" class="st1 st2 st3">m</text>
<text transform="matrix(1 0 0 1 524.9893 606.1797)" class="st1 st2 st3">put</text>
<text transform="matrix(1 0 0 1 583.0908 606.1797)" class="st1 st2 st3">e</text>
<text transform="matrix(1 0 0 1 602.0586 606.1797)" class="st1 st2 st3">r</text>
<text transform="matrix(1 0 0 1 615.8828 606.1797)" class="st1 st2 st3"> </text>
<text transform="matrix(1 0 0 1 625.0469 606.1797)" class="st1 st2 st3">s</text>
<text transform="matrix(1 0 0 1 641.0762 606.1797)" class="st1 st2 st3">c</text>
<text transform="matrix(1 0 0 1 659.3477 606.1797)" class="st1 st2 st3">ienc</text>
<text transform="matrix(1 0 0 1 730.0742 606.1797)" class="st1 st2 st3">e</text>
<text transform="matrix(1 0 0 1 748.0742 606.1797)" class="st1 st2 st3"> </text>
<text transform="matrix(1 0 0 1 757.4326 606.1797)" class="st1 st2 st3">p</text>
<text transform="matrix(1 0 0 1 779.5898 606.1797)" class="st1 st2 st3">o</text>
<text transform="matrix(1 0 0 1 800.9932 606.1797)" class="st1 st2 st3">rtal </text>
<text transform="matrix(1 0 0 1 870.0176 606.1797)" class="st1 st2 st3">f</text>
<text transform="matrix(1 0 0 1 881.9893 606.1797)" class="st1 st2 st3">o</text>
<text transform="matrix(1 0 0 1 903.3916 606.1797)" class="st1 st2 st3">r</text>
<text transform="matrix(1 0 0 1 917.2168 606.1797)" class="st1 st2 st3"> </text>
<text transform="matrix(1 0 0 1 926.1875 606.1797)" class="st1 st2 st3">g</text>
<text transform="matrix(1 0 0 1 945.3242 606.1797)" class="st1 st2 st3">e</text>
<text transform="matrix(1 0 0 1 964.2959 606.1797)" class="st1 st2 st3">e</text>
<text transform="matrix(1 0 0 1 983.2637 606.1797)" class="st1 st2 st3">ks</text>
<text transform="matrix(0.9938 0 0 1 329.2451 556.3213)" class="st4 st2 st5">GeeksforGeeks</text>
</svg>
