<?xml version="1.0" encoding="UTF-8" standalone="no"?><!DOCTYPE svg PUBLIC "-//W3C//DTD SVG 1.1//EN" "http://www.w3.org/Graphics/SVG/1.1/DTD/svg11.dtd"><svg width="100%" height="100%" viewBox="0 0 1364 193" version="1.1" xmlns="http://www.w3.org/2000/svg" xmlns:xlink="http://www.w3.org/1999/xlink" xml:space="preserve" xmlns:serif="http://www.serif.com/" style="fill-rule:evenodd;clip-rule:evenodd;stroke-linejoin:round;stroke-miterlimit:2;"><path d="M0.5,102.363l128.547,0c7.84,0 8.289,-0.311 8.272,-8.134c0,-20.549 -2.625,-40.581 -13.176,-58.713c-10.983,-18.892 -27.63,-27.129 -49.164,-25.126c-13.97,1.296 -24.331,9.429 -30.876,21.223c-5.18,9.377 -8.79,19.756 -12.295,29.961c-1.382,4.007 -3.54,5.181 -6.614,4.007c-1.537,-0.57 -3.074,-3.454 -3.091,-5.405c-0.104,-16.855 0.029,-33.703 0.397,-50.545c0,-1.865 1.727,-5.302 2.521,-5.181c2.781,0.19 7.081,0.794 7.927,2.608c2.901,6.113 6.113,4.541 10.499,2.141c33.225,-18.236 79.919,-8.634 103.404,24.918c12.865,18.426 18.235,38.596 18.304,60.665c0,7.771 0.449,7.753 7.771,7.822c4.749,0 5.302,-2.331 5.181,-6.165c-0.495,-15.923 2.628,-31.754 9.135,-46.296c17.752,-38.423 55.656,-57.28 96.272,-47.662c6.476,1.52 12.554,4.905 18.667,7.754c3.316,1.537 5.871,1.969 7.408,-2.003c1.727,-4.524 5.699,-4.801 9.101,-3.454c1.502,0.553 2.556,4.214 2.59,6.493c0.207,17.804 0.104,35.608 0.104,53.36c-7.184,2.556 -7.909,1.83 -10.361,-5.06c-3.454,-9.601 -6.424,-19.686 -11.674,-28.268c-15.542,-25.471 -50.079,-28.718 -70.973,-7.357c-12.814,13.038 -18.029,29.547 -20.533,47.057c-1.084,7.864 -1.661,15.789 -1.727,23.727c-0.103,7.494 0.467,7.702 8.03,7.702l128.236,0c2.677,7.65 1.9,9.031 -5.18,9.843c-10.361,1.191 -15.352,6.406 -15.387,16.819c0,12.572 0.294,25.16 0.674,37.749c0.104,3.212 -0.345,5.181 -3.782,6.7c-20.691,9.462 -43.366,13.782 -66.086,12.589c-14.799,-0.8 -28.976,-6.239 -40.512,-15.542c-17.148,-13.434 -27.423,-31.325 -31.705,-52.565c-0.985,-4.887 -2.746,-6.907 -7.892,-6.666c-5.146,0.242 -8.151,0 -9.567,6.752c-6.907,32.586 -25.419,56.192 -57.901,65.621c-17.269,5.18 -35.746,3.592 -53.395,-1.123c-8.945,-2.4 -17.51,-6.13 -26.317,-9.048c-3.333,-1.106 -4.386,-3.04 -4.265,-6.476c0.432,-11.415 0.76,-22.829 0.812,-34.243c0,-15.041 -2.953,-18.478 -17.856,-21.206c-4.334,-0.708 -4.524,-1.105 -3.523,-9.273Zm245.852,8.461l0,0.639l-33.674,0c-3.004,0 -5.854,0.466 -4.524,4.507c3.626,10.966 6.027,22.622 11.432,32.638c9.005,17.313 26.966,28.217 46.482,28.217c9.097,0 18.039,-2.369 25.942,-6.873c3.678,-2.055 6.027,-4.473 6.113,-8.98c0.155,-9.463 0.846,-18.995 0.898,-28.407c0,-13.815 -5.181,-19.358 -18.995,-20.204c-11.225,-0.691 -22.484,-1.036 -33.674,-1.537Zm-110.398,1.174c-2.866,-0.19 -5.18,-0.483 -7.339,-0.483l-49.353,0c-5.181,0 -10.361,0.293 -15.645,0.725c-14.109,1.174 -18.564,5.768 -18.771,19.652c-0.297,9.287 -0.119,18.584 0.535,27.854c0.294,3.298 2.573,7.805 5.284,9.325c17.839,9.929 36.489,11.138 53.982,0c20.325,-12.831 27.457,-33.777 31.29,-57.073l0.017,0Z" style="fill:#2ea127;fill-rule:nonzero;"/><text x="415.824px" y="117.113px" style="font-family:'Constantia', serif;font-size:148.319px;fill:#fff;">Geeksf<tspan x="846.008px 926.179px " y="117.113px 117.113px ">or</tspan>Geeks</text><text x="526.271px" y="180.083px" style="font-family:'Constantia', serif;font-size:50.01px;fill:#eae7e7;">A<tspan x="559.261px 570.592px 592.691px 619.723px " y="180.083px 180.083px 180.083px 180.083px "> com</tspan>put<tspan x="736.422px 760.377px 777.837px 789.411px 809.655px " y="180.083px 180.083px 180.083px 180.083px 180.083px ">er sc</tspan>ienc<tspan x="922.056px 944.79px 956.609px 984.593px " y="180.083px 180.083px 180.083px 180.083px ">e po</tspan>rtal <tspan x="1098.8px 1113.92px 1140.95px 1158.41px 1169.74px 1193.91px 1217.87px " y="180.083px 180.083px 180.083px 180.083px 180.083px 180.083px 180.083px ">for gee</tspan>ks</text></svg>