<?xml version="1.0" encoding="UTF-8" standalone="no"?><!DOCTYPE svg PUBLIC "-//W3C//DTD SVG 1.1//EN" "http://www.w3.org/Graphics/SVG/1.1/DTD/svg11.dtd"><svg width="100%" height="100%" viewBox="0 0 1287 485" version="1.1" xmlns="http://www.w3.org/2000/svg" xmlns:xlink="http://www.w3.org/1999/xlink" xml:space="preserve" xmlns:serif="http://www.serif.com/" style="fill-rule:evenodd;clip-rule:evenodd;stroke-linejoin:round;stroke-miterlimit:2;"><path d="M418.23,132.315l166.161,0c10.134,0 10.714,-0.402 10.692,-10.514c0,-26.562 -3.393,-52.455 -17.032,-75.893c-14.196,-24.419 -35.714,-35.067 -63.549,-32.477c-18.058,1.674 -31.451,12.187 -39.911,27.433c-6.696,12.12 -11.361,25.536 -15.893,38.728c-1.785,5.178 -4.575,6.696 -8.549,5.178c-1.986,-0.736 -3.973,-4.464 -3.995,-6.986c-0.134,-21.786 0.037,-43.565 0.513,-65.335c0,-2.411 2.232,-6.853 3.259,-6.697c3.594,0.246 9.152,1.027 10.246,3.371c3.75,7.902 7.901,5.87 13.571,2.768c42.947,-23.572 103.304,-11.161 133.661,32.209c16.629,23.817 23.571,49.889 23.661,78.416c0,10.044 0.58,10.022 10.044,10.111c6.139,0 6.853,-3.013 6.697,-7.968c-0.64,-20.584 3.397,-41.047 11.808,-59.844c22.946,-49.665 71.942,-74.041 124.442,-61.607c8.371,1.964 16.228,6.339 24.13,10.022c4.285,1.986 7.589,2.545 9.575,-2.589c2.233,-5.849 7.367,-6.206 11.764,-4.465c1.942,0.715 3.303,5.447 3.348,8.393c0.268,23.014 0.134,46.027 0.134,68.973c-9.286,3.304 -10.223,2.367 -13.393,-6.54c-4.464,-12.41 -8.303,-25.446 -15.089,-36.54c-20.089,-32.924 -64.732,-37.121 -91.741,-9.509c-16.563,16.853 -23.304,38.192 -26.541,60.826c-1.402,10.165 -2.147,20.409 -2.232,30.67c-0.134,9.687 0.603,9.955 10.38,9.955l165.759,0c3.46,9.889 2.455,11.674 -6.697,12.723c-13.392,1.541 -19.843,8.282 -19.888,21.742c0,16.25 0.38,32.522 0.871,48.794c0.134,4.152 -0.447,6.697 -4.889,8.661c-26.745,12.231 -56.055,17.814 -85.424,16.272c-19.128,-1.034 -37.454,-8.064 -52.366,-20.089c-22.165,-17.366 -35.447,-40.491 -40.982,-67.947c-1.273,-6.317 -3.55,-8.928 -10.201,-8.616c-6.652,0.313 -10.536,0 -12.366,8.728c-8.929,42.121 -32.858,72.634 -74.844,84.822c-22.322,6.696 -46.206,4.642 -69.018,-1.451c-11.563,-3.103 -22.634,-7.924 -34.018,-11.697c-4.308,-1.428 -5.67,-3.928 -5.514,-8.37c0.559,-14.755 0.983,-29.509 1.05,-44.264c0,-19.442 -3.817,-23.884 -23.081,-27.41c-5.602,-0.916 -5.848,-1.429 -4.553,-11.987Zm317.79,10.937l0,0.826l-43.527,0c-3.884,0 -7.567,0.603 -5.848,5.826c4.688,14.174 7.79,29.241 14.777,42.188c11.64,22.38 34.857,36.474 60.083,36.474c11.759,0 23.317,-3.063 33.533,-8.885c4.755,-2.656 7.79,-5.781 7.902,-11.607c0.201,-12.232 1.094,-24.554 1.161,-36.719c0,-17.857 -6.697,-25.022 -24.554,-26.116c-14.509,-0.893 -29.062,-1.339 -43.527,-1.987Zm-142.701,1.518c-3.705,-0.245 -6.696,-0.625 -9.486,-0.625l-63.795,0c-6.697,0 -13.393,0.38 -20.223,0.938c-18.237,1.518 -23.996,7.455 -24.264,25.402c-0.384,12.005 -0.153,24.022 0.692,36.004c0.38,4.263 3.326,10.089 6.83,12.054c23.059,12.835 47.166,14.397 69.777,0c26.273,-16.585 35.491,-43.661 40.447,-73.773l0.022,0Z" style="fill:#23861d;fill-rule:nonzero;"/><text x="-10.407px" y="480.923px" style="font-family:'Constantia', serif;font-size:215.282px;fill:#fff;">Geeksf<tspan x="613.996px 730.362px " y="480.923px 480.923px ">or</tspan>Geek</text></svg>