<?xml version="1.0" encoding="UTF-8" standalone="no"?><!DOCTYPE svg PUBLIC "-//W3C//DTD SVG 1.1//EN" "http://www.w3.org/Graphics/SVG/1.1/DTD/svg11.dtd"><svg width="100%" height="100%" viewBox="0 0 4119 452" version="1.1" xmlns="http://www.w3.org/2000/svg" xmlns:xlink="http://www.w3.org/1999/xlink" xml:space="preserve" xmlns:serif="http://www.serif.com/" style="fill-rule:evenodd;clip-rule:evenodd;stroke-linejoin:round;stroke-miterlimit:2;"><path d="M1.208,247.167l310.167,0c18.917,0 20,-0.75 19.958,-19.625c0,-49.584 -6.333,-97.917 -31.791,-141.667c-26.5,-45.583 -66.667,-65.458 -118.625,-60.625c-33.709,3.125 -58.709,22.75 -74.5,51.208c-12.5,22.625 -21.209,47.667 -29.667,72.292c-3.333,9.667 -8.542,12.5 -15.958,9.667c-3.709,-1.375 -7.417,-8.334 -7.459,-13.042c-0.25,-40.667 0.07,-81.319 0.959,-121.958c0,-4.5 4.166,-12.792 6.083,-12.5c6.708,0.458 17.083,1.916 19.125,6.291c7,14.75 14.75,10.959 25.333,5.167c80.167,-44 192.834,-20.833 249.5,60.125c31.042,44.458 44,93.125 44.167,146.375c0,18.75 1.083,18.708 18.75,18.875c11.458,0 12.792,-5.625 12.5,-14.875c-1.195,-38.422 6.342,-76.62 22.042,-111.708c42.833,-92.709 134.291,-138.209 232.291,-115c15.625,3.666 30.292,11.833 45.042,18.708c8,3.708 14.167,4.75 17.875,-4.833c4.167,-10.917 13.75,-11.584 21.958,-8.334c3.625,1.334 6.167,10.167 6.25,15.667c0.5,42.958 0.25,85.917 0.25,128.75c-17.333,6.167 -19.083,4.417 -25,-12.208c-8.333,-23.167 -15.5,-47.5 -28.166,-68.209c-37.5,-61.458 -120.834,-69.291 -171.25,-17.75c-30.917,31.459 -43.5,71.292 -49.542,113.542c-2.617,18.974 -4.009,38.097 -4.167,57.25c-0.25,18.083 1.125,18.583 19.375,18.583l309.417,0c6.458,18.459 4.583,21.792 -12.5,23.75c-25,2.875 -37.042,15.459 -37.125,40.584c0,30.333 0.708,60.708 1.625,91.083c0.25,7.75 -0.833,12.5 -9.125,16.167c-49.924,22.83 -104.637,33.253 -159.458,30.375c-35.707,-1.931 -69.915,-15.054 -97.75,-37.5c-41.375,-32.417 -66.167,-75.584 -76.5,-126.834c-2.375,-11.791 -6.625,-16.666 -19.042,-16.083c-12.417,0.583 -19.667,0 -23.083,16.292c-16.667,78.625 -61.334,135.583 -139.709,158.333c-41.666,12.5 -86.25,8.667 -128.833,-2.708c-21.583,-5.792 -42.25,-14.792 -63.5,-21.834c-8.042,-2.666 -10.583,-7.333 -10.292,-15.625c1.042,-27.541 1.834,-55.083 1.959,-82.625c0,-36.291 -7.125,-44.583 -43.084,-51.166c-10.458,-1.709 -10.916,-2.667 -8.5,-22.375Zm593.209,20.416l0,1.542l-81.25,0c-7.25,0 -14.125,1.125 -10.917,10.875c8.75,26.458 14.542,54.583 27.583,78.75c21.728,41.776 65.067,68.085 112.155,68.085c21.949,0 43.525,-5.717 62.595,-16.585c8.875,-4.958 14.542,-10.792 14.75,-21.667c0.375,-22.833 2.042,-45.833 2.167,-68.541c0,-33.334 -12.5,-46.709 -45.833,-48.75c-27.084,-1.667 -54.25,-2.5 -81.25,-3.709Zm-266.375,2.834c-6.917,-0.459 -12.5,-1.167 -17.709,-1.167l-119.083,0c-12.5,0 -25,0.708 -37.75,1.75c-34.042,2.833 -44.792,13.917 -45.292,47.417c-0.716,22.41 -0.285,44.842 1.292,67.208c0.708,7.958 6.208,18.833 12.75,22.5c43.042,23.958 88.042,26.875 130.25,0c49.042,-30.958 66.25,-81.5 75.5,-137.708l0.042,0Z" style="fill:#226e1d;fill-rule:nonzero;"/><path d="M1185.38,247.75l125.708,0l6.584,6.292c-51.292,2 -45.834,35.625 -45.834,66.25c0,52.5 0.5,54.958 -52.666,63.166c-34.709,5.375 -71.709,8.334 -105.875,2.084c-82.792,-14.834 -121.375,-104.167 -114.084,-171.417c4.041,-31.837 14.564,-62.511 30.917,-90.125c35.625,-61.25 121.167,-85.125 189.583,-59c13.667,5.208 29.5,4.708 48.875,7.542l0,93.416l-4.958,1.792c-3.5,-9.292 -6.917,-18.625 -10.542,-27.875c-18.791,-48.333 -52.916,-76 -93.791,-76c-43.209,0 -80.25,26.792 -98.209,74.542c-24.5,65.208 -22.666,129.458 12.5,191.166c31.459,55.5 93.875,59.667 140.834,41.667c7.25,-2.75 16.666,-11.5 17.25,-18.125c2.397,-24.873 2.146,-49.93 -0.75,-74.75c-1.084,-8 -15.292,-15.292 -24.792,-20.833c-6.167,-3.5 -14.667,-3 -22.083,-4.167l1.333,-5.625Z" style="fill:#fff;fill-rule:nonzero;"/><path d="M3200.63,248.75c-40.208,5.792 -38.5,34.375 -38.167,63.667c0.75,61.291 -0.208,61.916 -61.333,73.5c-58.333,11 -113.542,10.208 -161.5,-32.542c-58.042,-51.75 -69.125,-152.458 -23.375,-226.917c38.542,-62.791 123.875,-87.875 196.583,-59.25c12,4.709 26.584,2.834 45.167,4.459l5.292,95l-9.167,2.083c-4.667,-10.792 -9.458,-21.583 -14,-32.458c-16.917,-40.75 -43.25,-70.167 -90.583,-72.417c-41.25,-1.958 -79.792,24.292 -98.125,70.375c-28.542,71.583 -26.834,141.667 19.333,206.583c28.417,39.834 92.792,53.292 135.292,28.917c8.174,-4.882 14.015,-12.892 16.166,-22.167c2.417,-20.291 6.542,-43.208 -0.541,-60.916c-6.5,-16.167 -26.709,-26.834 -38.75,-37.917l117.708,0Z" style="fill:#fff;fill-rule:nonzero;"/><path d="M2039.54,382.833c-39.084,11.334 -65.625,-1.291 -84.584,-36.458c-11.333,-20.833 -27.458,-39.667 -42.416,-58.625c-4.459,-5.667 -14.667,-13.792 -17.792,-12.208c-8.649,4.338 -15.55,11.519 -19.542,20.333c-12.164,32.345 0.745,69.109 30.459,86.75c-2.375,1.223 -4.916,2.094 -7.542,2.583c-27.625,0 -55.292,0 -85.042,-1.583c29.167,-12.292 27.375,-36.458 27.25,-60.458c-0.305,-74.306 -0.305,-148.598 0,-222.875c0,-27.917 -3.958,-52.5 -38.708,-58.792c0.583,-2.208 1.208,-4.458 1.792,-6.708c18.708,0 37.75,-1.959 55.916,1.125c5.834,0.958 13.375,15.083 13.5,23.291c1.125,62.5 0.542,125.334 0.709,187.959c0,9.291 1.166,18.583 1.791,27.916l7.875,4.167c25.667,-27.708 52.167,-54.75 76,-83.917c3.209,-4.166 -6.791,-18.708 -10.833,-28.833l70.833,0l-80.291,63.625c-11.417,9.042 -15.292,18.625 -5.042,31.792c24.75,31.791 48.125,64.625 73.458,95.833c7.917,10 20.667,16.292 32.209,25.083Z" style="fill:#fff;fill-rule:nonzero;"/><path d="M3928.38,383.583c-38.583,9.792 -67.708,0 -86.25,-39.625c-9.708,-20.833 -26.458,-38.083 -40.417,-56.666c-13.083,-17.5 -26.583,-16.209 -35.916,2.958c-13.959,28.708 -1.25,74.667 28.791,93.167l-92.416,0c33.583,-10.667 27.458,-39.334 27.583,-64.875c0.25,-68.875 0,-137.75 0,-206.625c0,-31.875 2.708,-64.917 -42.583,-70.292c3.083,-3.667 3.625,-4.833 4.166,-4.833c86.417,-4.75 68.5,-7.542 69.834,61.208c0.916,48.292 0,96.625 0.333,144.917c0,10.333 2.125,20.625 3.875,36.208c29.625,-29.167 56.458,-53.333 80.083,-80.417c4.167,-4.625 -5.625,-21.166 -9,-32.458l71.084,0c-25.334,20.167 -50.959,40.958 -77.084,61.167c-16.375,12.5 -16.041,25 -3.5,40.541c21.792,27.209 41.334,56.209 63.542,83.042c10.542,12.5 25,21.667 37.875,32.583Z" style="fill:#fff;fill-rule:nonzero;"/><path d="M2431.38,271.458c1,-70.208 43.833,-113.583 111.417,-112.708c63.416,0.792 105.416,48.125 104.166,117.375c-1.25,69.25 -46.916,115.958 -110.875,115.083c-64.958,-0.916 -105.708,-47.541 -104.708,-119.75Zm33.333,-0.625c6.875,26.042 11.709,52.292 20.834,76.959c7.704,23.138 30.4,38.142 54.708,36.166c24.096,-0.404 45.537,-15.797 53.625,-38.5c18.393,-45.203 18.677,-95.801 0.792,-141.208c-7.988,-22.762 -29.544,-38.143 -53.667,-38.292c-25.708,-0.958 -45.833,11.334 -55.667,34.625c-9.041,21.584 -13.458,45.375 -20.458,70.25l-0.167,0Z" style="fill:#fff;fill-rule:nonzero;"/><path d="M1534.29,340.958c-28.5,61.709 -122.875,68.834 -165.75,11c-34.417,-46.416 -27.917,-127.791 13.583,-168.416c29.875,-29.167 65.708,-29.542 102.625,-19.042c34.667,9.875 43.25,39.875 49.542,70.333c3.791,18.292 -1.75,28.667 -23.5,27.834c-33.959,-1.292 -68,0.25 -101.959,-0.5c-18.375,-0.375 -25,6.5 -24.708,25.291c1.625,57.917 40.708,95.834 94.75,85.459c19.917,-4.042 37.208,-21.209 55.417,-31.959Zm-93.5,-89.958l0,-0.208c14.25,0 28.708,1.333 42.666,-0.625c6.797,-1.907 12.211,-7.087 14.417,-13.792c4.375,-32.333 -14.708,-62.875 -41.667,-69.5c-25.833,-6.375 -53.25,11.333 -65.791,42.333c-13.625,33.75 -8.125,41.667 28.875,41.667l21.5,0.125Z" style="fill:#fff;fill-rule:nonzero;"/><path d="M1770.33,337.833c-4.7,7.741 -9.891,15.173 -15.541,22.25c-49.667,53.792 -141.667,35.625 -166.417,-33.083c-12.583,-32.804 -12.79,-69.096 -0.583,-102.042c20.833,-55.875 73.958,-80.583 130.125,-60.5c31.5,11.292 56.291,53.459 47.416,84.417c-1.708,5.958 -13.916,12.5 -21.5,12.5c-33.875,1.375 -67.875,1.417 -101.791,0.375c-21.709,-0.667 -28.042,8.75 -26.459,29.167c4.459,56.416 44.042,92.708 96.042,81.583c19.75,-4.083 36.958,-21.167 58.708,-34.667Zm-96.75,-87c13.334,0 27,1.584 39.959,-0.708c6.125,-1.083 15.208,-9.333 15.583,-14.833c2.542,-36.709 -16.667,-64.875 -45.042,-69.209c-26.916,-4.166 -53.291,16.042 -64.333,49.334c-9.583,28.791 -5.208,35.166 24.417,35.5c9.958,0 19.75,-0.084 29.416,-0.084Z" style="fill:#fff;fill-rule:nonzero;"/><path d="M3423.58,339.292c-20.208,62.5 -121.291,66.958 -161.125,20.291c-39.833,-46.666 -33.583,-140.791 13.709,-180.625c30.541,-25.75 66.041,-26.5 101,-12.833c30.5,11.958 42.666,38.417 44.666,70.458c1.125,18 -4.166,26.417 -23.708,25.834c-33.917,-0.959 -67.917,0.333 -101.833,-0.417c-22.584,-0.458 -27.542,10.167 -23.959,30.333c10.875,61.375 41.667,90.417 94.5,80.375c20.334,-3.875 37.959,-21.916 56.75,-33.416Zm-93.75,-88.5c11.625,0 23.292,-0.75 34.834,0c20.083,1.583 24.791,-8.334 22.416,-26.084c-4.583,-34.625 -22.583,-57.166 -48.416,-59.208c-26.834,-2.167 -51.917,17.792 -62.125,49.5c-9.875,30.625 -6.334,35.458 26.458,35.667c8.917,0.208 17.875,0.166 26.833,0.125Z" style="fill:#fff;fill-rule:nonzero;"/><path d="M3653.88,336.792c-6.333,25.958 -24.417,40.416 -47.75,48.25c-67.125,22.583 -127.458,-15.459 -136.708,-86.5c-4.167,-32.459 -0.417,-64.084 16.666,-93.292c33.334,-57.25 117.834,-65.958 153.334,-13.292c11.958,17.709 13.458,42.417 21.583,70.209l-125,0c-33.042,0 -36.25,4.166 -30.292,35.875c6.459,34.416 20.375,64.625 56.917,74c36.542,9.375 68.875,-0.584 91.25,-35.25Zm-91.667,-85.834c13.375,0 26.834,0.709 40.167,-0.375c5.25,-0.416 14.833,-5.791 14.542,-7.375c-3.959,-20.458 -4.709,-43.958 -16.042,-59.708c-7.792,-10.875 -31.167,-16.042 -46.75,-14.583c-25.458,2.333 -38.458,23.75 -46.083,46.875c-9.625,28.958 -5.167,35 24.666,35.291c9.875,-0.166 19.709,-0.25 29.542,-0.25l-0.042,0.125Z" style="fill:#fff;fill-rule:nonzero;"/><path d="M2396.83,175.167c-10.083,0.583 -20.25,1.791 -30.333,1.541c-18.333,-0.416 -25.417,8.334 -25,26.167c0.583,44.667 0,89.375 0.375,134.042c0.333,25.5 2.833,27.666 40.292,46.75l-100,0c28.75,-9.959 29.166,-33.334 29.166,-57.209c0,-37.5 -0.791,-75 0.292,-112.5c0.708,-24.583 -5.25,-40.5 -33.958,-37.5c-3.269,-0.395 -6.435,-1.398 -9.334,-2.958c0.328,-2.043 0.887,-4.042 1.667,-5.958c35.875,1.708 42.167,-18.542 43.625,-50c2.542,-54.584 46.667,-90.125 97.5,-81.917c9,1.458 18.125,9.375 24.25,16.667c1.917,2.333 -6,18.333 -9.167,18.25c-9.458,0 -21.083,-2.792 -27.791,-8.917c-25.209,-23.125 -37.834,-20.542 -48.542,12.958c-2.502,9.484 -4.326,19.133 -5.458,28.875c-9.042,53.5 -7.209,55.959 45.291,61.834c2.409,0.731 4.697,1.812 6.792,3.208c0.125,2.125 0.208,4.417 0.333,6.667Z" style="fill:#fff;fill-rule:nonzero;"/><path d="M3959.17,376.917l0,-63.042c9.708,15.958 15.5,26.708 22.458,36.583c18.25,25.834 50,37.5 77.25,30.042c19.583,-5.25 31.125,-16.667 32.667,-37.25c1.541,-20.583 -7.667,-34.75 -25.959,-42.667c-19.666,-8.333 -40.166,-15.041 -59.708,-23.833c-33.833,-15.25 -48.083,-39.833 -41.667,-69.333c6.834,-31.584 29.875,-48.5 67.625,-48.459c11.459,0 22.917,3.084 34.459,3.792c11.541,0.708 22.375,0 35.625,0l0,56.083c-6.334,-10.458 -9.917,-16.666 -13.667,-22.583c-15.083,-24.167 -45.583,-38.417 -68.833,-27.375c-12.5,6 -28.084,20.458 -29.167,32.458c-1.083,12 10.708,29.875 22.042,37.875c15.541,10.959 36.125,14.709 54.166,22.25c39.75,16.459 57.5,41.667 51.084,71.792c-7.792,36.292 -34.75,57.375 -76.667,57.083c-14.792,0 -29.542,-5.625 -44.417,-8.333c-11.125,-1.708 -22.25,-2.958 -37.291,-5.083Z" style="fill:#fff;fill-rule:nonzero;"/><path d="M2071.38,376.167l0,-63.459c7.458,13.667 12,22.75 17.167,31.417c16.666,28.208 49,43.875 76.625,37.5c18.708,-4.167 33.333,-12.5 35.625,-34.125c2.291,-21.625 -4.167,-39 -25.459,-47.875c-19.791,-8.333 -40.25,-14.875 -59.833,-23.5c-32.917,-14.5 -44.917,-37.042 -39.042,-70.5c4.584,-26.167 28.709,-45.208 60.959,-46.625c12.445,0.159 24.87,1.063 37.208,2.708l37.25,2.75l6.125,49.125l-6.083,2.584c-3.875,-5.959 -6.584,-13.459 -11.875,-17.584c-14.875,-11.666 -29.542,-25.583 -46.75,-31.791c-20.834,-7.542 -47.042,8.333 -52.125,27.041c-6.5,24.292 6.458,39.75 26.958,49.084c19.458,8.875 40.333,14.583 59.708,23.625c32.25,15 43.209,34 40.292,65.125c-2.708,28.208 -20.583,50 -53.542,54.916c-21.083,3.209 -43.541,-2.166 -65.333,-4.166c-11.208,-1.084 -22.292,-3.625 -37.875,-6.25Z" style="fill:#fff;fill-rule:nonzero;"/><path d="M2686.92,169.667c52.75,-13.625 66.375,-9.459 77.5,20.625c18.25,-10 35.625,-22.875 55.166,-29.417c22.167,-7.458 40.959,10.708 35.125,32.083c-2.083,7.75 -10.791,17.792 -17.708,18.792c-5.458,0.833 -17.625,-9.833 -18.417,-16.417c-2.833,-23.875 -15.291,-20.583 -29.625,-12.791c-18.125,9.916 -30.458,23.291 -29.541,46.583c1.25,32.083 1.75,64.375 0,96.375c-1.75,29.167 2.125,52.292 37.166,58.083l-106.666,0c32.083,-9.5 33.333,-30.166 32.416,-53.208c-1.208,-33.875 -1.291,-67.875 0,-101.75c1,-26.792 -1.833,-50.167 -35.416,-58.958Z" style="fill:#fff;fill-rule:nonzero;"/></svg>