<?xml version="1.0" encoding="UTF-8" standalone="no"?><!DOCTYPE svg PUBLIC "-//W3C//DTD SVG 1.1//EN" "http://www.w3.org/Graphics/SVG/1.1/DTD/svg11.dtd"><svg width="100%" height="100%" viewBox="0 0 1482 507" version="1.1" xmlns="http://www.w3.org/2000/svg" xmlns:xlink="http://www.w3.org/1999/xlink" xml:space="preserve" xmlns:serif="http://www.serif.com/" style="fill-rule:evenodd;clip-rule:evenodd;stroke-linejoin:round;stroke-miterlimit:2;"><g><path d="M101.899,425.606l62.854,0l3.292,3.145c-25.646,1 -22.917,17.813 -22.917,33.125c0,26.25 0.25,27.48 -26.333,31.584c-17.355,2.687 -35.855,4.166 -52.938,1.041c-41.396,-7.416 -60.687,-52.083 -57.042,-85.708c2.021,-15.919 7.282,-31.256 15.459,-45.062c17.812,-30.625 60.583,-42.563 94.791,-29.5c6.834,2.604 14.75,2.354 24.438,3.77l0,46.709l-2.479,0.896c-1.75,-4.646 -3.459,-9.313 -5.271,-13.938c-9.396,-24.167 -26.458,-38 -46.896,-38c-21.604,0 -40.125,13.396 -49.104,37.271c-12.25,32.604 -11.333,64.729 6.25,95.583c15.729,27.75 46.937,29.834 70.417,20.834c3.625,-1.375 8.333,-5.75 8.625,-9.063c1.198,-12.436 1.073,-24.965 -0.375,-37.375c-0.542,-4 -7.646,-7.646 -12.396,-10.417c-3.084,-1.75 -7.334,-1.5 -11.042,-2.083l0.667,-2.812Z" style="fill:#fff;fill-rule:nonzero;stroke:#fff;stroke-width:16.76px;"/><path d="M1109.52,426.106c-20.104,2.895 -19.25,17.187 -19.084,31.833c0.375,30.646 -0.104,30.958 -30.666,36.75c-29.167,5.5 -56.771,5.104 -80.75,-16.271c-29.021,-25.875 -34.563,-76.229 -11.688,-113.458c19.271,-31.396 61.938,-43.938 98.292,-29.625c6,2.354 13.292,1.416 22.583,2.229l2.646,47.5l-4.583,1.042c-2.334,-5.396 -4.729,-10.792 -7,-16.23c-8.459,-20.375 -21.625,-35.083 -45.292,-36.208c-20.625,-0.979 -39.896,12.146 -49.062,35.188c-14.271,35.791 -13.417,70.833 9.666,103.291c14.209,19.917 46.396,26.646 67.646,14.459c4.087,-2.442 7.008,-6.446 8.083,-11.084c1.209,-10.146 3.271,-21.604 -0.27,-30.458c-3.25,-8.083 -13.355,-13.417 -19.375,-18.958l58.854,0Z" style="fill:#fff;fill-rule:nonzero;stroke:#fff;stroke-width:16.76px;"/><path d="M528.982,493.147c-19.542,5.667 -32.812,-0.646 -42.292,-18.229c-5.666,-10.417 -13.729,-19.833 -21.208,-29.312c-2.229,-2.834 -7.333,-6.896 -8.896,-6.105c-4.324,2.17 -7.775,5.76 -9.771,10.167c-6.082,16.172 0.372,34.554 15.23,43.375c-1.188,0.612 -2.458,1.047 -3.771,1.292c-13.813,0 -27.646,0 -42.521,-0.792c14.583,-6.146 13.687,-18.229 13.625,-30.229c-0.153,-37.153 -0.153,-74.299 0,-111.438c0,-13.958 -1.979,-26.25 -19.354,-29.395c0.291,-1.105 0.604,-2.23 0.896,-3.355c9.354,0 18.875,-0.979 27.958,0.563c2.917,0.479 6.687,7.542 6.75,11.646c0.562,31.25 0.271,62.666 0.354,93.979c0,4.646 0.583,9.292 0.896,13.958l3.937,2.084c12.834,-13.855 26.084,-27.375 38,-41.959c1.605,-2.083 -3.395,-9.354 -5.416,-14.416l35.416,0l-40.145,31.812c-5.709,4.521 -7.646,9.313 -2.521,15.896c12.375,15.896 24.062,32.312 36.729,47.917c3.958,5 10.333,8.145 16.104,12.541Z" style="fill:#fff;fill-rule:nonzero;stroke:#fff;stroke-width:16.76px;"/><path d="M1473.4,493.522c-19.292,4.896 -33.854,0 -43.125,-19.812c-4.854,-10.417 -13.229,-19.042 -20.209,-28.334c-6.541,-8.75 -13.291,-8.104 -17.958,1.48c-6.979,14.354 -0.625,37.333 14.396,46.583l-46.208,0c16.791,-5.333 13.729,-19.667 13.791,-32.438c0.125,-34.437 0,-68.875 0,-103.312c0,-15.938 1.354,-32.458 -21.291,-35.146c1.541,-1.833 1.812,-2.417 2.083,-2.417c43.208,-2.375 34.25,-3.77 34.917,30.605c0.458,24.145 0,48.312 0.166,72.458c0,5.167 1.063,10.312 1.938,18.104c14.812,-14.583 28.229,-26.667 40.041,-40.208c2.084,-2.313 -2.812,-10.584 -4.5,-16.229l35.542,0c-12.667,10.083 -25.479,20.479 -38.542,30.583c-8.187,6.25 -8.02,12.5 -1.75,20.271c10.896,13.604 20.667,28.104 31.771,41.521c5.271,6.25 12.5,10.833 18.938,16.291Z" style="fill:#fff;fill-rule:nonzero;stroke:#fff;stroke-width:16.76px;"/><path d="M724.899,437.46c0.5,-35.104 21.916,-56.792 55.708,-56.354c31.708,0.395 52.708,24.062 52.083,58.687c-0.625,34.625 -23.458,57.979 -55.437,57.542c-32.479,-0.459 -52.854,-23.771 -52.354,-59.875Zm16.666,-0.313c3.438,13.021 5.855,26.146 10.417,38.479c3.852,11.57 15.2,19.072 27.354,18.084c12.048,-0.202 22.769,-7.899 26.813,-19.25c9.196,-22.602 9.338,-47.901 0.396,-70.604c-3.994,-11.382 -14.772,-19.072 -26.834,-19.146c-12.854,-0.479 -22.916,5.666 -27.833,17.312c-4.521,10.792 -6.729,22.688 -10.229,35.125l-0.084,0Z" style="fill:#fff;fill-rule:nonzero;stroke:#fff;stroke-width:16.76px;"/><path d="M276.357,472.21c-14.25,30.854 -61.437,34.416 -82.875,5.5c-17.208,-23.209 -13.958,-63.896 6.792,-84.209c14.937,-14.583 32.854,-14.77 51.312,-9.52c17.334,4.937 21.625,19.937 24.771,35.166c1.896,9.146 -0.875,14.334 -11.75,13.917c-16.979,-0.646 -34,0.125 -50.979,-0.25c-9.188,-0.188 -12.5,3.25 -12.354,12.646c0.812,28.958 20.354,47.916 47.375,42.729c9.958,-2.021 18.604,-10.604 27.708,-15.979Zm-46.75,-44.979l0,-0.105c7.125,0 14.354,0.667 21.333,-0.312c3.399,-0.954 6.106,-3.543 7.209,-6.896c2.187,-16.167 -7.354,-31.437 -20.834,-34.75c-12.916,-3.187 -26.625,5.667 -32.895,21.167c-6.813,16.875 -4.063,20.833 14.437,20.833l10.75,0.063Z" style="fill:#fff;fill-rule:nonzero;stroke:#fff;stroke-width:16.76px;"/><path d="M394.378,470.647c-2.35,3.871 -4.946,7.587 -7.771,11.125c-24.833,26.896 -70.833,17.813 -83.208,-16.541c-6.292,-16.403 -6.395,-34.548 -0.292,-51.021c10.417,-27.938 36.979,-40.292 65.063,-30.25c15.75,5.646 28.145,26.729 23.708,42.208c-0.854,2.979 -6.958,6.25 -10.75,6.25c-16.938,0.688 -33.938,0.708 -50.896,0.188c-10.854,-0.334 -14.021,4.375 -13.229,14.583c2.229,28.208 22.021,46.354 48.021,40.792c9.875,-2.042 18.479,-10.584 29.354,-17.334Zm-48.375,-43.5c6.667,0 13.5,0.792 19.979,-0.354c3.063,-0.542 7.604,-4.667 7.792,-7.417c1.271,-18.354 -8.334,-32.437 -22.521,-34.604c-13.458,-2.083 -26.646,8.021 -32.167,24.667c-4.791,14.396 -2.604,17.583 12.209,17.75c4.979,0 9.875,-0.042 14.708,-0.042Z" style="fill:#fff;fill-rule:nonzero;stroke:#fff;stroke-width:16.76px;"/><path d="M1221,471.376c-10.104,31.25 -60.646,33.48 -80.563,10.146c-19.916,-23.333 -16.791,-70.396 6.855,-90.312c15.27,-12.875 33.02,-13.25 50.5,-6.417c15.25,5.979 21.333,19.208 22.333,35.229c0.562,9 -2.083,13.209 -11.854,12.917c-16.959,-0.479 -33.959,0.167 -50.917,-0.208c-11.292,-0.23 -13.771,5.083 -11.979,15.166c5.437,30.688 20.833,45.209 47.25,40.188c10.167,-1.938 18.979,-10.959 28.375,-16.709Zm-46.875,-44.25c5.812,0 11.646,-0.375 17.417,0c10.041,0.792 12.395,-4.166 11.208,-13.041c-2.292,-17.313 -11.292,-28.584 -24.208,-29.604c-13.417,-1.084 -25.959,8.895 -31.063,24.75c-4.937,15.312 -3.167,17.729 13.229,17.833c4.459,0.104 8.938,0.083 13.417,0.062Z" style="fill:#fff;fill-rule:nonzero;stroke:#fff;stroke-width:16.76px;"/><path d="M1336.15,470.126c-3.167,12.98 -12.209,20.209 -23.875,24.125c-33.563,11.292 -63.729,-7.729 -68.354,-43.25c-2.084,-16.229 -0.209,-32.041 8.333,-46.645c16.667,-28.625 58.917,-32.98 76.667,-6.646c5.979,8.854 6.729,21.208 10.791,35.104l-62.5,0c-16.521,0 -18.125,2.083 -15.146,17.937c3.23,17.209 10.188,32.313 28.459,37c18.271,4.688 34.437,-0.291 45.625,-17.625Zm-45.834,-42.916c6.688,0 13.417,0.354 20.084,-0.188c2.625,-0.208 7.416,-2.896 7.271,-3.687c-1.98,-10.229 -2.355,-21.979 -8.021,-29.854c-3.896,-5.438 -15.584,-8.021 -23.375,-7.292c-12.729,1.167 -19.229,11.875 -23.042,23.437c-4.812,14.48 -2.583,17.5 12.333,17.646c4.938,-0.083 9.855,-0.125 14.771,-0.125l-0.021,0.063Z" style="fill:#fff;fill-rule:nonzero;stroke:#fff;stroke-width:16.76px;"/><path d="M707.628,389.314c-5.042,0.292 -10.125,0.896 -15.167,0.771c-9.166,-0.209 -12.708,4.166 -12.5,13.083c0.292,22.333 0,44.688 0.188,67.021c0.166,12.75 1.416,13.833 20.146,23.375l-50,0c14.375,-4.979 14.583,-16.667 14.583,-28.604c0,-18.75 -0.396,-37.5 0.146,-56.25c0.354,-12.292 -2.625,-20.25 -16.979,-18.75c-1.635,-0.198 -3.218,-0.699 -4.667,-1.479c0.164,-1.022 0.443,-2.021 0.833,-2.98c17.938,0.855 21.084,-9.27 21.813,-25c1.271,-27.291 23.333,-45.062 48.75,-40.958c4.5,0.729 9.062,4.688 12.125,8.333c0.958,1.167 -3,9.167 -4.584,9.125c-4.729,0 -10.541,-1.395 -13.895,-4.458c-12.605,-11.562 -18.917,-10.271 -24.271,6.479c-1.251,4.742 -2.163,9.567 -2.729,14.438c-4.521,26.75 -3.605,27.979 22.645,30.916c1.205,0.366 2.349,0.907 3.396,1.605c0.063,1.062 0.104,2.208 0.167,3.333Z" style="fill:#fff;fill-rule:nonzero;stroke:#fff;stroke-width:16.76px;"/><path d="M544.899,489.814l0,-31.729c3.729,6.833 6,11.375 8.583,15.708c8.333,14.104 24.5,21.938 38.313,18.75c9.354,-2.083 16.666,-6.25 17.812,-17.062c1.146,-10.813 -2.083,-19.5 -12.729,-23.938c-9.896,-4.167 -20.125,-7.437 -29.917,-11.75c-16.458,-7.25 -22.458,-18.521 -19.521,-35.25c2.292,-13.083 14.355,-22.604 30.48,-23.312c6.222,0.079 12.435,0.531 18.604,1.354l18.625,1.375l3.062,24.562l-3.041,1.292c-1.938,-2.979 -3.292,-6.729 -5.938,-8.792c-7.437,-5.833 -14.771,-12.791 -23.375,-15.896c-10.417,-3.77 -23.521,4.167 -26.062,13.521c-3.25,12.146 3.229,19.875 13.479,24.542c9.729,4.437 20.166,7.292 29.854,11.812c16.125,7.5 21.604,17 20.146,32.563c-1.354,14.104 -10.292,25 -26.771,27.458c-10.542,1.604 -21.771,-1.083 -32.667,-2.083c-5.604,-0.542 -11.146,-1.813 -18.937,-3.125Z" style="fill:#fff;fill-rule:nonzero;stroke:#fff;stroke-width:16.76px;"/><path d="M852.67,386.564c26.375,-6.813 33.187,-4.729 38.75,10.312c9.125,-5 17.812,-11.437 27.583,-14.708c11.083,-3.729 20.479,5.354 17.562,16.042c-1.041,3.875 -5.395,8.896 -8.854,9.396c-2.729,0.416 -8.812,-4.917 -9.208,-8.209c-1.417,-11.937 -7.646,-10.291 -14.813,-6.396c-9.062,4.959 -15.229,11.646 -14.77,23.292c0.625,16.042 0.875,32.188 0,48.188c-0.875,14.583 1.062,26.145 18.583,29.041l-53.333,0c16.041,-4.75 16.666,-15.083 16.208,-26.604c-0.604,-16.937 -0.646,-33.937 0,-50.875c0.5,-13.396 -0.917,-25.083 -17.708,-29.479Z" style="fill:#fff;fill-rule:nonzero;stroke:#fff;stroke-width:16.76px;"/></g><path d="M516.61,132.315l166.161,0c10.134,0 10.714,-0.402 10.692,-10.514c0,-26.562 -3.393,-52.455 -17.032,-75.893c-14.196,-24.419 -35.714,-35.067 -63.549,-32.477c-18.058,1.674 -31.451,12.187 -39.911,27.433c-6.696,12.12 -11.361,25.536 -15.892,38.728c-1.786,5.178 -4.576,6.696 -8.55,5.178c-1.986,-0.736 -3.973,-4.464 -3.995,-6.986c-0.134,-21.786 0.037,-43.565 0.513,-65.335c0,-2.411 2.232,-6.853 3.259,-6.697c3.594,0.246 9.152,1.027 10.246,3.371c3.75,7.902 7.902,5.87 13.571,2.768c42.947,-23.572 103.304,-11.161 133.661,32.209c16.63,23.817 23.572,49.889 23.661,78.416c0,10.044 0.58,10.022 10.045,10.111c6.138,0 6.852,-3.013 6.696,-7.968c-0.64,-20.584 3.397,-41.047 11.808,-59.844c22.947,-49.665 71.942,-74.041 124.442,-61.607c8.371,1.964 16.228,6.339 24.13,10.022c4.285,1.986 7.589,2.545 9.576,-2.589c2.232,-5.849 7.366,-6.206 11.763,-4.465c1.942,0.715 3.304,5.447 3.348,8.393c0.268,23.014 0.134,46.027 0.134,68.973c-9.286,3.304 -10.223,2.367 -13.393,-6.54c-4.464,-12.41 -8.303,-25.446 -15.089,-36.54c-20.089,-32.924 -64.732,-37.121 -91.741,-9.509c-16.563,16.853 -23.304,38.192 -26.54,60.826c-1.402,10.165 -2.148,20.409 -2.233,30.67c-0.133,9.687 0.603,9.955 10.38,9.955l165.759,0c3.46,9.889 2.455,11.674 -6.696,12.723c-13.393,1.541 -19.844,8.282 -19.889,21.742c0,16.25 0.38,32.522 0.871,48.794c0.134,4.152 -0.447,6.697 -4.889,8.661c-26.745,12.231 -56.055,17.814 -85.424,16.272c-19.128,-1.034 -37.454,-8.064 -52.366,-20.089c-22.165,-17.366 -35.446,-40.491 -40.982,-67.947c-1.273,-6.317 -3.549,-8.928 -10.201,-8.616c-6.652,0.313 -10.536,0 -12.366,8.728c-8.929,42.121 -32.857,72.634 -74.844,84.822c-22.322,6.696 -46.206,4.642 -69.018,-1.451c-11.563,-3.103 -22.634,-7.924 -34.018,-11.697c-4.308,-1.428 -5.67,-3.928 -5.513,-8.37c0.558,-14.755 0.982,-29.509 1.049,-44.264c0,-19.442 -3.817,-23.884 -23.081,-27.41c-5.602,-0.916 -5.848,-1.429 -4.553,-11.987Zm317.79,10.937l0,0.826l-43.526,0c-3.884,0 -7.567,0.603 -5.849,5.826c4.688,14.174 7.791,29.241 14.777,42.188c11.64,22.38 34.857,36.474 60.083,36.474c11.759,0 23.317,-3.063 33.533,-8.885c4.755,-2.656 7.791,-5.781 7.902,-11.607c0.201,-12.232 1.094,-24.554 1.161,-36.719c0,-17.857 -6.697,-25.022 -24.554,-26.116c-14.509,-0.893 -29.062,-1.339 -43.527,-1.987Zm-142.701,1.518c-3.705,-0.245 -6.696,-0.625 -9.486,-0.625l-63.795,0c-6.696,0 -13.393,0.38 -20.223,0.938c-18.237,1.518 -23.996,7.455 -24.264,25.402c-0.383,12.005 -0.152,24.022 0.692,36.004c0.38,4.263 3.326,10.089 6.831,12.054c23.058,12.835 47.165,14.397 69.777,0c26.272,-16.585 35.491,-43.661 40.446,-73.773l0.022,0Z" style="fill:#23861d;fill-rule:nonzero;"/></svg>