<svg xmlns="http://www.w3.org/2000/svg" xmlns:xlink="http://www.w3.org/1999/xlink" width="100%" height="100%" version="1.1" viewBox="0 0 1446 309" xml:space="preserve" style="fill-rule:evenodd;clip-rule:evenodd;stroke-linejoin:round;stroke-miterlimit:2"><g><g><path d="M591.762,142.638l-88.819,0c-2.292,0 -4.153,1.861 -4.153,4.153l0,43.425c0,2.292 1.861,4.158 4.153,4.158l34.648,0l0,53.952c0,0 -7.78,2.652 -29.29,2.652c-25.375,0 -60.824,-9.273 -60.824,-87.226c0,-77.967 36.914,-88.223 71.568,-88.223c29.996,0 42.92,5.279 51.143,7.826c2.585,0.789 4.974,-1.784 4.974,-4.076l9.909,-41.958c0,-1.074 -0.363,-2.362 -1.584,-3.24c-3.34,-2.385 -23.714,-13.783 -75.186,-13.783c-59.292,0 -120.116,25.225 -120.116,146.495c0,121.275 69.636,139.346 128.318,139.346c48.587,0 78.062,-20.762 78.062,-20.762c1.215,-0.672 1.347,-2.371 1.347,-3.149l0,-135.437c0,-2.292 -1.858,-4.153 -4.15,-4.153" style="fill:#fff;fill-rule:nonzero"/><path d="M1049.5,34.829c0,-2.313 -1.831,-4.176 -4.123,-4.176l-50.01,0c-2.286,0 -4.14,1.863 -4.14,4.176c0,0.009 0.011,96.646 0.011,96.646l-77.953,0l0,-96.646c0,-2.313 -1.84,-4.176 -4.129,-4.176l-50.007,0c-2.274,0 -4.129,1.863 -4.129,4.176l0,261.692c0,2.31 1.855,4.188 4.129,4.188l50.007,0c2.289,0 4.129,-1.878 4.129,-4.188l0,-111.937l77.953,0c0,0 -0.135,111.929 -0.135,111.937c0,2.31 1.852,4.188 4.144,4.188l50.127,0c2.289,0 4.121,-1.878 4.126,-4.188l0,-261.692Z" style="fill:#fff;fill-rule:nonzero"/><path d="M686.134,69.166c0,-18.006 -14.437,-32.558 -32.25,-32.558c-17.795,0 -32.242,14.552 -32.242,32.558c0,17.992 14.447,32.585 32.242,32.585c17.813,0 32.25,-14.593 32.25,-32.585" style="fill:#fff;fill-rule:nonzero"/><path d="M682.558,293.99l0,-173.469c0,-2.295 -1.849,-4.17 -4.138,-4.17l-49.851,0c-2.289,0 -4.335,2.359 -4.335,4.651l0,173.07c0,5.086 3.17,6.6 7.272,6.6l44.916,0c4.927,0 6.136,-2.424 6.136,-6.682Z" style="fill:#fff;fill-rule:nonzero"/><path d="M1239.56,116.744l-49.626,0c-2.277,0 -4.129,1.878 -4.129,4.187l0,128.313c0,0 -12.609,9.226 -30.504,9.226c-17.895,0 -22.643,-8.12 -22.643,-25.639l0,-111.9c0,-2.309 -1.849,-4.187 -4.126,-4.187l-50.368,0c-2.272,0 -4.135,1.878 -4.135,4.187l0,120.369c0,52.047 29.005,64.78 68.906,64.78c32.737,0 59.13,-18.089 59.13,-18.089c0,0 1.254,9.531 1.826,10.661c0.566,1.127 2.048,2.269 3.65,2.269l32.042,-0.144c2.272,0 4.135,-1.878 4.135,-4.179l-0.017,-175.667c0,-2.309 -1.855,-4.187 -4.141,-4.187" style="fill:#fff;fill-rule:nonzero"/><path d="M1355.63,258.312c-17.214,-0.525 -28.89,-8.337 -28.89,-8.337l0,-82.871c0,0 11.518,-7.061 25.65,-8.323c17.872,-1.602 35.091,3.798 35.091,46.428c0,44.957 -7.77,53.828 -31.851,53.103m19.573,-147.446c-28.186,0 -47.357,12.575 -47.357,12.575l0,-88.611c0,-2.313 -1.849,-4.176 -4.126,-4.176l-50.154,0c-2.28,0 -4.132,1.863 -4.132,4.176l0,261.692c0,2.31 1.852,4.185 4.138,4.185l34.797,0c1.567,0 2.753,-0.807 3.63,-2.221c0.866,-1.406 2.113,-12.067 2.113,-12.067c0,0 20.507,19.435 59.328,19.435c45.579,0 71.717,-23.118 71.717,-103.783c0,-80.664 -41.747,-91.205 -69.954,-91.205" style="fill:#fff;fill-rule:nonzero"/><path d="M826.291,116.328l-37.515,0c0,0 -0.055,-49.55 -0.055,-49.561c0,-1.875 -0.966,-2.815 -3.137,-2.815l-51.12,0c-1.987,0 -3.055,0.875 -3.055,2.788l0,51.214c0,0 -25.618,6.183 -27.35,6.682c-1.725,0.501 -2.996,2.092 -2.996,3.988l0,32.183c0,2.315 1.849,4.184 4.135,4.184l26.211,0l0,77.425c0,57.505 40.338,63.154 67.556,63.154c12.44,0 27.318,-3.994 29.774,-4.901c1.485,-0.545 2.35,-2.086 2.35,-3.753l0.041,-35.402c0,-2.31 -1.951,-4.179 -4.146,-4.179c-2.186,0 -7.779,0.889 -13.537,0.889c-18.426,0 -24.671,-8.566 -24.671,-19.658c0,-11.081 -0.003,-73.575 -0.003,-73.575l37.518,0c2.286,0 4.141,-1.869 4.141,-4.184l0,-40.309c0,-2.31 -1.855,-4.17 -4.141,-4.17" style="fill:#fff;fill-rule:nonzero"/></g><g><path d="M158.095,0c-87.302,0 -158.095,70.777 -158.095,158.095c0,69.848 45.299,129.109 108.115,150.013c7.901,1.464 10.802,-3.429 10.802,-7.605c0,-3.767 -0.147,-16.224 -0.215,-29.434c-43.982,9.563 -53.263,-18.653 -53.263,-18.653c-7.191,-18.271 -17.553,-23.133 -17.553,-23.133c-14.344,-9.812 1.081,-9.61 1.081,-9.61c15.875,1.115 24.235,16.294 24.235,16.294c14.1,24.167 36.984,17.179 46.005,13.14c1.422,-10.216 5.517,-17.193 10.038,-21.141c-35.115,-3.995 -72.029,-17.553 -72.029,-78.131c0,-17.258 6.176,-31.361 16.289,-42.432c-1.641,-3.985 -7.053,-20.064 1.534,-41.841c0,0 13.276,-4.246 43.485,16.208c12.611,-3.503 26.135,-5.259 39.571,-5.322c13.436,0.063 26.971,1.819 39.605,5.322c30.175,-20.454 43.432,-16.208 43.432,-16.208c8.606,21.777 3.194,37.856 1.553,41.841c10.137,11.071 16.268,25.174 16.268,42.432c0,60.724 -36.984,74.092 -72.188,78.006c5.67,4.906 10.723,14.527 10.723,29.277c0,21.153 -0.181,38.178 -0.181,43.385c0,4.21 2.843,9.139 10.857,7.587c62.785,-20.928 108.026,-80.168 108.026,-149.995c0,-87.318 -70.783,-158.095 -158.095,-158.095" style="fill:#fff"/><path d="M59.88,226.988c-0.349,0.788 -1.584,1.023 -2.71,0.482c-1.149,-0.516 -1.791,-1.587 -1.419,-2.375c0.34,-0.806 1.576,-1.031 2.723,-0.492c1.146,0.516 1.801,1.597 1.406,2.385" style="fill:#fff;fill-rule:nonzero"/><path d="M66.284,234.131c-0.754,0.699 -2.23,0.374 -3.228,-0.73c-1.037,-1.103 -1.228,-2.579 -0.463,-3.286c0.777,-0.699 2.207,-0.372 3.241,0.73c1.036,1.116 1.238,2.579 0.45,3.286" style="fill:#fff;fill-rule:nonzero"/><path d="M72.517,243.235c-0.968,0.676 -2.555,0.045 -3.534,-1.361c-0.969,-1.409 -0.969,-3.095 0.023,-3.77c0.98,-0.676 2.543,-0.066 3.535,1.327c0.966,1.43 0.966,3.116 -0.024,3.804" style="fill:#fff;fill-rule:nonzero"/><path d="M81.056,252.033c-0.866,0.955 -2.712,0.699 -4.063,-0.605c-1.382,-1.275 -1.767,-3.084 -0.9,-4.04c0.879,-0.958 2.735,-0.688 4.097,0.605c1.372,1.272 1.788,3.094 0.866,4.04" style="fill:#fff;fill-rule:nonzero"/><path d="M92.837,257.141c-0.385,1.238 -2.16,1.798 -3.95,1.272c-1.788,-0.542 -2.959,-1.99 -2.597,-3.241c0.371,-1.249 2.157,-1.833 3.961,-1.27c1.785,0.539 2.958,1.979 2.586,3.239" style="fill:#fff;fill-rule:nonzero"/><path d="M105.776,258.087c0.045,1.303 -1.474,2.385 -3.353,2.408c-1.89,0.045 -3.422,-1.013 -3.443,-2.296c0,-1.317 1.487,-2.385 3.375,-2.419c1.879,-0.036 3.421,1.013 3.421,2.307" style="fill:#fff;fill-rule:nonzero"/><path d="M117.815,256.039c0.226,1.269 -1.081,2.576 -2.947,2.924c-1.836,0.338 -3.535,-0.45 -3.768,-1.71c-0.227,-1.303 1.1,-2.61 2.935,-2.948c1.869,-0.324 3.542,0.44 3.78,1.734" style="fill:#fff;fill-rule:nonzero"/></g></g></svg>