<svg xmlns="http://www.w3.org/2000/svg" xmlns:xlink="http://www.w3.org/1999/xlink" id="esqpgaik9s51" shape-rendering="geometricPrecision" text-rendering="geometricPrecision" viewBox="0 0 300 360.35"><style>@keyframes esqpgaik9s516_to__to{0%{transform:translate(0,0)}}@keyframes esqpgaik9s517_to__to{0%{transform:translate(0,0)}}@keyframes esqpgaik9s518_to__to{0%{transform:translate(56.610001px,209.240005px)}}@keyframes esqpgaik9s519_c_o{0%{opacity:0}}#esqpgaik9s51{pointer-events:all}#esqpgaik9s51:hover #esqpgaik9s516_to{animation:esqpgaik9s516_to__to 1000ms linear 1 normal forwards}#esqpgaik9s51:hover #esqpgaik9s517_to{animation:esqpgaik9s517_to__to 1000ms linear 1 normal forwards}#esqpgaik9s51:hover #esqpgaik9s518_to{animation:esqpgaik9s518_to__to 1000ms linear 1 normal forwards}#esqpgaik9s51:hover #esqpgaik9s519{animation:esqpgaik9s519_c_o 1000ms linear 1 normal forwards}</style><g id="esqpgaik9s52"><g id="esqpgaik9s53"><rect id="esqpgaik9s54" width="300" height="360" fill="#1469F2" stroke="none" stroke-width="1" rx="4.4" ry="0" transform="matrix(1 0 0 1 0 0.35000000000000)"/><path id="esqpgaik9s55" fill="#154ACE" stroke="none" stroke-width="1" d="M191.720000,183.530000L191.560000,185.710000C190.927985,191.145154,189.315206,196.420568,186.800000,201.280000C181.847114,211.127568,173.394860,218.770260,163.100000,222.710000C162.100000,223.120000,161.010000,223.500000,159.900000,223.850000L158.670000,220C161.763713,219.028714,164.744143,217.727919,167.560000,216.120000C174.250598,212.261120,179.658360,206.519503,183.110000,199.610000C185.036360,195.825483,186.410331,191.784392,187.190000,187.610000L172.190000,187.610000L172.190000,183.550000Z" opacity=".5"/><path style="isolation:isolate" id="esqpgaik9s56" fill="#FFF" stroke="none" stroke-width="1" d="M161.490000,222.720000C171.784860,218.780260,180.237114,211.137568,185.190000,201.290000C187.723314,196.430686,189.353091,191.151702,190,185.710000L190.160000,183.530000L191.830000,183.530000L191.670000,185.710000C191.038733,191.148489,189.425946,196.427317,186.910000,201.290000C181.957114,211.137568,173.504860,218.780260,163.210000,222.720000C162.210000,223.120000,161.120000,223.500000,160.010000,223.850000L159.850000,223.350000Z" opacity=".1"/><path id="esqpgaik9s57" fill="#154ACE" stroke="none" stroke-width="1" d="M135.160000,220L133.930000,223.870000C132.820000,223.520000,131.750000,223.140000,130.730000,222.730000C120.420458,218.791706,111.956181,211.140684,107,201.280000C104.483558,196.421072,102.870708,191.145427,102.240000,185.710000L102.080000,183.530000L121.600000,183.530000L121.600000,187.590000L106.600000,187.590000C107.381630,191.765226,108.759033,195.806506,110.690000,199.590000C114.139321,206.498546,119.547887,212.237540,126.240000,216.090000C129.061251,217.715906,132.052511,219.027097,135.160000,220Z" opacity=".5"/><path style="isolation:isolate" id="esqpgaik9s58" fill="#FFF" stroke="none" stroke-width="1" d="M132.340000,222.720000C122.045140,218.780260,113.592886,211.137568,108.640000,201.290000C106.124054,196.427317,104.511267,191.148489,103.880000,185.710000L103.710000,183.530000L102,183.530000L102.170000,185.710000C102.823164,191.152989,104.459736,196.432037,107,201.290000C111.949756,211.139952,120.403083,218.783614,130.700000,222.720000C131.700000,223.120000,132.790000,223.500000,133.890000,223.850000L134.060000,223.350000Z" opacity=".1"/><path id="esqpgaik9s59" fill="#154ACE" stroke="none" stroke-width="1" d="M169.430000,257.360000L169.430000,279.240000L124.430000,279.240000L124.430000,257.360000L125.860000,255.450000C140.450000,250.270000,143.410000,236.760000,144,231.450000C144.089783,230.713226,144.139856,229.972155,144.150000,229.230000L149.720000,229.230000C149.730144,229.972155,149.780217,230.713226,149.870000,231.450000C150.470000,236.790000,153.420000,250.310000,168.010000,255.450000Z" opacity=".5"/><rect stroke-width="1" style="isolation:isolate" id="esqpgaik9s510" width="45.033" height="2.733" fill="#000" stroke="none" opacity=".1" rx="0" ry="0" transform="matrix(1 0 0 1 124.40000000000001 257.36000000000001)"/><path style="isolation:isolate" id="esqpgaik9s511" fill="#FFF" stroke="none" stroke-width="1" d="M128.220000,255.450000C142.810000,250.270000,145.770000,236.760000,146.360000,231.450000Q146.480000,230.340000,146.510000,229.230000L144.120000,229.230000C144.109856,229.972155,144.059783,230.713226,143.970000,231.450000C143.370000,236.790000,140.410000,250.310000,125.830000,255.450000L124.400000,257.360000L124.400000,279.240000L126.780000,279.240000L126.780000,257.360000Z" opacity=".1"/><path id="esqpgaik9s512" fill="#154ACE" stroke="none" stroke-width="1" d="M118,176.810000C118.100000,206.890000,131,231.220000,146.870000,231.220000C162.740000,231.220000,175.650000,206.890000,175.750000,176.810000Z" opacity=".5"/><path style="isolation:isolate" id="esqpgaik9s513" fill="#FFF" stroke="none" stroke-width="1" d="M123.170000,176.810000L118,176.810000C118.100000,206.890000,131,231.220000,146.870000,231.220000C147.730954,231.220049,148.590475,231.149815,149.440000,231.010000C134.790000,228.550000,123.260000,205.260000,123.170000,176.810000Z" opacity=".1"/><rect id="esqpgaik9s514" width="30.633" height="7.883" fill="#062784" stroke="none" stroke-width="1" opacity=".5" rx="0" ry="0" transform="matrix(1 0 0 1 131.59999999999999 265.73000000000002)"/><polygon style="isolation:isolate" id="esqpgaik9s515" fill="#50A1F9" stroke="none" stroke-width="1" points="133.03 266.81 162.23 266.81 162.23 265.73 131.6 265.73 131.6 273.61 133.03 273.61 133.03 266.81" opacity=".1"/><g id="esqpgaik9s516_to" transform="translate(0,0)"><path id="esqpgaik9s516" fill="#0A52E2" stroke="none" stroke-width="1" d="M300,65.500000L300,353C300,357.080000,298,360.390000,295.600000,360.390000L4.400000,360.390000C2,360.350000,0,357,0,353L0,138.730000C28,160.940000,65,177.090000,100,172.350000C162,164,181,96.820000,230,75C255.940000,63.450000,281.600000,63.180000,300,65.500000Z" opacity=".5" transform="translate(0,0)"/></g><g id="esqpgaik9s517_to" transform="translate(0,0)"><path id="esqpgaik9s517" fill="#0A52E2" stroke="none" stroke-width="1" d="M0,345L0,8.640000C0,3.870000,2,0,4.400000,0L295.600000,0C298,0,300,3.870000,300,8.640000L300,259.310000C272,233.310000,235,214.430000,200,219.970000C138,229.790000,119,308.350000,70,333.880000C44.060000,347.390000,18.400000,347.710000,0,345Z" opacity=".5" transform="translate(0,0)"/></g><g id="esqpgaik9s518_to" transform="translate(56.610001,209.240005)"><text id="esqpgaik9s518" fill="#FFF" stroke="none" stroke-width="1" dx="0" dy="0" font-family="Montserrat-Bold, Montserrat" font-size="44.233" font-weight="bold" transform="translate(0,11.058331)"><![CDATA[1st Prize]]></text></g><text id="esqpgaik9s519" fill="#FFF" stroke="none" stroke-width="1" dx="0" dy="0" font-family="Montserrat-ExtraBold, Montserrat" font-size="43.35" font-weight="bold" opacity="0" transform="matrix(1 0 0 1 40.68999862670898 129.15749740600586)"><![CDATA[Rs. 15,000]]></text></g></g></svg>