<svg id="eakxawnjoah71" xmlns="http://www.w3.org/2000/svg" xmlns:xlink="http://www.w3.org/1999/xlink" viewBox="0 0 300 360.350000" shape-rendering="geometricPrecision" text-rendering="geometricPrecision"><style><![CDATA[#eakxawnjoah720_to {animation: eakxawnjoah720_to__to 1000ms linear infinite normal forwards}@keyframes eakxawnjoah720_to__to { 0% {transform: translate(0px,-1px);animation-timing-function: cubic-bezier(0.680000,-0.550000,0.265000,1.550000)} 50% {transform: translate(5.000781px,-5.002500px);animation-timing-function: cubic-bezier(0.680000,-0.550000,0.265000,1.550000)} 100% {transform: translate(0.000781px,-1.002500px)} }]]></style><g id="eakxawnjoah72"><g id="eakxawnjoah73"><rect id="eakxawnjoah74" width="300" height="360" rx="4.400000" ry="0" transform="matrix(1 0 0 1 0 0.35000000000000)" fill="rgb(20,105,242)" stroke="none" stroke-width="1"/><path id="eakxawnjoah75" d="M191.720000,183.530000L191.560000,185.710000C190.927985,191.145154,189.315206,196.420568,186.800000,201.280000C181.847114,211.127568,173.394860,218.770260,163.100000,222.710000C162.100000,223.120000,161.010000,223.500000,159.900000,223.850000L158.670000,220C161.763713,219.028714,164.744143,217.727919,167.560000,216.120000C174.250598,212.261120,179.658360,206.519503,183.110000,199.610000C185.036360,195.825483,186.410331,191.784392,187.190000,187.610000L172.190000,187.610000L172.190000,183.550000Z" opacity="0.5" fill="rgb(21,74,206)" stroke="none" stroke-width="1"/><path id="eakxawnjoah76" style="isolation:isolate" d="M161.490000,222.720000C171.784860,218.780260,180.237114,211.137568,185.190000,201.290000C187.723314,196.430686,189.353091,191.151702,190,185.710000L190.160000,183.530000L191.830000,183.530000L191.670000,185.710000C191.038733,191.148489,189.425946,196.427317,186.910000,201.290000C181.957114,211.137568,173.504860,218.780260,163.210000,222.720000C162.210000,223.120000,161.120000,223.500000,160.010000,223.850000L159.850000,223.350000Z" opacity="0.1" fill="rgb(255,255,255)" stroke="none" stroke-width="1"/><path id="eakxawnjoah77" d="M135.160000,220L133.930000,223.870000C132.820000,223.520000,131.750000,223.140000,130.730000,222.730000C120.420458,218.791706,111.956181,211.140684,107,201.280000C104.483558,196.421072,102.870708,191.145427,102.240000,185.710000L102.080000,183.530000L121.600000,183.530000L121.600000,187.590000L106.600000,187.590000C107.381630,191.765226,108.759033,195.806506,110.690000,199.590000C114.139321,206.498546,119.547887,212.237540,126.240000,216.090000C129.061251,217.715906,132.052511,219.027097,135.160000,220Z" opacity="0.5" fill="rgb(21,74,206)" stroke="none" stroke-width="1"/><path id="eakxawnjoah78" style="isolation:isolate" d="M132.340000,222.720000C122.045140,218.780260,113.592886,211.137568,108.640000,201.290000C106.124054,196.427317,104.511267,191.148489,103.880000,185.710000L103.710000,183.530000L102,183.530000L102.170000,185.710000C102.823164,191.152989,104.459736,196.432037,107,201.290000C111.949756,211.139952,120.403083,218.783614,130.700000,222.720000C131.700000,223.120000,132.790000,223.500000,133.890000,223.850000L134.060000,223.350000Z" opacity="0.1" fill="rgb(255,255,255)" stroke="none" stroke-width="1"/><path id="eakxawnjoah79" d="M169.430000,257.360000L169.430000,279.240000L124.430000,279.240000L124.430000,257.360000L125.860000,255.450000C140.450000,250.270000,143.410000,236.760000,144,231.450000C144.089783,230.713226,144.139856,229.972155,144.150000,229.230000L149.720000,229.230000C149.730144,229.972155,149.780217,230.713226,149.870000,231.450000C150.470000,236.790000,153.420000,250.310000,168.010000,255.450000Z" opacity="0.5" fill="rgb(21,74,206)" stroke="none" stroke-width="1"/><rect id="eakxawnjoah710" style="isolation:isolate" width="45.033300" height="2.733330" rx="0" ry="0" transform="matrix(1 0 0 1 124.40000000000001 257.36000000000001)" opacity="0.1" fill="rgb(0,0,0)" stroke="none" stroke-width="1"/><path id="eakxawnjoah711" style="isolation:isolate" d="M128.220000,255.450000C142.810000,250.270000,145.770000,236.760000,146.360000,231.450000Q146.480000,230.340000,146.510000,229.230000L144.120000,229.230000C144.109856,229.972155,144.059783,230.713226,143.970000,231.450000C143.370000,236.790000,140.410000,250.310000,125.830000,255.450000L124.400000,257.360000L124.400000,279.240000L126.780000,279.240000L126.780000,257.360000Z" opacity="0.1" fill="rgb(255,255,255)" stroke="none" stroke-width="1"/><path id="eakxawnjoah712" d="M118,176.810000C118.100000,206.890000,131,231.220000,146.870000,231.220000C162.740000,231.220000,175.650000,206.890000,175.750000,176.810000Z" opacity="0.5" fill="rgb(21,74,206)" stroke="none" stroke-width="1"/><path id="eakxawnjoah713" style="isolation:isolate" d="M123.170000,176.810000L118,176.810000C118.100000,206.890000,131,231.220000,146.870000,231.220000C147.730954,231.220049,148.590475,231.149815,149.440000,231.010000C134.790000,228.550000,123.260000,205.260000,123.170000,176.810000Z" opacity="0.1" fill="rgb(255,255,255)" stroke="none" stroke-width="1"/><rect id="eakxawnjoah714" width="30.633300" height="7.883330" rx="0" ry="0" transform="matrix(1 0 0 1 131.59999999999999 265.73000000000002)" opacity="0.5" fill="rgb(6,39,132)" stroke="none" stroke-width="1"/><polygon id="eakxawnjoah715" style="isolation:isolate" points="133.030000,266.810000 162.230000,266.810000 162.230000,265.730000 131.600000,265.730000 131.600000,273.610000 133.030000,273.610000 133.030000,266.810000" opacity="0.1" fill="rgb(80,161,249)" stroke="none" stroke-width="1"/><path id="eakxawnjoah716" d="M300,65.500000L300,353C300,357.080000,298,360.390000,295.600000,360.390000L4.400000,360.390000C2,360.350000,0,357,0,353L0,138.730000C28,160.940000,65,177.090000,100,172.350000C162,164,181,96.820000,230,75C255.940000,63.450000,281.600000,63.180000,300,65.500000Z" opacity="0.5" fill="rgb(10,82,226)" stroke="none" stroke-width="1"/><path id="eakxawnjoah717" d="M0,345L0,8.640000C0,3.870000,2,0,4.400000,0L295.600000,0C298,0,300,3.870000,300,8.640000L300,259.310000C272,233.310000,235,214.430000,200,219.970000C138,229.790000,119,308.350000,70,333.880000C44.060000,347.390000,18.400000,347.710000,0,345Z" opacity="0.5" fill="rgb(10,82,226)" stroke="none" stroke-width="1"/><text id="eakxawnjoah718" dx="0" dy="0" font-family="Montserrat-Bold, Montserrat" font-size="44.233300" font-weight="bold" transform="matrix(1 0 0 1 56.61000061035156 220.29833602905273)" fill="rgb(255,255,255)" stroke="none" stroke-width="1"><![CDATA[1st Prize]]></text><text id="eakxawnjoah719" dx="0" dy="0" font-family="Montserrat-ExtraBold, Montserrat" font-size="43.350000" font-weight="bold" transform="matrix(1 0 0 1 40.68999862670898 129.15749740600586)" opacity="0" fill="rgb(255,255,255)" stroke="none" stroke-width="1"><![CDATA[Rs. 15,000]]></text><g id="eakxawnjoah720_to" transform="translate(0,-1)"><g id="eakxawnjoah720" transform="translate(0,0)"><path id="eakxawnjoah721" d="M144.620000,337.240000C143.260000,334.110000,141.910000,331.030000,140.570000,327.950000C140.122772,327.002736,139.728824,326.031222,139.390000,325.040000C138.841653,323.216152,139.731946,321.268637,141.470000,320.490000C143.242570,319.764774,145.275338,320.516203,146.150000,322.220000C146.740000,323.330000,147.220000,324.500000,147.750000,325.660000C148.360000,325.440000,148.910000,325.210000,149.480000,325.040000C150.379948,324.656624,151.421700,324.845318,152.130000,325.520000C152.620000,326.030000,152.990000,325.850000,153.500000,325.670000C154.169470,325.382017,154.882905,325.209575,155.610000,325.160000C156.805413,325.161550,157.885820,325.872655,158.360000,326.970000C158.720000,327.690000,159.030000,328.430000,159.360000,329.210000L160.180000,328.980000C162.052745,328.337845,164.109931,329.196795,164.970000,330.980000C167.281230,335.186405,168.362419,339.958193,168.090000,344.750000C168.117145,345.494039,167.654173,346.168191,166.950000,346.410000C162.290000,348.410000,157.640000,350.460000,153,352.520000C152.443089,352.838248,151.744565,352.761531,151.270000,352.330000C148.040000,349.750000,144.760000,347.210000,141.520000,344.640000C140.947296,344.196328,140.436148,343.678454,140,343.100000C139.164377,342.082388,138.964587,340.684278,139.481753,339.473353C139.998919,338.262428,141.147064,337.439998,142.460000,337.340000C143.110000,337.250000,143.780000,337.280000,144.620000,337.240000ZM148.380000,327.130000C148.900000,328.320000,149.380000,329.400000,149.850000,330.490000C150.199894,331.177870,150.500646,331.889649,150.750000,332.620000C150.820000,332.910000,150.490000,333.300000,150.340000,333.620000C150.016756,333.506578,149.707969,333.355541,149.420000,333.170000C149.230000,333,149.180000,332.670000,149.060000,332.420000Q147.060000,327.950000,145.110000,323.470000C144.740000,322.630000,144.230000,321.820000,143.270000,321.800000C142.542774,321.786633,141.834281,322.031063,141.270000,322.490000C140.568519,323.185738,140.428510,324.268745,140.930000,325.120000C142.250000,328.120000,143.590000,331.120000,144.850000,334.120000C145.850000,336.550000,146.850000,339,149.060000,340.650000C149.290000,340.820000,149.210000,341.410000,149.280000,341.800000C148.850000,341.800000,148.280000,341.890000,148.010000,341.670000C147.325623,341.119094,146.686878,340.513791,146.100000,339.860000C145.113721,338.859050,143.647585,338.499286,142.310000,338.930000C141.630803,339.032193,141.056268,339.485902,140.799411,340.122908C140.542554,340.759914,140.641666,341.485254,141.060000,342.030000C141.402138,342.558594,141.831580,343.025231,142.330000,343.410000Q146.980000,347.130000,151.690000,350.760000C152.035264,350.987969,152.464135,351.050283,152.860000,350.930000Q159.390000,348.140000,165.860000,345.220000C166.224600,345.006765,166.471470,344.638302,166.530000,344.220000C166.920000,339.700000,165.530000,335.560000,163.530000,331.600000C163.225014,330.972695,162.652909,330.516788,161.973354,330.359520C161.293799,330.202251,160.579569,330.360463,160.030000,330.790000C160.470000,331.790000,160.960000,332.790000,161.320000,333.880000C161.440000,334.200000,161.190000,334.650000,161.110000,335.040000C160.714008,334.874702,160.335472,334.670359,159.980000,334.430000C159.807892,334.210893,159.682021,333.959150,159.610000,333.690000L157.210000,328.200000C156.520000,326.610000,155.790000,326.320000,154.210000,326.980000C153.900000,327.120000,153.610000,327.270000,153.270000,327.440000C154.020000,329.150000,154.760000,330.770000,155.410000,332.440000C155.530000,332.740000,155.240000,333.190000,155.140000,333.580000C154.771254,333.420171,154.416662,333.229494,154.080000,333.010000C153.900000,332.870000,153.850000,332.580000,153.750000,332.360000C153.050000,330.750000,152.350000,329.140000,151.630000,327.540000C151.090000,326.360000,150.630000,326.170000,149.380000,326.650000C149.120000,326.760000,148.820000,326.920000,148.380000,327.130000Z" fill="rgb(67,67,67)" stroke="none" stroke-width="1"/><path id="eakxawnjoah722" d="M142.410000,318.100000C142.210000,318.290000,141.980000,318.660000,141.690000,318.720000C141.371132,318.684883,141.088470,318.498921,140.930000,318.220000C140.670618,317.351315,140.489890,316.461063,140.390000,315.560000C140.362480,315.213721,140.596673,314.900973,140.936700,314.829922C141.276727,314.758872,141.616558,314.951675,141.730000,315.280000C142,316.140000,142.160000,317,142.410000,318.100000Z" fill="rgb(67,67,67)" stroke="none" stroke-width="1"/><path id="eakxawnjoah723" d="M137.630000,332.600000C137.470000,332.200000,137.100000,331.730000,137.210000,331.500000C137.669180,330.640389,138.204666,329.823772,138.810000,329.060000C139.057928,328.898564,139.371431,328.875902,139.640000,329C139.840000,329.120000,140.050000,329.610000,139.960000,329.760000C139.460000,330.630000,138.880000,331.460000,138.300000,332.280000C138.220000,332.400000,138,332.430000,137.630000,332.600000Z" fill="rgb(67,67,67)" stroke="none" stroke-width="1"/><path id="eakxawnjoah724" d="M147.470000,316C147.744799,315.963184,148.015890,316.089694,148.164185,316.323956C148.312479,316.558219,148.310845,316.857372,148.160000,317.090000C147.738536,317.850516,147.257005,318.576157,146.720000,319.260000C146.470461,319.469233,146.134669,319.543853,145.820000,319.460000C145.630000,319.400000,145.370000,318.870000,145.450000,318.730000C145.960000,317.830000,146.550000,316.970000,147.130000,316.110000C147.190000,316,147.390000,316,147.470000,316Z" fill="rgb(67,67,67)" stroke="none" stroke-width="1"/><path id="eakxawnjoah725" d="M134.480000,326.470000C134.310000,326.310000,133.870000,326.100000,133.850000,325.840000C133.878574,325.487441,134.081123,325.172365,134.390000,325C135.181689,324.743015,136.000477,324.578586,136.830000,324.510000C137.120000,324.510000,137.450000,324.890000,137.750000,325.090000C137.550000,325.370000,137.390000,325.820000,137.130000,325.910000C136.257308,326.143887,135.372706,326.330822,134.480000,326.470000Z" fill="rgb(67,67,67)" stroke="none" stroke-width="1"/><path id="eakxawnjoah726" d="M138.710000,320.900000C138.300000,321.050000,137.830000,321.400000,137.560000,321.280000C136.898456,320.978582,136.285149,320.580943,135.740000,320.100000C135.560437,319.866001,135.515018,319.555640,135.620000,319.280000C135.730000,319.070000,136.200000,318.830000,136.350000,318.910000C137.070761,319.319931,137.765426,319.774135,138.430000,320.270000C138.530000,320.330000,138.550000,320.510000,138.710000,320.900000Z" fill="rgb(67,67,67)" stroke="none" stroke-width="1"/><path id="eakxawnjoah727" d="M148.750000,323.340000C148.580000,323.200000,148.100000,322.960000,148.120000,322.750000C148.176839,322.375781,148.401487,322.048016,148.730000,321.860000C149.243035,321.635989,149.800826,321.533328,150.360000,321.560000C150.705396,321.629026,150.993946,321.865112,151.130000,322.190000C151.200000,322.360000,150.860000,322.830000,150.600000,322.930000C149.995888,323.118175,149.377050,323.255323,148.750000,323.340000Z" fill="rgb(67,67,67)" stroke="none" stroke-width="1"/><path id="eakxawnjoah728" d="M134.810000,317.900000C134.220000,318.270000,133.810000,318.660000,133.680000,318.580000C133.233822,318.274743,132.821488,317.922750,132.450000,317.530000C132.710000,317.310000,133.040000,316.870000,133.220000,316.920000C133.784044,317.187905,134.317195,317.516513,134.810000,317.900000Z" fill="rgb(67,67,67)" stroke="none" stroke-width="1"/><path id="eakxawnjoah729" d="M153.940000,320.430000L154.750000,321.510000C154.406000,321.840446,154.006588,322.107849,153.570000,322.300000C153.370000,322.350000,153.030000,321.850000,152.750000,321.600000Z" fill="rgb(67,67,67)" stroke="none" stroke-width="1"/><path id="eakxawnjoah730" d="M148.380000,327.130000C148.820000,326.920000,149.120000,326.760000,149.450000,326.630000C150.670000,326.150000,151.160000,326.340000,151.700000,327.520000C152.420000,329.120000,153.120000,330.730000,153.820000,332.340000C153.920000,332.560000,153.970000,332.850000,154.150000,332.990000C154.486662,333.209494,154.841254,333.400171,155.210000,333.560000C155.310000,333.170000,155.600000,332.720000,155.480000,332.420000C154.830000,330.760000,154.090000,329.140000,153.340000,327.420000C153.680000,327.250000,153.970000,327.100000,154.280000,326.960000C155.840000,326.300000,156.570000,326.590000,157.280000,328.180000L159.680000,333.670000C159.752021,333.939150,159.877892,334.190893,160.050000,334.410000C160.405472,334.650359,160.784008,334.854702,161.180000,335.020000C161.260000,334.630000,161.510000,334.180000,161.390000,333.860000C161.030000,332.800000,160.540000,331.790000,160.100000,330.770000C160.649569,330.340463,161.363799,330.182251,162.043354,330.339520C162.722909,330.496788,163.295014,330.952695,163.600000,331.580000C165.600000,335.580000,166.980000,339.680000,166.600000,344.200000C166.541470,344.618302,166.294600,344.986765,165.930000,345.200000Q159.460000,348.110000,152.930000,350.910000C152.534135,351.030283,152.105264,350.967969,151.760000,350.740000Q147.050000,347.110000,142.400000,343.390000C141.901580,343.005231,141.472138,342.538594,141.130000,342.010000C140.711666,341.465254,140.612554,340.739914,140.869411,340.102908C141.126268,339.465902,141.700803,339.012193,142.380000,338.910000C143.717585,338.479286,145.183721,338.839050,146.170000,339.840000C146.756878,340.493791,147.395623,341.099094,148.080000,341.650000C148.380000,341.870000,148.920000,341.750000,149.350000,341.780000C149.280000,341.390000,149.350000,340.780000,149.130000,340.630000C146.890000,338.980000,145.940000,336.530000,144.920000,334.100000C143.660000,331.100000,142.320000,328.100000,141,325.100000C140.498510,324.248745,140.638519,323.165738,141.340000,322.470000C141.904281,322.011063,142.612774,321.766633,143.340000,321.780000C144.340000,321.780000,144.810000,322.610000,145.180000,323.450000Q147.180000,327.940000,149.130000,332.400000C149.250000,332.650000,149.300000,332.980000,149.490000,333.150000C149.777969,333.335541,150.086756,333.486578,150.410000,333.600000C150.560000,333.250000,150.890000,332.860000,150.820000,332.600000C150.570646,331.869649,150.269894,331.157870,149.920000,330.470000C149.380000,329.400000,148.900000,328.320000,148.380000,327.130000ZM152.570000,350.590000L152.970000,350.210000L153.750000,349.900000L157.750000,348.130000C158.840000,347.660000,159.950000,347.230000,160.990000,346.670000C161.270000,346.520000,161.350000,345.970000,161.510000,345.610000C161.160000,345.510000,160.800000,345.400000,160.440000,345.310000C160.380000,345.310000,160.310000,345.310000,160.240000,345.380000C157.780000,346.460000,155.310000,347.520000,152.870000,348.640000C152.520250,348.868634,152.278419,349.229575,152.200000,349.640000C152.170000,349.910000,152.440000,350.270000,152.570000,350.590000ZM164.780000,344.930000L164.780000,344.520000C164.520000,344.300000,164.170000,343.850000,164.010000,343.910000C163.460140,344.180599,162.934832,344.498461,162.440000,344.860000C162.660000,345.120000,162.940000,345.630000,163.110000,345.590000C163.686960,345.425287,164.246320,345.204223,164.780000,344.930000Z" fill="rgb(255,255,255)" stroke="none" stroke-width="1"/><path id="eakxawnjoah731" d="M164.780000,344.930000C164.243121,345.204832,163.680384,345.425907,163.100000,345.590000C162.930000,345.590000,162.650000,345.120000,162.430000,344.860000C162.924832,344.498461,163.450140,344.180599,164,343.910000C164.160000,343.850000,164.510000,344.300000,164.770000,344.520000Z" fill="rgb(67,67,67)" stroke="none" stroke-width="1"/><path id="eakxawnjoah732" d="M152.570000,350.590000C152.440000,350.270000,152.170000,349.910000,152.230000,349.590000C152.308419,349.179575,152.550250,348.818634,152.900000,348.590000C155.340000,347.470000,157.810000,346.410000,160.270000,345.330000C160.340000,345.330000,160.410000,345.250000,160.470000,345.260000C160.830000,345.350000,161.190000,345.460000,161.540000,345.560000C161.380000,345.920000,161.300000,346.470000,161.020000,346.620000C160.020000,347.180000,158.870000,347.620000,157.780000,348.080000L153.780000,349.850000L153,350.160000Z" fill="rgb(67,67,67)" stroke="none" stroke-width="1"/></g></g></g></g></svg>