<svg xmlns="http://www.w3.org/2000/svg" xmlns:xlink="http://www.w3.org/1999/xlink" width="100%" height="100%" version="1.1" viewBox="0 0 4284 2496" xml:space="preserve" style="fill-rule:evenodd;clip-rule:evenodd;stroke-linejoin:round;stroke-miterlimit:2"><circle cx="1370.85" cy="1216.68" r="1216.68" style="fill:#f2f2f2"/><path d="M4283.33,2158.32c-0.006,2.958 -0.243,5.911 -0.708,8.833c-29.75,182.333 -976.917,328.667 -2140.96,328.667c-1164.04,0 -2111.21,-146.334 -2140.96,-328.667c-0.465,-2.922 -0.702,-5.875 -0.708,-8.833c0,-0.834 0,-1.709 0.083,-2.542c0,-0.459 0.042,-0.875 0.042,-1.334c0.034,-0.164 0.048,-0.332 0.042,-0.5c0.166,-1.875 0.416,-3.666 0.75,-5.5c13.583,-74.541 180.625,-143.041 453.083,-197.916c222.833,-44.875 516.208,-80.667 853.875,-103.167c256.25,-17.083 538,-26.542 833.792,-26.542c238,0 466.916,6.125 680.75,17.375l0.083,0c44.75,2.375 88.833,4.973 132.25,7.792c297.208,19.25 560.958,48.708 773.458,85.583c130.709,22.709 242.084,48.25 329.958,75.917l0.042,0c135.25,42.625 215,90.417 224.209,140.958c0.333,1.834 0.583,3.625 0.749,5.5c-0.006,0.168 0.008,0.336 0.042,0.5c0,0.459 0.042,0.876 0.042,1.334c0.083,0.833 0.083,1.708 0.083,2.542Z" style="fill:#3f3d56;fill-rule:nonzero"/><ellipse cx="2087.5" cy="2383.32" rx="687.5" ry="100" style="fill-opacity:.1"/><path d="M4058.17,2007.49c-24.042,6.875 -51.125,13.25 -80.833,19.083c-122.334,24.084 -289.25,38.875 -473.042,38.875c-205.333,0 -389.375,-18.458 -514.083,-47.666c-103.5,-24.25 -166.167,-55.792 -166.167,-90.417c0,-30.417 48.5,-58.583 130.708,-81.375c297.209,19.25 560.959,48.709 773.459,85.584c130.708,22.708 242.083,48.249 329.958,75.916Z" style="fill-opacity:.1;fill-rule:nonzero"/><path d="M2216.67,1961.45c0,63.041 -395.5,114.166 -883.334,114.166c-487.833,0 -883.333,-51.125 -883.333,-114.166c0.105,-3.978 1.511,-7.813 4,-10.917c222.833,-44.875 516.208,-80.667 853.875,-103.167c8.458,-0.042 16.944,-0.055 25.458,-0.042c487.834,0 883.334,51.084 883.334,114.125Z" style="fill-opacity:.1;fill-rule:nonzero"/><g><rect width="173.689" height="560.768" x="1410.3" y="987.396" style="fill:#8a8b8c"/><rect width="173.689" height="547.777" x="1991.17" y="735.028" style="fill:#6c63ff"/><rect width="173.689" height="163.764" x="1084.97" y="724.381" style="fill:#8a8b8c"/><rect width="173.689" height="163.764" x="787.075" y="728.636" style="fill:#8a8b8c"/><rect width="173.689" height="163.764" x="472.155" y="728.636" style="fill:#8a8b8c"/><rect width="173.689" height="560.768" x="1084.97" y="987.396" style="fill:#6c63ff"/><rect width="173.689" height="560.768" x="787.075" y="991.651" style="fill:#6c63ff"/><rect width="173.689" height="560.768" x="472.155" y="991.651" style="fill:#6c63ff"/><rect width="456.554" height="163.764" x="1410.3" y="724.381" style="fill:#6c63ff"/><rect width="456.554" height="163.764" x="1989.58" y="1377.48" style="fill:#8a8b8c"/></g><path d="M3139.24,2126.4c0,203.073 -283.059,140.261 -629.637,140.261c-346.578,0 -625.432,62.812 -625.432,-140.261c0,-203.073 283.021,-247.239 629.599,-247.239c346.577,0 625.47,44.166 625.47,247.239Z" style="fill-opacity:.1;fill-rule:nonzero"/><path d="M3139.24,2076.4c0,203.073 -283.059,140.261 -629.637,140.261c-346.578,0 -625.432,62.812 -625.432,-140.261c0,-203.073 283.021,-247.239 629.599,-247.239c346.577,0 625.47,44.166 625.47,247.239Z" style="fill:#3f3d56;fill-rule:nonzero"/><path d="M3081.42,1711.84l14.307,59.014c0.159,0.658 0.134,1.347 -0.072,1.992l-64.898,202.806c-0.487,1.522 -1.912,2.562 -3.51,2.562c-1.866,0 -3.452,-1.416 -3.663,-3.27l-8.978,-79.005c-0.059,-0.524 -0.005,-1.056 0.158,-1.558l59.569,-182.815c0.493,-1.513 1.913,-2.544 3.505,-2.544c1.695,0 3.183,1.17 3.582,2.818Z" style="fill:#2f2e41;fill-rule:nonzero"/><path d="M3076.16,1716.83l13.213,50.633l-57.242,184.925l-13.208,-57.237l57.237,-178.321Z" style="fill:#f2f2f2;fill-rule:nonzero"/><path d="M2787.77,1992.01c2.202,6.605 228.955,-2.201 231.156,-4.402c1.919,-2.757 3.543,-5.709 4.843,-8.806c2.07,-4.403 3.963,-8.806 3.963,-8.806l-8.806,-71.284l-224.551,-7.97c0,0 -5.614,60.409 -6.759,88.06c-0.39,4.397 -0.338,8.822 0.154,13.208Z" style="fill:#2f2e41;fill-rule:nonzero"/><path d="M2990.3,1908.35l4.4,61.642l-99.066,0l-0.001,-61.642l94.667,0Z" style="fill-opacity:.1;fill-rule:nonzero"/><path d="M2862.62,1928.17l0.591,-0.117l-2.791,26.533l-55.038,0l0,-26.416l57.238,0Z" style="fill-opacity:.1;fill-rule:nonzero"/><path d="M2787.77,1992.01c2.202,6.605 228.955,-2.201 231.156,-4.402c1.919,-2.757 3.543,-5.709 4.843,-8.806l-236.153,0c-0.39,4.397 -0.338,8.822 0.154,13.208Z" style="fill-opacity:.1;fill-rule:nonzero"/><path d="M2437.73,1760.86l61.641,0l151.903,-59.44c0,0 107.872,-44.03 99.066,39.627c-8.806,83.656 -24.216,195.931 -24.216,195.931c0,0 -48.433,-22.014 -74.85,-15.41c-26.418,6.605 -8.806,-134.29 -8.806,-134.29c0,0 -215.745,103.469 -235.559,90.26c-19.813,-13.208 -24.216,-105.671 -24.216,-105.671l55.037,-11.007Z" style="fill:#2f2e41;fill-rule:nonzero"/><path d="M2437.73,1760.86l61.641,0l151.903,-59.44c0,0 107.872,-44.03 99.066,39.627c-8.806,83.656 -24.216,195.931 -24.216,195.931c0,0 -48.433,-22.014 -74.85,-15.41c-26.418,6.605 -8.806,-134.29 -8.806,-134.29c0,0 -215.745,103.469 -235.559,90.26c-19.813,-13.208 -24.216,-105.671 -24.216,-105.671l55.037,-11.007Z" style="fill-opacity:.1;fill-rule:nonzero"/><path d="M2534.85,1567.82l74.599,107.181l173.917,145.298c0,0 160.708,37.425 138.694,63.843c-22.015,26.418 -156.305,-26.418 -156.305,-26.418c0,0 -200.335,-145.298 -206.939,-156.305c-6.605,-11.007 -79.254,-114.477 -79.254,-114.477l55.288,-19.122Z" style="fill:#a0616a;fill-rule:nonzero"/><path d="M2534.85,1567.82l74.599,107.181l173.917,145.298c0,0 160.708,37.425 138.694,63.843c-22.015,26.418 -156.305,-26.418 -156.305,-26.418c0,0 -200.335,-145.298 -206.939,-156.305c-6.605,-11.007 -79.254,-114.477 -79.254,-114.477l55.288,-19.122Z" style="fill-opacity:.1;fill-rule:nonzero"/><circle cx="2523.59" cy="1351.38" r="99.067" style="fill:#a0616a"/><path d="M2516.98,1439.44c0,0 -33.022,57.238 -39.626,88.059c-6.605,30.821 -99.067,-61.641 -99.067,-61.641l-12.108,-31.922c0,0 86.958,-40.727 80.354,-73.75c-6.604,-33.022 70.447,79.254 70.447,79.254Z" style="fill:#a0616a;fill-rule:nonzero"/><path d="M2490.57,1481.27l48.433,94.664c0,0 -11.007,46.231 -28.619,50.634c-17.612,4.403 -92.462,-57.239 -92.462,-57.239l72.648,-88.059Z" style="fill:#d0cde1;fill-rule:nonzero"/><path d="M2534.6,1611.15l90.261,118.88l215.745,160.708c0,0 156.305,33.023 121.081,57.239c-35.223,24.216 -136.491,-22.015 -136.491,-22.015c0,0 -217.947,-116.678 -264.178,-165.111c-46.231,-48.433 -132.089,-129.888 -132.089,-129.888l105.671,-19.813Z" style="fill:#a0616a;fill-rule:nonzero"/><path d="M2413.51,1796.08l26.417,41.828l157.664,-49.602c34.547,-11.167 72.312,-6.61 103.212,12.452c27.518,17.337 45.13,44.855 5.504,85.582c-79.254,81.455 -132.089,37.425 -132.089,37.425c0,0 -266.379,125.485 -310.409,63.843c-44.03,-61.641 -46.231,-92.462 -46.231,-92.462c0,0 169.514,-105.671 195.932,-99.066Z" style="fill:#2f2e41;fill-rule:nonzero"/><path d="M2743.74,1941.38c0,0 70.447,46.232 -13.209,68.246c-83.656,22.015 -145.298,-8.806 -145.298,-8.806c0,0 -72.649,0 -72.649,-37.425c0,-37.425 24.216,-41.828 24.216,-41.828l74.851,11.008c0,0 90.261,-24.217 132.089,8.805Z" style="fill:#d0cde1;fill-rule:nonzero"/><path d="M2604.86,1326.46c6.508,3.503 13.506,6.01 20.759,7.436c7.434,1.331 14.983,-1.904 19.148,-8.204c1.62,-3.66 2.365,-7.648 2.175,-11.646c0.265,-12.089 -0.61,-25.158 -8.27,-34.513c-4.876,-5.954 -11.992,-9.708 -17.039,-15.517c-3.392,-4.352 -6.281,-9.073 -8.613,-14.074c-9.815,-18.433 -24.347,-36.149 -44.543,-41.463c-8.537,-1.835 -17.283,-2.504 -26,-1.988l-50.859,0.717c-8.239,-0.265 -16.474,0.621 -24.467,2.634c-16.37,4.949 -28.289,18.715 -39.206,31.88c-8.474,9.598 -16.004,19.99 -22.485,31.032c-8.787,16.389 -13.231,34.759 -12.907,53.352c-0.068,4.769 0.548,9.523 1.829,14.117c1.498,4.213 3.354,8.291 5.548,12.187c9.538,18.734 15.201,42.134 4.46,60.205c18.659,-7.622 37.12,-17.616 49.429,-33.577c5.506,-7.14 9.824,-15.498 17.163,-20.738c7.338,-5.24 19.294,-5.694 24.003,1.996c1.618,3.11 2.451,6.57 2.427,10.076c-0.148,5.793 0.796,11.562 2.782,17.006c2.187,5.529 7.969,8.828 13.842,7.898c9.585,-2.7 8.667,-17.411 16.05,-24.093c5.607,-5.075 14.257,-4.105 21.46,-6.409c8.342,-3.171 14.979,-9.708 18.277,-18.002c2.727,-6.117 2.688,-22.124 7.848,-25.437c6.472,-4.154 21.19,2.451 27.189,5.125Z" style="fill:#2f2e41;fill-rule:nonzero"/><path d="M2358.32,1423.49c4.456,-1.189 9.149,-1.177 13.599,0.035c14.132,3.794 45.811,13.838 52.604,29.121c8.806,19.813 39.627,50.634 39.627,50.634c0,0 41.828,41.828 33.022,70.447c-8.806,28.619 -41.828,61.642 -41.828,61.642c0,0 8.806,136.492 -35.224,171.715c-44.03,35.224 -61.642,11.008 -61.642,44.03c0,33.022 -136.491,136.492 -162.909,72.649c0,0 13.209,-118.88 8.806,-160.708c-4.34,-41.225 2.013,-298.433 153.945,-339.565Z" style="fill:#d0cde1;fill-rule:nonzero"/><path d="M2428.93,1479.07c0,0 134.29,99.067 110.074,140.895c0,0 -81.455,39.627 -99.067,37.425c-17.611,-2.201 -85.857,-79.253 -103.469,-85.858c-17.612,-6.604 -26.418,-125.484 92.462,-92.462Z" style="fill:#d0cde1;fill-rule:nonzero"/><path d="M2057.54,1567.84c-20.886,7.054 -39.808,23.552 -44.085,45.178c-1.982,10.024 -0.767,20.445 -2.435,30.527c-3.869,23.382 -22.223,41.238 -39.152,57.825c-16.928,16.587 -34.41,35.859 -35.645,59.527c-1.353,25.916 17.442,50.195 14.19,75.943c-3.779,29.912 -35.373,49.295 -43.183,78.417c-5.215,19.446 1.176,40.392 11.69,57.562c20.035,32.718 54.283,54.93 90.753,66.837c36.471,11.908 75.313,14.413 113.676,14.815c46.712,0.489 97.428,-3.521 132.525,-34.35c20.041,-17.762 32.639,-42.465 35.246,-69.118c3.334,-35.711 -11.571,-72.61 -1.29,-106.971c6.471,-21.625 22.697,-41.375 20.275,-63.816c-2.368,-21.943 -21.532,-37.497 -34.68,-55.223c-12.275,-16.551 -19.724,-36.097 -27.024,-55.367l-24.978,-65.932c-4.911,-12.962 -10.303,-26.593 -21.246,-35.1c-20.486,-15.926 -53.426,-12.797 -77.381,-9.512c-22.223,3.047 -45.885,1.541 -67.256,8.758Z" style="fill:#2f2e41;fill-rule:nonzero"/><path d="M2065.37,1759.9c0,0 11.073,35.986 -71.974,77.51c-83.046,41.523 8.305,85.814 8.305,85.814l96.887,22.146c0,0 99.656,-13.841 110.729,-30.45c11.073,-16.61 30.45,-71.974 24.914,-80.279c-4.143,-5.912 -8.773,-11.468 -13.841,-16.609c-5.069,-5.14 -66.437,-11.073 -63.669,-41.523c2.768,-30.45 -91.351,-16.609 -91.351,-16.609Z" style="fill:#ffb9b9;fill-rule:nonzero"/><path d="M2065.37,1759.9c0,0 11.073,35.986 -71.974,77.51c-83.046,41.523 8.305,85.814 8.305,85.814l96.887,22.146c0,0 99.656,-13.841 110.729,-30.45c11.073,-16.61 30.45,-71.974 24.914,-80.279c-4.143,-5.912 -8.773,-11.468 -13.841,-16.609c-5.069,-5.14 -66.437,-11.073 -63.669,-41.523c2.768,-30.45 -91.351,-16.609 -91.351,-16.609Z" style="fill-opacity:.1;fill-rule:nonzero"/><circle cx="2119.35" cy="1728.07" r="88.583" style="fill:#ffb9b9"/><path d="M2109.66,1914.92c0,0 -106.682,-7.801 -108.705,-81.41c0,0 -38.01,-4.404 -49.083,6.669c-11.072,11.073 -47.059,19.377 -47.059,47.059c0,27.682 60.9,110.729 60.9,110.729c0,0 33.219,110.728 19.378,130.105c-13.841,19.378 -16.609,69.206 -16.609,69.206c0,0 138.41,-11.073 160.556,0c22.145,11.072 110.728,11.072 116.265,0c5.536,-11.073 -5.537,-149.484 -5.537,-149.484c0,0 24.914,-33.218 19.378,-71.973l66.437,-77.51c0,0 -24.914,-74.741 -63.669,-74.741c0,0 -52.596,-13.841 -53.98,-6.921c-1.385,6.921 26.298,84.43 -98.272,98.271Z" style="fill:#ff6584;fill-rule:nonzero"/><path d="M1860.52,2158.52c0,0 24.914,38.755 88.583,47.059c63.669,8.305 74.742,-13.841 69.205,-19.377c-5.536,-5.537 -71.973,-30.45 -71.973,-30.45l-38.755,-30.451l-47.06,33.219Z" style="fill:#ffb9b9;fill-rule:nonzero"/><path d="M2314.51,2125.3l-71.974,41.523c0,0 -94.119,-5.536 -58.132,22.146c35.987,27.682 102.424,16.609 102.424,16.609l63.668,-30.45l-35.986,-49.828Z" style="fill:#ffb9b9;fill-rule:nonzero"/><path d="M1954.64,2197.28c0,0 -66.437,163.324 13.841,188.238c80.278,24.914 301.734,19.377 351.562,-13.841c49.828,-33.219 63.669,-77.51 55.364,-91.351c-8.304,-13.841 -63.668,-52.596 -102.423,-55.364c-38.755,-2.769 -318.344,-27.682 -318.344,-27.682Z" style="fill:#2f2e41;fill-rule:nonzero"/><path d="M1954.64,2197.28c0,0 -66.437,163.324 13.841,188.238c80.278,24.914 301.734,19.377 351.562,-13.841c49.828,-33.219 63.669,-77.51 55.364,-91.351c-8.304,-13.841 -63.668,-52.596 -102.423,-55.364c-38.755,-2.769 -318.344,-27.682 -318.344,-27.682Z" style="fill-opacity:.05;fill-rule:nonzero"/><path d="M2268.24,2207.43c0,0 234.504,-84.889 231.736,17.535c-2.769,102.424 -149.484,130.106 -149.484,130.106l-44.291,5.536l-243.602,8.305c0,0 8.304,-44.292 -11.073,-49.828c0,0 63.669,-16.609 66.437,-19.378c2.768,-2.768 160.556,-58.132 171.629,-60.9c11.073,-2.768 44.291,-24.914 69.205,-22.146c0,0 27.682,-22.146 58.132,-16.609l-85.814,5.536l-62.875,1.843Z" style="fill:#2f2e41;fill-rule:nonzero"/><path d="M2268.24,2207.43c0,0 234.504,-84.889 231.736,17.535c-2.769,102.424 -149.484,130.106 -149.484,130.106l-44.291,5.536l-243.602,8.305c0,0 8.304,-44.292 -11.073,-49.828c0,0 63.669,-16.609 66.437,-19.378c2.768,-2.768 160.556,-58.132 171.629,-60.9c11.073,-2.768 44.291,-24.914 69.205,-22.146c0,0 27.682,-22.146 58.132,-16.609l-85.814,5.536l-62.875,1.843Z" style="fill-opacity:.1;fill-rule:nonzero"/><path d="M2226.81,2221.17l29.567,67.458l179.933,-63.671l13.842,-35.983l-47.063,-8.308l-94.608,16.612l-41.033,11.071l-40.638,12.821Z" style="fill:#2f2e41;fill-rule:nonzero"/><path d="M2226.81,2221.17l29.567,67.458l179.933,-63.671l13.842,-35.983l-47.063,-8.308l-94.608,16.612l-41.033,11.071l-40.638,12.821Z" style="fill-opacity:.1;fill-rule:nonzero"/><path d="M1843.91,2302.47c0,0 52.596,66.437 113.497,83.046c60.901,16.609 94.119,-5.537 94.119,-5.537l-19.378,-77.509l-8.304,-49.828l-35.987,-24.914l-71.973,-33.219l-85.815,-27.682c0,0 -35.987,-5.536 -35.987,0c0,5.537 33.219,88.583 33.219,88.583l16.609,47.06Z" style="fill:#2f2e41;fill-rule:nonzero"/><path d="M1907.58,2338.46c0,0 11.073,80.278 24.914,85.815c13.841,5.536 55.364,-5.537 66.437,-11.073c11.073,-5.536 48.711,-31.08 48.711,-31.08c0,0 -131.757,-49.198 -140.062,-43.662Z" style="fill:#f2f2f2;fill-rule:nonzero"/><path d="M2159.49,2346.76l52.595,8.304l-5.537,63.666l-73.363,-17.816l26.305,-54.155Z" style="fill:#ffb9b9;fill-rule:nonzero"/><path d="M2192.44,2364.48c0,0 -24.649,29.34 0.265,45.95l16.609,13.841c0,0 55.364,11.073 60.9,16.609c5.537,5.536 27.682,-8.305 27.682,-8.305c0,0 2.769,-83.046 0,-88.582c-2.768,-5.537 -35.986,-11.073 -38.754,-5.537c-2.769,5.537 -35.987,13.841 -55.365,8.305l-11.337,17.719Z" style="fill:#f2f2f2;fill-rule:nonzero"/><path d="M1971.25,2216.66c0,0 -193.775,-113.496 -224.225,-71.973c-30.451,41.523 -63.669,99.655 24.914,143.947c88.582,44.291 365.403,135.642 365.403,135.642c0,0 41.523,-63.669 41.523,-80.278c0,0 -146.715,-66.437 -171.629,-71.974c-24.913,-5.536 -124.569,-69.205 -138.41,-74.741c-13.841,-5.537 -33.219,-22.146 -33.219,-22.146l135.643,41.523Z" style="fill:#2f2e41;fill-rule:nonzero"/><path d="M1915.88,1873.4l-11.073,8.305c0,0 -24.914,63.669 -27.682,99.655c-2.768,35.987 -35.987,146.715 -33.219,160.557c2.768,13.841 5.537,24.913 22.146,38.754c0,0 22.146,-49.827 60.901,-41.523l47.059,-171.629l-58.132,-94.119Z" style="fill:#ff6584;fill-rule:nonzero"/><path d="M2303.43,1873.4l22.146,24.914c0,0 13.841,33.219 13.841,41.523c0,8.305 27.682,130.106 30.45,135.643c2.768,5.536 13.841,74.741 0,91.35c-13.841,16.61 -38.755,27.682 -38.755,27.682c0,0 16.609,-58.132 -35.987,-60.9l5.537,-22.146l-49.828,-166.092l52.596,-71.974Z" style="fill:#ff6584;fill-rule:nonzero"/><path d="M1921.42,2063.98l0,145.813c0,19.035 15.504,34.77 34.537,35.052l304.938,4.518c18.916,0.28 34.822,-14.801 35.549,-33.705l5.609,-145.829c0.017,-0.449 0.026,-0.899 0.026,-1.348c0,-19.039 -15.511,-34.776 -34.548,-35.052l-310.547,-4.501c-0.169,-0.002 -0.339,-0.003 -0.508,-0.003c-19.231,0 -35.056,15.824 -35.056,35.055Z" style="fill:#3f3d56;fill-rule:nonzero"/><ellipse cx="2124.54" cy="1673.88" rx="95.35" ry="51.343" style="fill:#2f2e41"/><circle cx="2108.27" cy="2140.53" r="22.146" style="fill:#f2f2f2"/></svg>