<svg xmlns="http://www.w3.org/2000/svg" viewBox="0 0 219.59 219.59"><defs><style>.cls-1{fill:#fff}</style></defs><title>infoicon</title><g id="Layer_2" data-name="Layer 2"><g id="Layer_1-2" data-name="Layer 1"><path d="M186.07,219.59H33.53A33.56,33.56,0,0,1,0,186.07V33.53A33.57,33.57,0,0,1,33.53,0H186.07a33.56,33.56,0,0,1,33.52,33.53V186.07A33.56,33.56,0,0,1,186.07,219.59ZM33.53,15A18.55,18.55,0,0,0,15,33.53V186.07a18.55,18.55,0,0,0,18.53,18.52H186.07a18.54,18.54,0,0,0,18.52-18.52V33.53A18.55,18.55,0,0,0,186.07,15Z" class="cls-1"/><path d="M124.74,171.62H94.6V98.4h30.14Z" class="cls-1"/><path d="M93.29,65.21c0-9,7.41-17.19,15.74-17.23a16.81,16.81,0,0,1,17.27,16.8c.1,9.49-7.13,17.06-16.3,17.08A16.43,16.43,0,0,1,93.29,65.21Z" class="cls-1"/></g></g></svg>