<svg id="eyjtkdjlwp0l1" xmlns="http://www.w3.org/2000/svg" xmlns:xlink="http://www.w3.org/1999/xlink" viewBox="0 0 300 360.350000" shape-rendering="geometricPrecision" text-rendering="geometricPrecision"><style><![CDATA[#eyjtkdjlwp0l1{pointer-events: all}#eyjtkdjlwp0l1 * {animation-play-state: paused !important}#eyjtkdjlwp0l1:hover * {animation-play-state: running !important}#eyjtkdjlwp0l6_to {animation: eyjtkdjlwp0l6_to__to 3000ms linear 1 normal forwards}@keyframes eyjtkdjlwp0l6_to__to { 0% {transform: translate(0px,0px);animation-timing-function: cubic-bezier(0,0,0,1.280000)} 33.333333% {transform: translate(0px,246.964080px)} 100% {transform: translate(0px,246.964080px)} }#eyjtkdjlwp0l8_to {animation: eyjtkdjlwp0l8_to__to 3000ms linear 1 normal forwards}@keyframes eyjtkdjlwp0l8_to__to { 0% {transform: translate(0px,0px);animation-timing-function: cubic-bezier(0,0,0,1.280000)} 33.333333% {transform: translate(0px,-277.686642px)} 100% {transform: translate(0px,-277.686642px)} }#eyjtkdjlwp0l25_to {animation: eyjtkdjlwp0l25_to__to 3000ms linear 1 normal forwards}@keyframes eyjtkdjlwp0l25_to__to { 0% {transform: translate(24.799999px,174.339996px);animation-timing-function: cubic-bezier(0,0,0,1.280000)} 33.333333% {transform: translate(-248.185577px,172.965555px)} 100% {transform: translate(-248.185577px,172.965555px)} }#eyjtkdjlwp0l26_to {animation: eyjtkdjlwp0l26_to__to 3000ms linear 1 normal forwards}@keyframes eyjtkdjlwp0l26_to__to { 0% {transform: translate(146.669998px,225.899994px);animation-timing-function: cubic-bezier(0,0,0,1.280000)} 33.333333% {transform: translate(300px,228.507689px)} 100% {transform: translate(300px,228.507689px)} }#eyjtkdjlwp0l27_to {animation: eyjtkdjlwp0l27_to__to 3000ms linear 1 normal forwards}@keyframes eyjtkdjlwp0l27_to__to { 0% {transform: translate(29.469999px,314.170013px);animation-timing-function: cubic-bezier(0,0,0,1.280000)} 33.333333% {transform: translate(32.560000px,386.708238px)} 100% {transform: translate(32.560000px,386.708238px)} }]]></style><g id="eyjtkdjlwp0l2"><g id="eyjtkdjlwp0l3"><rect id="eyjtkdjlwp0l4" width="300" height="360" rx="0" ry="0" transform="matrix(1 0 0 1 0 0.35000000000000)" opacity="0.9" fill="rgb(60,15,183)" stroke="none" stroke-width="1"/><g id="eyjtkdjlwp0l5"><g id="eyjtkdjlwp0l6_to" transform="translate(0,0)"><path id="eyjtkdjlwp0l6" style="isolation:isolate" d="M300,65.500000L300,353C300,357.080000,298,360.390000,295.600000,360.390000L4.400000,360.390000C2,360.350000,0,357,0,353L0,138.730000C28,160.940000,65,177.090000,100,172.350000C162,164,181,96.820000,230,75C255.940000,63.450000,281.600000,63.180000,300,65.500000Z" transform="translate(0,0)" opacity="0.5" fill="rgb(38,8,150)" stroke="none" stroke-width="1"/></g></g><g id="eyjtkdjlwp0l7"><g id="eyjtkdjlwp0l8_to" transform="translate(0,0)"><path id="eyjtkdjlwp0l8" style="isolation:isolate" d="M0,345L0,8.640000C0,3.870000,2,0,4.400000,0L295.600000,0C298,0,300,3.870000,300,8.640000L300,259.310000C272,233.310000,235,214.430000,200,219.970000C138,229.790000,119,308.350000,70,333.880000C44.060000,347.390000,18.400000,347.710000,0,345Z" transform="translate(0,0)" opacity="0.5" fill="rgb(38,8,150)" stroke="none" stroke-width="1"/></g></g><g id="eyjtkdjlwp0l9"><g id="eyjtkdjlwp0l10"><text id="eyjtkdjlwp0l11" style="isolation:isolate" dx="0" dy="0" font-family="Montserrat-Bold, Montserrat" font-size="17.340000" font-weight="bold" transform="matrix(1 0 0 1 105.30000305175781 266.65500640869141)" opacity="0" fill="rgb(255,255,255)" stroke="none" stroke-width="1"><![CDATA[Rs. 10,000]]></text></g></g></g><g id="eyjtkdjlwp0l12"><path id="eyjtkdjlwp0l13" d="M194.220000,45.470000L200.220000,45.470000L200.220000,73.210000L194.220000,73.210000L194.220000,69.210000C191.910000,72.420000,188.700000,73.910000,184.520000,73.910000C180.803135,73.981514,177.239622,72.429779,174.760000,69.660000C172.100280,66.873064,170.660772,63.141140,170.760000,59.290000C170.650015,55.439977,172.091259,51.707156,174.760000,48.930000C177.267380,46.198896,180.812539,44.655153,184.520000,44.680000C188.770000,44.680000,191.980000,46.240000,194.220000,49.380000ZM185.420000,68.210000C187.755731,68.283201,190.019001,67.393801,191.680000,65.750000C193.318459,64.018828,194.227965,61.723578,194.220000,59.340000C194.296958,56.964496,193.375819,54.665275,191.680000,53C188.212076,49.568435,182.627924,49.568435,179.160000,53C177.502138,54.685232,176.609140,56.977380,176.690000,59.340000C176.623466,61.720923,177.512991,64.029366,179.160000,65.750000C180.820999,67.393801,183.084269,68.283201,185.420000,68.210000Z" fill="rgb(255,255,255)" stroke="none" stroke-width="1"/><path id="eyjtkdjlwp0l14" d="M223.450000,51.210000L216.590000,51.210000L216.590000,64.560000C216.590000,68.140000,218.900000,68.060000,223.450000,67.840000L223.450000,73.210000C214.280000,74.330000,210.550000,71.790000,210.550000,64.560000L210.550000,51.210000L205.400000,51.210000L205.400000,45.470000L210.550000,45.470000L210.550000,37.640000L216.550000,37.640000L216.550000,45.390000L223.410000,45.390000Z" fill="rgb(255,255,255)" stroke="none" stroke-width="1"/><path id="eyjtkdjlwp0l15" d="M229.190000,40.170000C227.792610,38.651071,227.841571,36.300422,229.300997,34.840997C230.760422,33.381571,233.111071,33.332610,234.630000,34.730000C235.363042,35.445147,235.776399,36.425897,235.776399,37.450000C235.776399,38.474103,235.363042,39.454853,234.630000,40.170000L234.630000,40.170000C233.127023,41.670373,230.692977,41.670373,229.190000,40.170000ZM228.970000,73.170000L228.970000,45.470000L234.970000,45.470000L234.970000,73.210000Z" fill="rgb(255,255,255)" stroke="none" stroke-width="1"/><path id="eyjtkdjlwp0l16" d="M244.480000,69.700000C241.733689,66.960186,240.224027,63.218534,240.300000,59.340000C240.218971,55.466421,241.729823,51.729049,244.480000,49C247.260775,46.205173,251.057893,44.660338,255,44.720000C260.136177,44.622183,264.903382,47.379306,267.380000,51.880000L262.230000,54.880000C260.864207,52.132200,257.993866,50.461111,254.930000,50.630000C252.623285,50.576788,250.401133,51.499054,248.810000,53.170000C247.199440,54.824080,246.314181,57.051624,246.350000,59.360000C246.285770,61.672312,247.176802,63.908989,248.813430,65.543725C250.450058,67.178461,252.687764,68.066905,255,68C258.065092,68.076722,260.904409,66.394883,262.310000,63.670000L267.450000,66.670000C264.931957,71.207046,260.118235,73.986855,254.930000,73.900000C251.007890,74.049788,247.207554,72.522381,244.480000,69.700000Z" fill="rgb(255,255,255)" stroke="none" stroke-width="1"/><polygon id="eyjtkdjlwp0l17" points="60.450000,50.760000 68.500000,68.660000 80.500000,61.720000 80.500000,61.720000 80.500000,47.930000 60.450000,50.760000" fill="rgb(43,189,247)" fill-rule="evenodd" stroke="none" stroke-width="1"/><path id="eyjtkdjlwp0l18" d="M95.940000,37.560000L88.480000,34.730000L80.480000,34.130000L80.480000,47.930000L80.480000,47.930000L80.480000,77L80.480000,77L92.480000,83.860000L102,64.560000L96,45.840000Z" fill="rgb(40,145,249)" fill-rule="evenodd" stroke="none" stroke-width="1"/><polygon id="eyjtkdjlwp0l19" points="95.270000,34.130000 92.510000,40.990000 92.510000,40.990000 92.510000,83.940000 104.440000,77.010000 104.440000,34.130000 95.270000,34.130000" fill="rgb(43,189,247)" fill-rule="evenodd" stroke="none" stroke-width="1"/><polygon id="eyjtkdjlwp0l20" points="92.510000,27.200000 80.500000,34.130000 92.510000,40.990000 104.440000,34.130000 92.510000,27.200000" fill="rgb(43,109,239)" fill-rule="evenodd" stroke="none" stroke-width="1"/><polygon id="eyjtkdjlwp0l21" points="68.500000,54.790000 68.500000,54.790000 56.570000,41.440000 32.560000,34.130000 32.560000,77.010000 32.560000,77.010000 44.560000,83.940000 47.990000,60.160000 56.570000,61.720000 56.570000,61.720000 68.500000,68.660000 68.500000,54.790000 68.500000,54.790000" fill="rgb(40,145,249)" fill-rule="evenodd" stroke="none" stroke-width="1"/><polygon id="eyjtkdjlwp0l22" points="158.950000,37.710000 147.170000,57.100000 135.460000,37.710000 128.530000,37.710000 128.530000,73.210000 134.940000,73.210000 134.940000,48.750000 145.530000,66.350000 148.810000,66.350000 159.400000,48.820000 159.400000,73.210000 165.810000,73.210000 165.810000,37.710000 158.950000,37.710000" fill="rgb(255,255,255)" stroke="none" stroke-width="1"/><polygon id="eyjtkdjlwp0l23" points="44.560000,27.200000 32.560000,34.130000 68.500000,54.790000 73.940000,51.660000 80.500000,47.930000 44.560000,27.200000" fill="rgb(43,109,239)" fill-rule="evenodd" stroke="none" stroke-width="1"/><polygon id="eyjtkdjlwp0l24" points="44.560000,54.790000 44.560000,54.790000 44.560000,83.940000 56.570000,77.010000 56.570000,77.010000 56.570000,61.720000 56.570000,61.720000 44.560000,54.790000" fill="rgb(43,189,247)" fill-rule="evenodd" stroke="none" stroke-width="1"/></g></g><g id="eyjtkdjlwp0l25_to" transform="translate(24.799999,174.339996)"><text id="eyjtkdjlwp0l25" dx="0" dy="0" font-family="Montserrat-Bold, Montserrat" font-size="47.580000" font-weight="bold" transform="translate(0,11.894997)" fill="rgb(255,255,255)" stroke="none" stroke-width="1"><![CDATA[Ethereum]]></text></g><g id="eyjtkdjlwp0l26_to" transform="translate(146.669998,225.899994)"><text id="eyjtkdjlwp0l26" dx="0" dy="0" font-family="Montserrat-Bold, Montserrat" font-size="43.530000" font-weight="bold" transform="translate(0,10.882500)" fill="rgb(255,255,255)" stroke="none" stroke-width="1"><![CDATA[Track]]></text></g><g id="eyjtkdjlwp0l27_to" transform="translate(29.469999,314.170013)"><text id="eyjtkdjlwp0l27" dx="0" dy="0" font-family="Montserrat-Bold, Montserrat" font-size="36.950000" font-weight="bold" transform="translate(0,9.237499)" fill="rgb(255,255,255)" stroke="none" stroke-width="1"><![CDATA[ Special Prize]]></text></g><text id="eyjtkdjlwp0l28" dx="0" dy="0" font-family="Montserrat-Regular, Montserrat" font-size="16.350000" transform="matrix(0.81999999284744 0 0 1 27 317.10750389099121)" opacity="0" fill="rgb(255,255,255)" stroke="none" stroke-width="1"><![CDATA[Cash prize for the best hack built on top of Ethereum (Rs.10,000) . For teams that integrate Matic in their hacksas well the prize money will be higher (Rs.15,000) along with eligibility for internshipor fulltime role interviews and a chance to land seed funding of upto 5000 USD!]]></text></svg>