<svg id="ek8rummm2o6b1" xmlns="http://www.w3.org/2000/svg" xmlns:xlink="http://www.w3.org/1999/xlink" viewBox="0 0 1920 1080" shape-rendering="geometricPrecision" text-rendering="geometricPrecision"><style><![CDATA[#ek8rummm2o6b1{pointer-events: all}#ek8rummm2o6b1 * {animation-play-state: paused !important}#ek8rummm2o6b1:hover * {animation-play-state: running !important}#ek8rummm2o6b3 {animation: ek8rummm2o6b3_c_o 1000ms linear 1 normal forwards}@keyframes ek8rummm2o6b3_c_o { 0% {opacity: 0;animation-timing-function: cubic-bezier(0.420000,0,0.580000,1)} 100% {opacity: 1} }#ek8rummm2o6b17_to {animation: ek8rummm2o6b17_to__to 1000ms linear 1 normal forwards}@keyframes ek8rummm2o6b17_to__to { 0% {transform: translate(306.609985px,455.350006px);animation-timing-function: cubic-bezier(0.420000,0,0.580000,1)} 100% {transform: translate(311.126352px,575.147829px)} }#ek8rummm2o6b18 {animation: ek8rummm2o6b18_c_o 1000ms linear 1 normal forwards}@keyframes ek8rummm2o6b18_c_o { 0% {opacity: 0;animation-timing-function: cubic-bezier(0.420000,0,0.580000,1)} 100% {opacity: 1} }]]></style><rect id="ek8rummm2o6b2" width="300" height="360" rx="4.400000" ry="0" transform="matrix(1 0 0 1 230 253)" fill="rgb(20,105,242)" stroke="none" stroke-width="1"/><g id="ek8rummm2o6b3" transform="matrix(1 0 0 1 3.08593750000000 -62.42859924999999)" opacity="0"><path id="ek8rummm2o6b4" d="M421.720000,495.180000L421.560000,497.360000C420.928733,502.798489,419.315946,508.077317,416.800000,512.940000C411.847114,522.787568,403.394860,530.430260,393.100000,534.370000C392.100000,534.770000,391.010000,535.150000,389.900000,535.500000L388.670000,531.640000C391.762407,530.660958,394.742374,529.357012,397.560000,527.750000C404.250598,523.891120,409.658360,518.149503,413.110000,511.240000C415.039300,507.456724,416.413418,503.415200,417.190000,499.240000L402.190000,499.240000L402.190000,495.180000Z" opacity="0.5" fill="rgb(21,74,206)" stroke="none" stroke-width="1"/><path id="ek8rummm2o6b5" style="isolation:isolate" d="M391.490000,534.370000C401.784860,530.430260,410.237114,522.787568,415.190000,512.940000C417.723811,508.084446,419.353652,502.808643,420,497.370000L420.160000,495.190000L421.830000,495.190000L421.670000,497.370000C421.037985,502.805154,419.425206,508.080568,416.910000,512.940000C411.957114,522.787568,403.504860,530.430260,393.210000,534.370000C392.210000,534.770000,391.120000,535.150000,390.010000,535.510000L389.850000,535Z" opacity="0.1" fill="rgb(255,255,255)" stroke="none" stroke-width="1"/><path id="ek8rummm2o6b6" d="M365.160000,531.640000L363.930000,535.500000C362.820000,535.150000,361.750000,534.770000,360.730000,534.360000C350.425117,530.429861,341.961318,522.789971,337,512.940000C334.484054,508.077317,332.871267,502.798489,332.240000,497.360000L332.080000,495.180000L351.600000,495.180000L351.600000,499.240000L336.600000,499.240000C337.380016,503.415650,338.757496,507.457157,340.690000,511.240000C344.141640,518.149503,349.549402,523.891120,356.240000,527.750000C359.066273,529.360716,362.056585,530.664787,365.160000,531.640000Z" opacity="0.5" fill="rgb(21,74,206)" stroke="none" stroke-width="1"/><path id="ek8rummm2o6b7" d="M399.430000,569L399.430000,590.880000L354.430000,590.880000L354.430000,569L355.860000,567.090000C370.450000,561.910000,373.410000,548.410000,374,543.090000C374.090113,542.353257,374.140187,541.612168,374.150000,540.870000L379.720000,540.870000C379.729813,541.612168,379.779887,542.353257,379.870000,543.090000C380.470000,548.440000,383.420000,561.950000,398.010000,567.090000Z" opacity="0.5" fill="rgb(21,74,206)" stroke="none" stroke-width="1"/><path id="ek8rummm2o6b8" style="isolation:isolate" d="M362.340000,534.370000C352.045140,530.430260,343.592886,522.787568,338.640000,512.940000C336.123558,508.081072,334.510708,502.805427,333.880000,497.370000L333.710000,495.190000L332,495.190000L332.170000,497.370000C332.823911,502.809653,334.460476,508.085287,337,512.940000C341.949756,522.789952,350.403083,530.433614,360.700000,534.370000C361.700000,534.770000,362.790000,535.150000,363.890000,535.510000L364,535Z" opacity="0.1" fill="rgb(255,255,255)" stroke="none" stroke-width="1"/><rect id="ek8rummm2o6b9" style="isolation:isolate" width="45.033300" height="2.733330" rx="0" ry="0" transform="matrix(1 0 0 1 354.39999999999998 569.00999999999999)" opacity="0.1" fill="rgb(0,0,0)" stroke="none" stroke-width="1"/><path id="ek8rummm2o6b10" style="isolation:isolate" d="M358.220000,567.100000C372.810000,561.920000,375.770000,548.420000,376.360000,543.100000C376.440000,542.370000,376.490000,541.620000,376.510000,540.880000L374.120000,540.880000C374.110187,541.622168,374.060113,542.363257,373.970000,543.100000C373.370000,548.450000,370.410000,561.960000,355.830000,567.100000L354.400000,569L354.400000,590.880000L356.780000,590.880000L356.780000,569Z" opacity="0.1" fill="rgb(255,255,255)" stroke="none" stroke-width="1"/><path id="ek8rummm2o6b11" style="isolation:isolate" d="M353.170000,488.460000L348,488.460000C348.100000,518.550000,361,542.880000,376.870000,542.880000C377.731225,542.876699,378.590744,542.803122,379.440000,542.660000C364.790000,540.210000,353.260000,516.910000,353.170000,488.460000Z" opacity="0.1" fill="rgb(255,255,255)" stroke="none" stroke-width="1"/><rect id="ek8rummm2o6b12" width="30.633300" height="7.883330" rx="0" ry="0" transform="matrix(1 0 0 1 361.60000000000002 577.38999999999999)" opacity="0.5" fill="rgb(6,39,132)" stroke="none" stroke-width="1"/><polygon id="ek8rummm2o6b13" style="isolation:isolate" points="363.030000,578.460000 392.230000,578.460000 392.230000,577.390000 361.600000,577.390000 361.600000,585.260000 363.030000,585.260000 363.030000,578.460000" opacity="0.1" fill="rgb(80,161,249)" stroke="none" stroke-width="1"/><path id="ek8rummm2o6b14" d="M348,488.460000C348.100000,518.550000,361,542.880000,376.870000,542.880000C392.740000,542.880000,405.650000,518.550000,405.750000,488.460000Z" opacity="0.5" fill="rgb(21,74,206)" stroke="none" stroke-width="1"/></g><path id="ek8rummm2o6b15" d="M530,318.150000L530,605.610000C530,609.690000,528,613,525.600000,613L234.400000,613C231.970000,613,230,609.690000,230,605.610000L230,391.390000C258,413.590000,295,429.740000,330,425.010000C392,416.610000,411,349.470000,460,327.650000C485.940000,316.100000,511.600000,315.840000,530,318.150000Z" opacity="0.5" fill="rgb(10,82,226)" stroke="none" stroke-width="1"/><path id="ek8rummm2o6b16" d="M230,597.650000L230,261.300000C230,256.520000,232,252.650000,234.400000,252.650000L525.600000,252.650000C528.030000,252.650000,530,256.520000,530,261.300000L530,512C502,486,465,467.120000,430,472.660000C368,482.480000,349,561.040000,300,586.580000C274.060000,600.050000,248.400000,600.360000,230,597.650000Z" opacity="0.5" fill="rgb(10,82,226)" stroke="none" stroke-width="1"/><g id="ek8rummm2o6b17_to" transform="translate(306.609985,455.350006)"><text id="ek8rummm2o6b17" dx="0" dy="0" font-family="Montserrat-Bold, Montserrat" font-size="35" font-weight="bold" transform="translate(0,9.624996)" fill="rgb(255,255,255)" stroke="none" stroke-width="1"><![CDATA[1st Prize]]></text></g><text id="ek8rummm2o6b18" dx="0" dy="0" font-family="Montserrat-ExtraBold, Montserrat" font-size="43.350000" font-weight="bold" transform="matrix(1 0 0 1 269.78855102140625 388.23557279565432)" opacity="0" fill="rgb(255,255,255)" stroke="none" stroke-width="1"><![CDATA[Rs. 15,000]]></text></svg>