<svg xmlns="http://www.w3.org/2000/svg" viewBox="0 0 219.59 219.59"><defs><style>.cls-1{fill:#fff}</style></defs><title>question</title><g id="Layer_2" data-name="Layer 2"><g id="Layer_1-2" data-name="Layer 1"><path d="M186.07,219.59H33.53A33.56,33.56,0,0,1,0,186.07V33.53A33.57,33.57,0,0,1,33.53,0H186.07a33.56,33.56,0,0,1,33.52,33.53V186.07A33.56,33.56,0,0,1,186.07,219.59ZM33.53,15A18.55,18.55,0,0,0,15,33.53V186.07a18.55,18.55,0,0,0,18.53,18.52H186.07a18.54,18.54,0,0,0,18.52-18.52V33.53A18.55,18.55,0,0,0,186.07,15Z" class="cls-1"/><path d="M106.74,45.66c9.74.05,18.16,1.3,26.16,4.65,8.39,3.51,15.31,8.83,19.24,17.24,4.11,8.81,4.78,17.93,1,27.07a34.36,34.36,0,0,1-10,13.44c-5.05,4.2-10.32,8.15-15.64,12a23,23,0,0,0-8.79,11.65,29,29,0,0,1-1.65,3.85,9.13,9.13,0,0,1-6,5.12c-3.78,1-7.55,1.13-11-1-4.1-2.59-5.74-6.55-5.71-11.3,0-5.71,2.43-10.44,6.07-14.66,3.26-3.78,7.23-6.75,11.08-9.88,3.42-2.8,6.91-5.56,10-8.65C126.71,90.1,128.42,84,126.05,77a13.29,13.29,0,0,0-8.31-8.44,24.7,24.7,0,0,0-16.15-.43c-4.89,1.45-7.87,5-10.1,9.37-1.29,2.52-2.41,5.13-3.83,7.59a13,13,0,0,1-19.25,4.15c-3.2-2.29-4.31-5.66-4.19-9.44.23-7.42,3.31-13.69,8.31-19C82.09,50.64,94.12,46.13,106.74,45.66Z" class="cls-1"/><path d="M107.09,153.52A15.35,15.35,0,1,1,91.7,168.78,15.38,15.38,0,0,1,107.09,153.52Z" class="cls-1"/></g></g></svg>