<svg xmlns="http://www.w3.org/2000/svg" xmlns:xlink="http://www.w3.org/1999/xlink" width="100%" height="100%" version="1.1" viewBox="0 0 10553 5862" xml:space="preserve" style="fill-rule:evenodd;clip-rule:evenodd;stroke-linejoin:round;stroke-miterlimit:2"><rect width="10349.7" height="48.354" x="202.696" y="5799.5" style="fill:#3f3d56"/><path d="M9548.63,3139.56l-3506.95,0l0,-1996.53l3506.95,0l0,1996.53Zm-3472.22,-34.725l3437.5,0l0,-1927.08l-3437.5,0l0,1927.08Z" style="fill:#3f3d56;fill-rule:nonzero"/><path d="M3125,3538.86l-3125,0l0,-1944.45l3125,0l0,1944.45Zm-3090.28,-34.721l3055.56,0l0,-1875l-3055.56,0l0,1875Z" style="fill:#3f3d56;fill-rule:nonzero"/><path d="M1459.97,2792.33l-2.996,-38.825c-8.95,-80.617 17.921,-168.712 92.571,-258.279c67.192,-79.142 104.512,-137.363 104.512,-204.554c0,-76.142 -47.775,-126.9 -141.837,-128.392c-53.788,-0.221 -106.392,15.925 -150.8,46.283l-35.834,-94.062c49.28,-35.842 134.38,-59.729 213.509,-59.729c171.7,0 249.333,106.012 249.333,219.471c0,101.537 -56.737,174.695 -128.4,259.791c-65.691,77.634 -89.579,143.329 -85.104,219.471l1.492,38.825l-116.446,0Zm-32.85,209.029c-0.129,-1.933 -0.192,-3.871 -0.192,-5.808c0,-48.421 39.846,-88.267 88.267,-88.267c0.5,0 1,0.004 1.504,0.013c52.258,0 88.092,38.808 88.092,94.062c0.05,1.221 0.075,2.442 0.075,3.663c0,48.775 -40.134,88.908 -88.909,88.908c-48.779,0 -88.912,-40.133 -88.912,-88.908c0,-1.221 0.025,-2.442 0.075,-3.663Z" style="fill:#f09924;fill-rule:nonzero"/><path d="M7692.63,2358.31l-2.992,-38.825c-8.954,-80.621 17.921,-168.712 92.567,-258.283c67.192,-79.142 104.517,-137.363 104.517,-204.55c0,-76.142 -47.779,-126.904 -141.842,-128.396c-53.788,-0.221 -106.392,15.929 -150.796,46.283l-35.833,-94.062c49.275,-35.842 134.379,-59.729 213.504,-59.729c171.704,0 249.338,106.016 249.338,219.475c0,101.537 -56.738,174.695 -128.405,259.787c-65.687,77.633 -89.579,143.329 -85.1,219.471l1.492,38.825l-116.45,0.004Zm-32.85,209.025c-0.125,-1.933 -0.192,-3.871 -0.192,-5.808c0,-48.421 39.846,-88.267 88.267,-88.267c0.504,0 1.004,0.004 1.504,0.013c52.263,0 88.092,38.808 88.092,94.062c0.054,1.221 0.079,2.442 0.079,3.663c0,48.775 -40.137,88.912 -88.912,88.912c-48.775,0 -88.913,-40.137 -88.913,-88.912c0,-1.221 0.025,-2.442 0.075,-3.663Z" style="fill:#f3a532;fill-rule:nonzero"/><path d="M5537.92,707.441l8.504,-38c15.033,-79.708 66.516,-156.079 164.112,-219.875c87.413,-56.008 140.142,-100.754 159.809,-165.004c22.287,-72.804 -8.542,-135.329 -98.046,-164.287c-51.371,-15.95 -106.396,-15.909 -157.742,0.121l-6.733,-100.434c57.612,-19.846 145.979,-17.779 221.637,5.379c164.184,50.259 207.388,174.355 174.18,282.842c-29.721,97.092 -105.388,150.438 -198.821,210.829c-85.534,55.004 -127.609,110.834 -145.613,184.95l-9.937,37.563l-111.35,-34.084Zm-92.592,190.259c0.442,-1.888 0.95,-3.759 1.517,-5.609c14.175,-46.304 63.937,-72.741 110.237,-58.566c0.479,0.146 0.954,0.296 1.434,0.45c49.97,15.3 72.875,62.896 56.704,115.729c-0.313,1.183 -0.646,2.354 -1,3.525c-14.279,46.637 -64.404,73.267 -111.042,58.992c-46.642,-14.275 -73.271,-64.405 -58.996,-111.042c0.359,-1.167 0.742,-2.329 1.146,-3.479Z" style="fill:#f5a73b;fill-rule:nonzero"/><path d="M5170.25,410.258l-0.613,-21.942c-3.341,-45.72 20.713,-93.579 80.934,-139.533c54.137,-40.533 84.821,-71.042 87.675,-108.717c3.233,-42.695 -30.717,-73.895 -101.742,-80.116c-40.646,-3.204 -81.087,2.837 -115.937,17.321l-23.084,-54.796c38.763,-17.279 104.096,-25.804 163.896,-21.271c129.767,9.829 183.938,73.721 179.117,137.342c-4.313,56.937 -50.3,94.712 -108.075,138.325c-52.946,39.77 -73.788,75.241 -73.642,118.195l-0.521,21.859l-88.008,-6.667Zm-33.704,115.329c-0.013,-1.091 0.021,-2.179 0.104,-3.266c2.054,-27.155 33.862,-47.217 70.458,-44.442c0.375,0.029 0.755,0.058 1.134,0.092c39.495,2.991 64.929,26.804 62.583,57.787c-0.012,0.688 -0.046,1.375 -0.1,2.058c-2.071,27.35 -34.108,47.559 -70.971,44.767c-36.862,-2.792 -65.492,-27.596 -63.421,-54.946c0.055,-0.683 0.125,-1.366 0.213,-2.05Z" style="fill:#eea125;fill-rule:nonzero"/><circle cx="4837.17" cy="3611.4" r="1498.13" style="fill:#2f138a"/><path d="M4258.58,5662.96l-447.866,-81.075l145.262,-935.137l447.846,81.075l-145.242,935.137Z" style="fill:#2f138a;fill-rule:nonzero"/><path d="M5299.5,4889.96l-447.85,-81.075l-145.254,802.396l447.846,81.075l145.258,-802.396Z" style="fill:#2f138a"/><path d="M4710.04,5585.96c15.533,-76.946 194.729,-105.787 399.916,-64.362c205.188,41.42 359.163,137.516 343.63,214.462c-15.534,76.946 -194.73,105.788 -399.917,64.367c-205.188,-41.421 -359.163,-137.521 -343.629,-214.467Z" style="fill:#2f138a"/><path d="M3768.83,5612.25c10.308,-77.817 187.154,-118.675 394.667,-91.188c207.512,27.492 367.621,112.988 357.308,190.809c-10.308,77.816 -187.15,118.675 -394.667,91.183c-207.512,-27.488 -367.616,-112.988 -357.308,-190.804Z" style="fill:#2f138a"/><circle cx="4942.08" cy="3244.95" r="512.021" style="fill:#fff"/><circle cx="5152.5" cy="3061.41" r="170.671" style="fill:#242424"/><path d="M3655.36,1981.59c-22.53,-554.629 455.483,-1024.4 1067.67,-1049.27c612.184,-24.867 1126.72,404.587 1149.25,959.22c22.534,554.63 -403.016,680.646 -1015.2,705.513c-612.187,24.867 -1179.19,-60.833 -1201.72,-615.463Z" style="fill:#fffcfc;fill-rule:nonzero"/><path d="M6167.96,3109.25c402.971,-92.371 753.671,-64.654 782.671,61.85c28.996,126.504 -274.621,304.2 -677.592,396.571c-402.97,92.366 -753.67,64.65 -782.67,-61.854c-28.996,-126.505 274.625,-304.2 677.591,-396.567Z" style="fill:#2f138a"/><path d="M3227.18,3598.3c402.971,-92.371 753.671,-64.654 782.671,61.85c28.996,126.504 -274.625,304.2 -677.592,396.571c-402.97,92.366 -753.67,64.65 -782.67,-61.855c-28.996,-126.504 274.625,-304.2 677.591,-396.566Z" style="fill:#2f138a"/><path d="M4425.71,4201.79c-3.633,20.063 -5.458,40.413 -5.458,60.805c0,187.258 154.087,341.345 341.346,341.345c164.4,0 306.6,-118.77 335.887,-280.541c33.579,-185.504 -109.846,-251.146 -295.35,-284.729c-185.504,-33.584 -342.841,-22.384 -376.425,163.12Z" style="fill:#fff;fill-rule:nonzero"/><rect width="2463.32" height="2343.18" x="311.642" y="3517.82" style="fill:#d0cde1"/><rect width="1903.47" height="1455.6" x="591.563" y="3797.75" style="fill:#fff"/><rect width="667.308" height="667.308" x="1010.42" y="4036.95" style="fill:#6c63ff"/><path d="M1265.88,4203.83l0,810.304l810.304,0l0,-810.304l-810.304,0Zm775.158,775.158l-740.012,0l0,-740.008l740.012,0l0,740.008Z" style="fill:#3f3d56;fill-rule:nonzero"/><rect width="1035.36" height="54.492" x="589.679" y="5397.83" style="fill:#f2f2f2"/><circle cx="1543.3" cy="3983.92" r="108.983" style="fill:#3f3d56"/><rect width="2463.32" height="2343.18" x="6725.08" y="3146.19" style="fill:#d0cde1"/><rect width="1903.47" height="1455.6" x="7005" y="3426.11" style="fill:#fff"/><rect width="409.488" height="121.35" x="7752" y="4565.63" style="fill:#3f3d56"/><rect width="1399.6" height="52.008" x="7256.96" y="3620.84" style="fill:#3f3d56"/><rect width="1399.6" height="52.008" x="7256.96" y="3785.53" style="fill:#3f3d56"/><rect width="1399.6" height="52.008" x="7256.96" y="3950.22" style="fill:#3f3d56"/><rect width="1399.6" height="52.008" x="7256.96" y="4114.9" style="fill:#3f3d56"/><rect width="1399.6" height="52.008" x="7256.96" y="4279.58" style="fill:#3f3d56"/><rect width="1035.36" height="54.492" x="7003.13" y="5026.17" style="fill:#f2f2f2"/><rect width="1444.05" height="54.492" x="7003.13" y="5162.42" style="fill:#f2f2f2"/><circle cx="7956.75" cy="3282.42" r="108.983" style="fill:#3f3d56"/><path d="M10500.4,5836.54l-22,-8.245c-4.833,-1.821 -485.979,-186.167 -711.371,-604.155c-225.4,-418.012 -115.033,-921.3 -113.891,-926.325l5.195,-22.92l21.988,8.25c4.837,1.82 485.971,186.162 711.371,604.154c225.4,418.012 115.033,921.296 113.891,926.321l-5.183,22.92Zm-697.279,-631.858c190.558,353.413 570.775,534.571 667.112,575.929c18.317,-103.25 75.759,-520.783 -114.633,-873.854c-190.367,-353.033 -570.733,-534.475 -667.108,-575.933c-18.329,103.312 -75.75,520.804 114.629,873.858Z" style="fill:#33cf3c;fill-rule:nonzero;stroke:#2bd137;stroke-width:17.38px"/><path d="M9939.25,5077.5c405.054,243.696 561.054,727.741 561.054,727.741c0,0 -500.725,88.938 -905.779,-154.758c-405.054,-243.692 -561.054,-727.737 -561.054,-727.737c0,0 500.725,-88.938 905.779,154.754Z" style="fill:#40d851;fill-rule:nonzero"/></svg>