<?xml version="1.0" encoding="utf-8"?>
<!-- Generator: Adobe Illustrator 23.0.3, SVG Export Plug-In . SVG Version: 6.00 Build 0)  -->
<svg version="1.1" id="Layer_1" xmlns="http://www.w3.org/2000/svg" xmlns:xlink="http://www.w3.org/1999/xlink" x="0px" y="0px"
	 viewBox="0 0 1134 547" style="enable-background:new 0 0 1134 547;" xml:space="preserve">
<style type="text/css">
	.st0{fill:#FFFFFF;}
	.st1{fill:#57686F;}
	.st2{fill:#57676E;}
	.st3{fill:#4E4F4F;}
</style>
<title>repl</title>
<g id="b241f9e5-b99c-4d97-8dc2-de1fa233c54c">
	<g id="e0198f13-77e2-490c-a5f7-3481e58f008f">
		<rect x="50" y="55" class="st0" width="1019" height="418"/>
		<path class="st1" d="M448.5,250.4c0.5,5.4,0.8,10.9,0.8,16.5l0,0C449.3,261.4,449,255.9,448.5,250.4z"/>
		<path class="st2" d="M181.8,249.5c0,0-50,184.2,150.4,185.8c62.9-23.4,109.2-80.8,116.2-150c0.5-4.8,0.6-9.7,0.7-14.6
			c0-1.3,0.2-2.5,0.2-3.8c0-5.6-0.4-11.1-0.8-16.5C395.6,458.8,161.4,377.2,181.8,249.5z"/>
		<path class="st2" d="M285.4,181.1c0,0-186.5-52.1-183.7,151.3c9.6,24.6,24.4,46.8,43.5,65c0.8,0.8,1.6,1.5,2.4,2.2
			c5.4,5,11.1,9.6,17,13.9c0.9,0.7,1.8,1.4,2.7,2c6.3,4.3,12.9,8.2,19.7,11.7c2,1,4,2,6,2.9c5.9,2.8,11.9,5.2,18,7.3
			c1.5,0.5,2.9,1.2,4.5,1.6c7.3,2.3,14.8,4,22.4,5.3c2.3,0.4,4.6,0.7,6.9,1.1c7.8,1.1,15.8,1.7,23.7,1.8c0.3,0,0.6,0,0.9,0
			c6,0,11.9-0.3,17.7-0.9C77.8,396.5,157.4,162.4,285.4,181.1z"/>
		<path class="st2" d="M358.1,277.6c0,0,44.1-186.1-154.6-177.8c-77.5,29.9-123.9,109.4-112,191.6C133.4,80.8,371.7,149,358.1,277.6
			z"/>
		<path class="st2" d="M262.7,357.7c0,0,186.9,24.4,175.2-153.3C412.5,136,346.8,87.1,269.5,87.1c-10.9,0-21.9,1.1-32.6,3.1
			C445.2,115.8,391.1,359.5,262.7,357.7z"/>
		<path class="st3" d="M321.4,266.9c0,27.8-22.5,50.4-50.4,50.4c-27.8,0-50.4-22.5-50.4-50.4s22.5-50.4,50.4-50.4l0,0l0,0
			C298.9,216.6,321.4,239.1,321.4,266.9C321.4,266.9,321.4,266.9,321.4,266.9z"/>
		<rect x="882.9" y="285.2" class="st3" width="19.5" height="19.5"/>
		<rect x="903.8" y="306" class="st3" width="19.5" height="19.5"/>
		<rect x="882.9" y="326.9" class="st3" width="19.5" height="19.5"/>
		<path class="st3" d="M564.1,227.8V245H562c-12.4,0-22.5,5-30.3,14.9c-7.3,9.5-11,20.8-11,34v50.5h-17.2V229.6h17.2v28.2
			c3.7-11.9,11.6-20.7,23.8-26.4c5-2.4,11.2-3.7,18.3-3.7L564.1,227.8z"/>
		<path class="st3" d="M630.8,330.5c15.4,0,26.5-6.4,33.3-19.3h18.8c-3.7,10.1-10.3,18.8-18.9,25.2c-8.7,6.4-19.8,9.6-33.4,9.6
			c-17.3,0-31.3-5.7-42.2-17.2c-10.5-11.2-15.8-25.2-15.8-42c0-17,5-31,15.1-42c10.7-11.5,24.6-17.2,41.8-17.2
			c17.1,0,31,5.8,41.7,17.3c10.1,11,15.1,25,15.1,42v6.9h-96.1c1.2,10.5,5.4,19.3,12.6,26.1C610.2,327,619.5,330.5,630.8,330.5z
			 M629.5,243.4c-10.6,0-19.4,3.3-26.6,9.9c-6.7,6.3-10.9,14.5-12.4,24.6h78c-1.5-10.1-5.7-18.3-12.4-24.6
			C648.9,246.7,640,243.4,629.5,243.4L629.5,243.4z"/>
		<path class="st3" d="M724.7,248c9.2-13.5,22.9-20.2,41-20.2c16.5,0,29.9,5.7,40.1,17.2c10.3,11.3,15.4,25.3,15.4,42
			c0,16.7-5.1,30.7-15.4,42c-10.2,11.5-24,17.2-41.3,17.2c-17.3,0-30.6-6.8-39.9-20.4v64h-17.2V229.6h17.2L724.7,248z M763.4,243.4
			c-12.4,0-22.2,4.3-29.4,12.9c-6.9,8.1-10.3,18.3-10.3,30.7s3.4,22.7,10.3,30.7c7.2,8.6,17,12.8,29.4,12.8
			c12.2,0,22.2-4.3,29.8-12.8c7.2-8.1,10.8-18.4,10.8-30.7s-3.6-22.6-10.8-30.7C785.6,247.7,775.6,243.4,763.4,243.4L763.4,243.4z"
			/>
		<path class="st3" d="M860.9,344.3h-17.2V183.7h17.2V344.3z"/>
		<path class="st3" d="M957.5,187.9v22.5h-18.6v-22.5H957.5z M939.6,229.6h17.2v114.7h-17.2V229.6z"/>
		<path class="st3" d="M999,344.3v-99.5h-23.4v-15.1H999v-41.1h17.2v41.1h26.4v15.1h-26.4v99.5H999z"/>
	</g>
</g>
</svg>
