<svg xmlns="http://www.w3.org/2000/svg" viewBox="0 0 448 512"><defs><style>.cls-1,.cls-2,.cls-3,.cls-4,.cls-5{fill:#fff}.cls-1{opacity:.6}.cls-3,.cls-5{opacity:.5}.cls-3,.cls-4{font-size:54.01px;font-family:Montserrat-Black,Montserrat;font-weight:800}</style></defs><title>schedulee</title><g id="Layer_2" data-name="Layer 2"><g id="Layer_1-2" data-name="Layer 1"><rect width="11" height="60" x="218" y="282" class="cls-1" rx="5.5"/><path d="M400,64H352V12A12,12,0,0,0,340,0H300a12,12,0,0,0-12,12V64H160V12A12,12,0,0,0,148,0H108A12,12,0,0,0,96,12V64H48A48,48,0,0,0,0,112V464a48,48,0,0,0,48,48H400a48,48,0,0,0,48-48V112A48,48,0,0,0,400,64Zm-6,400H54a6,6,0,0,1-6-6V160H400V458A6,6,0,0,1,394,464Z" class="cls-2"/><text class="cls-3" transform="translate(73 327.9)">SCHEDULE</text><text class="cls-4" transform="translate(70.13 323.85)">SCHEDULE</text><rect width="11" height="86" x="218" y="188" class="cls-5" rx="5.5"/><rect width="11" height="86" x="218" y="351.03" class="cls-5" rx="5.5"/><rect width="46.09" height="9.67" x="155.7" y="208.99" class="cls-5" rx="4.83"/><rect width="46.09" height="9.67" x="155.7" y="367.89" class="cls-5" rx="4.83"/><rect width="46.09" height="9.67" x="243.06" y="406.41" class="cls-5" rx="4.83"/><rect width="46.09" height="9.67" x="165.33" y="302.33" class="cls-5" rx="4.83"/><rect width="46.09" height="9.67" x="240.31" y="302.33" class="cls-5" rx="4.83"/><rect width="46.09" height="9.67" x="240.31" y="256" class="cls-5" rx="4.83"/></g></g></svg>