<svg xmlns="http://www.w3.org/2000/svg" viewBox="0 0 288 162.34"><defs><style>.cls-1{fill:#197bdd}.cls-2{fill:#fff}.cls-3{fill:#ffc400}.cls-4{opacity:.3}.cls-5{fill:#001b45}.cls-6{opacity:.25}.cls-7{fill:#061360}</style></defs><title>state</title><g id="Layer_2" data-name="Layer 2"><g id="Layer_1-2" data-name="Layer 1"><rect width="288" height="162.34" class="cls-1"/><path d="M62,19.39a.61.61,0,1,0,0-1.22.61.61,0,1,0,0,1.22Z" class="cls-2"/><path d="M65.39,19.39a.61.61,0,1,0-.61-.61A.61.61,0,0,0,65.39,19.39Z" class="cls-2"/><path d="M68.75,19.37a.59.59,0,1,0-.6-.59A.59.59,0,0,0,68.75,19.37Z" class="cls-2"/><circle cx="72.1" cy="18.78" r=".57" class="cls-2"/><path d="M75.45,19.33a.55.55,0,1,0-.55-.55A.55.55,0,0,0,75.45,19.33Z" class="cls-2"/><path d="M78.8,19.31a.53.53,0,1,0-.53-.53A.53.53,0,0,0,78.8,19.31Z" class="cls-2"/><path d="M82.15,19.29a.51.51,0,1,0-.51-.51A.51.51,0,0,0,82.15,19.29Z" class="cls-2"/><path d="M85.5,19.26a.48.48,0,1,0-.48-.48A.48.48,0,0,0,85.5,19.26Z" class="cls-2"/><path d="M88.86,19.24a.46.46,0,1,0-.47-.46A.46.46,0,0,0,88.86,19.24Z" class="cls-2"/><path d="M92.21,19.23a.45.45,0,1,0-.45-.45A.45.45,0,0,0,92.21,19.23Z" class="cls-2"/><path d="M95.56,19.21a.43.43,0,0,0,0-.86.43.43,0,0,0,0,.86Z" class="cls-2"/><path d="M98.91,19.18a.4.4,0,1,0-.4-.4A.4.4,0,0,0,98.91,19.18Z" class="cls-2"/><path d="M102.26,19.16a.38.38,0,1,0-.38-.38A.38.38,0,0,0,102.26,19.16Z" class="cls-2"/><path d="M105.61,19.14a.36.36,0,1,0,0-.72.36.36,0,0,0,0,.72Z" class="cls-2"/><circle cx="108.96" cy="18.78" r=".33" class="cls-2"/><path d="M112.32,19.1a.32.32,0,1,0-.32-.32A.32.32,0,0,0,112.32,19.1Z" class="cls-2"/><path d="M115.67,19.08a.3.3,0,0,0,0-.6.3.3,0,0,0,0,.6Z" class="cls-2"/><path d="M119,19.06a.28.28,0,1,0-.28-.28A.29.29,0,0,0,119,19.06Z" class="cls-2"/><circle cx="122.37" cy="18.78" r=".25" class="cls-2"/><path d="M125.72,19a.23.23,0,1,0-.23-.23A.23.23,0,0,0,125.72,19Z" class="cls-2"/><path d="M129.07,19a.21.21,0,1,0,0-.42.21.21,0,1,0,0,.42Z" class="cls-2"/><path d="M132.43,19a.2.2,0,1,0-.2-.2A.2.2,0,0,0,132.43,19Z" class="cls-2"/><circle cx="135.78" cy="18.78" r=".17" class="cls-2"/><path d="M139.13,18.93a.15.15,0,1,0-.15-.15A.15.15,0,0,0,139.13,18.93Z" class="cls-2"/><path d="M142.48,18.91a.13.13,0,1,0-.13-.13A.13.13,0,0,0,142.48,18.91Z" class="cls-2"/><path d="M145.83,18.89a.11.11,0,1,0-.11-.11A.11.11,0,0,0,145.83,18.89Z" class="cls-2"/><circle cx="149.18" cy="18.78" r=".08" class="cls-2"/><path d="M152.53,18.85a.07.07,0,0,0,.07-.07s0-.06-.07-.06a.06.06,0,0,0-.06.06A.07.07,0,0,0,152.53,18.85Z" class="cls-2"/><path d="M155.89,18.83a.05.05,0,0,0,0-.1.05.05,0,1,0,0,.1Z" class="cls-2"/><path d="M159.24,18.81a0,0,0,1,0,0-.06,0,0,0,0,0,0,.06Z" class="cls-2"/><path d="M62,22.75a.62.62,0,0,0,.62-.62.61.61,0,0,0-.62-.61.61.61,0,0,0-.61.61A.61.61,0,0,0,62,22.75Z" class="cls-2"/><path d="M65.39,22.75a.62.62,0,0,0,.62-.62.62.62,0,0,0-1.23,0A.62.62,0,0,0,65.39,22.75Z" class="cls-2"/><path d="M68.75,22.73a.6.6,0,0,0,.59-.6.6.6,0,0,0-1.19,0A.6.6,0,0,0,68.75,22.73Z" class="cls-2"/><circle cx="72.1" cy="22.13" r=".57" class="cls-2"/><path d="M75.45,22.68a.55.55,0,1,0-.55-.55A.55.55,0,0,0,75.45,22.68Z" class="cls-2"/><path d="M78.8,22.66a.53.53,0,1,0-.53-.53A.53.53,0,0,0,78.8,22.66Z" class="cls-2"/><path d="M82.15,22.64a.51.51,0,1,0-.51-.51A.51.51,0,0,0,82.15,22.64Z" class="cls-2"/><circle cx="85.5" cy="22.13" r=".48" class="cls-2"/><path d="M88.86,22.6a.47.47,0,0,0,.46-.47.47.47,0,0,0-.93,0A.47.47,0,0,0,88.86,22.6Z" class="cls-2"/><path d="M92.21,22.58a.45.45,0,1,0-.45-.45A.45.45,0,0,0,92.21,22.58Z" class="cls-2"/><path d="M95.56,22.56a.43.43,0,0,0,.43-.43.44.44,0,0,0-.43-.43.43.43,0,0,0-.43.43A.43.43,0,0,0,95.56,22.56Z" class="cls-2"/><circle cx="98.91" cy="22.13" r=".4" class="cls-2"/><path d="M102.26,22.51a.38.38,0,1,0-.38-.38A.38.38,0,0,0,102.26,22.51Z" class="cls-2"/><path d="M105.61,22.49a.36.36,0,1,0,0-.72.36.36,0,0,0,0,.72Z" class="cls-2"/><circle cx="108.96" cy="22.13" r=".33" class="cls-2"/><path d="M112.32,22.45a.32.32,0,1,0-.32-.32A.31.31,0,0,0,112.32,22.45Z" class="cls-2"/><path d="M115.67,22.43a.3.3,0,0,0,.3-.3.31.31,0,0,0-.3-.3.3.3,0,0,0-.3.3A.29.29,0,0,0,115.67,22.43Z" class="cls-2"/><path d="M119,22.41a.28.28,0,0,0,.28-.28.28.28,0,0,0-.56,0A.28.28,0,0,0,119,22.41Z" class="cls-2"/><circle cx="122.37" cy="22.13" r=".25" class="cls-2"/><circle cx="125.72" cy="22.13" r=".23" class="cls-2"/><path d="M129.07,22.35a.22.22,0,0,0,.22-.22.21.21,0,0,0-.22-.21.21.21,0,0,0-.21.21A.22.22,0,0,0,129.07,22.35Z" class="cls-2"/><path d="M132.43,22.33a.2.2,0,0,0,.19-.2.19.19,0,0,0-.19-.19.19.19,0,0,0-.2.19A.2.2,0,0,0,132.43,22.33Z" class="cls-2"/><circle cx="135.78" cy="22.13" r=".17" class="cls-2"/><circle cx="139.13" cy="22.13" r=".15" class="cls-2"/><path d="M142.48,22.26a.13.13,0,1,0-.13-.13A.13.13,0,0,0,142.48,22.26Z" class="cls-2"/><path d="M145.83,22.24a.11.11,0,1,0-.11-.11A.11.11,0,0,0,145.83,22.24Z" class="cls-2"/><circle cx="149.18" cy="22.13" r=".08" class="cls-2"/><circle cx="152.53" cy="22.13" r=".07" class="cls-2"/><path d="M155.89,22.18a0,0,0,0,0,0-.05,0,0,0,0,0,0,0,0,0,0,0,0,0,0A0,0,0,0,0,155.89,22.18Z" class="cls-2"/><path d="M159.24,22.16a0,0,0,0,0,0,0l0,0a0,0,0,0,0,0,0A0,0,0,0,0,159.24,22.16Z" class="cls-2"/><path d="M62,26.1a.62.62,0,0,0,.62-.62.61.61,0,0,0-.62-.61.61.61,0,0,0-.61.61A.61.61,0,0,0,62,26.1Z" class="cls-2"/><path d="M65.39,26.1a.62.62,0,0,0,.62-.62.62.62,0,0,0-1.23,0A.62.62,0,0,0,65.39,26.1Z" class="cls-2"/><path d="M68.75,26.08a.6.6,0,0,0,.59-.6.6.6,0,0,0-1.19,0A.6.6,0,0,0,68.75,26.08Z" class="cls-2"/><circle cx="72.1" cy="25.48" r=".57" class="cls-2"/><circle cx="75.45" cy="25.48" r=".55" class="cls-2"/><path d="M78.8,26a.53.53,0,0,0,.53-.53.53.53,0,0,0-1.06,0A.53.53,0,0,0,78.8,26Z" class="cls-2"/><path d="M82.15,26a.51.51,0,0,0,.51-.51.51.51,0,1,0-1,0A.51.51,0,0,0,82.15,26Z" class="cls-2"/><circle cx="85.5" cy="25.48" r=".48" class="cls-2"/><circle cx="88.86" cy="25.48" r=".46" class="cls-2"/><path d="M92.21,25.93a.45.45,0,1,0-.45-.45A.45.45,0,0,0,92.21,25.93Z" class="cls-2"/><path d="M95.56,25.91a.43.43,0,1,0,0-.85.43.43,0,1,0,0,.85Z" class="cls-2"/><circle cx="98.91" cy="25.48" r=".4" class="cls-2"/><path d="M102.26,25.86a.38.38,0,1,0-.38-.38A.38.38,0,0,0,102.26,25.86Z" class="cls-2"/><path d="M105.61,25.85a.38.38,0,0,0,.37-.37.37.37,0,0,0-.37-.36.36.36,0,0,0-.36.36A.37.37,0,0,0,105.61,25.85Z" class="cls-2"/><circle cx="108.96" cy="25.48" r=".33" class="cls-2"/><path d="M112.32,25.8a.32.32,0,1,0-.32-.32A.31.31,0,0,0,112.32,25.8Z" class="cls-2"/><path d="M115.67,25.78a.3.3,0,1,0,0-.59.3.3,0,1,0,0,.59Z" class="cls-2"/><path d="M119,25.76a.28.28,0,0,0,.28-.28.28.28,0,0,0-.56,0A.28.28,0,0,0,119,25.76Z" class="cls-2"/><circle cx="122.37" cy="25.48" r=".25" class="cls-2"/><circle cx="125.72" cy="25.48" r=".23" class="cls-2"/><path d="M129.07,25.7a.22.22,0,1,0,0-.43.22.22,0,0,0,0,.43Z" class="cls-2"/><path d="M132.43,25.68a.2.2,0,0,0,.19-.2.2.2,0,0,0-.19-.19.2.2,0,1,0,0,.39Z" class="cls-2"/><circle cx="135.78" cy="25.48" r=".17" class="cls-2"/><circle cx="139.13" cy="25.48" r=".15" class="cls-2"/><path d="M142.48,25.61a.13.13,0,1,0-.13-.13A.13.13,0,0,0,142.48,25.61Z" class="cls-2"/><path d="M145.83,25.59a.11.11,0,1,0-.11-.11A.11.11,0,0,0,145.83,25.59Z" class="cls-2"/><circle cx="149.18" cy="25.48" r=".08" class="cls-2"/><circle cx="152.53" cy="25.48" r=".07" class="cls-2"/><path d="M155.89,25.53a0,0,0,0,0,0-.05,0,0,0,0,0,0,0,0,0,0,0,0,0,0A0,0,0,0,0,155.89,25.53Z" class="cls-2"/><path d="M159.24,25.51a0,0,0,0,0,0,0s0,0,0,0,0,0,0,0A0,0,0,0,0,159.24,25.51Z" class="cls-2"/><path d="M62,29.45a.62.62,0,1,0,0-1.23.62.62,0,0,0,0,1.23Z" class="cls-2"/><path d="M65.39,29.45a.62.62,0,1,0-.61-.62A.62.62,0,0,0,65.39,29.45Z" class="cls-2"/><path d="M68.75,29.43a.6.6,0,1,0-.6-.6A.6.6,0,0,0,68.75,29.43Z" class="cls-2"/><circle cx="72.1" cy="28.83" r=".57" class="cls-2"/><circle cx="75.45" cy="28.83" r=".55" class="cls-2"/><path d="M78.8,29.36a.53.53,0,0,0,.53-.53.53.53,0,0,0-1.06,0A.53.53,0,0,0,78.8,29.36Z" class="cls-2"/><path d="M82.15,29.35a.52.52,0,1,0-.51-.52A.51.51,0,0,0,82.15,29.35Z" class="cls-2"/><circle cx="85.5" cy="28.83" r=".48" class="cls-2"/><circle cx="88.86" cy="28.83" r=".46" class="cls-2"/><path d="M92.21,29.28a.45.45,0,1,0-.45-.45A.45.45,0,0,0,92.21,29.28Z" class="cls-2"/><path d="M95.56,29.26a.43.43,0,1,0,0-.85.43.43,0,1,0,0,.85Z" class="cls-2"/><circle cx="98.91" cy="28.83" r=".4" class="cls-2"/><circle cx="102.26" cy="28.83" r=".38" class="cls-2"/><path d="M105.61,29.2a.38.38,0,0,0,.37-.37.37.37,0,0,0-.37-.36.36.36,0,0,0-.36.36A.37.37,0,0,0,105.61,29.2Z" class="cls-2"/><circle cx="108.96" cy="28.83" r=".33" class="cls-2"/><path d="M112.32,29.15a.32.32,0,1,0-.32-.32A.31.31,0,0,0,112.32,29.15Z" class="cls-2"/><path d="M115.67,29.13a.3.3,0,1,0,0-.59.3.3,0,1,0,0,.59Z" class="cls-2"/><path d="M119,29.11a.28.28,0,1,0-.28-.28A.28.28,0,0,0,119,29.11Z" class="cls-2"/><circle cx="122.37" cy="28.83" r=".25" class="cls-2"/><circle cx="125.72" cy="28.83" r=".23" class="cls-2"/><circle cx="129.07" cy="28.83" r=".21" class="cls-2"/><path d="M132.43,29a.2.2,0,0,0,.19-.2.2.2,0,0,0-.19-.19.2.2,0,1,0,0,.39Z" class="cls-2"/><circle cx="135.78" cy="28.83" r=".17" class="cls-2"/><circle cx="139.13" cy="28.83" r=".15" class="cls-2"/><circle cx="142.48" cy="28.83" r=".13" class="cls-2"/><path d="M145.83,29a.11.11,0,0,0,.11-.12.11.11,0,0,0-.22,0A.11.11,0,0,0,145.83,29Z" class="cls-2"/><circle cx="149.18" cy="28.83" r=".08" class="cls-2"/><circle cx="152.53" cy="28.83" r=".07" class="cls-2"/><circle cx="155.89" cy="28.83" r=".05" class="cls-2"/><path d="M159.24,28.86a0,0,0,0,0,0,0l0,0s0,0,0,0A0,0,0,0,0,159.24,28.86Z" class="cls-2"/><path d="M62,32.8a.62.62,0,1,0,0-1.23.62.62,0,0,0,0,1.23Z" class="cls-2"/><path d="M65.39,32.8a.62.62,0,1,0-.61-.61A.62.62,0,0,0,65.39,32.8Z" class="cls-2"/><path d="M68.75,32.78a.6.6,0,1,0-.6-.59A.6.6,0,0,0,68.75,32.78Z" class="cls-2"/><circle cx="72.1" cy="32.19" r=".57" class="cls-2"/><circle cx="75.45" cy="32.19" r=".55" class="cls-2"/><circle cx="78.8" cy="32.19" r=".53" class="cls-2"/><path d="M82.15,32.7a.51.51,0,0,0,.51-.51.51.51,0,0,0-1,0A.51.51,0,0,0,82.15,32.7Z" class="cls-2"/><circle cx="85.5" cy="32.19" r=".48" class="cls-2"/><circle cx="88.86" cy="32.19" r=".46" class="cls-2"/><circle cx="92.21" cy="32.19" r=".45" class="cls-2"/><path d="M95.56,32.61a.43.43,0,1,0,0-.85.43.43,0,1,0,0,.85Z" class="cls-2"/><circle cx="98.91" cy="32.19" r=".4" class="cls-2"/><circle cx="102.26" cy="32.19" r=".38" class="cls-2"/><path d="M105.61,32.55a.37.37,0,0,0,.37-.36.38.38,0,0,0-.37-.37.37.37,0,0,0-.36.37A.36.36,0,0,0,105.61,32.55Z" class="cls-2"/><circle cx="108.96" cy="32.19" r=".33" class="cls-2"/><path d="M112.32,32.5a.32.32,0,0,0,0-.63.32.32,0,1,0,0,.63Z" class="cls-2"/><path d="M115.67,32.48a.3.3,0,1,0,0-.59.3.3,0,1,0,0,.59Z" class="cls-2"/><path d="M119,32.47a.29.29,0,0,0,.28-.28.28.28,0,0,0-.56,0A.29.29,0,0,0,119,32.47Z" class="cls-2"/><circle cx="122.37" cy="32.19" r=".25" class="cls-2"/><circle cx="125.72" cy="32.19" r=".23" class="cls-2"/><circle cx="129.07" cy="32.19" r=".21" class="cls-2"/><path d="M132.43,32.38a.2.2,0,0,0,.19-.19.2.2,0,1,0-.19.19Z" class="cls-2"/><circle cx="135.78" cy="32.19" r=".17" class="cls-2"/><circle cx="139.13" cy="32.19" r=".15" class="cls-2"/><circle cx="142.48" cy="32.19" r=".13" class="cls-2"/><path d="M145.83,32.3a.11.11,0,0,0,.11-.11.11.11,0,1,0-.22,0A.11.11,0,0,0,145.83,32.3Z" class="cls-2"/><circle cx="149.18" cy="32.19" r=".08" class="cls-2"/><circle cx="152.53" cy="32.19" r=".07" class="cls-2"/><circle cx="155.89" cy="32.19" r=".05" class="cls-2"/><path d="M159.24,32.21s0,0,0,0a0,0,0,0,0,0,0,0,0,0,0,0,0,0S159.22,32.21,159.24,32.21Z" class="cls-2"/><path d="M62,36.15a.61.61,0,0,0,.62-.61.62.62,0,0,0-.62-.62.61.61,0,0,0-.61.62A.61.61,0,0,0,62,36.15Z" class="cls-2"/><path d="M65.39,36.15a.61.61,0,0,0,.62-.61.62.62,0,1,0-1.23,0A.61.61,0,0,0,65.39,36.15Z" class="cls-2"/><path d="M68.75,36.13a.59.59,0,0,0,.59-.59.6.6,0,1,0-1.19,0A.59.59,0,0,0,68.75,36.13Z" class="cls-2"/><circle cx="72.1" cy="35.54" r=".57" class="cls-2"/><circle cx="75.45" cy="35.54" r=".55" class="cls-2"/><circle cx="78.8" cy="35.54" r=".53" class="cls-2"/><path d="M82.15,36.05a.51.51,0,1,0-.51-.51A.51.51,0,0,0,82.15,36.05Z" class="cls-2"/><circle cx="85.5" cy="35.54" r=".48" class="cls-2"/><circle cx="88.86" cy="35.54" r=".46" class="cls-2"/><circle cx="92.21" cy="35.54" r=".45" class="cls-2"/><path d="M95.56,36a.44.44,0,0,0,.43-.43.43.43,0,0,0-.43-.43.43.43,0,0,0-.43.43A.43.43,0,0,0,95.56,36Z" class="cls-2"/><circle cx="98.91" cy="35.54" r=".4" class="cls-2"/><circle cx="102.26" cy="35.54" r=".38" class="cls-2"/><path d="M105.61,35.9a.36.36,0,1,0,0-.72.36.36,0,0,0,0,.72Z" class="cls-2"/><circle cx="108.96" cy="35.54" r=".33" class="cls-2"/><path d="M112.32,35.85a.32.32,0,0,0,0-.63.32.32,0,1,0,0,.63Z" class="cls-2"/><path d="M115.67,35.84a.31.31,0,0,0,.3-.3.3.3,0,0,0-.3-.3.29.29,0,0,0-.3.3A.3.3,0,0,0,115.67,35.84Z" class="cls-2"/><path d="M119,35.82a.29.29,0,0,0,.28-.28.28.28,0,0,0-.56,0A.29.29,0,0,0,119,35.82Z" class="cls-2"/><circle cx="122.37" cy="35.54" r=".25" class="cls-2"/><circle cx="125.72" cy="35.54" r=".23" class="cls-2"/><circle cx="129.07" cy="35.54" r=".21" class="cls-2"/><circle cx="132.43" cy="35.54" r=".2" class="cls-2"/><circle cx="135.78" cy="35.54" r=".17" class="cls-2"/><circle cx="139.13" cy="35.54" r=".15" class="cls-2"/><circle cx="142.48" cy="35.54" r=".13" class="cls-2"/><circle cx="145.83" cy="35.54" r=".11" class="cls-2"/><circle cx="149.18" cy="35.54" r=".08" class="cls-2"/><circle cx="152.53" cy="35.54" r=".07" class="cls-2"/><circle cx="155.89" cy="35.54" r=".05" class="cls-2"/><path d="M159.24,35.57l0,0a0,0,0,0,0,0,0,0,0,0,0,0,0,0A0,0,0,0,0,159.24,35.57Z" class="cls-2"/><path d="M62,39.5a.61.61,0,1,0,0-1.22.61.61,0,0,0,0,1.22Z" class="cls-2"/><path d="M65.39,39.5a.61.61,0,1,0-.61-.61A.61.61,0,0,0,65.39,39.5Z" class="cls-2"/><path d="M68.75,39.48a.59.59,0,0,0,.59-.59.6.6,0,1,0-1.19,0A.59.59,0,0,0,68.75,39.48Z" class="cls-2"/><circle cx="72.1" cy="38.89" r=".57" class="cls-2"/><circle cx="75.45" cy="38.89" r=".55" class="cls-2"/><circle cx="78.8" cy="38.89" r=".53" class="cls-2"/><circle cx="82.15" cy="38.89" r=".51" class="cls-2"/><circle cx="85.5" cy="38.89" r=".48" class="cls-2"/><circle cx="88.86" cy="38.89" r=".46" class="cls-2"/><circle cx="92.21" cy="38.89" r=".45" class="cls-2"/><path d="M95.56,39.32a.43.43,0,1,0,0-.86.43.43,0,1,0,0,.86Z" class="cls-2"/><circle cx="98.91" cy="38.89" r=".4" class="cls-2"/><circle cx="102.26" cy="38.89" r=".38" class="cls-2"/><path d="M105.61,39.25a.36.36,0,1,0,0-.72.36.36,0,0,0,0,.72Z" class="cls-2"/><circle cx="108.96" cy="38.89" r=".33" class="cls-2"/><path d="M112.32,39.21a.32.32,0,0,0,.31-.32.32.32,0,1,0-.63,0A.32.32,0,0,0,112.32,39.21Z" class="cls-2"/><path d="M115.67,39.19a.3.3,0,0,0,0-.6.3.3,0,0,0,0,.6Z" class="cls-2"/><path d="M119,39.17a.28.28,0,1,0-.28-.28A.29.29,0,0,0,119,39.17Z" class="cls-2"/><circle cx="122.37" cy="38.89" r=".25" class="cls-2"/><circle cx="125.72" cy="38.89" r=".23" class="cls-2"/><circle cx="129.07" cy="38.89" r=".21" class="cls-2"/><circle cx="132.43" cy="38.89" r=".2" class="cls-2"/><circle cx="135.78" cy="38.89" r=".17" class="cls-2"/><circle cx="139.13" cy="38.89" r=".15" class="cls-2"/><circle cx="142.48" cy="38.89" r=".13" class="cls-2"/><circle cx="145.83" cy="38.89" r=".11" class="cls-2"/><circle cx="149.18" cy="38.89" r=".08" class="cls-2"/><circle cx="152.53" cy="38.89" r=".07" class="cls-2"/><circle cx="155.89" cy="38.89" r=".05" class="cls-2"/><path d="M159.24,38.92l0,0a0,0,0,0,0,0,0,0,0,0,0,0,0,0A0,0,0,0,0,159.24,38.92Z" class="cls-2"/><path d="M62,42.85a.61.61,0,1,0,0-1.22.61.61,0,0,0,0,1.22Z" class="cls-2"/><path d="M65.39,42.85a.61.61,0,1,0-.61-.61A.61.61,0,0,0,65.39,42.85Z" class="cls-2"/><path d="M68.75,42.84a.6.6,0,0,0,.59-.6.6.6,0,0,0-1.19,0A.6.6,0,0,0,68.75,42.84Z" class="cls-2"/><circle cx="72.1" cy="42.24" r=".57" class="cls-2"/><circle cx="75.45" cy="42.24" r=".55" class="cls-2"/><circle cx="78.8" cy="42.24" r=".53" class="cls-2"/><circle cx="82.15" cy="42.24" r=".51" class="cls-2"/><circle cx="85.5" cy="42.24" r=".48" class="cls-2"/><circle cx="88.86" cy="42.24" r=".46" class="cls-2"/><circle cx="92.21" cy="42.24" r=".45" class="cls-2"/><path d="M95.56,42.67a.43.43,0,1,0,0-.86.43.43,0,1,0,0,.86Z" class="cls-2"/><circle cx="98.91" cy="42.24" r=".4" class="cls-2"/><circle cx="102.26" cy="42.24" r=".38" class="cls-2"/><path d="M105.61,42.6a.36.36,0,1,0,0-.72.36.36,0,0,0,0,.72Z" class="cls-2"/><circle cx="108.96" cy="42.24" r=".33" class="cls-2"/><path d="M112.32,42.56a.31.31,0,0,0,.31-.32.32.32,0,1,0-.63,0A.32.32,0,0,0,112.32,42.56Z" class="cls-2"/><path d="M115.67,42.54a.3.3,0,0,0,.3-.3.31.31,0,0,0-.3-.3.3.3,0,0,0-.3.3A.29.29,0,0,0,115.67,42.54Z" class="cls-2"/><path d="M119,42.52a.28.28,0,1,0-.28-.28A.29.29,0,0,0,119,42.52Z" class="cls-2"/><circle cx="122.37" cy="42.24" r=".25" class="cls-2"/><circle cx="125.72" cy="42.24" r=".23" class="cls-2"/><circle cx="129.07" cy="42.24" r=".21" class="cls-2"/><circle cx="132.43" cy="42.24" r=".2" class="cls-2"/><circle cx="135.78" cy="42.24" r=".17" class="cls-2"/><circle cx="139.13" cy="42.24" r=".15" class="cls-2"/><circle cx="142.48" cy="42.24" r=".13" class="cls-2"/><circle cx="145.83" cy="42.24" r=".11" class="cls-2"/><circle cx="149.18" cy="42.24" r=".08" class="cls-2"/><circle cx="152.53" cy="42.24" r=".07" class="cls-2"/><circle cx="155.89" cy="42.24" r=".05" class="cls-2"/><path d="M159.24,42.27a0,0,0,0,0,0,0,0,0,0,0,0,0,0,0,0,0,0,0,0,0A0,0,0,0,0,159.24,42.27Z" class="cls-2"/><path d="M62,46.21a.62.62,0,0,0,.62-.62A.61.61,0,0,0,62,45a.61.61,0,0,0-.61.61A.61.61,0,0,0,62,46.21Z" class="cls-2"/><path d="M65.39,46.21a.62.62,0,0,0,.62-.62.62.62,0,0,0-1.23,0A.62.62,0,0,0,65.39,46.21Z" class="cls-2"/><path d="M68.75,46.19a.6.6,0,0,0,.59-.6.6.6,0,0,0-1.19,0A.6.6,0,0,0,68.75,46.19Z" class="cls-2"/><circle cx="72.1" cy="45.59" r=".57" class="cls-2"/><circle cx="75.45" cy="45.59" r=".55" class="cls-2"/><circle cx="78.8" cy="45.59" r=".53" class="cls-2"/><circle cx="82.15" cy="45.59" r=".51" class="cls-2"/><circle cx="85.5" cy="45.59" r=".48" class="cls-2"/><circle cx="88.86" cy="45.59" r=".46" class="cls-2"/><circle cx="92.21" cy="45.59" r=".45" class="cls-2"/><path d="M95.56,46a.43.43,0,0,0,.43-.43.44.44,0,0,0-.43-.43.43.43,0,0,0-.43.43A.43.43,0,0,0,95.56,46Z" class="cls-2"/><circle cx="98.91" cy="45.59" r=".4" class="cls-2"/><circle cx="102.26" cy="45.59" r=".38" class="cls-2"/><path d="M105.61,46a.36.36,0,1,0,0-.72.36.36,0,0,0,0,.72Z" class="cls-2"/><circle cx="108.96" cy="45.59" r=".33" class="cls-2"/><path d="M112.32,45.91a.32.32,0,1,0-.32-.32A.31.31,0,0,0,112.32,45.91Z" class="cls-2"/><path d="M115.67,45.89a.3.3,0,0,0,.3-.3.31.31,0,0,0-.3-.3.3.3,0,0,0-.3.3A.29.29,0,0,0,115.67,45.89Z" class="cls-2"/><path d="M119,45.87a.28.28,0,0,0,.28-.28.28.28,0,0,0-.56,0A.28.28,0,0,0,119,45.87Z" class="cls-2"/><circle cx="122.37" cy="45.59" r=".25" class="cls-2"/><circle cx="125.72" cy="45.59" r=".23" class="cls-2"/><circle cx="129.07" cy="45.59" r=".21" class="cls-2"/><circle cx="132.43" cy="45.59" r=".2" class="cls-2"/><circle cx="135.78" cy="45.59" r=".17" class="cls-2"/><circle cx="139.13" cy="45.59" r=".15" class="cls-2"/><circle cx="142.48" cy="45.59" r=".13" class="cls-2"/><circle cx="145.83" cy="45.59" r=".11" class="cls-2"/><circle cx="149.18" cy="45.59" r=".08" class="cls-2"/><circle cx="152.53" cy="45.59" r=".07" class="cls-2"/><circle cx="155.89" cy="45.59" r=".05" class="cls-2"/><path d="M159.24,45.62a0,0,0,0,0,0,0,0,0,0,0,0,0,0,0,0,0,0,0,0,0A0,0,0,0,0,159.24,45.62Z" class="cls-2"/><path d="M62,49.56a.62.62,0,1,0,0-1.23.62.62,0,0,0,0,1.23Z" class="cls-2"/><path d="M65.39,49.56a.62.62,0,1,0-.61-.62A.62.62,0,0,0,65.39,49.56Z" class="cls-2"/><path d="M68.75,49.54a.6.6,0,1,0-.6-.6A.6.6,0,0,0,68.75,49.54Z" class="cls-2"/><circle cx="72.1" cy="48.94" r=".57" class="cls-2"/><circle cx="75.45" cy="48.94" r=".55" class="cls-2"/><circle cx="78.8" cy="48.94" r=".53" class="cls-2"/><circle cx="82.15" cy="48.94" r=".51" class="cls-2"/><circle cx="85.5" cy="48.94" r=".48" class="cls-2"/><circle cx="88.86" cy="48.94" r=".46" class="cls-2"/><circle cx="92.21" cy="48.94" r=".45" class="cls-2"/><path d="M95.56,49.37a.43.43,0,1,0,0-.85.43.43,0,1,0,0,.85Z" class="cls-2"/><circle cx="98.91" cy="48.94" r=".4" class="cls-2"/><circle cx="102.26" cy="48.94" r=".38" class="cls-2"/><path d="M105.61,49.31a.38.38,0,0,0,.37-.37.37.37,0,0,0-.37-.36.36.36,0,0,0-.36.36A.37.37,0,0,0,105.61,49.31Z" class="cls-2"/><circle cx="108.96" cy="48.94" r=".33" class="cls-2"/><path d="M112.32,49.26a.32.32,0,1,0-.32-.32A.31.31,0,0,0,112.32,49.26Z" class="cls-2"/><path d="M115.67,49.24a.3.3,0,1,0,0-.59.3.3,0,1,0,0,.59Z" class="cls-2"/><path d="M119,49.22a.28.28,0,1,0-.28-.28A.28.28,0,0,0,119,49.22Z" class="cls-2"/><circle cx="122.37" cy="48.94" r=".25" class="cls-2"/><circle cx="125.72" cy="48.94" r=".23" class="cls-2"/><circle cx="129.07" cy="48.94" r=".21" class="cls-2"/><circle cx="132.43" cy="48.94" r=".2" class="cls-2"/><circle cx="135.78" cy="48.94" r=".17" class="cls-2"/><circle cx="139.13" cy="48.94" r=".15" class="cls-2"/><circle cx="142.48" cy="48.94" r=".13" class="cls-2"/><circle cx="145.83" cy="48.94" r=".11" class="cls-2"/><circle cx="149.18" cy="48.94" r=".08" class="cls-2"/><circle cx="152.53" cy="48.94" r=".07" class="cls-2"/><circle cx="155.89" cy="48.94" r=".05" class="cls-2"/><path d="M159.24,49a0,0,0,0,0,0,0l0,0s0,0,0,0A0,0,0,0,0,159.24,49Z" class="cls-2"/><path d="M62,52.91a.62.62,0,1,0,0-1.23.62.62,0,0,0,0,1.23Z" class="cls-2"/><path d="M65.39,52.91a.62.62,0,1,0-.61-.61A.62.62,0,0,0,65.39,52.91Z" class="cls-2"/><path d="M68.75,52.89a.6.6,0,1,0-.6-.59A.6.6,0,0,0,68.75,52.89Z" class="cls-2"/><circle cx="72.1" cy="52.3" r=".57" class="cls-2"/><circle cx="75.45" cy="52.3" r=".55" class="cls-2"/><circle cx="78.8" cy="52.3" r=".53" class="cls-2"/><path d="M82.15,52.81a.52.52,0,1,0-.51-.51A.51.51,0,0,0,82.15,52.81Z" class="cls-2"/><circle cx="85.5" cy="52.3" r=".48" class="cls-2"/><circle cx="88.86" cy="52.3" r=".46" class="cls-2"/><circle cx="92.21" cy="52.3" r=".45" class="cls-2"/><path d="M95.56,52.72a.43.43,0,1,0,0-.85.43.43,0,1,0,0,.85Z" class="cls-2"/><circle cx="98.91" cy="52.3" r=".4" class="cls-2"/><circle cx="102.26" cy="52.3" r=".38" class="cls-2"/><path d="M105.61,52.66a.37.37,0,0,0,.37-.36.38.38,0,0,0-.37-.37.37.37,0,0,0-.36.37A.36.36,0,0,0,105.61,52.66Z" class="cls-2"/><circle cx="108.96" cy="52.3" r=".33" class="cls-2"/><path d="M112.32,52.61a.32.32,0,0,0,0-.63.32.32,0,1,0,0,.63Z" class="cls-2"/><path d="M115.67,52.59a.3.3,0,1,0,0-.59.3.3,0,1,0,0,.59Z" class="cls-2"/><path d="M119,52.57a.28.28,0,1,0-.28-.27A.28.28,0,0,0,119,52.57Z" class="cls-2"/><circle cx="122.37" cy="52.3" r=".25" class="cls-2"/><circle cx="125.72" cy="52.3" r=".23" class="cls-2"/><circle cx="129.07" cy="52.3" r=".21" class="cls-2"/><circle cx="132.43" cy="52.3" r=".2" class="cls-2"/><circle cx="135.78" cy="52.3" r=".17" class="cls-2"/><circle cx="139.13" cy="52.3" r=".15" class="cls-2"/><circle cx="142.48" cy="52.3" r=".13" class="cls-2"/><circle cx="145.83" cy="52.3" r=".11" class="cls-2"/><circle cx="149.18" cy="52.3" r=".08" class="cls-2"/><circle cx="152.53" cy="52.3" r=".07" class="cls-2"/><circle cx="155.89" cy="52.3" r=".05" class="cls-2"/><path d="M159.24,52.32s0,0,0,0a0,0,0,0,0,0,0,0,0,0,0,0,0,0S159.22,52.32,159.24,52.32Z" class="cls-2"/><path d="M62,56.26a.61.61,0,0,0,.62-.61A.62.62,0,0,0,62,55a.61.61,0,0,0-.61.62A.61.61,0,0,0,62,56.26Z" class="cls-2"/><path d="M65.39,56.26a.61.61,0,0,0,.62-.61.62.62,0,1,0-1.23,0A.61.61,0,0,0,65.39,56.26Z" class="cls-2"/><path d="M68.75,56.24a.59.59,0,0,0,.59-.59.6.6,0,1,0-1.19,0A.59.59,0,0,0,68.75,56.24Z" class="cls-2"/><circle cx="72.1" cy="55.65" r=".57" class="cls-2"/><circle cx="75.45" cy="55.65" r=".55" class="cls-2"/><circle cx="78.8" cy="55.65" r=".53" class="cls-2"/><path d="M82.15,56.16a.51.51,0,0,0,.51-.51.51.51,0,1,0-1,0A.51.51,0,0,0,82.15,56.16Z" class="cls-2"/><circle cx="85.5" cy="55.65" r=".48" class="cls-2"/><circle cx="88.86" cy="55.65" r=".46" class="cls-2"/><circle cx="92.21" cy="55.65" r=".45" class="cls-2"/><path d="M95.56,56.07a.43.43,0,1,0,0-.85.43.43,0,1,0,0,.85Z" class="cls-2"/><circle cx="98.91" cy="55.65" r=".4" class="cls-2"/><circle cx="102.26" cy="55.65" r=".38" class="cls-2"/><path d="M105.61,56a.37.37,0,0,0,.37-.36.38.38,0,0,0-.37-.37.37.37,0,0,0-.36.37A.36.36,0,0,0,105.61,56Z" class="cls-2"/><circle cx="108.96" cy="55.65" r=".33" class="cls-2"/><path d="M112.32,56a.32.32,0,0,0,0-.63.32.32,0,1,0,0,.63Z" class="cls-2"/><path d="M115.67,55.94a.3.3,0,1,0,0-.59.3.3,0,1,0,0,.59Z" class="cls-2"/><path d="M119,55.93a.29.29,0,0,0,.28-.28.28.28,0,1,0-.56,0A.29.29,0,0,0,119,55.93Z" class="cls-2"/><circle cx="122.37" cy="55.65" r=".25" class="cls-2"/><circle cx="125.72" cy="55.65" r=".23" class="cls-2"/><circle cx="129.07" cy="55.65" r=".21" class="cls-2"/><path d="M132.43,55.84a.2.2,0,0,0,.19-.19.2.2,0,1,0-.19.19Z" class="cls-2"/><circle cx="135.78" cy="55.65" r=".17" class="cls-2"/><circle cx="139.13" cy="55.65" r=".15" class="cls-2"/><circle cx="142.48" cy="55.65" r=".13" class="cls-2"/><path d="M145.83,55.76a.11.11,0,1,0-.11-.11A.11.11,0,0,0,145.83,55.76Z" class="cls-2"/><circle cx="149.18" cy="55.65" r=".08" class="cls-2"/><circle cx="152.53" cy="55.65" r=".07" class="cls-2"/><circle cx="155.89" cy="55.65" r=".05" class="cls-2"/><path d="M159.24,55.67l0,0a0,0,0,0,0,0,0,0,0,0,0,0,0,0S159.22,55.67,159.24,55.67Z" class="cls-2"/><path d="M62,59.61a.61.61,0,0,0,.62-.61.62.62,0,0,0-.62-.62.61.61,0,0,0-.61.62A.61.61,0,0,0,62,59.61Z" class="cls-2"/><path d="M65.39,59.61A.61.61,0,0,0,66,59a.62.62,0,1,0-1.23,0A.61.61,0,0,0,65.39,59.61Z" class="cls-2"/><path d="M68.75,59.59a.59.59,0,0,0,.59-.59.6.6,0,1,0-1.19,0A.59.59,0,0,0,68.75,59.59Z" class="cls-2"/><circle cx="72.1" cy="59" r=".57" class="cls-2"/><circle cx="75.45" cy="59" r=".55" class="cls-2"/><path d="M78.8,59.53a.53.53,0,1,0-.53-.53A.53.53,0,0,0,78.8,59.53Z" class="cls-2"/><path d="M82.15,59.51a.51.51,0,1,0-.51-.51A.51.51,0,0,0,82.15,59.51Z" class="cls-2"/><circle cx="85.5" cy="59" r=".48" class="cls-2"/><circle cx="88.86" cy="59" r=".46" class="cls-2"/><path d="M92.21,59.44a.45.45,0,1,0-.45-.44A.44.44,0,0,0,92.21,59.44Z" class="cls-2"/><path d="M95.56,59.43A.44.44,0,0,0,96,59a.43.43,0,0,0-.43-.43.43.43,0,0,0-.43.43A.43.43,0,0,0,95.56,59.43Z" class="cls-2"/><circle cx="98.91" cy="59" r=".4" class="cls-2"/><circle cx="102.26" cy="59" r=".38" class="cls-2"/><path d="M105.61,59.36a.36.36,0,1,0,0-.72.36.36,0,0,0,0,.72Z" class="cls-2"/><circle cx="108.96" cy="59" r=".33" class="cls-2"/><path d="M112.32,59.31a.32.32,0,0,0,0-.63.32.32,0,1,0,0,.63Z" class="cls-2"/><path d="M115.67,59.3a.31.31,0,0,0,.3-.3.3.3,0,0,0-.3-.3.29.29,0,0,0-.3.3A.3.3,0,0,0,115.67,59.3Z" class="cls-2"/><path d="M119,59.28a.29.29,0,0,0,.28-.28.28.28,0,1,0-.56,0A.29.29,0,0,0,119,59.28Z" class="cls-2"/><circle cx="122.37" cy="59" r=".25" class="cls-2"/><circle cx="125.72" cy="59" r=".23" class="cls-2"/><circle cx="129.07" cy="59" r=".21" class="cls-2"/><path d="M132.43,59.19a.19.19,0,0,0,.19-.19.2.2,0,1,0-.39,0A.19.19,0,0,0,132.43,59.19Z" class="cls-2"/><circle cx="135.78" cy="59" r=".17" class="cls-2"/><circle cx="139.13" cy="59" r=".15" class="cls-2"/><circle cx="142.48" cy="59" r=".13" class="cls-2"/><path d="M145.83,59.11a.11.11,0,1,0-.11-.11A.11.11,0,0,0,145.83,59.11Z" class="cls-2"/><circle cx="149.18" cy="59" r=".08" class="cls-2"/><circle cx="152.53" cy="59" r=".07" class="cls-2"/><circle cx="155.89" cy="59" r=".05" class="cls-2"/><path d="M159.24,59l0,0a0,0,0,0,0,0,0,0,0,0,0,0,0,0A0,0,0,0,0,159.24,59Z" class="cls-2"/><path d="M62,63a.61.61,0,1,0,0-1.22A.61.61,0,0,0,62,63Z" class="cls-2"/><path d="M65.39,63a.61.61,0,1,0-.61-.61A.61.61,0,0,0,65.39,63Z" class="cls-2"/><path d="M68.75,62.94a.59.59,0,1,0-.6-.59A.59.59,0,0,0,68.75,62.94Z" class="cls-2"/><circle cx="72.1" cy="62.35" r=".57" class="cls-2"/><circle cx="75.45" cy="62.35" r=".55" class="cls-2"/><path d="M78.8,62.88a.53.53,0,1,0-.53-.53A.53.53,0,0,0,78.8,62.88Z" class="cls-2"/><path d="M82.15,62.86a.51.51,0,1,0-.51-.51A.51.51,0,0,0,82.15,62.86Z" class="cls-2"/><circle cx="85.5" cy="62.35" r=".48" class="cls-2"/><circle cx="88.86" cy="62.35" r=".46" class="cls-2"/><path d="M92.21,62.8a.45.45,0,1,0-.45-.45A.45.45,0,0,0,92.21,62.8Z" class="cls-2"/><path d="M95.56,62.78a.43.43,0,1,0,0-.86.43.43,0,1,0,0,.86Z" class="cls-2"/><circle cx="98.91" cy="62.35" r=".4" class="cls-2"/><circle cx="102.26" cy="62.35" r=".38" class="cls-2"/><path d="M105.61,62.71a.36.36,0,1,0,0-.72.36.36,0,0,0,0,.72Z" class="cls-2"/><circle cx="108.96" cy="62.35" r=".33" class="cls-2"/><path d="M112.32,62.67a.32.32,0,1,0-.32-.32A.32.32,0,0,0,112.32,62.67Z" class="cls-2"/><path d="M115.67,62.65a.3.3,0,1,0,0-.6.3.3,0,1,0,0,.6Z" class="cls-2"/><path d="M119,62.63a.28.28,0,1,0-.28-.28A.29.29,0,0,0,119,62.63Z" class="cls-2"/><circle cx="122.37" cy="62.35" r=".25" class="cls-2"/><circle cx="125.72" cy="62.35" r=".23" class="cls-2"/><path d="M129.07,62.56a.21.21,0,1,0,0-.42.21.21,0,0,0,0,.42Z" class="cls-2"/><path d="M132.43,62.55a.2.2,0,1,0-.2-.2A.2.2,0,0,0,132.43,62.55Z" class="cls-2"/><circle cx="135.78" cy="62.35" r=".17" class="cls-2"/><circle cx="139.13" cy="62.35" r=".15" class="cls-2"/><path d="M142.48,62.48a.13.13,0,1,0-.13-.13A.13.13,0,0,0,142.48,62.48Z" class="cls-2"/><path d="M145.83,62.46a.11.11,0,1,0-.11-.11A.11.11,0,0,0,145.83,62.46Z" class="cls-2"/><circle cx="149.18" cy="62.35" r=".08" class="cls-2"/><circle cx="152.53" cy="62.35" r=".07" class="cls-2"/><path d="M155.89,62.4a.05.05,0,0,0,0-.1,0,0,0,0,0,0,.1Z" class="cls-2"/><path d="M159.24,62.38a0,0,0,0,0,0-.06,0,0,0,0,0,0,.06Z" class="cls-2"/><path d="M62,66.31a.61.61,0,1,0,0-1.22.61.61,0,1,0,0,1.22Z" class="cls-2"/><path d="M65.39,66.31a.61.61,0,1,0-.61-.61A.61.61,0,0,0,65.39,66.31Z" class="cls-2"/><path d="M68.75,66.3a.6.6,0,0,0,.59-.6.6.6,0,0,0-1.19,0A.6.6,0,0,0,68.75,66.3Z" class="cls-2"/><circle cx="72.1" cy="65.7" r=".57" class="cls-2"/><path d="M75.45,66.25a.55.55,0,1,0-.55-.55A.55.55,0,0,0,75.45,66.25Z" class="cls-2"/><path d="M78.8,66.23a.53.53,0,1,0-.53-.53A.53.53,0,0,0,78.8,66.23Z" class="cls-2"/><path d="M82.15,66.21a.51.51,0,1,0-.51-.51A.51.51,0,0,0,82.15,66.21Z" class="cls-2"/><circle cx="85.5" cy="65.7" r=".48" class="cls-2"/><path d="M88.86,66.17a.47.47,0,0,0,.46-.47.47.47,0,0,0-.93,0A.47.47,0,0,0,88.86,66.17Z" class="cls-2"/><path d="M92.21,66.15a.45.45,0,1,0-.45-.45A.45.45,0,0,0,92.21,66.15Z" class="cls-2"/><path d="M95.56,66.13A.43.43,0,0,0,96,65.7a.44.44,0,0,0-.43-.43.43.43,0,0,0-.43.43A.43.43,0,0,0,95.56,66.13Z" class="cls-2"/><circle cx="98.91" cy="65.7" r=".4" class="cls-2"/><path d="M102.26,66.08a.38.38,0,1,0-.38-.38A.38.38,0,0,0,102.26,66.08Z" class="cls-2"/><path d="M105.61,66.06a.36.36,0,1,0,0-.72.36.36,0,0,0,0,.72Z" class="cls-2"/><circle cx="108.96" cy="65.7" r=".33" class="cls-2"/><path d="M112.32,66a.32.32,0,1,0-.32-.32A.31.31,0,0,0,112.32,66Z" class="cls-2"/><path d="M115.67,66a.3.3,0,0,0,.3-.3.31.31,0,0,0-.3-.3.3.3,0,0,0-.3.3A.29.29,0,0,0,115.67,66Z" class="cls-2"/><path d="M119,66a.28.28,0,0,0,.28-.28.28.28,0,0,0-.56,0A.28.28,0,0,0,119,66Z" class="cls-2"/><circle cx="122.37" cy="65.7" r=".25" class="cls-2"/><circle cx="125.72" cy="65.7" r=".23" class="cls-2"/><path d="M129.07,65.92a.22.22,0,0,0,.22-.22.21.21,0,0,0-.22-.21.21.21,0,0,0-.21.21A.22.22,0,0,0,129.07,65.92Z" class="cls-2"/><path d="M132.43,65.9a.2.2,0,0,0,.19-.2.19.19,0,0,0-.19-.19.19.19,0,0,0-.2.19A.2.2,0,0,0,132.43,65.9Z" class="cls-2"/><circle cx="135.78" cy="65.7" r=".17" class="cls-2"/><circle cx="139.13" cy="65.7" r=".15" class="cls-2"/><path d="M142.48,65.83a.13.13,0,1,0-.13-.13A.13.13,0,0,0,142.48,65.83Z" class="cls-2"/><path d="M145.83,65.81a.11.11,0,1,0-.11-.11A.11.11,0,0,0,145.83,65.81Z" class="cls-2"/><circle cx="149.18" cy="65.7" r=".08" class="cls-2"/><circle cx="152.53" cy="65.7" r=".07" class="cls-2"/><path d="M155.89,65.75a0,0,0,0,0,0,0s0,0,0,0a.05.05,0,0,0,0,0A0,0,0,0,0,155.89,65.75Z" class="cls-2"/><path d="M159.24,65.73a0,0,0,0,0,0,0,0,0,0,0,0,0,0,0,0,0,0,0,0,0A0,0,0,0,0,159.24,65.73Z" class="cls-2"/><path d="M62,69.67a.62.62,0,0,0,.62-.62.61.61,0,0,0-.62-.61.61.61,0,0,0-.61.61A.61.61,0,0,0,62,69.67Z" class="cls-2"/><path d="M65.39,69.67a.62.62,0,0,0,.62-.62.62.62,0,0,0-1.23,0A.62.62,0,0,0,65.39,69.67Z" class="cls-2"/><path d="M68.75,69.65a.6.6,0,0,0,.59-.6.6.6,0,0,0-1.19,0A.6.6,0,0,0,68.75,69.65Z" class="cls-2"/><circle cx="72.1" cy="69.05" r=".57" class="cls-2"/><path d="M75.45,69.6a.55.55,0,0,0,.55-.55.55.55,0,0,0-1.1,0A.55.55,0,0,0,75.45,69.6Z" class="cls-2"/><path d="M78.8,69.58a.53.53,0,0,0,.53-.53.53.53,0,0,0-1.06,0A.53.53,0,0,0,78.8,69.58Z" class="cls-2"/><path d="M82.15,69.56a.51.51,0,0,0,.51-.51.51.51,0,0,0-1,0A.51.51,0,0,0,82.15,69.56Z" class="cls-2"/><circle cx="85.5" cy="69.05" r=".48" class="cls-2"/><path d="M88.86,69.52a.47.47,0,1,0-.47-.47A.47.47,0,0,0,88.86,69.52Z" class="cls-2"/><path d="M92.21,69.5a.45.45,0,1,0-.45-.45A.45.45,0,0,0,92.21,69.5Z" class="cls-2"/><path d="M95.56,69.48a.43.43,0,1,0,0-.85.43.43,0,1,0,0,.85Z" class="cls-2"/><circle cx="98.91" cy="69.05" r=".4" class="cls-2"/><path d="M102.26,69.43a.38.38,0,1,0-.38-.38A.38.38,0,0,0,102.26,69.43Z" class="cls-2"/><path d="M105.61,69.42a.38.38,0,0,0,.37-.37.37.37,0,0,0-.37-.36.36.36,0,0,0-.36.36A.37.37,0,0,0,105.61,69.42Z" class="cls-2"/><circle cx="108.96" cy="69.05" r=".33" class="cls-2"/><path d="M112.32,69.37a.32.32,0,1,0-.32-.32A.31.31,0,0,0,112.32,69.37Z" class="cls-2"/><path d="M115.67,69.35a.3.3,0,1,0,0-.59.3.3,0,1,0,0,.59Z" class="cls-2"/><path d="M119,69.33a.28.28,0,0,0,.28-.28.28.28,0,0,0-.56,0A.28.28,0,0,0,119,69.33Z" class="cls-2"/><circle cx="122.37" cy="69.05" r=".25" class="cls-2"/><path d="M125.72,69.29a.23.23,0,0,0,.23-.24.23.23,0,0,0-.46,0A.23.23,0,0,0,125.72,69.29Z" class="cls-2"/><path d="M129.07,69.27a.22.22,0,0,0,.22-.22.21.21,0,0,0-.22-.21.21.21,0,0,0-.21.21A.22.22,0,0,0,129.07,69.27Z" class="cls-2"/><path d="M132.43,69.25a.2.2,0,0,0,.19-.2.2.2,0,0,0-.19-.19.2.2,0,1,0,0,.39Z" class="cls-2"/><circle cx="135.78" cy="69.05" r=".17" class="cls-2"/><path d="M139.13,69.2a.15.15,0,0,0,.15-.15.15.15,0,0,0-.3,0A.15.15,0,0,0,139.13,69.2Z" class="cls-2"/><path d="M142.48,69.18a.13.13,0,1,0-.13-.13A.13.13,0,0,0,142.48,69.18Z" class="cls-2"/><path d="M145.83,69.16a.11.11,0,1,0-.11-.11A.11.11,0,0,0,145.83,69.16Z" class="cls-2"/><circle cx="149.18" cy="69.05" r=".08" class="cls-2"/><path d="M152.53,69.12a.07.07,0,0,0,.07-.07.07.07,0,0,0-.07-.06.06.06,0,0,0-.06.06A.07.07,0,0,0,152.53,69.12Z" class="cls-2"/><path d="M155.89,69.1a0,0,0,0,0,0,0,0,0,0,0,0,0,0,0,0,0,0,0,0,0A0,0,0,0,0,155.89,69.1Z" class="cls-2"/><path d="M159.24,69.08a0,0,0,0,0,0,0l0,0s0,0,0,0A0,0,0,0,0,159.24,69.08Z" class="cls-2"/><path d="M62,73a.62.62,0,1,0,0-1.23A.62.62,0,0,0,62,73Z" class="cls-2"/><path d="M65.39,73a.62.62,0,1,0-.61-.62A.62.62,0,0,0,65.39,73Z" class="cls-2"/><path d="M68.75,73a.6.6,0,1,0-.6-.6A.6.6,0,0,0,68.75,73Z" class="cls-2"/><path d="M72.1,73a.57.57,0,1,0-.57-.57A.56.56,0,0,0,72.1,73Z" class="cls-2"/><path d="M75.45,73a.55.55,0,1,0-.55-.55A.55.55,0,0,0,75.45,73Z" class="cls-2"/><path d="M78.8,72.93a.53.53,0,0,0,.53-.53.53.53,0,0,0-1.06,0A.53.53,0,0,0,78.8,72.93Z" class="cls-2"/><path d="M82.15,72.92a.52.52,0,1,0-.51-.52A.51.51,0,0,0,82.15,72.92Z" class="cls-2"/><path d="M85.5,72.89A.49.49,0,1,0,85,72.4.49.49,0,0,0,85.5,72.89Z" class="cls-2"/><path d="M88.86,72.87a.47.47,0,1,0-.47-.47A.47.47,0,0,0,88.86,72.87Z" class="cls-2"/><path d="M92.21,72.85a.45.45,0,1,0-.45-.45A.45.45,0,0,0,92.21,72.85Z" class="cls-2"/><path d="M95.56,72.83a.43.43,0,1,0,0-.85.43.43,0,1,0,0,.85Z" class="cls-2"/><path d="M98.91,72.8a.39.39,0,0,0,.4-.4.4.4,0,1,0-.8,0A.39.39,0,0,0,98.91,72.8Z" class="cls-2"/><path d="M102.26,72.79a.39.39,0,0,0,.38-.39.38.38,0,1,0-.76,0A.39.39,0,0,0,102.26,72.79Z" class="cls-2"/><path d="M105.61,72.77a.38.38,0,0,0,.37-.37.37.37,0,0,0-.37-.36.36.36,0,0,0-.36.36A.37.37,0,0,0,105.61,72.77Z" class="cls-2"/><path d="M109,72.74a.34.34,0,1,0,0-.67.34.34,0,0,0,0,.67Z" class="cls-2"/><path d="M112.32,72.72a.32.32,0,1,0-.32-.32A.31.31,0,0,0,112.32,72.72Z" class="cls-2"/><path d="M115.67,72.7a.3.3,0,1,0,0-.59.3.3,0,1,0,0,.59Z" class="cls-2"/><path d="M119,72.68a.28.28,0,1,0-.28-.28A.28.28,0,0,0,119,72.68Z" class="cls-2"/><path d="M122.37,72.66a.26.26,0,1,0-.25-.26A.26.26,0,0,0,122.37,72.66Z" class="cls-2"/><path d="M125.72,72.64a.24.24,0,1,0-.23-.24A.23.23,0,0,0,125.72,72.64Z" class="cls-2"/><path d="M129.07,72.62a.22.22,0,1,0,0-.43.22.22,0,0,0,0,.43Z" class="cls-2"/><path d="M132.43,72.6a.2.2,0,0,0,.19-.2.2.2,0,0,0-.19-.19.2.2,0,1,0,0,.39Z" class="cls-2"/><path d="M135.78,72.57a.16.16,0,0,0,.16-.17.16.16,0,0,0-.16-.16.16.16,0,0,0-.17.16A.16.16,0,0,0,135.78,72.57Z" class="cls-2"/><path d="M139.13,72.55a.15.15,0,0,0,.15-.15.15.15,0,0,0-.3,0A.15.15,0,0,0,139.13,72.55Z" class="cls-2"/><path d="M142.48,72.53a.13.13,0,0,0,.13-.13.13.13,0,1,0-.26,0A.13.13,0,0,0,142.48,72.53Z" class="cls-2"/><path d="M145.83,72.52a.11.11,0,0,0,.11-.12.11.11,0,0,0-.22,0A.11.11,0,0,0,145.83,72.52Z" class="cls-2"/><path d="M149.18,72.49a.09.09,0,0,0,.09-.09.09.09,0,0,0-.09-.08.09.09,0,0,0-.08.08A.09.09,0,0,0,149.18,72.49Z" class="cls-2"/><path d="M152.53,72.47a.07.07,0,0,0,.07-.07.07.07,0,0,0-.07-.06.06.06,0,0,0-.06.06A.07.07,0,0,0,152.53,72.47Z" class="cls-2"/><path d="M155.89,72.45a0,0,0,0,0,0,0,0,0,0,0,0,0,0,0,0,0,0,0,0,0A0,0,0,0,0,155.89,72.45Z" class="cls-2"/><path d="M159.24,72.43a0,0,0,0,0,0,0s0,0,0,0,0,0,0,0A0,0,0,0,0,159.24,72.43Z" class="cls-2"/><path d="M62,76.37a.62.62,0,1,0,0-1.23.62.62,0,0,0,0,1.23Z" class="cls-2"/><path d="M65.39,76.37a.62.62,0,1,0-.61-.61A.62.62,0,0,0,65.39,76.37Z" class="cls-2"/><path d="M68.75,76.35a.6.6,0,1,0-.6-.59A.6.6,0,0,0,68.75,76.35Z" class="cls-2"/><circle cx="72.1" cy="75.76" r=".57" class="cls-2"/><path d="M75.45,76.3a.55.55,0,1,0-.55-.54A.55.55,0,0,0,75.45,76.3Z" class="cls-2"/><path d="M78.8,76.29a.53.53,0,0,0,.53-.53.53.53,0,0,0-1.06,0A.53.53,0,0,0,78.8,76.29Z" class="cls-2"/><path d="M82.15,76.27a.52.52,0,1,0-.51-.51A.51.51,0,0,0,82.15,76.27Z" class="cls-2"/><path d="M85.5,76.24a.49.49,0,1,0-.48-.48A.49.49,0,0,0,85.5,76.24Z" class="cls-2"/><path d="M88.86,76.22a.47.47,0,1,0-.47-.46A.47.47,0,0,0,88.86,76.22Z" class="cls-2"/><path d="M92.21,76.2a.45.45,0,1,0-.45-.44A.44.44,0,0,0,92.21,76.2Z" class="cls-2"/><path d="M95.56,76.18a.43.43,0,1,0,0-.85.43.43,0,1,0,0,.85Z" class="cls-2"/><path d="M98.91,76.16a.4.4,0,1,0-.4-.4A.4.4,0,0,0,98.91,76.16Z" class="cls-2"/><path d="M102.26,76.14a.38.38,0,0,0,.38-.38.38.38,0,1,0-.76,0A.38.38,0,0,0,102.26,76.14Z" class="cls-2"/><path d="M105.61,76.12a.37.37,0,0,0,.37-.36.38.38,0,0,0-.37-.37.37.37,0,0,0-.36.37A.36.36,0,0,0,105.61,76.12Z" class="cls-2"/><circle cx="108.96" cy="75.76" r=".33" class="cls-2"/><path d="M112.32,76.07a.32.32,0,0,0,0-.63.32.32,0,1,0,0,.63Z" class="cls-2"/><path d="M115.67,76.05a.3.3,0,1,0,0-.59.3.3,0,1,0,0,.59Z" class="cls-2"/><path d="M119,76a.28.28,0,1,0-.28-.27A.28.28,0,0,0,119,76Z" class="cls-2"/><circle cx="122.37" cy="75.76" r=".25" class="cls-2"/><path d="M125.72,76a.24.24,0,1,0-.23-.23A.23.23,0,0,0,125.72,76Z" class="cls-2"/><path d="M129.07,76a.22.22,0,1,0-.21-.21A.22.22,0,0,0,129.07,76Z" class="cls-2"/><path d="M132.43,76a.2.2,0,0,0,.19-.19.2.2,0,1,0-.19.19Z" class="cls-2"/><circle cx="135.78" cy="75.76" r=".17" class="cls-2"/><path d="M139.13,75.9a.15.15,0,0,0,.15-.14.15.15,0,1,0-.3,0A.15.15,0,0,0,139.13,75.9Z" class="cls-2"/><path d="M142.48,75.89a.13.13,0,0,0,.13-.13.13.13,0,1,0-.26,0A.13.13,0,0,0,142.48,75.89Z" class="cls-2"/><path d="M145.83,75.87a.11.11,0,0,0,.11-.11.11.11,0,1,0-.22,0A.11.11,0,0,0,145.83,75.87Z" class="cls-2"/><circle cx="149.18" cy="75.76" r=".08" class="cls-2"/><path d="M152.53,75.82a.07.07,0,0,0,.07-.06.07.07,0,0,0-.07-.07.07.07,0,0,0-.06.07A.06.06,0,0,0,152.53,75.82Z" class="cls-2"/><path d="M155.89,75.8a0,0,0,0,0,0,0,0,0,0,0,0,0-.05,0,0,0,0,0,0,.05A0,0,0,0,0,155.89,75.8Z" class="cls-2"/><path d="M159.24,75.78l0,0a0,0,0,0,0,0,0,0,0,0,0,0,0,0S159.22,75.78,159.24,75.78Z" class="cls-2"/><path d="M62,79.72a.61.61,0,0,0,.62-.61.62.62,0,0,0-.62-.62.61.61,0,0,0-.61.62A.61.61,0,0,0,62,79.72Z" class="cls-2"/><path d="M65.39,79.72a.61.61,0,0,0,.62-.61.62.62,0,1,0-1.23,0A.61.61,0,0,0,65.39,79.72Z" class="cls-2"/><path d="M68.75,79.7a.59.59,0,0,0,.59-.59.6.6,0,1,0-1.19,0A.59.59,0,0,0,68.75,79.7Z" class="cls-2"/><circle cx="72.1" cy="79.11" r=".57" class="cls-2"/><path d="M75.45,79.66a.55.55,0,0,0,.55-.55.55.55,0,0,0-1.1,0A.55.55,0,0,0,75.45,79.66Z" class="cls-2"/><path d="M78.8,79.64a.53.53,0,0,0,.53-.53.53.53,0,0,0-1.06,0A.53.53,0,0,0,78.8,79.64Z" class="cls-2"/><path d="M82.15,79.62a.51.51,0,1,0-.51-.51A.51.51,0,0,0,82.15,79.62Z" class="cls-2"/><circle cx="85.5" cy="79.11" r=".48" class="cls-2"/><path d="M88.86,79.57a.47.47,0,1,0-.47-.46A.47.47,0,0,0,88.86,79.57Z" class="cls-2"/><path d="M92.21,79.55a.45.45,0,1,0-.45-.44A.44.44,0,0,0,92.21,79.55Z" class="cls-2"/><path d="M95.56,79.54a.44.44,0,0,0,.43-.43.43.43,0,0,0-.43-.43.43.43,0,0,0-.43.43A.43.43,0,0,0,95.56,79.54Z" class="cls-2"/><circle cx="98.91" cy="79.11" r=".4" class="cls-2"/><path d="M102.26,79.49a.38.38,0,1,0-.38-.38A.38.38,0,0,0,102.26,79.49Z" class="cls-2"/><path d="M105.61,79.47a.36.36,0,1,0,0-.72.36.36,0,0,0,0,.72Z" class="cls-2"/><circle cx="108.96" cy="79.11" r=".33" class="cls-2"/><path d="M112.32,79.42a.32.32,0,0,0,0-.63.32.32,0,1,0,0,.63Z" class="cls-2"/><path d="M115.67,79.4a.3.3,0,1,0,0-.59.3.3,0,1,0,0,.59Z" class="cls-2"/><path d="M119,79.39a.29.29,0,0,0,.28-.28.28.28,0,0,0-.56,0A.29.29,0,0,0,119,79.39Z" class="cls-2"/><circle cx="122.37" cy="79.11" r=".25" class="cls-2"/><circle cx="125.72" cy="79.11" r=".23" class="cls-2"/><path d="M129.07,79.32a.21.21,0,0,0,.22-.21.22.22,0,1,0-.43,0A.21.21,0,0,0,129.07,79.32Z" class="cls-2"/><path d="M132.43,79.3a.19.19,0,0,0,.19-.19.2.2,0,1,0-.39,0A.19.19,0,0,0,132.43,79.3Z" class="cls-2"/><circle cx="135.78" cy="79.11" r=".17" class="cls-2"/><circle cx="139.13" cy="79.11" r=".15" class="cls-2"/><path d="M142.48,79.24a.13.13,0,1,0-.13-.13A.13.13,0,0,0,142.48,79.24Z" class="cls-2"/><path d="M145.83,79.22a.11.11,0,1,0-.11-.11A.11.11,0,0,0,145.83,79.22Z" class="cls-2"/><circle cx="149.18" cy="79.11" r=".08" class="cls-2"/><circle cx="152.53" cy="79.11" r=".07" class="cls-2"/><path d="M155.89,79.15a0,0,0,0,0,0,0,0,0,0,0,0,0,0,0,0,0,0,0,0,0A0,0,0,0,0,155.89,79.15Z" class="cls-2"/><path d="M159.24,79.14a0,0,0,0,0,0,0,0,0,0,0,0,0,0,0,0,0,0,0,0,0A0,0,0,0,0,159.24,79.14Z" class="cls-2"/><path d="M62,83.07a.61.61,0,1,0,0-1.22.61.61,0,0,0,0,1.22Z" class="cls-2"/><path d="M65.39,83.07a.61.61,0,1,0-.61-.61A.61.61,0,0,0,65.39,83.07Z" class="cls-2"/><path d="M68.75,83.05a.59.59,0,0,0,.59-.59.6.6,0,1,0-1.19,0A.59.59,0,0,0,68.75,83.05Z" class="cls-2"/><circle cx="72.1" cy="82.46" r=".57" class="cls-2"/><circle cx="75.45" cy="82.46" r=".55" class="cls-2"/><path d="M78.8,83a.53.53,0,1,0-.53-.53A.53.53,0,0,0,78.8,83Z" class="cls-2"/><path d="M82.15,83a.51.51,0,1,0-.51-.51A.51.51,0,0,0,82.15,83Z" class="cls-2"/><circle cx="85.5" cy="82.46" r=".48" class="cls-2"/><circle cx="88.86" cy="82.46" r=".46" class="cls-2"/><path d="M92.21,82.91a.45.45,0,1,0-.45-.45A.45.45,0,0,0,92.21,82.91Z" class="cls-2"/><path d="M95.56,82.89a.43.43,0,1,0,0-.86.43.43,0,1,0,0,.86Z" class="cls-2"/><circle cx="98.91" cy="82.46" r=".4" class="cls-2"/><path d="M102.26,82.84a.38.38,0,1,0-.38-.38A.38.38,0,0,0,102.26,82.84Z" class="cls-2"/><path d="M105.61,82.82a.36.36,0,1,0,0-.72.36.36,0,0,0,0,.72Z" class="cls-2"/><circle cx="108.96" cy="82.46" r=".33" class="cls-2"/><path d="M112.32,82.78a.32.32,0,0,0,.31-.32.32.32,0,1,0-.63,0A.32.32,0,0,0,112.32,82.78Z" class="cls-2"/><path d="M115.67,82.76a.31.31,0,0,0,.3-.3.3.3,0,0,0-.3-.3.29.29,0,0,0-.3.3A.3.3,0,0,0,115.67,82.76Z" class="cls-2"/><path d="M119,82.74a.28.28,0,1,0-.28-.28A.29.29,0,0,0,119,82.74Z" class="cls-2"/><circle cx="122.37" cy="82.46" r=".25" class="cls-2"/><circle cx="125.72" cy="82.46" r=".23" class="cls-2"/><path d="M129.07,82.67a.21.21,0,1,0,0-.42.21.21,0,0,0,0,.42Z" class="cls-2"/><path d="M132.43,82.65a.19.19,0,0,0,.19-.19.2.2,0,1,0-.39,0A.19.19,0,0,0,132.43,82.65Z" class="cls-2"/><circle cx="135.78" cy="82.46" r=".17" class="cls-2"/><circle cx="139.13" cy="82.46" r=".15" class="cls-2"/><path d="M142.48,82.59a.13.13,0,1,0-.13-.13A.13.13,0,0,0,142.48,82.59Z" class="cls-2"/><path d="M145.83,82.57a.11.11,0,1,0-.11-.11A.11.11,0,0,0,145.83,82.57Z" class="cls-2"/><circle cx="149.18" cy="82.46" r=".08" class="cls-2"/><circle cx="152.53" cy="82.46" r=".07" class="cls-2"/><path d="M155.89,82.51s0,0,0-.05a0,0,0,0,0,0,0,0,0,0,0,0,0,0A.05.05,0,0,0,155.89,82.51Z" class="cls-2"/><path d="M159.24,82.49a0,0,0,0,0,0,0,0,0,0,0,0,0,0,0,0,0,0,0,0,0A0,0,0,0,0,159.24,82.49Z" class="cls-2"/><path d="M62,86.42a.61.61,0,1,0,0-1.22.61.61,0,0,0,0,1.22Z" class="cls-2"/><path d="M65.39,86.42a.61.61,0,1,0-.61-.61A.61.61,0,0,0,65.39,86.42Z" class="cls-2"/><path d="M68.75,86.41a.6.6,0,0,0,.59-.6.6.6,0,0,0-1.19,0A.6.6,0,0,0,68.75,86.41Z" class="cls-2"/><circle cx="72.1" cy="85.81" r=".57" class="cls-2"/><circle cx="75.45" cy="85.81" r=".55" class="cls-2"/><path d="M78.8,86.34a.53.53,0,1,0-.53-.53A.53.53,0,0,0,78.8,86.34Z" class="cls-2"/><path d="M82.15,86.32a.51.51,0,1,0-.51-.51A.51.51,0,0,0,82.15,86.32Z" class="cls-2"/><circle cx="85.5" cy="85.81" r=".48" class="cls-2"/><circle cx="88.86" cy="85.81" r=".46" class="cls-2"/><path d="M92.21,86.26a.45.45,0,1,0-.45-.45A.45.45,0,0,0,92.21,86.26Z" class="cls-2"/><path d="M95.56,86.24a.43.43,0,0,0,0-.86.43.43,0,0,0,0,.86Z" class="cls-2"/><circle cx="98.91" cy="85.81" r=".4" class="cls-2"/><circle cx="102.26" cy="85.81" r=".38" class="cls-2"/><path d="M105.61,86.17a.36.36,0,1,0,0-.72.36.36,0,0,0,0,.72Z" class="cls-2"/><circle cx="108.96" cy="85.81" r=".33" class="cls-2"/><path d="M112.32,86.13a.31.31,0,0,0,.31-.32.32.32,0,1,0-.63,0A.32.32,0,0,0,112.32,86.13Z" class="cls-2"/><path d="M115.67,86.11a.3.3,0,0,0,0-.6.3.3,0,0,0,0,.6Z" class="cls-2"/><path d="M119,86.09a.28.28,0,1,0-.28-.28A.29.29,0,0,0,119,86.09Z" class="cls-2"/><circle cx="122.37" cy="85.81" r=".25" class="cls-2"/><circle cx="125.72" cy="85.81" r=".23" class="cls-2"/><circle cx="129.07" cy="85.81" r=".21" class="cls-2"/><path d="M132.43,86a.2.2,0,0,0,.19-.2.19.19,0,0,0-.19-.19.19.19,0,0,0-.2.19A.2.2,0,0,0,132.43,86Z" class="cls-2"/><circle cx="135.78" cy="85.81" r=".17" class="cls-2"/><circle cx="139.13" cy="85.81" r=".15" class="cls-2"/><circle cx="142.48" cy="85.81" r=".13" class="cls-2"/><path d="M145.83,85.92a.11.11,0,1,0-.11-.11A.11.11,0,0,0,145.83,85.92Z" class="cls-2"/><circle cx="149.18" cy="85.81" r=".08" class="cls-2"/><circle cx="152.53" cy="85.81" r=".07" class="cls-2"/><circle cx="155.89" cy="85.81" r=".05" class="cls-2"/><path d="M159.24,85.84a0,0,0,0,0,0,0,0,0,0,0,0,0,0,0,0,0,0,0,0,0A0,0,0,0,0,159.24,85.84Z" class="cls-2"/><path d="M62,89.78a.62.62,0,0,0,.62-.62.61.61,0,0,0-.62-.61.61.61,0,0,0-.61.61A.61.61,0,0,0,62,89.78Z" class="cls-2"/><path d="M65.39,89.78a.62.62,0,0,0,.62-.62.62.62,0,0,0-1.23,0A.62.62,0,0,0,65.39,89.78Z" class="cls-2"/><path d="M68.75,89.76a.6.6,0,0,0,.59-.6.6.6,0,0,0-1.19,0A.6.6,0,0,0,68.75,89.76Z" class="cls-2"/><circle cx="72.1" cy="89.16" r=".57" class="cls-2"/><circle cx="75.45" cy="89.16" r=".55" class="cls-2"/><circle cx="78.8" cy="89.16" r=".53" class="cls-2"/><path d="M82.15,89.67a.51.51,0,1,0-.51-.51A.51.51,0,0,0,82.15,89.67Z" class="cls-2"/><circle cx="85.5" cy="89.16" r=".48" class="cls-2"/><circle cx="88.86" cy="89.16" r=".46" class="cls-2"/><circle cx="92.21" cy="89.16" r=".45" class="cls-2"/><path d="M95.56,89.59a.43.43,0,0,0,.43-.43.44.44,0,0,0-.43-.43.43.43,0,0,0-.43.43A.43.43,0,0,0,95.56,89.59Z" class="cls-2"/><circle cx="98.91" cy="89.16" r=".4" class="cls-2"/><circle cx="102.26" cy="89.16" r=".38" class="cls-2"/><path d="M105.61,89.52a.36.36,0,1,0,0-.72.36.36,0,0,0,0,.72Z" class="cls-2"/><circle cx="108.96" cy="89.16" r=".33" class="cls-2"/><path d="M112.32,89.48a.32.32,0,1,0-.32-.32A.31.31,0,0,0,112.32,89.48Z" class="cls-2"/><path d="M115.67,89.46a.3.3,0,0,0,.3-.3.31.31,0,0,0-.3-.3.3.3,0,0,0-.3.3A.29.29,0,0,0,115.67,89.46Z" class="cls-2"/><path d="M119,89.44a.28.28,0,0,0,.28-.28.28.28,0,0,0-.56,0A.28.28,0,0,0,119,89.44Z" class="cls-2"/><circle cx="122.37" cy="89.16" r=".25" class="cls-2"/><circle cx="125.72" cy="89.16" r=".23" class="cls-2"/><circle cx="129.07" cy="89.16" r=".21" class="cls-2"/><path d="M132.43,89.36a.2.2,0,0,0,.19-.2.19.19,0,0,0-.19-.19.19.19,0,0,0-.2.19A.2.2,0,0,0,132.43,89.36Z" class="cls-2"/><circle cx="135.78" cy="89.16" r=".17" class="cls-2"/><circle cx="139.13" cy="89.16" r=".15" class="cls-2"/><circle cx="142.48" cy="89.16" r=".13" class="cls-2"/><path d="M145.83,89.27a.11.11,0,1,0-.11-.11A.11.11,0,0,0,145.83,89.27Z" class="cls-2"/><circle cx="149.18" cy="89.16" r=".08" class="cls-2"/><circle cx="152.53" cy="89.16" r=".07" class="cls-2"/><circle cx="155.89" cy="89.16" r=".05" class="cls-2"/><path d="M159.24,89.19a0,0,0,0,0,0,0l0,0a0,0,0,0,0,0,0A0,0,0,0,0,159.24,89.19Z" class="cls-2"/><path d="M62,93.13a.62.62,0,0,0,.62-.62A.61.61,0,0,0,62,91.9a.61.61,0,0,0-.61.61A.61.61,0,0,0,62,93.13Z" class="cls-2"/><path d="M65.39,93.13a.62.62,0,0,0,.62-.62.62.62,0,0,0-1.23,0A.62.62,0,0,0,65.39,93.13Z" class="cls-2"/><path d="M68.75,93.11a.6.6,0,1,0-.6-.6A.6.6,0,0,0,68.75,93.11Z" class="cls-2"/><circle cx="72.1" cy="92.51" r=".57" class="cls-2"/><circle cx="75.45" cy="92.51" r=".55" class="cls-2"/><circle cx="78.8" cy="92.51" r=".53" class="cls-2"/><path d="M82.15,93a.51.51,0,0,0,.51-.51.51.51,0,0,0-1,0A.51.51,0,0,0,82.15,93Z" class="cls-2"/><circle cx="85.5" cy="92.51" r=".48" class="cls-2"/><circle cx="88.86" cy="92.51" r=".46" class="cls-2"/><circle cx="92.21" cy="92.51" r=".45" class="cls-2"/><path d="M95.56,92.94a.43.43,0,1,0,0-.85.43.43,0,1,0,0,.85Z" class="cls-2"/><circle cx="98.91" cy="92.51" r=".4" class="cls-2"/><circle cx="102.26" cy="92.51" r=".38" class="cls-2"/><path d="M105.61,92.88a.38.38,0,0,0,.37-.37.37.37,0,0,0-.37-.36.36.36,0,0,0-.36.36A.37.37,0,0,0,105.61,92.88Z" class="cls-2"/><circle cx="108.96" cy="92.51" r=".33" class="cls-2"/><path d="M112.32,92.83a.32.32,0,1,0-.32-.32A.31.31,0,0,0,112.32,92.83Z" class="cls-2"/><path d="M115.67,92.81a.3.3,0,1,0,0-.59.3.3,0,1,0,0,.59Z" class="cls-2"/><path d="M119,92.79a.28.28,0,0,0,.28-.28.28.28,0,0,0-.56,0A.28.28,0,0,0,119,92.79Z" class="cls-2"/><circle cx="122.37" cy="92.51" r=".25" class="cls-2"/><circle cx="125.72" cy="92.51" r=".23" class="cls-2"/><circle cx="129.07" cy="92.51" r=".21" class="cls-2"/><circle cx="132.43" cy="92.51" r=".2" class="cls-2"/><circle cx="135.78" cy="92.51" r=".17" class="cls-2"/><circle cx="139.13" cy="92.51" r=".15" class="cls-2"/><circle cx="142.48" cy="92.51" r=".13" class="cls-2"/><circle cx="145.83" cy="92.51" r=".11" class="cls-2"/><circle cx="149.18" cy="92.51" r=".08" class="cls-2"/><circle cx="152.53" cy="92.51" r=".07" class="cls-2"/><circle cx="155.89" cy="92.51" r=".05" class="cls-2"/><path d="M159.24,92.54a0,0,0,0,0,0,0s0,0,0,0,0,0,0,0A0,0,0,0,0,159.24,92.54Z" class="cls-2"/><path d="M62,96.48a.62.62,0,1,0,0-1.23.62.62,0,0,0,0,1.23Z" class="cls-2"/><path d="M65.39,96.48a.62.62,0,1,0-.61-.61A.62.62,0,0,0,65.39,96.48Z" class="cls-2"/><path d="M68.75,96.46a.6.6,0,1,0-.6-.59A.6.6,0,0,0,68.75,96.46Z" class="cls-2"/><circle cx="72.1" cy="95.87" r=".57" class="cls-2"/><circle cx="75.45" cy="95.87" r=".55" class="cls-2"/><circle cx="78.8" cy="95.87" r=".53" class="cls-2"/><circle cx="82.15" cy="95.87" r=".51" class="cls-2"/><circle cx="85.5" cy="95.87" r=".48" class="cls-2"/><circle cx="88.86" cy="95.87" r=".46" class="cls-2"/><circle cx="92.21" cy="95.87" r=".45" class="cls-2"/><path d="M95.56,96.29a.43.43,0,1,0,0-.85.43.43,0,1,0,0,.85Z" class="cls-2"/><circle cx="98.91" cy="95.87" r=".4" class="cls-2"/><circle cx="102.26" cy="95.87" r=".38" class="cls-2"/><path d="M105.61,96.23a.37.37,0,1,0,0-.73.37.37,0,0,0,0,.73Z" class="cls-2"/><circle cx="108.96" cy="95.87" r=".33" class="cls-2"/><path d="M112.32,96.18a.32.32,0,0,0,0-.63.32.32,0,1,0,0,.63Z" class="cls-2"/><path d="M115.67,96.16a.3.3,0,1,0,0-.59.3.3,0,1,0,0,.59Z" class="cls-2"/><path d="M119,96.14a.28.28,0,1,0-.28-.27A.28.28,0,0,0,119,96.14Z" class="cls-2"/><circle cx="122.37" cy="95.87" r=".25" class="cls-2"/><circle cx="125.72" cy="95.87" r=".23" class="cls-2"/><circle cx="129.07" cy="95.87" r=".21" class="cls-2"/><circle cx="132.43" cy="95.87" r=".2" class="cls-2"/><circle cx="135.78" cy="95.87" r=".17" class="cls-2"/><circle cx="139.13" cy="95.87" r=".15" class="cls-2"/><circle cx="142.48" cy="95.87" r=".13" class="cls-2"/><circle cx="145.83" cy="95.87" r=".11" class="cls-2"/><circle cx="149.18" cy="95.87" r=".08" class="cls-2"/><circle cx="152.53" cy="95.87" r=".07" class="cls-2"/><circle cx="155.89" cy="95.87" r=".05" class="cls-2"/><path d="M159.24,95.89l0,0a0,0,0,0,0,0,0,0,0,0,0,0,0,0S159.22,95.89,159.24,95.89Z" class="cls-2"/><path d="M62,99.83a.61.61,0,0,0,.62-.61A.62.62,0,0,0,62,98.6a.61.61,0,0,0-.61.62A.61.61,0,0,0,62,99.83Z" class="cls-2"/><path d="M65.39,99.83a.61.61,0,0,0,.62-.61.62.62,0,1,0-1.23,0A.61.61,0,0,0,65.39,99.83Z" class="cls-2"/><path d="M68.75,99.81a.59.59,0,0,0,.59-.59.6.6,0,1,0-1.19,0A.59.59,0,0,0,68.75,99.81Z" class="cls-2"/><circle cx="72.1" cy="99.22" r=".57" class="cls-2"/><circle cx="75.45" cy="99.22" r=".55" class="cls-2"/><circle cx="78.8" cy="99.22" r=".53" class="cls-2"/><circle cx="82.15" cy="99.22" r=".51" class="cls-2"/><circle cx="85.5" cy="99.22" r=".48" class="cls-2"/><circle cx="88.86" cy="99.22" r=".46" class="cls-2"/><circle cx="92.21" cy="99.22" r=".45" class="cls-2"/><path d="M95.56,99.64a.43.43,0,1,0,0-.85.43.43,0,1,0,0,.85Z" class="cls-2"/><circle cx="98.91" cy="99.22" r=".4" class="cls-2"/><circle cx="102.26" cy="99.22" r=".38" class="cls-2"/><path d="M105.61,99.58a.37.37,0,0,0,.37-.36.38.38,0,0,0-.37-.37.37.37,0,0,0-.36.37A.36.36,0,0,0,105.61,99.58Z" class="cls-2"/><circle cx="108.96" cy="99.22" r=".33" class="cls-2"/><path d="M112.32,99.53a.32.32,0,0,0,0-.63.32.32,0,1,0,0,.63Z" class="cls-2"/><path d="M115.67,99.51a.3.3,0,1,0,0-.59.3.3,0,1,0,0,.59Z" class="cls-2"/><path d="M119,99.5a.29.29,0,0,0,.28-.28.28.28,0,0,0-.56,0A.29.29,0,0,0,119,99.5Z" class="cls-2"/><circle cx="122.37" cy="99.22" r=".25" class="cls-2"/><circle cx="125.72" cy="99.22" r=".23" class="cls-2"/><circle cx="129.07" cy="99.22" r=".21" class="cls-2"/><circle cx="132.43" cy="99.22" r=".2" class="cls-2"/><circle cx="135.78" cy="99.22" r=".17" class="cls-2"/><circle cx="139.13" cy="99.22" r=".15" class="cls-2"/><circle cx="142.48" cy="99.22" r=".13" class="cls-2"/><circle cx="145.83" cy="99.22" r=".11" class="cls-2"/><circle cx="149.18" cy="99.22" r=".08" class="cls-2"/><circle cx="152.53" cy="99.22" r=".07" class="cls-2"/><circle cx="155.89" cy="99.22" r=".05" class="cls-2"/><path d="M159.24,99.24s0,0,0,0a0,0,0,0,0,0,0,0,0,0,0,0,0,0S159.22,99.24,159.24,99.24Z" class="cls-2"/><path d="M62,103.18a.61.61,0,0,0,.62-.61A.62.62,0,0,0,62,102a.61.61,0,0,0-.61.62A.61.61,0,0,0,62,103.18Z" class="cls-2"/><path d="M65.39,103.18a.61.61,0,0,0,.62-.61.62.62,0,1,0-1.23,0A.61.61,0,0,0,65.39,103.18Z" class="cls-2"/><path d="M68.75,103.16a.59.59,0,0,0,.59-.59.6.6,0,1,0-1.19,0A.59.59,0,0,0,68.75,103.16Z" class="cls-2"/><circle cx="72.1" cy="102.57" r=".57" class="cls-2"/><circle cx="75.45" cy="102.57" r=".55" class="cls-2"/><circle cx="78.8" cy="102.57" r=".53" class="cls-2"/><circle cx="82.15" cy="102.57" r=".51" class="cls-2"/><circle cx="85.5" cy="102.57" r=".48" class="cls-2"/><circle cx="88.86" cy="102.57" r=".46" class="cls-2"/><circle cx="92.21" cy="102.57" r=".45" class="cls-2"/><path d="M95.56,103a.44.44,0,0,0,.43-.43.43.43,0,0,0-.43-.43.43.43,0,0,0-.43.43A.43.43,0,0,0,95.56,103Z" class="cls-2"/><circle cx="98.91" cy="102.57" r=".4" class="cls-2"/><circle cx="102.26" cy="102.57" r=".38" class="cls-2"/><path d="M105.61,102.93a.36.36,0,1,0,0-.72.36.36,0,1,0,0,.72Z" class="cls-2"/><circle cx="108.96" cy="102.57" r=".33" class="cls-2"/><path d="M112.32,102.88a.32.32,0,0,0,0-.63.32.32,0,1,0,0,.63Z" class="cls-2"/><path d="M115.67,102.87a.31.31,0,0,0,.3-.3.3.3,0,0,0-.3-.3.29.29,0,0,0-.3.3A.3.3,0,0,0,115.67,102.87Z" class="cls-2"/><path d="M119,102.85a.29.29,0,0,0,.28-.28.28.28,0,1,0-.56,0A.29.29,0,0,0,119,102.85Z" class="cls-2"/><circle cx="122.37" cy="102.57" r=".25" class="cls-2"/><circle cx="125.72" cy="102.57" r=".23" class="cls-2"/><circle cx="129.07" cy="102.57" r=".21" class="cls-2"/><circle cx="132.43" cy="102.57" r=".2" class="cls-2"/><circle cx="135.78" cy="102.57" r=".17" class="cls-2"/><circle cx="139.13" cy="102.57" r=".15" class="cls-2"/><circle cx="142.48" cy="102.57" r=".13" class="cls-2"/><circle cx="145.83" cy="102.57" r=".11" class="cls-2"/><circle cx="149.18" cy="102.57" r=".08" class="cls-2"/><circle cx="152.53" cy="102.57" r=".07" class="cls-2"/><circle cx="155.89" cy="102.57" r=".05" class="cls-2"/><path d="M159.24,102.6a0,0,0,0,0,0,0,0,0,0,0,0,0,0,0,0,0,0,0,0,0A0,0,0,0,0,159.24,102.6Z" class="cls-2"/><path d="M87.46,141.91l-.12,0a.31.31,0,0,1-.18-.28V42.47a.29.29,0,0,1,.3-.3h127a.3.3,0,0,1,.3.3v85.85a.3.3,0,0,1-.3.29H100.88L87.67,141.82A.3.3,0,0,1,87.46,141.91Zm.29-99.15V140.9l12.79-12.79a.3.3,0,0,1,.21-.09H214.12V42.76Z" class="cls-3"/><polygon points="208.36 37.76 81.4 37.76 81.4 115.37 81.4 123.61 81.4 136.9 94.7 123.61 208.36 123.61 208.36 37.76" class="cls-2"/><g class="cls-4"><path d="M108.24,49.67a8.88,8.88,0,0,1,6.66-2.5,46.41,46.41,0,0,1,8.66.84l-.93,7.4a34.49,34.49,0,0,0-6.35-1.07c-1.47,0-2.2.59-2.2,1.76,0,.46.35.91,1,1.34a26.17,26.17,0,0,0,2.55,1.36,24.85,24.85,0,0,1,3,1.72,8.21,8.21,0,0,1,2.54,2.84,8.45,8.45,0,0,1,1.05,4.25,9.23,9.23,0,0,1-2.38,6.8,9.1,9.1,0,0,1-6.75,2.41,27.4,27.4,0,0,1-8.52-1.35l.51-6.89a30.16,30.16,0,0,0,7,1.44c1.31,0,2-.57,2-1.71A2,2,0,0,0,115,66.69a19.68,19.68,0,0,0-2.54-1.48,31,31,0,0,1-3-1.71,7.91,7.91,0,0,1-2.56-2.82,8.79,8.79,0,0,1-1.05-4.4A9.08,9.08,0,0,1,108.24,49.67Z" class="cls-5"/><path d="M143.93,54.62h-5.42V76.35h-8V54.62h-5.74l.46-7h19.15Z" class="cls-5"/><path d="M167.05,76.35h-7.8l-.89-4.53h-5.51L152,76.35h-7.43l5.33-28.71h11.86Zm-9.58-9.94-1.63-10.26h-.33l-1.64,10.26Z" class="cls-5"/><path d="M189.09,47.64l-6.91,19.83v8.88h-7.94V67.47l-6.82-19.83h8.78L178.3,57h.37l2-9.34Z" class="cls-5"/></g><g class="cls-6"><path d="M116.76,83.64h-4.31V101h-6.36V83.64h-4.57l.37-5.56h15.25Z" class="cls-5"/><path d="M125.58,95.13a2,2,0,0,0,1.58.55,1.86,1.86,0,0,0,1.52-.53,2.79,2.79,0,0,0,.43-1.75V78.08h6.4V93.77c0,2.62-.73,4.54-2.18,5.74s-3.58,1.81-6.39,1.81-4.91-.6-6.29-1.79-2.06-3.09-2.06-5.69V78.08h6.5V93.44A2.52,2.52,0,0,0,125.58,95.13Z" class="cls-5"/><path d="M155.63,101h-6.1l-4.8-10.64h-.29V101h-5.66V78.08h6.29l4.57,11h.3v-11h5.69Z" class="cls-5"/><path d="M171.4,101H158.9V78.08h12.87l-.37,5.63h-6.14v3.43h5.32V92h-5.32v3.79h6.51Z" class="cls-5"/><path d="M191.11,89q0,11.92-9.52,11.93h-7.66V78.08h7.81q5.1,0,7.23,2.82C190.4,82.78,191.11,85.48,191.11,89ZM184,94.26a13.32,13.32,0,0,0,.57-4.64A12.31,12.31,0,0,0,184,85a2.58,2.58,0,0,0-2.62-1.36h-1.12v12h1.23A2.47,2.47,0,0,0,184,94.26Z" class="cls-5"/></g><path d="M106.46,48a8.88,8.88,0,0,1,6.66-2.5,46.41,46.41,0,0,1,8.66.84l-.93,7.39a35.1,35.1,0,0,0-6.35-1.06c-1.47,0-2.2.59-2.2,1.76,0,.46.35.91,1,1.34a26.17,26.17,0,0,0,2.55,1.36,26.16,26.16,0,0,1,3,1.71,8.25,8.25,0,0,1,2.54,2.85,8.45,8.45,0,0,1,1,4.25,9.23,9.23,0,0,1-2.38,6.8,9.1,9.1,0,0,1-6.75,2.4,27.39,27.39,0,0,1-8.52-1.34l.51-6.89a30.16,30.16,0,0,0,7,1.44c1.31,0,2-.57,2-1.71a2,2,0,0,0-1.05-1.62,18.58,18.58,0,0,0-2.54-1.48c-1-.5-2-1.07-3-1.71a7.91,7.91,0,0,1-2.56-2.82,8.79,8.79,0,0,1-1-4.4A9.08,9.08,0,0,1,106.46,48Z" class="cls-7"/><path d="M142.15,53h-5.42V74.72h-8V53H123l.46-7h19.15Z" class="cls-7"/><path d="M165.27,74.72h-7.8l-.89-4.53h-5.51l-.89,4.53h-7.43L148.08,46h11.86Zm-9.58-9.94-1.63-10.27h-.33l-1.64,10.27Z" class="cls-7"/><path d="M187.31,46,180.4,65.84v8.88h-7.94V65.84L165.64,46h8.78l2.1,9.34h.37l2-9.34Z" class="cls-7"/><path d="M115,82h-4.31V99.32h-6.36V82H99.73l.38-5.56h15.25Z" class="cls-7"/><path d="M123.8,93.5a2,2,0,0,0,1.58.55,1.86,1.86,0,0,0,1.52-.53,2.79,2.79,0,0,0,.43-1.75V76.45h6.4V92.14c0,2.62-.73,4.54-2.18,5.74s-3.58,1.8-6.39,1.8-4.91-.59-6.29-1.78-2.06-3.09-2.06-5.69V76.45h6.5V91.8A2.54,2.54,0,0,0,123.8,93.5Z" class="cls-7"/><path d="M153.85,99.32h-6.1L143,88.67h-.29V99.32H137V76.45h6.29l4.57,11h.3v-11h5.69Z" class="cls-7"/><path d="M169.62,99.32h-12.5V76.45H170l-.37,5.63h-6.14v3.43h5.32v4.86h-5.32v3.79H170Z" class="cls-7"/><path d="M189.33,87.39q0,11.92-9.52,11.93h-7.66V76.45H180q5.1,0,7.23,2.82T189.33,87.39Zm-7.08,5.24a13.32,13.32,0,0,0,.57-4.64,12.31,12.31,0,0,0-.61-4.62A2.56,2.56,0,0,0,179.59,82h-1.12V94h1.23A2.46,2.46,0,0,0,182.25,92.63Z" class="cls-7"/><path d="M105.72,112.18h-4.43v-1.9h4.43Z" class="cls-5"/><path d="M112.29,110.6a4.52,4.52,0,0,0,.25,1.79.86.86,0,0,0,.83.53,7,7,0,0,0,1.62-.27l.38,2a6.79,6.79,0,0,1-2.29.41,2.85,2.85,0,0,1-2.52-1.13,7.56,7.56,0,0,1,0-6.77,3,3,0,0,1,2.68-1.19,5,5,0,0,1,2.09.46l-.39,2.2a5.89,5.89,0,0,0-1.57-.37.89.89,0,0,0-.88.54A4.89,4.89,0,0,0,112.29,110.6Z" class="cls-5"/><path d="M116.51,107a3.25,3.25,0,0,1,2.72-1.07,3.2,3.2,0,0,1,2.7,1,5.64,5.64,0,0,1,.82,3.41,5.9,5.9,0,0,1-.84,3.5,3.16,3.16,0,0,1-2.71,1.13,3.09,3.09,0,0,1-2.69-1.12,5.89,5.89,0,0,1-.82-3.48A5.62,5.62,0,0,1,116.51,107Zm3.55,1.64a.84.84,0,0,0-.85-.47.79.79,0,0,0-.83.47,5.48,5.48,0,0,0-.19,1.75v.34a4.88,4.88,0,0,0,.21,1.8.85.85,0,0,0,.85.44.81.81,0,0,0,.83-.41,4.84,4.84,0,0,0,.19-1.71v-.45A4.84,4.84,0,0,0,120.06,108.68Z" class="cls-5"/><path d="M132.38,114.92h-2.26v-4.59H130l-.85,4.59h-2.32l-.8-4.59h-.15v4.59h-2.23l.3-8.8h3.24l.81,4.76h.12l.77-4.76h3.2Z" class="cls-5"/><path d="M136.16,114.92h-2.45v-8.8h2.45Z" class="cls-5"/><path d="M144.1,114.92h-2.36l-1.86-4.1h-.12v4.1h-2.19v-8.8H140l1.77,4.22h.11v-4.22h2.21Z" class="cls-5"/><path d="M150.75,108.74a7.74,7.74,0,0,0-2-.41.87.87,0,0,0-.88.55,4.7,4.7,0,0,0-.24,1.75,5,5,0,0,0,.23,1.75.88.88,0,0,0,.91.54,5.46,5.46,0,0,0,.78-.11v-1.08h-.65v-1.67h2.75v4.86h-1.7l-.23-.45h-.06l-.38.29a1.89,1.89,0,0,1-1.14.3q-3,0-3-4.48a6.14,6.14,0,0,1,.79-3.42,3,3,0,0,1,2.66-1.19,6.68,6.68,0,0,1,2.58.46Z" class="cls-5"/><path d="M156.21,106.74a2.76,2.76,0,0,1,2.06-.77,14.54,14.54,0,0,1,2.67.26l-.29,2.27a10.49,10.49,0,0,0-2-.33c-.45,0-.67.18-.67.54,0,.14.1.28.32.41s.48.27.79.42a9.64,9.64,0,0,1,.92.52,2.59,2.59,0,0,1,.78.88,2.51,2.51,0,0,1,.33,1.3,2.85,2.85,0,0,1-.74,2.09,2.81,2.81,0,0,1-2.08.73,8.7,8.7,0,0,1-2.63-.41l.16-2.11A9.56,9.56,0,0,0,158,113c.4,0,.6-.18.6-.53a.62.62,0,0,0-.32-.49,6.13,6.13,0,0,0-.79-.46,8.68,8.68,0,0,1-.93-.52,2.48,2.48,0,0,1-.79-.87,2.58,2.58,0,0,1-.32-1.34A2.82,2.82,0,0,1,156.21,106.74Z" class="cls-5"/><path d="M162.56,107a3.24,3.24,0,0,1,2.72-1.07,3.2,3.2,0,0,1,2.7,1,5.64,5.64,0,0,1,.81,3.41,6,6,0,0,1-.83,3.5,3.16,3.16,0,0,1-2.71,1.13,3.12,3.12,0,0,1-2.7-1.12,6,6,0,0,1-.82-3.48A5.62,5.62,0,0,1,162.56,107Zm3.55,1.64a.85.85,0,0,0-.85-.47.79.79,0,0,0-.83.47,5.19,5.19,0,0,0-.19,1.75v.34a4.88,4.88,0,0,0,.21,1.8.85.85,0,0,0,.85.44.82.82,0,0,0,.83-.41,5.18,5.18,0,0,0,.18-1.71v-.45A4.9,4.9,0,0,0,166.11,108.68Z" class="cls-5"/><path d="M170.31,107A3.25,3.25,0,0,1,173,106a3.2,3.2,0,0,1,2.7,1,5.64,5.64,0,0,1,.81,3.41,5.9,5.9,0,0,1-.83,3.5,3.16,3.16,0,0,1-2.71,1.13,3.09,3.09,0,0,1-2.69-1.12,5.89,5.89,0,0,1-.83-3.48A5.62,5.62,0,0,1,170.31,107Zm3.55,1.64a.85.85,0,0,0-.85-.47.79.79,0,0,0-.83.47,5.19,5.19,0,0,0-.19,1.75v.34a4.88,4.88,0,0,0,.21,1.8.85.85,0,0,0,.85.44.82.82,0,0,0,.83-.41,5.1,5.1,0,0,0,.19-1.71v-.45A4.84,4.84,0,0,0,173.86,108.68Z" class="cls-5"/><path d="M184.05,114.92h-2.36l-1.86-4.1h-.12v4.1h-2.19v-8.8H180l1.77,4.22h.12v-4.22h2.2Z" class="cls-5"/><path d="M192.82,112.18H188.4v-1.9h4.42Z" class="cls-5"/><path d="M219.21,137.5H174.05a.3.3,0,1,1,0-.59h45.16a.3.3,0,0,1,0,.59Z" class="cls-2"/><path d="M226.09,32.48H145.72a.3.3,0,1,1,0-.59h80.37a.3.3,0,0,1,0,.59Z" class="cls-2"/></g></g></svg>