<svg xmlns="http://www.w3.org/2000/svg" xmlns:xlink="http://www.w3.org/1999/xlink" viewBox="0 0 288 190.17"><defs><style>.cls-1{fill:url(#linear-gradient)}.cls-2{fill:#fff}.cls-3{fill:#001b45}.cls-4{fill:#ffc400}.cls-5{opacity:.3}.cls-6{opacity:.25}.cls-7{fill:#061360}</style><linearGradient id="linear-gradient" x1="261.25" x2="69.66" y1="-28.51" y2="169.19" gradientUnits="userSpaceOnUse"><stop offset="0" stop-color="#3f75ff"/><stop offset="1" stop-color="#0071e9"/></linearGradient></defs><title>stay</title><g id="Layer_2" data-name="Layer 2"><g id="Layer_1-2" data-name="Layer 1"><rect width="288" height="184.97" class="cls-1"/><path d="M39.32,18.2a.78.78,0,1,0-.78-.78A.78.78,0,0,0,39.32,18.2Z" class="cls-2"/><path d="M43.55,18.2a.78.78,0,1,0-.77-.78A.78.78,0,0,0,43.55,18.2Z" class="cls-2"/><path d="M47.79,18.18a.76.76,0,0,0,0-1.51.76.76,0,0,0,0,1.51Z" class="cls-2"/><circle cx="52.02" cy="17.42" r=".72" class="cls-2"/><path d="M56.26,18.12a.7.7,0,1,0-.69-.7A.69.69,0,0,0,56.26,18.12Z" class="cls-2"/><path d="M60.5,18.09a.67.67,0,1,0-.67-.67A.67.67,0,0,0,60.5,18.09Z" class="cls-2"/><path d="M64.73,18.07a.65.65,0,1,0-.65-.65A.65.65,0,0,0,64.73,18.07Z" class="cls-2"/><path d="M69,18a.62.62,0,0,0,0-1.23A.62.62,0,0,0,69,18Z" class="cls-2"/><path d="M73.2,18a.59.59,0,1,0-.59-.59A.59.59,0,0,0,73.2,18Z" class="cls-2"/><path d="M77.44,18a.57.57,0,0,0,0-1.13.57.57,0,1,0,0,1.13Z" class="cls-2"/><path d="M81.67,18a.55.55,0,1,0-.54-.55A.55.55,0,0,0,81.67,18Z" class="cls-2"/><path d="M85.91,17.93a.51.51,0,0,0,0-1,.51.51,0,1,0,0,1Z" class="cls-2"/><path d="M90.14,17.91a.49.49,0,1,0-.48-.49A.49.49,0,0,0,90.14,17.91Z" class="cls-2"/><path d="M94.38,17.88a.46.46,0,1,0,0-.91.46.46,0,1,0,0,.91Z" class="cls-2"/><circle cx="98.61" cy="17.42" r=".42" class="cls-2"/><path d="M102.85,17.82a.4.4,0,1,0-.4-.4A.39.39,0,0,0,102.85,17.82Z" class="cls-2"/><path d="M107.08,17.8a.38.38,0,1,0,0-.75.38.38,0,0,0,0,.75Z" class="cls-2"/><path d="M111.32,17.78a.36.36,0,0,0,0-.71.36.36,0,0,0,0,.71Z" class="cls-2"/><circle cx="115.55" cy="17.42" r=".32" class="cls-2"/><path d="M119.79,17.72a.3.3,0,1,0-.29-.3A.29.29,0,0,0,119.79,17.72Z" class="cls-2"/><path d="M124,17.69a.27.27,0,0,0,.27-.27.28.28,0,0,0-.27-.27.28.28,0,0,0-.27.27A.28.28,0,0,0,124,17.69Z" class="cls-2"/><path d="M128.26,17.67a.25.25,0,1,0-.25-.25A.25.25,0,0,0,128.26,17.67Z" class="cls-2"/><circle cx="132.5" cy="17.42" r=".21" class="cls-2"/><path d="M136.73,17.61a.19.19,0,1,0-.19-.19A.19.19,0,0,0,136.73,17.61Z" class="cls-2"/><path d="M141,17.59a.16.16,0,0,0,.16-.17.16.16,0,0,0-.16-.16.17.17,0,0,0-.17.16A.17.17,0,0,0,141,17.59Z" class="cls-2"/><path d="M145.2,17.57a.15.15,0,0,0,.14-.15.14.14,0,1,0-.28,0A.15.15,0,0,0,145.2,17.57Z" class="cls-2"/><circle cx="149.44" cy="17.42" r=".11" class="cls-2"/><path d="M153.67,17.51a.08.08,0,0,0,.08-.09.08.08,0,0,0-.08-.08.09.09,0,0,0-.08.08A.09.09,0,0,0,153.67,17.51Z" class="cls-2"/><path d="M157.91,17.48a.06.06,0,0,0,.06-.06.06.06,0,0,0-.06-.05s-.06,0-.06.05A.05.05,0,0,0,157.91,17.48Z" class="cls-2"/><path d="M162.14,17.46a0,0,0,0,0,0,0,0,0,0,0,0,0,0,0,0,0,0,0,0,0S162.12,17.46,162.14,17.46Z" class="cls-2"/><path d="M39.32,22.44a.78.78,0,0,0,0-1.56.78.78,0,0,0,0,1.56Z" class="cls-2"/><path d="M43.55,22.44a.78.78,0,1,0-.77-.78A.78.78,0,0,0,43.55,22.44Z" class="cls-2"/><path d="M47.79,22.41a.75.75,0,1,0-.75-.75A.75.75,0,0,0,47.79,22.41Z" class="cls-2"/><circle cx="52.02" cy="21.66" r=".72" class="cls-2"/><path d="M56.26,22.35a.69.69,0,1,0-.69-.69A.69.69,0,0,0,56.26,22.35Z" class="cls-2"/><path d="M60.5,22.33a.67.67,0,0,0,0-1.34.67.67,0,0,0,0,1.34Z" class="cls-2"/><path d="M64.73,22.31a.65.65,0,1,0-.65-.65A.65.65,0,0,0,64.73,22.31Z" class="cls-2"/><circle cx="68.97" cy="21.66" r=".61" class="cls-2"/><path d="M73.2,22.25a.59.59,0,1,0,0-1.18.59.59,0,0,0,0,1.18Z" class="cls-2"/><path d="M77.44,22.22a.56.56,0,1,0,0-1.12.56.56,0,1,0,0,1.12Z" class="cls-2"/><path d="M81.67,22.2a.54.54,0,1,0-.54-.54A.54.54,0,0,0,81.67,22.2Z" class="cls-2"/><circle cx="85.91" cy="21.66" r=".5" class="cls-2"/><path d="M90.14,22.14a.48.48,0,0,0,0-1,.48.48,0,1,0,0,1Z" class="cls-2"/><path d="M94.38,22.12a.46.46,0,1,0,0-.92.46.46,0,1,0,0,.92Z" class="cls-2"/><circle cx="98.61" cy="21.66" r=".42" class="cls-2"/><path d="M102.85,22.06a.4.4,0,1,0-.4-.4A.4.4,0,0,0,102.85,22.06Z" class="cls-2"/><path d="M107.08,22a.38.38,0,1,0-.37-.38A.38.38,0,0,0,107.08,22Z" class="cls-2"/><path d="M111.32,22a.35.35,0,0,0,0-.7.35.35,0,0,0,0,.7Z" class="cls-2"/><circle cx="115.55" cy="21.66" r=".32" class="cls-2"/><circle cx="119.79" cy="21.66" r=".29" class="cls-2"/><path d="M124,21.93a.27.27,0,1,0,0-.54.27.27,0,1,0,0,.54Z" class="cls-2"/><path d="M128.26,21.91a.25.25,0,1,0-.25-.25A.25.25,0,0,0,128.26,21.91Z" class="cls-2"/><circle cx="132.5" cy="21.66" r=".21" class="cls-2"/><circle cx="136.73" cy="21.66" r=".19" class="cls-2"/><path d="M141,21.82a.16.16,0,1,0,0-.32.16.16,0,1,0,0,.32Z" class="cls-2"/><path d="M145.2,21.8a.14.14,0,1,0-.14-.14A.14.14,0,0,0,145.2,21.8Z" class="cls-2"/><circle cx="149.44" cy="21.66" r=".11" class="cls-2"/><circle cx="153.67" cy="21.66" r=".08" class="cls-2"/><path d="M157.91,21.72a.06.06,0,1,0,0-.12.06.06,0,0,0,0,.12Z" class="cls-2"/><path d="M162.14,21.7a0,0,0,0,0,0-.08s0,0,0,0S162.12,21.7,162.14,21.7Z" class="cls-2"/><path d="M39.32,26.67a.78.78,0,0,0,0-1.55.78.78,0,1,0,0,1.55Z" class="cls-2"/><path d="M43.55,26.67a.78.78,0,1,0-.77-.77A.78.78,0,0,0,43.55,26.67Z" class="cls-2"/><path d="M47.79,26.65A.76.76,0,1,0,47,25.9.76.76,0,0,0,47.79,26.65Z" class="cls-2"/><circle cx="52.02" cy="25.9" r=".72" class="cls-2"/><circle cx="56.26" cy="25.9" r=".69" class="cls-2"/><path d="M60.5,26.56a.65.65,0,0,0,.66-.66.66.66,0,0,0-.66-.67.67.67,0,0,0-.67.67A.66.66,0,0,0,60.5,26.56Z" class="cls-2"/><path d="M64.73,26.54a.65.65,0,1,0-.65-.64A.65.65,0,0,0,64.73,26.54Z" class="cls-2"/><circle cx="68.97" cy="25.9" r=".61" class="cls-2"/><circle cx="73.2" cy="25.9" r=".59" class="cls-2"/><path d="M77.44,26.46a.57.57,0,0,0,0-1.13.57.57,0,1,0,0,1.13Z" class="cls-2"/><path d="M81.67,26.44a.54.54,0,0,0,.54-.54.54.54,0,0,0-1.08,0A.54.54,0,0,0,81.67,26.44Z" class="cls-2"/><circle cx="85.91" cy="25.9" r=".51" class="cls-2"/><path d="M90.14,26.38a.49.49,0,0,0,0-1,.49.49,0,0,0,0,1Z" class="cls-2"/><path d="M94.38,26.35a.46.46,0,1,0-.46-.45A.45.45,0,0,0,94.38,26.35Z" class="cls-2"/><circle cx="98.61" cy="25.9" r=".42" class="cls-2"/><path d="M102.85,26.29a.4.4,0,1,0-.4-.39A.39.39,0,0,0,102.85,26.29Z" class="cls-2"/><path d="M107.08,26.27a.38.38,0,1,0-.37-.37A.38.38,0,0,0,107.08,26.27Z" class="cls-2"/><path d="M111.32,26.25a.36.36,0,0,0,0-.71.36.36,0,0,0,0,.71Z" class="cls-2"/><circle cx="115.55" cy="25.9" r=".32" class="cls-2"/><circle cx="119.79" cy="25.9" r=".29" class="cls-2"/><path d="M124,26.17a.28.28,0,0,0,.27-.27.27.27,0,0,0-.27-.27.28.28,0,0,0-.27.27A.28.28,0,0,0,124,26.17Z" class="cls-2"/><path d="M128.26,26.14a.25.25,0,1,0-.25-.24A.25.25,0,0,0,128.26,26.14Z" class="cls-2"/><circle cx="132.5" cy="25.9" r=".21" class="cls-2"/><circle cx="136.73" cy="25.9" r=".19" class="cls-2"/><path d="M141,26.06a.16.16,0,0,0,.16-.16.16.16,0,0,0-.16-.17.17.17,0,0,0-.17.17A.17.17,0,0,0,141,26.06Z" class="cls-2"/><path d="M145.2,26a.14.14,0,0,0,.14-.14.14.14,0,1,0-.28,0A.14.14,0,0,0,145.2,26Z" class="cls-2"/><circle cx="149.44" cy="25.9" r=".11" class="cls-2"/><circle cx="153.67" cy="25.9" r=".08" class="cls-2"/><path d="M157.91,26a.06.06,0,0,0,.06-.05.06.06,0,0,0-.06-.06.05.05,0,0,0-.06.06S157.87,26,157.91,26Z" class="cls-2"/><path d="M162.14,25.93a0,0,0,0,0,0,0,0,0,0,0,0,0,0s0,0,0,0A0,0,0,0,0,162.14,25.93Z" class="cls-2"/><path d="M39.32,30.91a.77.77,0,0,0,.77-.78.76.76,0,0,0-.77-.77.77.77,0,0,0-.78.77A.78.78,0,0,0,39.32,30.91Z" class="cls-2"/><path d="M43.55,30.91a.78.78,0,0,0,.78-.78.78.78,0,1,0-.78.78Z" class="cls-2"/><path d="M47.79,30.88a.75.75,0,1,0-.75-.75A.75.75,0,0,0,47.79,30.88Z" class="cls-2"/><circle cx="52.02" cy="30.13" r=".72" class="cls-2"/><circle cx="56.26" cy="30.13" r=".69" class="cls-2"/><path d="M60.5,30.8a.67.67,0,0,0,0-1.34.67.67,0,1,0,0,1.34Z" class="cls-2"/><path d="M64.73,30.78a.65.65,0,1,0-.65-.65A.65.65,0,0,0,64.73,30.78Z" class="cls-2"/><circle cx="68.97" cy="30.13" r=".61" class="cls-2"/><circle cx="73.2" cy="30.13" r=".59" class="cls-2"/><path d="M77.44,30.69a.56.56,0,1,0,0-1.12.56.56,0,1,0,0,1.12Z" class="cls-2"/><path d="M81.67,30.67a.54.54,0,1,0-.54-.54A.54.54,0,0,0,81.67,30.67Z" class="cls-2"/><circle cx="85.91" cy="30.13" r=".51" class="cls-2"/><circle cx="90.14" cy="30.13" r=".48" class="cls-2"/><path d="M94.38,30.59a.46.46,0,0,0,0-.92.46.46,0,1,0,0,.92Z" class="cls-2"/><circle cx="98.61" cy="30.13" r=".42" class="cls-2"/><path d="M102.85,30.53a.4.4,0,1,0-.4-.4A.4.4,0,0,0,102.85,30.53Z" class="cls-2"/><path d="M107.08,30.51a.38.38,0,1,0-.37-.38A.38.38,0,0,0,107.08,30.51Z" class="cls-2"/><path d="M111.32,30.48a.35.35,0,0,0,.35-.35.35.35,0,0,0-.35-.35.35.35,0,0,0-.35.35A.34.34,0,0,0,111.32,30.48Z" class="cls-2"/><circle cx="115.55" cy="30.13" r=".32" class="cls-2"/><circle cx="119.79" cy="30.13" r=".29" class="cls-2"/><circle cx="124.02" cy="30.13" r=".27" class="cls-2"/><path d="M128.26,30.38a.25.25,0,1,0-.25-.25A.25.25,0,0,0,128.26,30.38Z" class="cls-2"/><circle cx="132.5" cy="30.13" r=".21" class="cls-2"/><circle cx="136.73" cy="30.13" r=".19" class="cls-2"/><circle cx="140.97" cy="30.13" r=".16" class="cls-2"/><path d="M145.2,30.27a.14.14,0,1,0-.14-.14A.14.14,0,0,0,145.2,30.27Z" class="cls-2"/><circle cx="149.44" cy="30.13" r=".11" class="cls-2"/><circle cx="153.67" cy="30.13" r=".08" class="cls-2"/><circle cx="157.91" cy="30.13" r=".06" class="cls-2"/><path d="M162.14,30.17a0,0,0,0,0,0,0s0,0,0,0a0,0,0,0,0,0,0S162.12,30.17,162.14,30.17Z" class="cls-2"/><path d="M39.32,35.14a.78.78,0,0,0,0-1.55.78.78,0,1,0,0,1.55Z" class="cls-2"/><path d="M43.55,35.14a.78.78,0,1,0-.77-.77A.78.78,0,0,0,43.55,35.14Z" class="cls-2"/><path d="M47.79,35.12a.76.76,0,1,0-.75-.75A.76.76,0,0,0,47.79,35.12Z" class="cls-2"/><circle cx="52.02" cy="34.37" r=".72" class="cls-2"/><circle cx="56.26" cy="34.37" r=".69" class="cls-2"/><circle cx="60.5" cy="34.37" r=".67" class="cls-2"/><path d="M64.73,35a.65.65,0,1,0-.65-.64A.65.65,0,0,0,64.73,35Z" class="cls-2"/><circle cx="68.97" cy="34.37" r=".61" class="cls-2"/><circle cx="73.2" cy="34.37" r=".59" class="cls-2"/><circle cx="77.44" cy="34.37" r=".56" class="cls-2"/><path d="M81.67,34.91a.54.54,0,0,0,.54-.54.54.54,0,0,0-1.08,0A.54.54,0,0,0,81.67,34.91Z" class="cls-2"/><circle cx="85.91" cy="34.37" r=".5" class="cls-2"/><circle cx="90.14" cy="34.37" r=".48" class="cls-2"/><path d="M94.38,34.82a.46.46,0,1,0-.46-.45A.45.45,0,0,0,94.38,34.82Z" class="cls-2"/><circle cx="98.61" cy="34.37" r=".42" class="cls-2"/><path d="M102.85,34.77a.4.4,0,1,0-.4-.4A.4.4,0,0,0,102.85,34.77Z" class="cls-2"/><path d="M107.08,34.74a.38.38,0,1,0-.37-.37A.38.38,0,0,0,107.08,34.74Z" class="cls-2"/><path d="M111.32,34.72a.36.36,0,0,0,0-.71.36.36,0,0,0,0,.71Z" class="cls-2"/><circle cx="115.55" cy="34.37" r=".32" class="cls-2"/><circle cx="119.79" cy="34.37" r=".29" class="cls-2"/><circle cx="124.02" cy="34.37" r=".27" class="cls-2"/><path d="M128.26,34.61a.25.25,0,1,0-.25-.24A.25.25,0,0,0,128.26,34.61Z" class="cls-2"/><circle cx="132.5" cy="34.37" r=".21" class="cls-2"/><circle cx="136.73" cy="34.37" r=".19" class="cls-2"/><circle cx="140.97" cy="34.37" r=".16" class="cls-2"/><path d="M145.2,34.51a.14.14,0,0,0,.14-.14.14.14,0,1,0-.28,0A.14.14,0,0,0,145.2,34.51Z" class="cls-2"/><circle cx="149.44" cy="34.37" r=".11" class="cls-2"/><circle cx="153.67" cy="34.37" r=".08" class="cls-2"/><circle cx="157.91" cy="34.37" r=".06" class="cls-2"/><path d="M162.14,34.4s0,0,0,0a0,0,0,0,0,0,0s0,0,0,0A0,0,0,0,0,162.14,34.4Z" class="cls-2"/><path d="M39.32,39.38a.77.77,0,0,0,.77-.78.76.76,0,0,0-.77-.77.77.77,0,0,0-.78.77A.78.78,0,0,0,39.32,39.38Z" class="cls-2"/><path d="M43.55,39.38a.78.78,0,0,0,.78-.78.78.78,0,1,0-.78.78Z" class="cls-2"/><path d="M47.79,39.35A.75.75,0,1,0,47,38.6.75.75,0,0,0,47.79,39.35Z" class="cls-2"/><circle cx="52.02" cy="38.6" r=".72" class="cls-2"/><circle cx="56.26" cy="38.6" r=".69" class="cls-2"/><circle cx="60.5" cy="38.6" r=".67" class="cls-2"/><path d="M64.73,39.25a.65.65,0,0,0,.65-.65.65.65,0,0,0-1.3,0A.65.65,0,0,0,64.73,39.25Z" class="cls-2"/><circle cx="68.97" cy="38.6" r=".61" class="cls-2"/><circle cx="73.2" cy="38.6" r=".59" class="cls-2"/><circle cx="77.44" cy="38.6" r=".56" class="cls-2"/><path d="M81.67,39.14a.54.54,0,1,0-.54-.54A.54.54,0,0,0,81.67,39.14Z" class="cls-2"/><circle cx="85.91" cy="38.6" r=".51" class="cls-2"/><circle cx="90.14" cy="38.6" r=".48" class="cls-2"/><path d="M94.38,39.06a.46.46,0,0,0,0-.92.46.46,0,0,0,0,.92Z" class="cls-2"/><circle cx="98.61" cy="38.6" r=".42" class="cls-2"/><path d="M102.85,39a.4.4,0,1,0-.4-.4A.4.4,0,0,0,102.85,39Z" class="cls-2"/><path d="M107.08,39a.38.38,0,0,0,.38-.38.38.38,0,0,0-.75,0A.38.38,0,0,0,107.08,39Z" class="cls-2"/><path d="M111.32,39a.35.35,0,0,0,.35-.35.35.35,0,0,0-.35-.35.35.35,0,0,0-.35.35A.34.34,0,0,0,111.32,39Z" class="cls-2"/><circle cx="115.55" cy="38.6" r=".32" class="cls-2"/><circle cx="119.79" cy="38.6" r=".29" class="cls-2"/><circle cx="124.02" cy="38.6" r=".27" class="cls-2"/><circle cx="128.26" cy="38.6" r=".25" class="cls-2"/><circle cx="132.5" cy="38.6" r=".21" class="cls-2"/><circle cx="136.73" cy="38.6" r=".19" class="cls-2"/><circle cx="140.97" cy="38.6" r=".16" class="cls-2"/><circle cx="145.2" cy="38.6" r=".14" class="cls-2"/><circle cx="149.44" cy="38.6" r=".11" class="cls-2"/><circle cx="153.67" cy="38.6" r=".08" class="cls-2"/><circle cx="157.91" cy="38.6" r=".06" class="cls-2"/><path d="M162.14,38.64a0,0,0,0,0,0,0s0,0,0,0a0,0,0,0,0,0,0S162.12,38.64,162.14,38.64Z" class="cls-2"/><path d="M39.32,43.61a.78.78,0,0,0,0-1.55.78.78,0,1,0,0,1.55Z" class="cls-2"/><path d="M43.55,43.61a.78.78,0,1,0-.77-.77A.78.78,0,0,0,43.55,43.61Z" class="cls-2"/><path d="M47.79,43.59a.76.76,0,1,0-.75-.75A.76.76,0,0,0,47.79,43.59Z" class="cls-2"/><circle cx="52.02" cy="42.84" r=".72" class="cls-2"/><circle cx="56.26" cy="42.84" r=".69" class="cls-2"/><circle cx="60.5" cy="42.84" r=".67" class="cls-2"/><circle cx="64.73" cy="42.84" r=".65" class="cls-2"/><circle cx="68.97" cy="42.84" r=".61" class="cls-2"/><circle cx="73.2" cy="42.84" r=".59" class="cls-2"/><circle cx="77.44" cy="42.84" r=".56" class="cls-2"/><path d="M81.67,43.38a.54.54,0,0,0,.54-.54.54.54,0,0,0-1.08,0A.54.54,0,0,0,81.67,43.38Z" class="cls-2"/><circle cx="85.91" cy="42.84" r=".51" class="cls-2"/><circle cx="90.14" cy="42.84" r=".48" class="cls-2"/><path d="M94.38,43.29a.46.46,0,1,0-.46-.45A.45.45,0,0,0,94.38,43.29Z" class="cls-2"/><circle cx="98.61" cy="42.84" r=".42" class="cls-2"/><path d="M102.85,43.24a.4.4,0,1,0-.4-.4A.4.4,0,0,0,102.85,43.24Z" class="cls-2"/><path d="M107.08,43.21a.38.38,0,1,0-.37-.37A.38.38,0,0,0,107.08,43.21Z" class="cls-2"/><path d="M111.32,43.19a.36.36,0,0,0,0-.71.36.36,0,0,0,0,.71Z" class="cls-2"/><circle cx="115.55" cy="42.84" r=".32" class="cls-2"/><circle cx="119.79" cy="42.84" r=".29" class="cls-2"/><circle cx="124.02" cy="42.84" r=".27" class="cls-2"/><circle cx="128.26" cy="42.84" r=".25" class="cls-2"/><circle cx="132.5" cy="42.84" r=".21" class="cls-2"/><circle cx="136.73" cy="42.84" r=".19" class="cls-2"/><circle cx="140.97" cy="42.84" r=".16" class="cls-2"/><circle cx="145.2" cy="42.84" r=".14" class="cls-2"/><circle cx="149.44" cy="42.84" r=".11" class="cls-2"/><circle cx="153.67" cy="42.84" r=".08" class="cls-2"/><circle cx="157.91" cy="42.84" r=".06" class="cls-2"/><path d="M162.14,42.87s0,0,0,0a0,0,0,0,0,0,0s0,0,0,0A0,0,0,0,0,162.14,42.87Z" class="cls-2"/><path d="M39.32,47.85a.77.77,0,0,0,.77-.78.76.76,0,0,0-.77-.77.77.77,0,0,0-.78.77A.78.78,0,0,0,39.32,47.85Z" class="cls-2"/><path d="M43.55,47.85a.78.78,0,0,0,.78-.78.78.78,0,1,0-.78.78Z" class="cls-2"/><path d="M47.79,47.82a.75.75,0,1,0-.75-.75A.75.75,0,0,0,47.79,47.82Z" class="cls-2"/><circle cx="52.02" cy="47.07" r=".72" class="cls-2"/><circle cx="56.26" cy="47.07" r=".69" class="cls-2"/><circle cx="60.5" cy="47.07" r=".67" class="cls-2"/><circle cx="64.73" cy="47.07" r=".65" class="cls-2"/><circle cx="68.97" cy="47.07" r=".61" class="cls-2"/><circle cx="73.2" cy="47.07" r=".59" class="cls-2"/><circle cx="77.44" cy="47.07" r=".56" class="cls-2"/><path d="M81.67,47.61a.54.54,0,1,0-.54-.54A.54.54,0,0,0,81.67,47.61Z" class="cls-2"/><circle cx="85.91" cy="47.07" r=".5" class="cls-2"/><circle cx="90.14" cy="47.07" r=".48" class="cls-2"/><path d="M94.38,47.53a.46.46,0,0,0,0-.92.46.46,0,0,0,0,.92Z" class="cls-2"/><circle cx="98.61" cy="47.07" r=".42" class="cls-2"/><path d="M102.85,47.47a.4.4,0,1,0-.4-.4A.4.4,0,0,0,102.85,47.47Z" class="cls-2"/><path d="M107.08,47.45a.38.38,0,0,0,.38-.38.38.38,0,0,0-.75,0A.38.38,0,0,0,107.08,47.45Z" class="cls-2"/><path d="M111.32,47.42a.35.35,0,0,0,.35-.35.35.35,0,0,0-.35-.35.35.35,0,0,0-.35.35A.34.34,0,0,0,111.32,47.42Z" class="cls-2"/><circle cx="115.55" cy="47.07" r=".32" class="cls-2"/><circle cx="119.79" cy="47.07" r=".29" class="cls-2"/><circle cx="124.02" cy="47.07" r=".27" class="cls-2"/><circle cx="128.26" cy="47.07" r=".25" class="cls-2"/><circle cx="132.5" cy="47.07" r=".21" class="cls-2"/><circle cx="136.73" cy="47.07" r=".19" class="cls-2"/><circle cx="140.97" cy="47.07" r=".16" class="cls-2"/><circle cx="145.2" cy="47.07" r=".14" class="cls-2"/><circle cx="149.44" cy="47.07" r=".11" class="cls-2"/><circle cx="153.67" cy="47.07" r=".08" class="cls-2"/><circle cx="157.91" cy="47.07" r=".06" class="cls-2"/><path d="M162.14,47.11a0,0,0,0,0,0,0s0,0,0,0a0,0,0,0,0,0,0S162.12,47.11,162.14,47.11Z" class="cls-2"/><path d="M39.32,52.08a.76.76,0,0,0,.77-.77.77.77,0,0,0-.77-.78.78.78,0,0,0-.78.78A.77.77,0,0,0,39.32,52.08Z" class="cls-2"/><path d="M43.55,52.08a.77.77,0,0,0,.78-.77.78.78,0,1,0-1.55,0A.77.77,0,0,0,43.55,52.08Z" class="cls-2"/><path d="M47.79,52.06a.75.75,0,0,0,0-1.5.75.75,0,1,0,0,1.5Z" class="cls-2"/><circle cx="52.02" cy="51.31" r=".72" class="cls-2"/><circle cx="56.26" cy="51.31" r=".69" class="cls-2"/><circle cx="60.5" cy="51.31" r=".67" class="cls-2"/><circle cx="64.73" cy="51.31" r=".65" class="cls-2"/><circle cx="68.97" cy="51.31" r=".61" class="cls-2"/><circle cx="73.2" cy="51.31" r=".59" class="cls-2"/><circle cx="77.44" cy="51.31" r=".56" class="cls-2"/><path d="M81.67,51.85a.54.54,0,1,0-.54-.54A.54.54,0,0,0,81.67,51.85Z" class="cls-2"/><circle cx="85.91" cy="51.31" r=".5" class="cls-2"/><circle cx="90.14" cy="51.31" r=".48" class="cls-2"/><path d="M94.38,51.77a.47.47,0,0,0,.46-.46.46.46,0,0,0-.46-.46.45.45,0,0,0-.46.46A.46.46,0,0,0,94.38,51.77Z" class="cls-2"/><circle cx="98.61" cy="51.31" r=".42" class="cls-2"/><path d="M102.85,51.71a.4.4,0,1,0-.4-.4A.4.4,0,0,0,102.85,51.71Z" class="cls-2"/><path d="M107.08,51.68a.38.38,0,1,0-.37-.37A.38.38,0,0,0,107.08,51.68Z" class="cls-2"/><path d="M111.32,51.66a.36.36,0,0,0,0-.71.36.36,0,0,0,0,.71Z" class="cls-2"/><circle cx="115.55" cy="51.31" r=".32" class="cls-2"/><circle cx="119.79" cy="51.31" r=".29" class="cls-2"/><circle cx="124.02" cy="51.31" r=".27" class="cls-2"/><circle cx="128.26" cy="51.31" r=".25" class="cls-2"/><circle cx="132.5" cy="51.31" r=".21" class="cls-2"/><circle cx="136.73" cy="51.31" r=".19" class="cls-2"/><circle cx="140.97" cy="51.31" r=".16" class="cls-2"/><circle cx="145.2" cy="51.31" r=".14" class="cls-2"/><circle cx="149.44" cy="51.31" r=".11" class="cls-2"/><circle cx="153.67" cy="51.31" r=".08" class="cls-2"/><circle cx="157.91" cy="51.31" r=".06" class="cls-2"/><path d="M162.14,51.34s0,0,0,0a0,0,0,0,0,0,0s0,0,0,0A0,0,0,0,0,162.14,51.34Z" class="cls-2"/><path d="M39.32,56.32a.77.77,0,0,0,.77-.78.76.76,0,0,0-.77-.77.77.77,0,0,0-.78.77A.78.78,0,0,0,39.32,56.32Z" class="cls-2"/><path d="M43.55,56.32a.78.78,0,0,0,.78-.78.78.78,0,1,0-.78.78Z" class="cls-2"/><path d="M47.79,56.29a.75.75,0,1,0-.75-.75A.75.75,0,0,0,47.79,56.29Z" class="cls-2"/><circle cx="52.02" cy="55.54" r=".72" class="cls-2"/><circle cx="56.26" cy="55.54" r=".69" class="cls-2"/><circle cx="60.5" cy="55.54" r=".67" class="cls-2"/><circle cx="64.73" cy="55.54" r=".65" class="cls-2"/><circle cx="68.97" cy="55.54" r=".61" class="cls-2"/><circle cx="73.2" cy="55.54" r=".59" class="cls-2"/><circle cx="77.44" cy="55.54" r=".56" class="cls-2"/><path d="M81.67,56.08a.54.54,0,1,0-.54-.54A.54.54,0,0,0,81.67,56.08Z" class="cls-2"/><circle cx="85.91" cy="55.54" r=".51" class="cls-2"/><circle cx="90.14" cy="55.54" r=".48" class="cls-2"/><path d="M94.38,56a.46.46,0,0,0,.46-.46.47.47,0,0,0-.46-.46.46.46,0,0,0-.46.46A.45.45,0,0,0,94.38,56Z" class="cls-2"/><circle cx="98.61" cy="55.54" r=".42" class="cls-2"/><path d="M102.85,55.94a.4.4,0,1,0-.4-.4A.4.4,0,0,0,102.85,55.94Z" class="cls-2"/><path d="M107.08,55.92a.38.38,0,0,0,.38-.38.38.38,0,0,0-.75,0A.38.38,0,0,0,107.08,55.92Z" class="cls-2"/><path d="M111.32,55.89a.35.35,0,0,0,.35-.35.35.35,0,0,0-.35-.35.35.35,0,0,0-.35.35A.34.34,0,0,0,111.32,55.89Z" class="cls-2"/><circle cx="115.55" cy="55.54" r=".32" class="cls-2"/><circle cx="119.79" cy="55.54" r=".29" class="cls-2"/><circle cx="124.02" cy="55.54" r=".27" class="cls-2"/><circle cx="128.26" cy="55.54" r=".25" class="cls-2"/><circle cx="132.5" cy="55.54" r=".21" class="cls-2"/><circle cx="136.73" cy="55.54" r=".19" class="cls-2"/><circle cx="140.97" cy="55.54" r=".16" class="cls-2"/><circle cx="145.2" cy="55.54" r=".14" class="cls-2"/><circle cx="149.44" cy="55.54" r=".11" class="cls-2"/><circle cx="153.67" cy="55.54" r=".08" class="cls-2"/><circle cx="157.91" cy="55.54" r=".06" class="cls-2"/><path d="M162.14,55.58a0,0,0,0,0,0,0s0,0,0,0a0,0,0,0,0,0,0S162.12,55.58,162.14,55.58Z" class="cls-2"/><path d="M39.32,60.55a.76.76,0,0,0,.77-.77.77.77,0,0,0-.77-.78.78.78,0,0,0-.78.78A.77.77,0,0,0,39.32,60.55Z" class="cls-2"/><path d="M43.55,60.55a.77.77,0,0,0,.78-.77.78.78,0,1,0-1.55,0A.77.77,0,0,0,43.55,60.55Z" class="cls-2"/><path d="M47.79,60.53a.75.75,0,0,0,0-1.5.75.75,0,1,0,0,1.5Z" class="cls-2"/><circle cx="52.02" cy="59.78" r=".72" class="cls-2"/><circle cx="56.26" cy="59.78" r=".69" class="cls-2"/><circle cx="60.5" cy="59.78" r=".67" class="cls-2"/><path d="M64.73,60.42a.65.65,0,1,0-.65-.64A.65.65,0,0,0,64.73,60.42Z" class="cls-2"/><circle cx="68.97" cy="59.78" r=".61" class="cls-2"/><circle cx="73.2" cy="59.78" r=".59" class="cls-2"/><circle cx="77.44" cy="59.78" r=".56" class="cls-2"/><path d="M81.67,60.32a.54.54,0,1,0-.54-.54A.54.54,0,0,0,81.67,60.32Z" class="cls-2"/><circle cx="85.91" cy="59.78" r=".5" class="cls-2"/><circle cx="90.14" cy="59.78" r=".48" class="cls-2"/><path d="M94.38,60.24a.47.47,0,0,0,.46-.46.46.46,0,0,0-.46-.46.45.45,0,0,0-.46.46A.46.46,0,0,0,94.38,60.24Z" class="cls-2"/><circle cx="98.61" cy="59.78" r=".42" class="cls-2"/><path d="M102.85,60.18a.4.4,0,1,0-.4-.4A.4.4,0,0,0,102.85,60.18Z" class="cls-2"/><path d="M107.08,60.15a.37.37,0,0,0,.38-.37.38.38,0,1,0-.75,0A.37.37,0,0,0,107.08,60.15Z" class="cls-2"/><path d="M111.32,60.13a.35.35,0,0,0,.35-.35.35.35,0,0,0-.35-.35.34.34,0,0,0-.35.35A.35.35,0,0,0,111.32,60.13Z" class="cls-2"/><circle cx="115.55" cy="59.78" r=".32" class="cls-2"/><circle cx="119.79" cy="59.78" r=".29" class="cls-2"/><circle cx="124.02" cy="59.78" r=".27" class="cls-2"/><circle cx="128.26" cy="59.78" r=".25" class="cls-2"/><circle cx="132.5" cy="59.78" r=".21" class="cls-2"/><circle cx="136.73" cy="59.78" r=".19" class="cls-2"/><circle cx="140.97" cy="59.78" r=".16" class="cls-2"/><circle cx="145.2" cy="59.78" r=".14" class="cls-2"/><circle cx="149.44" cy="59.78" r=".11" class="cls-2"/><circle cx="153.67" cy="59.78" r=".08" class="cls-2"/><circle cx="157.91" cy="59.78" r=".06" class="cls-2"/><path d="M162.14,59.81s0,0,0,0a0,0,0,0,0,0,0s0,0,0,0A0,0,0,0,0,162.14,59.81Z" class="cls-2"/><path d="M39.32,64.79a.77.77,0,0,0,.77-.78.76.76,0,0,0-.77-.77.77.77,0,0,0-.78.77A.78.78,0,0,0,39.32,64.79Z" class="cls-2"/><path d="M43.55,64.79a.78.78,0,0,0,.78-.78.78.78,0,1,0-.78.78Z" class="cls-2"/><path d="M47.79,64.76A.75.75,0,1,0,47,64,.75.75,0,0,0,47.79,64.76Z" class="cls-2"/><circle cx="52.02" cy="64.01" r=".72" class="cls-2"/><circle cx="56.26" cy="64.01" r=".69" class="cls-2"/><circle cx="60.5" cy="64.01" r=".67" class="cls-2"/><path d="M64.73,64.66a.65.65,0,1,0-.65-.65A.65.65,0,0,0,64.73,64.66Z" class="cls-2"/><circle cx="68.97" cy="64.01" r=".61" class="cls-2"/><circle cx="73.2" cy="64.01" r=".59" class="cls-2"/><circle cx="77.44" cy="64.01" r=".56" class="cls-2"/><path d="M81.67,64.55a.54.54,0,1,0-.54-.54A.54.54,0,0,0,81.67,64.55Z" class="cls-2"/><circle cx="85.91" cy="64.01" r=".51" class="cls-2"/><circle cx="90.14" cy="64.01" r=".48" class="cls-2"/><path d="M94.38,64.47a.46.46,0,1,0,0-.91.46.46,0,1,0,0,.91Z" class="cls-2"/><circle cx="98.61" cy="64.01" r=".42" class="cls-2"/><path d="M102.85,64.41a.4.4,0,1,0-.4-.4A.4.4,0,0,0,102.85,64.41Z" class="cls-2"/><path d="M107.08,64.39a.38.38,0,1,0,0-.75.38.38,0,0,0,0,.75Z" class="cls-2"/><path d="M111.32,64.37a.36.36,0,0,0,0-.71.36.36,0,0,0,0,.71Z" class="cls-2"/><circle cx="115.55" cy="64.01" r=".32" class="cls-2"/><circle cx="119.79" cy="64.01" r=".29" class="cls-2"/><circle cx="124.02" cy="64.01" r=".27" class="cls-2"/><path d="M128.26,64.26A.25.25,0,1,0,128,64,.25.25,0,0,0,128.26,64.26Z" class="cls-2"/><circle cx="132.5" cy="64.01" r=".21" class="cls-2"/><circle cx="136.73" cy="64.01" r=".19" class="cls-2"/><circle cx="140.97" cy="64.01" r=".16" class="cls-2"/><path d="M145.2,64.15a.14.14,0,0,0,.14-.14.14.14,0,1,0-.28,0A.14.14,0,0,0,145.2,64.15Z" class="cls-2"/><circle cx="149.44" cy="64.01" r=".11" class="cls-2"/><circle cx="153.67" cy="64.01" r=".08" class="cls-2"/><circle cx="157.91" cy="64.01" r=".06" class="cls-2"/><path d="M162.14,64.05a0,0,0,0,0,0,0s0,0,0,0a0,0,0,0,0,0,0S162.12,64.05,162.14,64.05Z" class="cls-2"/><path d="M39.32,69a.76.76,0,0,0,.77-.77.77.77,0,0,0-.77-.78.78.78,0,0,0-.78.78A.77.77,0,0,0,39.32,69Z" class="cls-2"/><path d="M43.55,69a.77.77,0,0,0,.78-.77.78.78,0,1,0-1.55,0A.77.77,0,0,0,43.55,69Z" class="cls-2"/><path d="M47.79,69a.75.75,0,0,0,0-1.5.75.75,0,1,0,0,1.5Z" class="cls-2"/><circle cx="52.02" cy="68.25" r=".72" class="cls-2"/><circle cx="56.26" cy="68.25" r=".69" class="cls-2"/><path d="M60.5,68.92a.67.67,0,0,0,0-1.34.67.67,0,0,0,0,1.34Z" class="cls-2"/><path d="M64.73,68.89a.64.64,0,0,0,.65-.64.65.65,0,0,0-1.3,0A.64.64,0,0,0,64.73,68.89Z" class="cls-2"/><circle cx="68.97" cy="68.25" r=".61" class="cls-2"/><circle cx="73.2" cy="68.25" r=".59" class="cls-2"/><path d="M77.44,68.81a.56.56,0,0,0,.56-.56.57.57,0,0,0-.56-.57.58.58,0,0,0-.57.57A.57.57,0,0,0,77.44,68.81Z" class="cls-2"/><path d="M81.67,68.79a.54.54,0,1,0-.54-.54A.54.54,0,0,0,81.67,68.79Z" class="cls-2"/><circle cx="85.91" cy="68.25" r=".51" class="cls-2"/><circle cx="90.14" cy="68.25" r=".48" class="cls-2"/><path d="M94.38,68.71a.46.46,0,1,0,0-.92.46.46,0,0,0,0,.92Z" class="cls-2"/><circle cx="98.61" cy="68.25" r=".42" class="cls-2"/><path d="M102.85,68.65a.4.4,0,1,0-.4-.4A.4.4,0,0,0,102.85,68.65Z" class="cls-2"/><path d="M107.08,68.62a.37.37,0,0,0,.38-.37.38.38,0,1,0-.75,0A.37.37,0,0,0,107.08,68.62Z" class="cls-2"/><path d="M111.32,68.6a.35.35,0,0,0,.35-.35.35.35,0,0,0-.35-.35.34.34,0,0,0-.35.35A.35.35,0,0,0,111.32,68.6Z" class="cls-2"/><circle cx="115.55" cy="68.25" r=".32" class="cls-2"/><circle cx="119.79" cy="68.25" r=".29" class="cls-2"/><circle cx="124.02" cy="68.25" r=".27" class="cls-2"/><path d="M128.26,68.49a.25.25,0,1,0-.25-.24A.25.25,0,0,0,128.26,68.49Z" class="cls-2"/><circle cx="132.5" cy="68.25" r=".21" class="cls-2"/><circle cx="136.73" cy="68.25" r=".19" class="cls-2"/><circle cx="140.97" cy="68.25" r=".16" class="cls-2"/><path d="M145.2,68.39a.14.14,0,1,0-.14-.14A.14.14,0,0,0,145.2,68.39Z" class="cls-2"/><circle cx="149.44" cy="68.25" r=".11" class="cls-2"/><circle cx="153.67" cy="68.25" r=".08" class="cls-2"/><circle cx="157.91" cy="68.25" r=".06" class="cls-2"/><path d="M162.14,68.28s0,0,0,0a0,0,0,0,0,0,0s0,0,0,0A0,0,0,0,0,162.14,68.28Z" class="cls-2"/><path d="M39.32,73.26a.78.78,0,1,0-.78-.78A.78.78,0,0,0,39.32,73.26Z" class="cls-2"/><path d="M43.55,73.26a.78.78,0,1,0-.77-.78A.78.78,0,0,0,43.55,73.26Z" class="cls-2"/><path d="M47.79,73.24a.76.76,0,0,0,0-1.51.76.76,0,0,0,0,1.51Z" class="cls-2"/><circle cx="52.02" cy="72.48" r=".72" class="cls-2"/><circle cx="56.26" cy="72.48" r=".69" class="cls-2"/><path d="M60.5,73.15a.67.67,0,0,0,0-1.34.67.67,0,1,0,0,1.34Z" class="cls-2"/><path d="M64.73,73.13a.65.65,0,1,0-.65-.65A.65.65,0,0,0,64.73,73.13Z" class="cls-2"/><circle cx="68.97" cy="72.48" r=".61" class="cls-2"/><circle cx="73.2" cy="72.48" r=".59" class="cls-2"/><path d="M77.44,73.05a.57.57,0,0,0,.56-.57.56.56,0,0,0-.56-.56.57.57,0,0,0-.57.56A.58.58,0,0,0,77.44,73.05Z" class="cls-2"/><path d="M81.67,73a.54.54,0,0,0,.54-.54.54.54,0,0,0-1.08,0A.54.54,0,0,0,81.67,73Z" class="cls-2"/><circle cx="85.91" cy="72.48" r=".51" class="cls-2"/><circle cx="90.14" cy="72.48" r=".48" class="cls-2"/><path d="M94.38,72.94a.46.46,0,1,0,0-.91.46.46,0,1,0,0,.91Z" class="cls-2"/><circle cx="98.61" cy="72.48" r=".42" class="cls-2"/><path d="M102.85,72.88a.4.4,0,1,0-.4-.4A.4.4,0,0,0,102.85,72.88Z" class="cls-2"/><path d="M107.08,72.86a.38.38,0,1,0,0-.75.38.38,0,0,0,0,.75Z" class="cls-2"/><path d="M111.32,72.84a.36.36,0,0,0,0-.71.36.36,0,0,0,0,.71Z" class="cls-2"/><circle cx="115.55" cy="72.48" r=".32" class="cls-2"/><circle cx="119.79" cy="72.48" r=".29" class="cls-2"/><path d="M124,72.75a.27.27,0,1,0,0-.54.27.27,0,1,0,0,.54Z" class="cls-2"/><path d="M128.26,72.73a.25.25,0,1,0-.25-.25A.25.25,0,0,0,128.26,72.73Z" class="cls-2"/><circle cx="132.5" cy="72.48" r=".21" class="cls-2"/><circle cx="136.73" cy="72.48" r=".19" class="cls-2"/><path d="M141,72.65a.17.17,0,0,0,.16-.17.16.16,0,0,0-.16-.16.17.17,0,0,0-.17.16A.18.18,0,0,0,141,72.65Z" class="cls-2"/><path d="M145.2,72.62a.14.14,0,0,0,.14-.14.14.14,0,1,0-.28,0A.14.14,0,0,0,145.2,72.62Z" class="cls-2"/><circle cx="149.44" cy="72.48" r=".11" class="cls-2"/><circle cx="153.67" cy="72.48" r=".08" class="cls-2"/><path d="M157.91,72.54a.06.06,0,0,0,.06-.06.06.06,0,0,0-.06-.06.06.06,0,0,0-.06.06A.05.05,0,0,0,157.91,72.54Z" class="cls-2"/><path d="M162.14,72.52a0,0,0,0,0,0,0s0,0,0,0a0,0,0,0,0,0,0S162.12,72.52,162.14,72.52Z" class="cls-2"/><path d="M39.32,77.49a.76.76,0,0,0,.77-.77.77.77,0,0,0-.77-.78.78.78,0,0,0-.78.78A.77.77,0,0,0,39.32,77.49Z" class="cls-2"/><path d="M43.55,77.49a.77.77,0,0,0,.78-.77.78.78,0,1,0-1.55,0A.77.77,0,0,0,43.55,77.49Z" class="cls-2"/><path d="M47.79,77.47a.75.75,0,0,0,0-1.5.75.75,0,1,0,0,1.5Z" class="cls-2"/><circle cx="52.02" cy="76.72" r=".72" class="cls-2"/><path d="M56.26,77.41a.69.69,0,1,0-.69-.69A.69.69,0,0,0,56.26,77.41Z" class="cls-2"/><path d="M60.5,77.39a.67.67,0,0,0,0-1.34.67.67,0,0,0,0,1.34Z" class="cls-2"/><path d="M64.73,77.36a.64.64,0,0,0,.65-.64.65.65,0,0,0-1.3,0A.64.64,0,0,0,64.73,77.36Z" class="cls-2"/><circle cx="68.97" cy="76.72" r=".61" class="cls-2"/><path d="M73.2,77.31a.59.59,0,0,0,.59-.59.58.58,0,0,0-.59-.59.59.59,0,0,0-.59.59A.6.6,0,0,0,73.2,77.31Z" class="cls-2"/><path d="M77.44,77.28a.56.56,0,0,0,0-1.12.56.56,0,1,0,0,1.12Z" class="cls-2"/><path d="M81.67,77.26a.54.54,0,1,0-.54-.54A.54.54,0,0,0,81.67,77.26Z" class="cls-2"/><circle cx="85.91" cy="76.72" r=".5" class="cls-2"/><path d="M90.14,77.2a.48.48,0,0,0,.48-.48.47.47,0,0,0-.48-.48.48.48,0,0,0-.48.48A.49.49,0,0,0,90.14,77.2Z" class="cls-2"/><path d="M94.38,77.18a.46.46,0,1,0,0-.92.46.46,0,1,0,0,.92Z" class="cls-2"/><circle cx="98.61" cy="76.72" r=".42" class="cls-2"/><path d="M102.85,77.12a.4.4,0,1,0-.4-.4A.4.4,0,0,0,102.85,77.12Z" class="cls-2"/><path d="M107.08,77.09a.37.37,0,0,0,.38-.37.38.38,0,1,0-.75,0A.37.37,0,0,0,107.08,77.09Z" class="cls-2"/><path d="M111.32,77.07a.35.35,0,0,0,.35-.35.35.35,0,0,0-.35-.35.34.34,0,0,0-.35.35A.35.35,0,0,0,111.32,77.07Z" class="cls-2"/><circle cx="115.55" cy="76.72" r=".32" class="cls-2"/><circle cx="119.79" cy="76.72" r=".29" class="cls-2"/><path d="M124,77a.27.27,0,0,0,0-.54.27.27,0,1,0,0,.54Z" class="cls-2"/><path d="M128.26,77a.25.25,0,1,0-.25-.25A.25.25,0,0,0,128.26,77Z" class="cls-2"/><circle cx="132.5" cy="76.72" r=".21" class="cls-2"/><circle cx="136.73" cy="76.72" r=".19" class="cls-2"/><path d="M141,76.88a.16.16,0,0,0,.16-.16.17.17,0,0,0-.16-.17.18.18,0,0,0-.17.17A.17.17,0,0,0,141,76.88Z" class="cls-2"/><path d="M145.2,76.86a.14.14,0,1,0-.14-.14A.14.14,0,0,0,145.2,76.86Z" class="cls-2"/><circle cx="149.44" cy="76.72" r=".11" class="cls-2"/><circle cx="153.67" cy="76.72" r=".08" class="cls-2"/><path d="M157.91,76.78a.06.06,0,0,0,0-.12.06.06,0,0,0,0,.12Z" class="cls-2"/><path d="M162.14,76.75s0,0,0,0a0,0,0,0,0,0,0s0,0,0,0A0,0,0,0,0,162.14,76.75Z" class="cls-2"/><path d="M39.32,81.73a.78.78,0,1,0-.78-.78A.78.78,0,0,0,39.32,81.73Z" class="cls-2"/><path d="M43.55,81.73a.78.78,0,1,0-.77-.78A.78.78,0,0,0,43.55,81.73Z" class="cls-2"/><path d="M47.79,81.71a.76.76,0,0,0,0-1.51.76.76,0,0,0,0,1.51Z" class="cls-2"/><circle cx="52.02" cy="80.95" r=".72" class="cls-2"/><path d="M56.26,81.65a.7.7,0,1,0-.69-.7A.69.69,0,0,0,56.26,81.65Z" class="cls-2"/><path d="M60.5,81.62a.67.67,0,0,0,0-1.34.67.67,0,1,0,0,1.34Z" class="cls-2"/><path d="M64.73,81.6a.65.65,0,1,0-.65-.65A.65.65,0,0,0,64.73,81.6Z" class="cls-2"/><circle cx="68.97" cy="80.95" r=".61" class="cls-2"/><path d="M73.2,81.54a.59.59,0,1,0-.59-.59A.59.59,0,0,0,73.2,81.54Z" class="cls-2"/><path d="M77.44,81.52a.57.57,0,0,0,0-1.13.57.57,0,1,0,0,1.13Z" class="cls-2"/><path d="M81.67,81.49a.54.54,0,0,0,.54-.54.54.54,0,0,0-1.08,0A.54.54,0,0,0,81.67,81.49Z" class="cls-2"/><circle cx="85.91" cy="80.95" r=".5" class="cls-2"/><path d="M90.14,81.44a.49.49,0,1,0-.48-.49A.49.49,0,0,0,90.14,81.44Z" class="cls-2"/><path d="M94.38,81.41a.46.46,0,1,0,0-.91.46.46,0,1,0,0,.91Z" class="cls-2"/><circle cx="98.61" cy="80.95" r=".42" class="cls-2"/><path d="M102.85,81.35a.4.4,0,1,0-.4-.4A.4.4,0,0,0,102.85,81.35Z" class="cls-2"/><path d="M107.08,81.33a.38.38,0,1,0,0-.75.38.38,0,0,0,0,.75Z" class="cls-2"/><path d="M111.32,81.31a.36.36,0,0,0,0-.71.36.36,0,0,0,0,.71Z" class="cls-2"/><circle cx="115.55" cy="80.95" r=".32" class="cls-2"/><path d="M119.79,81.25a.3.3,0,1,0-.29-.3A.29.29,0,0,0,119.79,81.25Z" class="cls-2"/><path d="M124,81.22a.27.27,0,0,0,.27-.27.28.28,0,0,0-.27-.27.28.28,0,0,0-.27.27A.28.28,0,0,0,124,81.22Z" class="cls-2"/><path d="M128.26,81.2A.25.25,0,1,0,128,81,.25.25,0,0,0,128.26,81.2Z" class="cls-2"/><circle cx="132.5" cy="80.95" r=".21" class="cls-2"/><path d="M136.73,81.14a.19.19,0,1,0-.19-.19A.19.19,0,0,0,136.73,81.14Z" class="cls-2"/><path d="M141,81.12a.16.16,0,0,0,.16-.17.16.16,0,0,0-.16-.16.17.17,0,0,0-.17.16A.17.17,0,0,0,141,81.12Z" class="cls-2"/><path d="M145.2,81.1a.15.15,0,0,0,.14-.15.14.14,0,1,0-.28,0A.15.15,0,0,0,145.2,81.1Z" class="cls-2"/><circle cx="149.44" cy="80.95" r=".11" class="cls-2"/><path d="M153.67,81a.08.08,0,0,0,.08-.09.08.08,0,0,0-.08-.08.09.09,0,0,0-.08.08A.09.09,0,0,0,153.67,81Z" class="cls-2"/><path d="M157.91,81A.06.06,0,0,0,158,81a.06.06,0,0,0-.06,0s-.06,0-.06,0A.05.05,0,0,0,157.91,81Z" class="cls-2"/><path d="M162.14,81a0,0,0,0,0,0,0s0,0,0,0a0,0,0,0,0,0,0S162.12,81,162.14,81Z" class="cls-2"/><path d="M39.32,86a.76.76,0,0,0,.77-.77.77.77,0,0,0-.77-.78.78.78,0,0,0-.78.78A.77.77,0,0,0,39.32,86Z" class="cls-2"/><path d="M43.55,86a.77.77,0,0,0,.78-.77.78.78,0,1,0-1.55,0A.77.77,0,0,0,43.55,86Z" class="cls-2"/><path d="M47.79,85.94a.75.75,0,0,0,0-1.5.75.75,0,1,0,0,1.5Z" class="cls-2"/><path d="M52,85.91a.72.72,0,1,0-.71-.72A.72.72,0,0,0,52,85.91Z" class="cls-2"/><path d="M56.26,85.88a.69.69,0,1,0-.69-.69A.69.69,0,0,0,56.26,85.88Z" class="cls-2"/><path d="M60.5,85.86a.67.67,0,0,0,0-1.34.67.67,0,0,0,0,1.34Z" class="cls-2"/><path d="M64.73,85.84a.65.65,0,1,0-.65-.65A.65.65,0,0,0,64.73,85.84Z" class="cls-2"/><path d="M69,85.8a.61.61,0,0,0,0-1.22.61.61,0,0,0,0,1.22Z" class="cls-2"/><path d="M73.2,85.78a.59.59,0,0,0,0-1.18.59.59,0,1,0,0,1.18Z" class="cls-2"/><path d="M77.44,85.75a.56.56,0,0,0,0-1.12.56.56,0,1,0,0,1.12Z" class="cls-2"/><path d="M81.67,85.73a.54.54,0,1,0-.54-.54A.54.54,0,0,0,81.67,85.73Z" class="cls-2"/><path d="M85.91,85.69a.5.5,0,0,0,.5-.5.5.5,0,0,0-.5-.51.51.51,0,0,0-.51.51A.5.5,0,0,0,85.91,85.69Z" class="cls-2"/><path d="M90.14,85.67a.48.48,0,0,0,0-1,.48.48,0,0,0,0,1Z" class="cls-2"/><path d="M94.38,85.65a.46.46,0,1,0,0-.92.46.46,0,1,0,0,.92Z" class="cls-2"/><path d="M98.61,85.61a.42.42,0,1,0-.42-.42A.42.42,0,0,0,98.61,85.61Z" class="cls-2"/><path d="M102.85,85.59a.4.4,0,1,0-.4-.4A.4.4,0,0,0,102.85,85.59Z" class="cls-2"/><path d="M107.08,85.57a.38.38,0,1,0-.37-.38A.38.38,0,0,0,107.08,85.57Z" class="cls-2"/><path d="M111.32,85.54a.35.35,0,0,0,.35-.35.35.35,0,0,0-.35-.35.34.34,0,0,0-.35.35A.35.35,0,0,0,111.32,85.54Z" class="cls-2"/><path d="M115.55,85.51a.32.32,0,0,0,.32-.32.32.32,0,1,0-.63,0A.32.32,0,0,0,115.55,85.51Z" class="cls-2"/><path d="M119.79,85.48a.29.29,0,1,0-.29-.29A.29.29,0,0,0,119.79,85.48Z" class="cls-2"/><path d="M124,85.46a.27.27,0,0,0,0-.54.27.27,0,1,0,0,.54Z" class="cls-2"/><path d="M128.26,85.44a.25.25,0,1,0-.25-.25A.25.25,0,0,0,128.26,85.44Z" class="cls-2"/><path d="M132.5,85.4a.21.21,0,1,0,0-.42.21.21,0,1,0,0,.42Z" class="cls-2"/><path d="M136.73,85.38a.19.19,0,1,0-.19-.19A.2.2,0,0,0,136.73,85.38Z" class="cls-2"/><path d="M141,85.35a.16.16,0,1,0,0-.32.16.16,0,1,0,0,.32Z" class="cls-2"/><path d="M145.2,85.33a.14.14,0,1,0-.14-.14A.14.14,0,0,0,145.2,85.33Z" class="cls-2"/><path d="M149.44,85.3a.11.11,0,0,0,0-.22.11.11,0,0,0,0,.22Z" class="cls-2"/><path d="M153.67,85.27a.08.08,0,0,0,.08-.08.07.07,0,0,0-.08-.08.08.08,0,0,0-.08.08A.09.09,0,0,0,153.67,85.27Z" class="cls-2"/><path d="M157.91,85.25a.06.06,0,0,0,0-.12.06.06,0,0,0,0,.12Z" class="cls-2"/><path d="M162.14,85.22s0,0,0,0a0,0,0,0,0,0,0s0,0,0,0A0,0,0,0,0,162.14,85.22Z" class="cls-2"/><path d="M39.32,90.2a.78.78,0,1,0-.78-.78A.78.78,0,0,0,39.32,90.2Z" class="cls-2"/><path d="M43.55,90.2a.78.78,0,1,0-.77-.78A.78.78,0,0,0,43.55,90.2Z" class="cls-2"/><path d="M47.79,90.18a.76.76,0,0,0,0-1.51.76.76,0,0,0,0,1.51Z" class="cls-2"/><circle cx="52.02" cy="89.42" r=".72" class="cls-2"/><path d="M56.26,90.12a.7.7,0,1,0-.69-.7A.69.69,0,0,0,56.26,90.12Z" class="cls-2"/><path d="M60.5,90.09a.67.67,0,1,0-.67-.67A.67.67,0,0,0,60.5,90.09Z" class="cls-2"/><path d="M64.73,90.07a.65.65,0,1,0-.65-.65A.65.65,0,0,0,64.73,90.07Z" class="cls-2"/><path d="M69,90a.62.62,0,0,0,0-1.23A.62.62,0,0,0,69,90Z" class="cls-2"/><path d="M73.2,90a.59.59,0,1,0-.59-.59A.59.59,0,0,0,73.2,90Z" class="cls-2"/><path d="M77.44,90a.57.57,0,0,0,0-1.13.57.57,0,1,0,0,1.13Z" class="cls-2"/><path d="M81.67,90a.55.55,0,1,0-.54-.55A.55.55,0,0,0,81.67,90Z" class="cls-2"/><path d="M85.91,89.93a.51.51,0,0,0,0-1,.51.51,0,1,0,0,1Z" class="cls-2"/><path d="M90.14,89.91a.49.49,0,1,0-.48-.49A.49.49,0,0,0,90.14,89.91Z" class="cls-2"/><path d="M94.38,89.88a.46.46,0,1,0,0-.91.46.46,0,1,0,0,.91Z" class="cls-2"/><circle cx="98.61" cy="89.42" r=".42" class="cls-2"/><path d="M102.85,89.82a.4.4,0,1,0-.4-.4A.39.39,0,0,0,102.85,89.82Z" class="cls-2"/><path d="M107.08,89.8a.38.38,0,1,0,0-.75.38.38,0,0,0,0,.75Z" class="cls-2"/><path d="M111.32,89.78a.36.36,0,0,0,0-.71.36.36,0,0,0,0,.71Z" class="cls-2"/><circle cx="115.55" cy="89.42" r=".32" class="cls-2"/><path d="M119.79,89.72a.3.3,0,1,0-.29-.3A.29.29,0,0,0,119.79,89.72Z" class="cls-2"/><path d="M124,89.69a.27.27,0,0,0,.27-.27.28.28,0,0,0-.27-.27.28.28,0,0,0-.27.27A.28.28,0,0,0,124,89.69Z" class="cls-2"/><path d="M128.26,89.67a.25.25,0,1,0-.25-.25A.25.25,0,0,0,128.26,89.67Z" class="cls-2"/><circle cx="132.5" cy="89.42" r=".21" class="cls-2"/><path d="M136.73,89.61a.19.19,0,1,0-.19-.19A.19.19,0,0,0,136.73,89.61Z" class="cls-2"/><path d="M141,89.59a.16.16,0,0,0,.16-.17.16.16,0,0,0-.16-.16.17.17,0,0,0-.17.16A.17.17,0,0,0,141,89.59Z" class="cls-2"/><path d="M145.2,89.57a.15.15,0,0,0,.14-.15.14.14,0,1,0-.28,0A.15.15,0,0,0,145.2,89.57Z" class="cls-2"/><circle cx="149.44" cy="89.42" r=".11" class="cls-2"/><path d="M153.67,89.51a.08.08,0,0,0,.08-.09.08.08,0,0,0-.08-.08.09.09,0,0,0-.08.08A.09.09,0,0,0,153.67,89.51Z" class="cls-2"/><path d="M157.91,89.48a.06.06,0,0,0,.06-.06.06.06,0,0,0-.06,0s-.06,0-.06,0A.05.05,0,0,0,157.91,89.48Z" class="cls-2"/><path d="M162.14,89.46a0,0,0,0,0,0,0,0,0,0,0,0,0,0,0,0,0,0,0,0,0S162.12,89.46,162.14,89.46Z" class="cls-2"/><path d="M39.32,94.44a.78.78,0,0,0,0-1.56.78.78,0,1,0,0,1.56Z" class="cls-2"/><path d="M43.55,94.44a.78.78,0,1,0-.77-.78A.78.78,0,0,0,43.55,94.44Z" class="cls-2"/><path d="M47.79,94.41a.75.75,0,1,0-.75-.75A.75.75,0,0,0,47.79,94.41Z" class="cls-2"/><circle cx="52.02" cy="93.66" r=".72" class="cls-2"/><path d="M56.26,94.35a.69.69,0,1,0-.69-.69A.69.69,0,0,0,56.26,94.35Z" class="cls-2"/><path d="M60.5,94.33a.67.67,0,0,0,0-1.34.67.67,0,0,0,0,1.34Z" class="cls-2"/><path d="M64.73,94.31a.65.65,0,1,0-.65-.65A.65.65,0,0,0,64.73,94.31Z" class="cls-2"/><circle cx="68.97" cy="93.66" r=".61" class="cls-2"/><path d="M73.2,94.25a.59.59,0,1,0,0-1.18.59.59,0,0,0,0,1.18Z" class="cls-2"/><path d="M77.44,94.22a.56.56,0,0,0,0-1.12.56.56,0,1,0,0,1.12Z" class="cls-2"/><path d="M81.67,94.2a.54.54,0,1,0-.54-.54A.54.54,0,0,0,81.67,94.2Z" class="cls-2"/><circle cx="85.91" cy="93.66" r=".5" class="cls-2"/><path d="M90.14,94.14a.48.48,0,1,0,0-1,.48.48,0,0,0,0,1Z" class="cls-2"/><path d="M94.38,94.12a.46.46,0,1,0,0-.92.46.46,0,1,0,0,.92Z" class="cls-2"/><circle cx="98.61" cy="93.66" r=".42" class="cls-2"/><path d="M102.85,94.06a.4.4,0,1,0-.4-.4A.4.4,0,0,0,102.85,94.06Z" class="cls-2"/><path d="M107.08,94a.38.38,0,1,0-.37-.38A.38.38,0,0,0,107.08,94Z" class="cls-2"/><path d="M111.32,94a.35.35,0,1,0,0-.7.35.35,0,1,0,0,.7Z" class="cls-2"/><circle cx="115.55" cy="93.66" r=".32" class="cls-2"/><circle cx="119.79" cy="93.66" r=".29" class="cls-2"/><path d="M124,93.93a.27.27,0,0,0,0-.54.27.27,0,0,0,0,.54Z" class="cls-2"/><path d="M128.26,93.91a.25.25,0,1,0-.25-.25A.25.25,0,0,0,128.26,93.91Z" class="cls-2"/><circle cx="132.5" cy="93.66" r=".21" class="cls-2"/><circle cx="136.73" cy="93.66" r=".19" class="cls-2"/><path d="M141,93.82a.16.16,0,0,0,0-.32.16.16,0,1,0,0,.32Z" class="cls-2"/><path d="M145.2,93.8a.14.14,0,1,0-.14-.14A.14.14,0,0,0,145.2,93.8Z" class="cls-2"/><circle cx="149.44" cy="93.66" r=".11" class="cls-2"/><circle cx="153.67" cy="93.66" r=".08" class="cls-2"/><path d="M157.91,93.72a.06.06,0,0,0,0-.12.06.06,0,0,0,0,.12Z" class="cls-2"/><path d="M162.14,93.7a0,0,0,1,0,0-.08s0,0,0,0S162.12,93.7,162.14,93.7Z" class="cls-2"/><path d="M39.32,98.67a.78.78,0,0,0,0-1.55.78.78,0,1,0,0,1.55Z" class="cls-2"/><path d="M43.55,98.67a.78.78,0,1,0-.77-.77A.78.78,0,0,0,43.55,98.67Z" class="cls-2"/><path d="M47.79,98.65A.76.76,0,1,0,47,97.9.76.76,0,0,0,47.79,98.65Z" class="cls-2"/><circle cx="52.02" cy="97.9" r=".72" class="cls-2"/><circle cx="56.26" cy="97.9" r=".69" class="cls-2"/><path d="M60.5,98.56a.65.65,0,0,0,.66-.66.66.66,0,0,0-.66-.67.67.67,0,0,0-.67.67A.66.66,0,0,0,60.5,98.56Z" class="cls-2"/><path d="M64.73,98.54a.65.65,0,1,0-.65-.64A.65.65,0,0,0,64.73,98.54Z" class="cls-2"/><circle cx="68.97" cy="97.9" r=".61" class="cls-2"/><circle cx="73.2" cy="97.9" r=".59" class="cls-2"/><path d="M77.44,98.46a.57.57,0,0,0,0-1.13.57.57,0,1,0,0,1.13Z" class="cls-2"/><path d="M81.67,98.44a.54.54,0,0,0,.54-.54.54.54,0,0,0-1.08,0A.54.54,0,0,0,81.67,98.44Z" class="cls-2"/><circle cx="85.91" cy="97.9" r=".5" class="cls-2"/><path d="M90.14,98.38a.49.49,0,0,0,0-1,.49.49,0,0,0,0,1Z" class="cls-2"/><path d="M94.38,98.35a.46.46,0,1,0-.46-.45A.45.45,0,0,0,94.38,98.35Z" class="cls-2"/><circle cx="98.61" cy="97.9" r=".42" class="cls-2"/><path d="M102.85,98.29a.4.4,0,1,0-.4-.39A.39.39,0,0,0,102.85,98.29Z" class="cls-2"/><path d="M107.08,98.27a.38.38,0,1,0-.37-.37A.38.38,0,0,0,107.08,98.27Z" class="cls-2"/><path d="M111.32,98.25a.36.36,0,0,0,0-.71.36.36,0,0,0,0,.71Z" class="cls-2"/><circle cx="115.55" cy="97.9" r=".32" class="cls-2"/><circle cx="119.79" cy="97.9" r=".29" class="cls-2"/><path d="M124,98.17a.28.28,0,0,0,.27-.27.27.27,0,0,0-.27-.27.28.28,0,0,0-.27.27A.28.28,0,0,0,124,98.17Z" class="cls-2"/><path d="M128.26,98.14a.25.25,0,1,0-.25-.24A.25.25,0,0,0,128.26,98.14Z" class="cls-2"/><circle cx="132.5" cy="97.9" r=".21" class="cls-2"/><circle cx="136.73" cy="97.9" r=".19" class="cls-2"/><path d="M141,98.06a.16.16,0,0,0,.16-.16.16.16,0,0,0-.16-.17.17.17,0,0,0-.17.17A.17.17,0,0,0,141,98.06Z" class="cls-2"/><path d="M145.2,98a.14.14,0,0,0,.14-.14.14.14,0,1,0-.28,0A.14.14,0,0,0,145.2,98Z" class="cls-2"/><circle cx="149.44" cy="97.9" r=".11" class="cls-2"/><circle cx="153.67" cy="97.9" r=".08" class="cls-2"/><path d="M157.91,98a.06.06,0,0,0,.06,0,.06.06,0,0,0-.06-.06.05.05,0,0,0-.06.06S157.87,98,157.91,98Z" class="cls-2"/><path d="M162.14,97.93a0,0,0,0,0,0,0,0,0,0,0,0,0,0s0,0,0,0A0,0,0,0,0,162.14,97.93Z" class="cls-2"/><path d="M39.32,102.91a.77.77,0,0,0,.77-.78.76.76,0,0,0-.77-.77.77.77,0,0,0-.78.77A.78.78,0,0,0,39.32,102.91Z" class="cls-2"/><path d="M43.55,102.91a.78.78,0,0,0,.78-.78.78.78,0,1,0-.78.78Z" class="cls-2"/><path d="M47.79,102.88a.75.75,0,1,0-.75-.75A.75.75,0,0,0,47.79,102.88Z" class="cls-2"/><circle cx="52.02" cy="102.13" r=".72" class="cls-2"/><circle cx="56.26" cy="102.13" r=".69" class="cls-2"/><path d="M60.5,102.8a.67.67,0,0,0,0-1.34.67.67,0,0,0,0,1.34Z" class="cls-2"/><path d="M64.73,102.78a.65.65,0,1,0-.65-.65A.65.65,0,0,0,64.73,102.78Z" class="cls-2"/><circle cx="68.97" cy="102.13" r=".61" class="cls-2"/><circle cx="73.2" cy="102.13" r=".59" class="cls-2"/><path d="M77.44,102.69a.56.56,0,0,0,0-1.12.56.56,0,1,0,0,1.12Z" class="cls-2"/><path d="M81.67,102.67a.54.54,0,1,0-.54-.54A.54.54,0,0,0,81.67,102.67Z" class="cls-2"/><circle cx="85.91" cy="102.13" r=".5" class="cls-2"/><circle cx="90.14" cy="102.13" r=".48" class="cls-2"/><path d="M94.38,102.59a.46.46,0,1,0,0-.92.46.46,0,1,0,0,.92Z" class="cls-2"/><circle cx="98.61" cy="102.13" r=".42" class="cls-2"/><path d="M102.85,102.53a.4.4,0,1,0-.4-.4A.4.4,0,0,0,102.85,102.53Z" class="cls-2"/><path d="M107.08,102.51a.38.38,0,1,0-.37-.38A.38.38,0,0,0,107.08,102.51Z" class="cls-2"/><path d="M111.32,102.48a.35.35,0,0,0,.35-.35.35.35,0,0,0-.35-.35.35.35,0,0,0-.35.35A.34.34,0,0,0,111.32,102.48Z" class="cls-2"/><circle cx="115.55" cy="102.13" r=".32" class="cls-2"/><circle cx="119.79" cy="102.13" r=".29" class="cls-2"/><circle cx="124.02" cy="102.13" r=".27" class="cls-2"/><path d="M128.26,102.38a.25.25,0,1,0-.25-.25A.25.25,0,0,0,128.26,102.38Z" class="cls-2"/><circle cx="132.5" cy="102.13" r=".21" class="cls-2"/><circle cx="136.73" cy="102.13" r=".19" class="cls-2"/><circle cx="140.97" cy="102.13" r=".16" class="cls-2"/><path d="M145.2,102.27a.14.14,0,1,0-.14-.14A.14.14,0,0,0,145.2,102.27Z" class="cls-2"/><circle cx="149.44" cy="102.13" r=".11" class="cls-2"/><circle cx="153.67" cy="102.13" r=".08" class="cls-2"/><circle cx="157.91" cy="102.13" r=".06" class="cls-2"/><path d="M162.14,102.17a0,0,0,0,0,0,0s0,0,0,0a0,0,0,0,0,0,0S162.12,102.17,162.14,102.17Z" class="cls-2"/><path d="M39.32,107.14a.78.78,0,0,0,0-1.55.78.78,0,1,0,0,1.55Z" class="cls-2"/><path d="M43.55,107.14a.78.78,0,1,0-.77-.77A.78.78,0,0,0,43.55,107.14Z" class="cls-2"/><path d="M47.79,107.12a.76.76,0,1,0-.75-.75A.76.76,0,0,0,47.79,107.12Z" class="cls-2"/><circle cx="52.02" cy="106.37" r=".72" class="cls-2"/><circle cx="56.26" cy="106.37" r=".69" class="cls-2"/><circle cx="60.5" cy="106.37" r=".67" class="cls-2"/><path d="M64.73,107a.65.65,0,1,0-.65-.64A.65.65,0,0,0,64.73,107Z" class="cls-2"/><circle cx="68.97" cy="106.37" r=".61" class="cls-2"/><circle cx="73.2" cy="106.37" r=".59" class="cls-2"/><circle cx="77.44" cy="106.37" r=".56" class="cls-2"/><path d="M81.67,106.91a.54.54,0,0,0,.54-.54.54.54,0,0,0-1.08,0A.54.54,0,0,0,81.67,106.91Z" class="cls-2"/><circle cx="85.91" cy="106.37" r=".51" class="cls-2"/><circle cx="90.14" cy="106.37" r=".48" class="cls-2"/><path d="M94.38,106.82a.46.46,0,1,0-.46-.45A.45.45,0,0,0,94.38,106.82Z" class="cls-2"/><circle cx="98.61" cy="106.37" r=".42" class="cls-2"/><path d="M102.85,106.77a.4.4,0,1,0-.4-.4A.4.4,0,0,0,102.85,106.77Z" class="cls-2"/><path d="M107.08,106.74a.38.38,0,1,0-.37-.37A.38.38,0,0,0,107.08,106.74Z" class="cls-2"/><path d="M111.32,106.72a.36.36,0,0,0,0-.71.36.36,0,0,0,0,.71Z" class="cls-2"/><circle cx="115.55" cy="106.37" r=".32" class="cls-2"/><circle cx="119.79" cy="106.37" r=".29" class="cls-2"/><circle cx="124.02" cy="106.37" r=".27" class="cls-2"/><path d="M128.26,106.61a.25.25,0,1,0-.25-.24A.25.25,0,0,0,128.26,106.61Z" class="cls-2"/><circle cx="132.5" cy="106.37" r=".21" class="cls-2"/><circle cx="136.73" cy="106.37" r=".19" class="cls-2"/><circle cx="140.97" cy="106.37" r=".16" class="cls-2"/><path d="M145.2,106.51a.14.14,0,0,0,.14-.14.14.14,0,1,0-.28,0A.14.14,0,0,0,145.2,106.51Z" class="cls-2"/><circle cx="149.44" cy="106.37" r=".11" class="cls-2"/><circle cx="153.67" cy="106.37" r=".08" class="cls-2"/><circle cx="157.91" cy="106.37" r=".06" class="cls-2"/><path d="M162.14,106.4s0,0,0,0a0,0,0,0,0,0,0s0,0,0,0A0,0,0,0,0,162.14,106.4Z" class="cls-2"/><path d="M39.32,111.38a.77.77,0,0,0,.77-.78.76.76,0,0,0-.77-.77.77.77,0,0,0-.78.77A.78.78,0,0,0,39.32,111.38Z" class="cls-2"/><path d="M43.55,111.38a.78.78,0,0,0,.78-.78.78.78,0,1,0-.78.78Z" class="cls-2"/><path d="M47.79,111.35a.75.75,0,1,0-.75-.75A.75.75,0,0,0,47.79,111.35Z" class="cls-2"/><circle cx="52.02" cy="110.6" r=".72" class="cls-2"/><circle cx="56.26" cy="110.6" r=".69" class="cls-2"/><circle cx="60.5" cy="110.6" r=".67" class="cls-2"/><path d="M64.73,111.25a.65.65,0,0,0,.65-.65.65.65,0,0,0-1.3,0A.65.65,0,0,0,64.73,111.25Z" class="cls-2"/><circle cx="68.97" cy="110.6" r=".61" class="cls-2"/><circle cx="73.2" cy="110.6" r=".59" class="cls-2"/><circle cx="77.44" cy="110.6" r=".56" class="cls-2"/><path d="M81.67,111.14a.54.54,0,1,0-.54-.54A.54.54,0,0,0,81.67,111.14Z" class="cls-2"/><circle cx="85.91" cy="110.6" r=".51" class="cls-2"/><circle cx="90.14" cy="110.6" r=".48" class="cls-2"/><path d="M94.38,111.06a.46.46,0,1,0,0-.92.46.46,0,1,0,0,.92Z" class="cls-2"/><circle cx="98.61" cy="110.6" r=".42" class="cls-2"/><path d="M102.85,111a.4.4,0,1,0-.4-.4A.4.4,0,0,0,102.85,111Z" class="cls-2"/><path d="M107.08,111a.38.38,0,0,0,.38-.38.38.38,0,0,0-.75,0A.38.38,0,0,0,107.08,111Z" class="cls-2"/><path d="M111.32,111a.35.35,0,0,0,.35-.35.35.35,0,0,0-.35-.35.35.35,0,0,0-.35.35A.34.34,0,0,0,111.32,111Z" class="cls-2"/><circle cx="115.55" cy="110.6" r=".32" class="cls-2"/><circle cx="119.79" cy="110.6" r=".29" class="cls-2"/><circle cx="124.02" cy="110.6" r=".27" class="cls-2"/><circle cx="128.26" cy="110.6" r=".25" class="cls-2"/><circle cx="132.5" cy="110.6" r=".21" class="cls-2"/><circle cx="136.73" cy="110.6" r=".19" class="cls-2"/><circle cx="140.97" cy="110.6" r=".16" class="cls-2"/><circle cx="145.2" cy="110.6" r=".14" class="cls-2"/><circle cx="149.44" cy="110.6" r=".11" class="cls-2"/><circle cx="153.67" cy="110.6" r=".08" class="cls-2"/><circle cx="157.91" cy="110.6" r=".06" class="cls-2"/><path d="M162.14,110.64a0,0,0,0,0,0,0s0,0,0,0a0,0,0,0,0,0,0S162.12,110.64,162.14,110.64Z" class="cls-2"/><path d="M39.32,115.61a.78.78,0,0,0,0-1.55.78.78,0,1,0,0,1.55Z" class="cls-2"/><path d="M43.55,115.61a.78.78,0,1,0-.77-.77A.78.78,0,0,0,43.55,115.61Z" class="cls-2"/><path d="M47.79,115.59a.76.76,0,1,0-.75-.75A.76.76,0,0,0,47.79,115.59Z" class="cls-2"/><circle cx="52.02" cy="114.84" r=".72" class="cls-2"/><circle cx="56.26" cy="114.84" r=".69" class="cls-2"/><circle cx="60.5" cy="114.84" r=".67" class="cls-2"/><circle cx="64.73" cy="114.84" r=".65" class="cls-2"/><circle cx="68.97" cy="114.84" r=".61" class="cls-2"/><circle cx="73.2" cy="114.84" r=".59" class="cls-2"/><circle cx="77.44" cy="114.84" r=".56" class="cls-2"/><path d="M81.67,115.38a.54.54,0,0,0,.54-.54.54.54,0,0,0-1.08,0A.54.54,0,0,0,81.67,115.38Z" class="cls-2"/><circle cx="85.91" cy="114.84" r=".51" class="cls-2"/><circle cx="90.14" cy="114.84" r=".48" class="cls-2"/><path d="M94.38,115.29a.46.46,0,1,0-.46-.45A.45.45,0,0,0,94.38,115.29Z" class="cls-2"/><circle cx="98.61" cy="114.84" r=".42" class="cls-2"/><path d="M102.85,115.24a.4.4,0,1,0-.4-.4A.4.4,0,0,0,102.85,115.24Z" class="cls-2"/><path d="M107.08,115.21a.38.38,0,1,0-.37-.37A.38.38,0,0,0,107.08,115.21Z" class="cls-2"/><path d="M111.32,115.19a.36.36,0,0,0,0-.71.36.36,0,0,0,0,.71Z" class="cls-2"/><circle cx="115.55" cy="114.84" r=".32" class="cls-2"/><circle cx="119.79" cy="114.84" r=".29" class="cls-2"/><circle cx="124.02" cy="114.84" r=".27" class="cls-2"/><circle cx="128.26" cy="114.84" r=".25" class="cls-2"/><circle cx="132.5" cy="114.84" r=".21" class="cls-2"/><circle cx="136.73" cy="114.84" r=".19" class="cls-2"/><circle cx="140.97" cy="114.84" r=".16" class="cls-2"/><circle cx="145.2" cy="114.84" r=".14" class="cls-2"/><circle cx="149.44" cy="114.84" r=".11" class="cls-2"/><circle cx="153.67" cy="114.84" r=".08" class="cls-2"/><circle cx="157.91" cy="114.84" r=".06" class="cls-2"/><path d="M162.14,114.87s0,0,0,0a0,0,0,0,0,0,0s0,0,0,0A0,0,0,0,0,162.14,114.87Z" class="cls-2"/><path d="M39.32,119.85a.77.77,0,0,0,.77-.78.76.76,0,0,0-.77-.77.77.77,0,0,0-.78.77A.78.78,0,0,0,39.32,119.85Z" class="cls-2"/><path d="M43.55,119.85a.78.78,0,0,0,.78-.78.78.78,0,1,0-.78.78Z" class="cls-2"/><path d="M47.79,119.82a.75.75,0,1,0-.75-.75A.75.75,0,0,0,47.79,119.82Z" class="cls-2"/><circle cx="52.02" cy="119.07" r=".72" class="cls-2"/><circle cx="56.26" cy="119.07" r=".69" class="cls-2"/><circle cx="60.5" cy="119.07" r=".67" class="cls-2"/><circle cx="64.73" cy="119.07" r=".65" class="cls-2"/><circle cx="68.97" cy="119.07" r=".61" class="cls-2"/><circle cx="73.2" cy="119.07" r=".59" class="cls-2"/><circle cx="77.44" cy="119.07" r=".56" class="cls-2"/><path d="M81.67,119.61a.54.54,0,1,0-.54-.54A.54.54,0,0,0,81.67,119.61Z" class="cls-2"/><circle cx="85.91" cy="119.07" r=".5" class="cls-2"/><circle cx="90.14" cy="119.07" r=".48" class="cls-2"/><path d="M94.38,119.53a.46.46,0,1,0,0-.92.46.46,0,1,0,0,.92Z" class="cls-2"/><circle cx="98.61" cy="119.07" r=".42" class="cls-2"/><path d="M102.85,119.47a.4.4,0,1,0-.4-.4A.4.4,0,0,0,102.85,119.47Z" class="cls-2"/><path d="M107.08,119.45a.38.38,0,0,0,.38-.38.38.38,0,0,0-.75,0A.38.38,0,0,0,107.08,119.45Z" class="cls-2"/><path d="M111.32,119.42a.35.35,0,0,0,.35-.35.35.35,0,0,0-.35-.35.35.35,0,0,0-.35.35A.34.34,0,0,0,111.32,119.42Z" class="cls-2"/><circle cx="115.55" cy="119.07" r=".32" class="cls-2"/><circle cx="119.79" cy="119.07" r=".29" class="cls-2"/><circle cx="124.02" cy="119.07" r=".27" class="cls-2"/><circle cx="128.26" cy="119.07" r=".25" class="cls-2"/><circle cx="132.5" cy="119.07" r=".21" class="cls-2"/><circle cx="136.73" cy="119.07" r=".19" class="cls-2"/><circle cx="140.97" cy="119.07" r=".16" class="cls-2"/><circle cx="145.2" cy="119.07" r=".14" class="cls-2"/><circle cx="149.44" cy="119.07" r=".11" class="cls-2"/><circle cx="153.67" cy="119.07" r=".08" class="cls-2"/><circle cx="157.91" cy="119.07" r=".06" class="cls-2"/><path d="M162.14,119.11a0,0,0,0,0,0,0s0,0,0,0a0,0,0,0,0,0,0S162.12,119.11,162.14,119.11Z" class="cls-2"/><path d="M39.32,124.08a.76.76,0,0,0,.77-.77.77.77,0,0,0-.77-.78.78.78,0,0,0-.78.78A.77.77,0,0,0,39.32,124.08Z" class="cls-2"/><path d="M43.55,124.08a.77.77,0,0,0,.78-.77.78.78,0,1,0-1.55,0A.77.77,0,0,0,43.55,124.08Z" class="cls-2"/><path d="M47.79,124.06a.75.75,0,0,0,0-1.5.75.75,0,1,0,0,1.5Z" class="cls-2"/><circle cx="52.02" cy="123.31" r=".72" class="cls-2"/><circle cx="56.26" cy="123.31" r=".69" class="cls-2"/><circle cx="60.5" cy="123.31" r=".67" class="cls-2"/><circle cx="64.73" cy="123.31" r=".65" class="cls-2"/><circle cx="68.97" cy="123.31" r=".61" class="cls-2"/><circle cx="73.2" cy="123.31" r=".59" class="cls-2"/><circle cx="77.44" cy="123.31" r=".56" class="cls-2"/><path d="M81.67,123.85a.54.54,0,1,0-.54-.54A.54.54,0,0,0,81.67,123.85Z" class="cls-2"/><circle cx="85.91" cy="123.31" r=".5" class="cls-2"/><circle cx="90.14" cy="123.31" r=".48" class="cls-2"/><path d="M94.38,123.77a.47.47,0,0,0,.46-.46.46.46,0,0,0-.46-.46.45.45,0,0,0-.46.46A.46.46,0,0,0,94.38,123.77Z" class="cls-2"/><circle cx="98.61" cy="123.31" r=".42" class="cls-2"/><path d="M102.85,123.71a.4.4,0,1,0-.4-.4A.4.4,0,0,0,102.85,123.71Z" class="cls-2"/><path d="M107.08,123.68a.38.38,0,1,0-.37-.37A.38.38,0,0,0,107.08,123.68Z" class="cls-2"/><path d="M111.32,123.66a.36.36,0,0,0,0-.71.36.36,0,0,0,0,.71Z" class="cls-2"/><circle cx="115.55" cy="123.31" r=".32" class="cls-2"/><circle cx="119.79" cy="123.31" r=".29" class="cls-2"/><circle cx="124.02" cy="123.31" r=".27" class="cls-2"/><circle cx="128.26" cy="123.31" r=".25" class="cls-2"/><circle cx="132.5" cy="123.31" r=".21" class="cls-2"/><circle cx="136.73" cy="123.31" r=".19" class="cls-2"/><circle cx="140.97" cy="123.31" r=".16" class="cls-2"/><circle cx="145.2" cy="123.31" r=".14" class="cls-2"/><circle cx="149.44" cy="123.31" r=".11" class="cls-2"/><circle cx="153.67" cy="123.31" r=".08" class="cls-2"/><circle cx="157.91" cy="123.31" r=".06" class="cls-2"/><path d="M162.14,123.34s0,0,0,0a0,0,0,0,0,0,0s0,0,0,0A0,0,0,0,0,162.14,123.34Z" class="cls-2"/><path d="M0,190.17V116c1.44.06,2.88.19,4.33.37,13.43,1.67,26,8.27,39.05,5.9,9.49-1.73,14.48-7.45,19-12.5S73.69,99.27,83.64,99c10.29-.32,18,5,26.93,7.93,13.08,4.29,30.14,3.34,43.21-1A64.55,64.55,0,0,0,183,86.71c4.64-5.39,8.23-11.26,15.47-15.62s19.71-6.75,28.45-3.4c10.23,3.94,9.63,12.89,17.84,18.13,6,3.8,15.91,5,24.7,4A69.11,69.11,0,0,0,288,84.9V190.17Z" class="cls-3"/><path d="M71.43,173l-.14,0a.38.38,0,0,1-.23-.35V47.36a.38.38,0,0,1,.37-.38H231.87a.38.38,0,0,1,.38.38V155.85a.38.38,0,0,1-.38.37H88.39L71.7,172.92A.39.39,0,0,1,71.43,173Zm.38-125.3v124L88,155.58a.39.39,0,0,1,.27-.11H231.5V47.73Z" class="cls-4"/><polygon points="224.22 41.41 63.78 41.41 63.78 139.49 63.78 149.89 63.78 166.7 80.58 149.89 224.22 149.89 224.22 41.41" class="cls-2"/><g class="cls-5"><path d="M97.7,56.46a11.21,11.21,0,0,1,8.41-3.15,59.46,59.46,0,0,1,11,1l-1.18,9.35a43.2,43.2,0,0,0-8-1.35c-1.85,0-2.77.74-2.77,2.22,0,.59.44,1.15,1.33,1.7A33.68,33.68,0,0,0,109.62,68a31.77,31.77,0,0,1,3.78,2.17,10.28,10.28,0,0,1,3.22,3.59A10.76,10.76,0,0,1,118,79.14c0,3.7-1,6.56-3,8.59s-4.85,3-8.53,3a34.84,34.84,0,0,1-10.77-1.69l.65-8.71a38.16,38.16,0,0,0,8.79,1.81c1.65,0,2.48-.72,2.48-2.16a2.56,2.56,0,0,0-1.33-2A23.11,23.11,0,0,0,103,76.1a41.17,41.17,0,0,1-3.8-2.17A9.89,9.89,0,0,1,96,70.37a11.12,11.12,0,0,1-1.33-5.55A11.51,11.51,0,0,1,97.7,56.46Z" class="cls-3"/><path d="M142.79,62.72H136V90.18H125.86V62.72H118.6l.59-8.83h24.19Z" class="cls-3"/><path d="M172,90.18h-9.86L161,84.45h-7L153,90.18h-9.39l6.73-36.29h15Zm-12.1-12.56-2.07-13h-.41l-2.06,13Z" class="cls-3"/><path d="M199.87,53.89,191.13,79V90.18h-10V79l-8.62-25.07h11.1l2.65,11.81h.47l2.54-11.81Z" class="cls-3"/></g><g class="cls-6"><path d="M108.47,99.39H103v21.87H95V99.39H89.2l.47-7h19.27Z" class="cls-3"/><path d="M119.61,113.91a2.54,2.54,0,0,0,2,.7,2.34,2.34,0,0,0,1.92-.68,3.57,3.57,0,0,0,.54-2.21V92.36h8.09v19.83q0,5-2.75,7.25c-1.84,1.52-4.53,2.28-8.09,2.28s-6.2-.75-7.94-2.25-2.61-3.9-2.61-7.19V92.36H119v19.41A3.18,3.18,0,0,0,119.61,113.91Z" class="cls-3"/><path d="M157.58,121.26h-7.7l-6.07-13.45h-.37v13.45h-7.15V92.36h8L150,106.23h.37V92.36h7.19Z" class="cls-3"/><path d="M177.51,121.26H161.72V92.36H178l-.47,7.12h-7.75v4.33h6.72V110h-6.72v4.79H178Z" class="cls-3"/><path d="M202.42,106.18q0,15.07-12,15.08h-9.68V92.36h9.87q6.43,0,9.14,3.56T202.42,106.18Zm-8.95,6.63a16.77,16.77,0,0,0,.73-5.86,15.5,15.5,0,0,0-.78-5.84c-.52-1.15-1.62-1.72-3.31-1.72H188.7v15.17h1.55C191.91,114.56,193,114,193.47,112.81Z" class="cls-3"/></g><path d="M95.45,54.4a11.21,11.21,0,0,1,8.41-3.15,59.46,59.46,0,0,1,11,1l-1.18,9.35a43.2,43.2,0,0,0-8-1.35c-1.85,0-2.77.74-2.77,2.22,0,.59.44,1.15,1.33,1.7a35.05,35.05,0,0,0,3.22,1.72,33.87,33.87,0,0,1,3.77,2.16,10.41,10.41,0,0,1,3.22,3.6,10.74,10.74,0,0,1,1.33,5.37c0,3.7-1,6.57-3,8.59s-4.85,3-8.53,3A34.84,34.84,0,0,1,93.39,87L94,78.3a38.16,38.16,0,0,0,8.79,1.81c1.65,0,2.48-.72,2.48-2.16a2.59,2.59,0,0,0-1.33-2A25.29,25.29,0,0,0,100.76,74,38.85,38.85,0,0,1,97,71.87a10,10,0,0,1-3.25-3.56,11.12,11.12,0,0,1-1.33-5.55A11.5,11.5,0,0,1,95.45,54.4Z" class="cls-7"/><path d="M140.54,60.65H133.7V88.12H123.61V60.65h-7.26l.59-8.82h24.2Z" class="cls-7"/><path d="M169.76,88.12H159.9l-1.12-5.73h-7l-1.12,5.73h-9.39L148,51.83h15Zm-12.1-12.57-2.07-13h-.41l-2.06,13Z" class="cls-7"/><path d="M197.62,51.83,188.88,76.9V88.12h-10V76.9l-8.62-25.07h11.1L184,63.63h.48L187,51.83Z" class="cls-7"/><path d="M106.22,97.33h-5.45V119.2h-8V97.33H87l.47-7h19.27Z" class="cls-7"/><path d="M117.36,111.85a2.55,2.55,0,0,0,2,.69,2.34,2.34,0,0,0,1.92-.67,3.57,3.57,0,0,0,.54-2.21V90.3h8.09v19.82q0,5-2.75,7.26c-1.84,1.52-4.53,2.28-8.09,2.28s-6.2-.75-7.94-2.25-2.61-3.9-2.61-7.19V90.3h8.23v19.4A3.19,3.19,0,0,0,117.36,111.85Z" class="cls-7"/><path d="M155.33,119.2h-7.7l-6.07-13.45h-.37V119.2H134V90.3h8l5.78,13.87h.37V90.3h7.19Z" class="cls-7"/><path d="M175.26,119.2H159.47V90.3h16.26l-.47,7.12h-7.75v4.33h6.72v6.14h-6.72v4.79h8.22Z" class="cls-7"/><path d="M200.17,104.12q0,15.07-12,15.08h-9.68V90.3h9.87q6.43,0,9.14,3.56T200.17,104.12Zm-8.95,6.63a16.81,16.81,0,0,0,.73-5.86,15.46,15.46,0,0,0-.78-5.84c-.52-1.15-1.62-1.72-3.31-1.72h-1.41V112.5H188C189.66,112.5,190.73,111.92,191.22,110.75Z" class="cls-7"/><path d="M94.51,135.46H88.92v-2.4h5.59Z" class="cls-3"/><path d="M102.81,133.46a5.77,5.77,0,0,0,.32,2.26,1.08,1.08,0,0,0,1.05.67,8.73,8.73,0,0,0,2-.34l.48,2.53a8.66,8.66,0,0,1-2.9.52,3.61,3.61,0,0,1-3.18-1.43,7.44,7.44,0,0,1-1-4.24,7.53,7.53,0,0,1,1-4.32,3.82,3.82,0,0,1,3.39-1.5,6.33,6.33,0,0,1,2.64.57l-.5,2.78a7.49,7.49,0,0,0-2-.46,1.12,1.12,0,0,0-1.11.69A5.9,5.9,0,0,0,102.81,133.46Z" class="cls-3"/><path d="M108.15,129a4.1,4.1,0,0,1,3.44-1.35,4,4,0,0,1,3.41,1.33,7.13,7.13,0,0,1,1,4.31,7.41,7.41,0,0,1-1.06,4.41,4.79,4.79,0,0,1-6.83,0,7.49,7.49,0,0,1-1-4.4A7.11,7.11,0,0,1,108.15,129Zm4.48,2.06a1.06,1.06,0,0,0-1.07-.58,1,1,0,0,0-1,.58,6.77,6.77,0,0,0-.24,2.22v.43a6.09,6.09,0,0,0,.27,2.28,1.32,1.32,0,0,0,2.12,0,6.12,6.12,0,0,0,.24-2.15v-.57A6.16,6.16,0,0,0,112.63,131Z" class="cls-3"/><path d="M128.21,138.92h-2.86v-5.81h-.16l-1.08,5.81h-2.93l-1-5.81H120v5.81h-2.82l.38-11.13h4.1l1,6h.14l1-6h4Z" class="cls-3"/><path d="M133,138.92h-3.1V127.79H133Z" class="cls-3"/><path d="M143,138.92h-3l-2.35-5.18h-.15v5.18h-2.77V127.79h3.08l2.24,5.34h.15v-5.34H143Z" class="cls-3"/><path d="M151.42,131.1a10.34,10.34,0,0,0-2.56-.51,1.1,1.1,0,0,0-1.11.69,6.06,6.06,0,0,0-.3,2.22,6.16,6.16,0,0,0,.29,2.2,1.11,1.11,0,0,0,1.15.69,6.8,6.8,0,0,0,1-.14v-1.36h-.81v-2.12h3.47v6.15h-2.15l-.29-.58H150c-.21.17-.37.3-.49.38a2.4,2.4,0,0,1-1.44.38c-2.54,0-3.8-1.89-3.8-5.67a7.73,7.73,0,0,1,1-4.32,3.73,3.73,0,0,1,3.36-1.5,8.41,8.41,0,0,1,3.26.57Z" class="cls-3"/><path d="M158.32,128.58a3.45,3.45,0,0,1,2.6-1,18.73,18.73,0,0,1,3.37.32l-.36,2.87a13.85,13.85,0,0,0-2.48-.41c-.57,0-.85.23-.85.68,0,.18.13.35.41.52a10.72,10.72,0,0,0,1,.53,8.64,8.64,0,0,1,1.17.66,3.28,3.28,0,0,1,1.4,2.75A3.25,3.25,0,0,1,161,139.1a11,11,0,0,1-3.32-.52l.2-2.67a11.69,11.69,0,0,0,2.71.55c.51,0,.76-.22.76-.66a.77.77,0,0,0-.41-.63,7.24,7.24,0,0,0-1-.57,11.52,11.52,0,0,1-1.17-.66,3.06,3.06,0,0,1-1-1.1,3.27,3.27,0,0,1-.41-1.7A3.5,3.5,0,0,1,158.32,128.58Z" class="cls-3"/><path d="M166.34,129a5,5,0,0,1,6.85,0,7.13,7.13,0,0,1,1,4.31,7.41,7.41,0,0,1-1.06,4.41,4.79,4.79,0,0,1-6.83,0,7.49,7.49,0,0,1-1-4.4A7,7,0,0,1,166.34,129Zm4.48,2.06a1.06,1.06,0,0,0-1.07-.58,1,1,0,0,0-1.05.58,6.77,6.77,0,0,0-.24,2.22v.43a6.09,6.09,0,0,0,.27,2.28,1.32,1.32,0,0,0,2.12,0,6.12,6.12,0,0,0,.24-2.15v-.57A6.16,6.16,0,0,0,170.82,131Z" class="cls-3"/><path d="M176.14,129a4.08,4.08,0,0,1,3.43-1.35,4,4,0,0,1,3.41,1.33,7.06,7.06,0,0,1,1,4.31,7.48,7.48,0,0,1-1,4.41,4.79,4.79,0,0,1-6.83,0,7.49,7.49,0,0,1-1-4.4A7,7,0,0,1,176.14,129Zm4.48,2.06a1.08,1.08,0,0,0-1.08-.58,1,1,0,0,0-1,.58,6.77,6.77,0,0,0-.24,2.22v.43a6.38,6.38,0,0,0,.26,2.28,1.08,1.08,0,0,0,1.08.55,1,1,0,0,0,1-.52,6.12,6.12,0,0,0,.24-2.15v-.57A6.46,6.46,0,0,0,180.62,131Z" class="cls-3"/><path d="M193.5,138.92h-3l-2.35-5.18H188v5.18h-2.77V127.79h3.08l2.24,5.34h.14v-5.34h2.79Z" class="cls-3"/><path d="M204.59,135.46H199v-2.4h5.59Z" class="cls-3"/><path d="M237.93,167.45H180.86a.38.38,0,1,1,0-.75h57.07a.38.38,0,0,1,0,.75Z" class="cls-2"/><path d="M246.62,34.74H145.06a.38.38,0,0,1,0-.75H246.62a.38.38,0,0,1,0,.75Z" class="cls-2"/></g></g></svg>