<svg xmlns="http://www.w3.org/2000/svg" xmlns:xlink="http://www.w3.org/1999/xlink" viewBox="0 0 1200 800"><defs><style>.cls-1{fill:none}.cls-2{isolation:isolate}.cls-3{clip-path:url(#clip-path)}.cls-4{fill:url(#Degradado_sin_nombre_12)}.cls-10,.cls-11,.cls-12,.cls-13,.cls-14,.cls-15,.cls-16,.cls-27,.cls-28,.cls-29,.cls-30,.cls-31,.cls-32,.cls-33,.cls-34,.cls-35,.cls-5,.cls-6,.cls-7,.cls-8,.cls-9{opacity:.89}.cls-10,.cls-11,.cls-12,.cls-13,.cls-14,.cls-15,.cls-16,.cls-17,.cls-18,.cls-19,.cls-20,.cls-21,.cls-22,.cls-23,.cls-24,.cls-25,.cls-26,.cls-27,.cls-28,.cls-29,.cls-30,.cls-31,.cls-32,.cls-33,.cls-34,.cls-35,.cls-36,.cls-5,.cls-6,.cls-7,.cls-8,.cls-9{mix-blend-mode:multiply}.cls-5{fill:url(#radial-gradient)}.cls-6{fill:url(#Degradado_sin_nombre_25)}.cls-7{fill:url(#Degradado_sin_nombre_25-2)}.cls-8{fill:url(#Degradado_sin_nombre_25-3)}.cls-9{fill:url(#Degradado_sin_nombre_25-4)}.cls-10{fill:url(#Degradado_sin_nombre_25-5)}.cls-11{fill:url(#Degradado_sin_nombre_25-6)}.cls-12{fill:url(#Degradado_sin_nombre_25-7)}.cls-13{fill:url(#Degradado_sin_nombre_25-8)}.cls-14{fill:url(#Degradado_sin_nombre_25-9)}.cls-15{fill:url(#Degradado_sin_nombre_25-10)}.cls-16{fill:url(#Degradado_sin_nombre_25-11)}.cls-17,.cls-18,.cls-19,.cls-20,.cls-21,.cls-22,.cls-23,.cls-24,.cls-25,.cls-26{opacity:.53}.cls-17{fill:url(#Degradado_sin_nombre_25-12)}.cls-18{fill:url(#Degradado_sin_nombre_25-13)}.cls-19{fill:url(#Degradado_sin_nombre_25-14)}.cls-20{fill:url(#Degradado_sin_nombre_25-15)}.cls-21{fill:url(#Degradado_sin_nombre_25-16)}.cls-22{fill:url(#Degradado_sin_nombre_25-17)}.cls-23{fill:url(#Degradado_sin_nombre_25-18)}.cls-24{fill:url(#Degradado_sin_nombre_25-19)}.cls-25{fill:url(#Degradado_sin_nombre_25-20)}.cls-26{fill:url(#Degradado_sin_nombre_25-21)}.cls-27{fill:url(#Degradado_sin_nombre_25-22)}.cls-28{fill:url(#Degradado_sin_nombre_25-23)}.cls-29{fill:url(#Degradado_sin_nombre_25-24)}.cls-30{fill:url(#Degradado_sin_nombre_25-25)}.cls-31{fill:url(#Degradado_sin_nombre_25-26)}.cls-32{fill:url(#Degradado_sin_nombre_25-27)}.cls-33{fill:url(#Degradado_sin_nombre_25-28)}.cls-34{fill:url(#Degradado_sin_nombre_25-29)}.cls-35{fill:url(#Degradado_sin_nombre_25-30)}.cls-36{fill:url(#Degradado_sin_nombre_2)}</style><clipPath id="clip-path"><rect width="1200" height="800" class="cls-1" transform="translate(1200 800) rotate(180)"/></clipPath><linearGradient id="Degradado_sin_nombre_12" x2="1200" y1="400.5" y2="400.5" gradientTransform="translate(0 -1)" gradientUnits="userSpaceOnUse"><stop offset="0" stop-color="#4d4d4d"/><stop offset="1"/></linearGradient><radialGradient id="radial-gradient" cx="-2767.03" cy="-6917.43" r="373.12" gradientTransform="translate(-588.15 -1866.48) rotate(-135) scale(1 0.11)" gradientUnits="userSpaceOnUse"><stop offset="0" stop-color="#231f20"/><stop offset="1" stop-color="#fff"/></radialGradient><radialGradient id="Degradado_sin_nombre_25" cx="553.96" cy="1008.76" r="228.55" gradientTransform="matrix(-1.01, -1.03, 0.15, -0.15, 1421.47, 814.03)" gradientUnits="userSpaceOnUse"><stop offset="0"/><stop offset="1" stop-color="#fff" stop-opacity="0"/></radialGradient><radialGradient id="Degradado_sin_nombre_25-2" cx="362.75" cy="858.17" r="228.55" gradientTransform="matrix(-1.01, -1.03, 0.15, -0.15, 1339.61, 896.76)" xlink:href="#Degradado_sin_nombre_25"/><radialGradient id="Degradado_sin_nombre_25-3" cx="689.46" cy="855.1" r="228.55" gradientTransform="matrix(-1.01, -1.03, 0.15, -0.15, 1334.91, 901.42)" xlink:href="#Degradado_sin_nombre_25"/><radialGradient id="Degradado_sin_nombre_25-4" cx="584.02" cy="761.82" r="228.55" gradientTransform="matrix(1.01, 1.03, -0.15, 0.15, 299.18, -488.55)" xlink:href="#Degradado_sin_nombre_25"/><radialGradient id="Degradado_sin_nombre_25-5" cx="941.89" cy="762.63" r="228.55" gradientTransform="matrix(1.01, 1.03, -0.15, 0.15, 302.01, -491.32)" xlink:href="#Degradado_sin_nombre_25"/><radialGradient id="Degradado_sin_nombre_25-6" cx="891.72" cy="890.84" r="228.55" gradientTransform="matrix(1.01, 1.03, -0.15, 0.15, 230.36, -418.97)" xlink:href="#Degradado_sin_nombre_25"/><radialGradient id="Degradado_sin_nombre_25-7" cx="391.74" cy="892.6" r="228.55" gradientTransform="matrix(1.01, 1.03, -0.15, 0.15, 224.8, -413.48)" xlink:href="#Degradado_sin_nombre_25"/><radialGradient id="Degradado_sin_nombre_25-8" cx="582.63" cy="942.72" r="228.55" gradientTransform="matrix(-1.01, -1.03, 0.15, -0.15, 1148.85, 1060.9)" xlink:href="#Degradado_sin_nombre_25"/><radialGradient id="Degradado_sin_nombre_25-9" cx="1397.77" cy="790.22" r="228.55" gradientTransform="matrix(1.01, 1.03, -0.15, 0.15, -439.83, -843.74)" xlink:href="#Degradado_sin_nombre_25"/><radialGradient id="Degradado_sin_nombre_25-10" cx="894.07" cy="790.86" r="228.55" gradientTransform="matrix(1.01, 1.03, -0.15, 0.15, -444.8, -838.85)" xlink:href="#Degradado_sin_nombre_25"/><radialGradient id="Degradado_sin_nombre_25-11" cx="1079.55" cy="963.6" r="228.55" gradientTransform="matrix(-1.01, -1.03, 0.15, -0.15, 1538.16, 1690.33)" xlink:href="#Degradado_sin_nombre_25"/><radialGradient id="Degradado_sin_nombre_25-12" cx="1116.95" cy="1056.78" r="228.54" gradientTransform="matrix(-1.75, -1.76, 0.15, -0.14, 2274, 2322.84)" xlink:href="#Degradado_sin_nombre_25"/><radialGradient id="Degradado_sin_nombre_25-13" cx="1008.95" cy="901.69" r="228.54" gradientTransform="matrix(-1.75, -1.76, 0.15, -0.14, 2189.19, 2409.16)" xlink:href="#Degradado_sin_nombre_25"/><radialGradient id="Degradado_sin_nombre_25-14" cx="1124.2" cy="762.09" r="228.54" gradientTransform="matrix(-1.75, -1.76, 0.15, -0.14, 2110.89, 2488.75)" xlink:href="#Degradado_sin_nombre_25"/><radialGradient id="Degradado_sin_nombre_25-15" cx="1088.23" cy="621.53" r="228.54" gradientTransform="matrix(-1.75, -1.76, 0.15, -0.14, 2033.46, 2567.54)" xlink:href="#Degradado_sin_nombre_25"/><radialGradient id="Degradado_sin_nombre_25-16" cx="1047.88" cy="484.57" r="228.54" gradientTransform="matrix(-1.75, -1.76, 0.15, -0.14, 1958.05, 2644.26)" xlink:href="#Degradado_sin_nombre_25"/><radialGradient id="Degradado_sin_nombre_25-17" cx="1021.78" cy="353.29" r="228.54" gradientTransform="matrix(-1.75, -1.76, 0.15, -0.14, 1885.66, 2717.9)" xlink:href="#Degradado_sin_nombre_25"/><radialGradient id="Degradado_sin_nombre_25-18" cx="925.33" cy="1206.19" r="228.54" gradientTransform="matrix(-1.75, -1.76, 0.15, -0.14, 2358.43, 2237.05)" xlink:href="#Degradado_sin_nombre_25"/><radialGradient id="Degradado_sin_nombre_25-19" cx="1141.98" cy="1435.54" r="228.54" gradientTransform="matrix(-1.75, -1.76, 0.15, -0.14, 2483.33, 2109.91)" xlink:href="#Degradado_sin_nombre_25"/><radialGradient id="Degradado_sin_nombre_25-20" cx="946.38" cy="1593.56" r="228.54" gradientTransform="matrix(-1.75, -1.76, 0.15, -0.14, 2572.56, 2019.23)" xlink:href="#Degradado_sin_nombre_25"/><radialGradient id="Degradado_sin_nombre_25-21" cx="760.07" cy="1088.94" r="228.54" gradientTransform="matrix(-1.75, -1.76, 0.15, -0.14, 2295.09, 2301.55)" xlink:href="#Degradado_sin_nombre_25"/><radialGradient id="Degradado_sin_nombre_25-22" cx="1390.85" cy="816.87" r="228.55" gradientTransform="matrix(-1.01, -1.03, 0.15, -0.15, 1453.83, 1775.42)" xlink:href="#Degradado_sin_nombre_25"/><radialGradient id="Degradado_sin_nombre_25-23" cx="899.77" cy="804.25" r="228.54" gradientTransform="matrix(-1, -1.03, 0.15, -0.15, 1444.45, 1783.33)" xlink:href="#Degradado_sin_nombre_25"/><radialGradient id="Degradado_sin_nombre_25-24" cx="1162.08" cy="748.11" r="228.54" gradientTransform="matrix(1, 1.03, -0.15, 0.15, -753.47, -784.53)" xlink:href="#Degradado_sin_nombre_25"/><radialGradient id="Degradado_sin_nombre_25-25" cx="366" cy="1012.52" r="228.55" gradientTransform="matrix(-1.01, -1.03, 0.15, -0.15, 1425.28, 810.23)" xlink:href="#Degradado_sin_nombre_25"/><radialGradient id="Degradado_sin_nombre_25-26" cx="940.13" cy="861.92" r="228.54" gradientTransform="matrix(-1, -1.03, 0.15, -0.15, 1114.13, 1665.96)" xlink:href="#Degradado_sin_nombre_25"/><radialGradient id="Degradado_sin_nombre_25-27" cx="1161.53" cy="900.92" r="228.54" gradientTransform="matrix(-1, -1.03, 0.15, -0.15, 1133.88, 1646.19)" xlink:href="#Degradado_sin_nombre_25"/><radialGradient id="Degradado_sin_nombre_25-28" cx="959.36" cy="777.09" r="228.54" gradientTransform="matrix(-1, -1.03, 0.15, -0.15, 1066.57, 1713.41)" xlink:href="#Degradado_sin_nombre_25"/><radialGradient id="Degradado_sin_nombre_25-29" cx="861.1" cy="558.63" r="228.54" gradientTransform="matrix(1, 1.03, -0.15, 0.15, -614.49, -311.07)" xlink:href="#Degradado_sin_nombre_25"/><radialGradient id="Degradado_sin_nombre_25-30" cx="864.12" cy="670.93" r="228.54" gradientTransform="matrix(1, 1.03, -0.15, 0.15, -677.19, -248.51)" xlink:href="#Degradado_sin_nombre_25"/><radialGradient id="Degradado_sin_nombre_2" cx="639.1" cy="399.89" r="784.26" gradientTransform="translate(-12.96 0.11) scale(0.96 1)" gradientUnits="userSpaceOnUse"><stop offset="0" stop-color="#f5f5f5"/><stop offset=".09" stop-color="#ededed"/><stop offset=".23" stop-color="#d5d6d7"/><stop offset=".41" stop-color="#b0b2b4"/><stop offset=".62" stop-color="#7c7f83"/><stop offset=".85" stop-color="#3a3f45"/><stop offset="1" stop-color="#0a1118"/></radialGradient></defs><title>svgbg</title><g class="cls-2"><g id="BACKGROUND"><g class="cls-3"><rect width="1200" height="801" y="-1" class="cls-4" transform="translate(1200 799) rotate(180)"/><path d="M820.75,637.75C970.84,787.83,1105,897,1120.45,881.56L576.94,338.05C561.51,353.48,670.67,487.66,820.75,637.75Z" class="cls-5"/><path d="M1256.59,344.76l-510.1-510.1c-3.67-3.67-8-.79-5.18,3.43,57,85.28,259.47,369.93,512.23,512.1C1257.67,352.51,1260.06,348.24,1256.59,344.76Z" class="cls-6"/><path d="M1345,646.1,834.87,136c-3.66-3.66-8-.79-5.18,3.44,57,85.28,259.47,369.92,512.23,512.09C1346.05,653.85,1348.45,649.58,1345,646.1Z" class="cls-7"/><path d="M1009.84,315.32,499.75-194.78c-3.67-3.67-8-.8-5.19,3.43,57,85.28,259.48,369.93,512.24,512.1C1010.93,323.07,1013.32,318.79,1009.84,315.32Z" class="cls-8"/><path d="M531.92-24.49,1042,485.6c3.67,3.67,8,.8,5.18-3.43C990.22,396.89,787.73,112.24,535-29.92,530.84-32.25,528.45-28,531.92-24.49Z" class="cls-9"/><path d="M896.06,340.78l510.09,510.1c3.67,3.67,8,.8,5.19-3.43-57-85.28-259.48-369.93-512.24-512.1C895,333,892.58,337.31,896.06,340.78Z" class="cls-10"/><path d="M754.26,380.31l510.1,510.09c3.66,3.67,8,.8,5.18-3.43-57-85.28-259.47-369.93-512.23-512.09C753.18,372.56,750.78,376.83,754.26,380.31Z" class="cls-11"/><path d="M243.5-128,753.59,382.12c3.67,3.67,8,.8,5.19-3.43C701.79,293.41,499.3,8.76,246.54-133.4,242.42-135.73,240-131.45,243.5-128Z" class="cls-12"/><path d="M945,571.81,434.88,61.71c-3.67-3.67-8-.8-5.18,3.43,57,85.28,259.47,369.93,512.23,512.1C946.06,579.56,948.45,575.28,945,571.81Z" class="cls-13"/><path d="M610.43,461.09l510.1,510.1c3.67,3.66,8,.79,5.18-3.44-57-85.28-259.47-369.92-512.23-512.09C609.35,453.34,607,457.61,610.43,461.09Z" class="cls-14"/><path d="M96.66-51.78l510.09,510.1c3.67,3.66,8,.79,5.19-3.43C555,369.6,352.46,85,99.7-57.21,95.58-59.53,93.18-55.26,96.66-51.78Z" class="cls-15"/><path d="M835.61,687.3,325.51,177.2c-3.67-3.66-8-.79-5.18,3.44,57,85.28,259.47,369.92,512.23,512.09C836.69,695.05,839.08,690.78,835.61,687.3Z" class="cls-16"/><path d="M905.12,625,26.94-253.16c-6.31-6.31-11.18-4-5.82,2.8,108.32,136.61,486.57,597,881.82,881.68C909.39,636,911.11,631,905.12,625Z" class="cls-17"/><path d="M984.93,924.16,106.75,46c-6.31-6.32-11.18-4-5.82,2.79,108.32,136.62,486.57,597,881.82,881.68C989.2,935.1,990.92,930.15,984.93,924.16Z" class="cls-18"/><path d="M684,820.68-194.15-57.51c-6.32-6.31-11.19-4-5.82,2.8C-91.65,81.91,286.6,542.31,681.85,827,688.3,831.62,690,826.67,684,820.68Z" class="cls-19"/><path d="M647.74,983.17-230.45,105c-6.31-6.31-11.18-4-5.81,2.8,108.31,136.61,486.56,597,881.81,881.68C652,994.11,653.73,989.16,647.74,983.17Z" class="cls-20"/><path d="M621.69,1150.81-256.5,272.62c-6.31-6.31-11.18-4-5.81,2.8C-154,412,224.25,872.44,619.5,1157.1,626,1161.75,627.68,1156.8,621.69,1150.81Z" class="cls-21"/><path d="M574.66,1289.44-303.52,411.25c-6.32-6.31-11.18-4-5.82,2.8,108.32,136.61,486.57,597,881.82,881.68C578.93,1300.38,580.65,1295.43,574.66,1289.44Z" class="cls-22"/><path d="M1347,855.57,468.78-22.61c-6.32-6.32-11.19-4-5.82,2.8,108.31,136.61,486.57,597,881.81,881.67C1351.23,866.51,1353,861.56,1347,855.57Z" class="cls-23"/><path d="M1129,313.28,250.84-564.9c-6.31-6.32-11.18-4-5.81,2.8,108.31,136.61,486.56,597,881.81,881.67C1133.3,324.22,1135,319.27,1129,313.28Z" class="cls-24"/><path d="M1584,544.73,705.76-333.45c-6.31-6.32-11.18-4-5.82,2.8C808.26-194,1186.51,266.36,1581.76,551,1588.21,555.67,1589.93,550.72,1584,544.73Z" class="cls-25"/><path d="M1554,1228.43,675.83,350.25c-6.31-6.32-11.18-4-5.81,2.8,108.31,136.61,486.56,597,881.81,881.67C1558.29,1239.37,1560,1234.42,1554,1228.43Z" class="cls-26"/><path d="M414.61,473.8-95.49-36.29c-3.66-3.67-8-.8-5.18,3.43,57,85.28,259.47,369.93,512.23,512.09C415.69,481.55,418.09,477.28,414.61,473.8Z" class="cls-27"/><path d="M904,985.21,397,472.05c-3.65-3.69-8-.84-5.21,3.4C448.24,561.08,649,846.93,900.92,990.62,905,993,907.46,988.71,904,985.21Z" class="cls-28"/><path d="M58.84,276.7l507,513.15c3.65,3.69,8,.85,5.21-3.4C514.6,700.83,313.82,415,61.92,271.29,57.81,268.94,55.39,273.2,58.84,276.7Z" class="cls-29"/><path d="M1450.79,533.65,940.7,23.55c-3.67-3.67-8-.8-5.19,3.43,57,85.28,259.48,369.93,512.24,512.1C1451.88,541.4,1454.27,537.12,1450.79,533.65Z" class="cls-30"/><path d="M542,817.71,35,304.55c-3.64-3.69-8-.84-5.2,3.4C86.22,393.57,287,679.43,538.89,823.12,543,825.46,545.43,821.2,542,817.71Z" class="cls-31"/><path d="M345.44,563.31l-507-513.15c-3.64-3.69-8-.85-5.2,3.4C-110.31,139.18,90.46,425,342.36,568.72,346.48,571.07,348.9,566.81,345.44,563.31Z" class="cls-32"/><path d="M462.16,857.61l-507-513.15c-3.64-3.69-8-.85-5.2,3.4C6.41,433.48,207.18,719.34,459.08,863,463.2,865.37,465.62,861.11,462.16,857.61Z" class="cls-33"/><path d="M-75.35,411.35l507,513.15c3.64,3.69,8,.85,5.2-3.4C380.4,835.48,179.63,549.62-72.27,405.94-76.39,403.59-78.81,407.85-75.35,411.35Z" class="cls-34"/><path d="M-152.17,493.37l507,513.15c3.65,3.69,8,.85,5.21-3.4C303.59,917.5,102.81,631.64-149.09,488-153.2,485.61-155.63,489.87-152.17,493.37Z" class="cls-35"/><rect width="1228.36" height="800.25" x="-14.18" y="-.25" class="cls-36" transform="translate(1200 799.75) rotate(180)"/></g></g></g></svg>