<?xml version="1.0" encoding="utf-8"?>
<!-- Generator: Adobe Illustrator 23.0.3, SVG Export Plug-In . SVG Version: 6.00 Build 0)  -->
<svg version="1.1" id="Layer_1" xmlns="http://www.w3.org/2000/svg" xmlns:xlink="http://www.w3.org/1999/xlink" x="0px" y="0px"
	 viewBox="0 0 160 44" style="enable-background:new 0 0 160 44;" xml:space="preserve">
<style type="text/css">
	.st0{fill:none;}
	.st1{fill-rule:evenodd;clip-rule:evenodd;fill:#FFFFFF;}
	.st2{fill-rule:evenodd;clip-rule:evenodd;fill:#2F2F2F;}
</style>
<title>Group 23 Copy</title>
<desc>Created with Sketch.</desc>
<g id="Page-1">
	<g id="Group-23-Copy">
		<rect id="Rectangle-11" class="st0" width="164" height="44"/>
		<g id="logo-copy-2">
			<path id="Fill-1-Copy" class="st1" d="M21.7,2.1c1,0,1.8,0.6,2.2,1.4c0,0.1,0.1,0.1,0.2,0.1c0.1,0,0.1,0,0.2-0.1
				c0.4-0.5,1.1-0.9,1.8-0.9c0.2,0,0.4,0,0.6,0.1c0.9,0.3,1.6,1,1.7,2c0,0.1,0.1,0.2,0.2,0.2c0,0,0.1,0,0.1,0
				c0.4-0.3,0.9-0.4,1.4-0.4c0.4,0,0.8,0.1,1.2,0.3c0.9,0.5,1.3,1.4,1.2,2.3c0,0.1,0.1,0.2,0.2,0.2c0,0,0,0,0.1,0
				c0.3-0.1,0.5-0.1,0.8-0.1c0.6,0,1.2,0.2,1.7,0.7c0.7,0.7,0.9,1.7,0.5,2.6c-0.1,0.1,0.1,0.3,0.2,0.3c0,0,0,0,0,0
				c0.1,0,0.1,0,0.2,0c0.8,0,1.6,0.4,2.1,1.2c0.5,0.9,0.4,1.9-0.2,2.6c-0.1,0.1,0,0.3,0.1,0.3c0.9,0.2,1.7,0.8,1.9,1.7
				c0.3,0.9-0.1,1.9-0.8,2.5c-0.1,0.1-0.1,0.3,0,0.4c0.8,0.4,1.4,1.2,1.4,2.2c0,1-0.6,1.8-1.4,2.2c-0.1,0.1-0.2,0.3-0.1,0.4
				c0.7,0.6,1,1.5,0.8,2.5c-0.3,0.9-1,1.6-2,1.7c-0.2,0-0.2,0.2-0.1,0.3c0.5,0.7,0.6,1.7,0.1,2.6c-0.4,0.8-1.2,1.2-2.1,1.2
				c-0.1,0-0.2,0-0.3,0c0,0,0,0,0,0c-0.1,0-0.3,0.1-0.2,0.3c0.3,0.8,0.1,1.8-0.6,2.5C34.6,35.8,34,36,33.3,36
				c-0.3,0-0.6-0.1-0.9-0.2c0,0-0.1,0-0.1,0c-0.1,0-0.2,0.1-0.2,0.2c0.1,0.9-0.4,1.8-1.2,2.3c-0.4,0.2-0.8,0.3-1.2,0.3
				c-0.5,0-1-0.2-1.4-0.5c0,0-0.1,0-0.1,0c-0.1,0-0.2,0.1-0.2,0.2c-0.2,0.9-0.8,1.7-1.7,1.9c-0.2,0.1-0.4,0.1-0.6,0.1
				c-0.7,0-1.4-0.3-1.9-0.9c0-0.1-0.1-0.1-0.2-0.1c-0.1,0-0.2,0-0.2,0.1c-0.4,0.8-1.2,1.4-2.2,1.4c-1,0-1.8-0.6-2.2-1.4
				c0-0.1-0.1-0.1-0.2-0.1c-0.1,0-0.1,0-0.2,0.1c-0.4,0.5-1.1,0.9-1.8,0.9c-0.2,0-0.4,0-0.6-0.1c-0.9-0.3-1.6-1-1.7-2
				c0-0.1-0.1-0.2-0.2-0.2c0,0-0.1,0-0.1,0c-0.4,0.3-0.9,0.4-1.4,0.4c-0.4,0-0.8-0.1-1.2-0.3c-0.9-0.5-1.3-1.4-1.2-2.3
				c0-0.1-0.1-0.2-0.2-0.2c0,0,0,0-0.1,0c-0.3,0.1-0.5,0.1-0.8,0.1c-0.6,0-1.2-0.2-1.7-0.7c-0.7-0.7-0.9-1.7-0.5-2.6
				c0.1-0.1-0.1-0.3-0.2-0.3c0,0,0,0,0,0c-0.1,0-0.1,0-0.2,0c-0.8,0-1.6-0.4-2.1-1.2c-0.5-0.9-0.4-1.9,0.2-2.6
				c0.1-0.1,0-0.3-0.1-0.3c-0.9-0.2-1.7-0.8-1.9-1.7c-0.3-0.9,0.1-1.9,0.8-2.5c0.1-0.1,0.1-0.3,0-0.4c-0.8-0.4-1.4-1.2-1.4-2.2
				c0-1,0.6-1.8,1.4-2.2c0.1-0.1,0.2-0.3,0.1-0.4c-0.7-0.6-1-1.5-0.8-2.5c0.3-0.9,1-1.6,2-1.7c0.2,0,0.2-0.2,0.1-0.3
				c-0.5-0.7-0.6-1.7-0.1-2.6c0.4-0.8,1.2-1.2,2.1-1.2c0.1,0,0.2,0,0.3,0c0,0,0,0,0,0c0.1,0,0.3-0.1,0.2-0.3
				C7.1,9.3,7.2,8.3,7.9,7.6C8.4,7.2,9,6.9,9.6,6.9c0.3,0,0.6,0.1,0.9,0.2c0,0,0.1,0,0.1,0c0.1,0,0.2-0.1,0.2-0.2
				C10.7,6,11.1,5.1,12,4.6c0.4-0.2,0.8-0.3,1.2-0.3c0.5,0,1,0.2,1.4,0.5c0,0,0.1,0,0.1,0c0.1,0,0.2-0.1,0.2-0.2
				c0.2-0.9,0.8-1.7,1.7-1.9c0.2-0.1,0.4-0.1,0.6-0.1c0.7,0,1.4,0.3,1.9,0.9c0,0.1,0.1,0.1,0.2,0.1c0.1,0,0.2,0,0.2-0.1
				C19.9,2.7,20.7,2.1,21.7,2.1"/>
			<g id="logo">
				<path id="Fill-4" class="st2" d="M30.6,31.1c-2.2,0-2-3.1,0-3.1C32.7,28.1,32.8,31.1,30.6,31.1 M12.6,31.1c-2.2,0-2-3.1,0-3.1
					S14.8,31.1,12.6,31.1 M37.3,19.7h-0.7c-1.3,0-2.5-0.8-3-1.9c-0.5,1.1-1.7,1.9-3,1.9c-1.3,0-2.5-0.8-3-1.9
					c-0.5,1.1-1.7,1.9-3,1.9c-1.3,0-2.5-0.8-3-1.9c-0.5,1.1-1.7,1.9-3,1.9c-1.3,0-2.5-0.8-3-1.9c-0.5,1.1-1.7,1.9-3,1.9
					s-2.5-0.8-3-1.9c-0.5,1.1-1.7,1.9-3,1.9H6c-1.1,1.2-0.4,2.2,2.3,2.2v6.1c0,5.8,6.6,8.6,13.3,8.6s13.3-2.9,13.3-8.6v-6.1
					C37.6,21.9,38.4,20.9,37.3,19.7"/>
				<path id="Fill-1" class="st2" d="M21.8,0c-1,0-1.9,0.3-2.7,0.8c-0.5-0.2-1.1-0.3-1.7-0.3c-0.4,0-0.8,0.1-1.2,0.2
					c-0.9,0.3-1.8,0.8-2.4,1.5c-0.2,0-0.3,0-0.5,0c-0.8,0-1.6,0.2-2.3,0.6C10.2,3.3,9.5,4,9.1,4.9C8.1,5,7.2,5.5,6.5,6.2
					C5.8,6.9,5.4,7.7,5.2,8.7c-0.9,0.4-1.7,1.1-2.2,2c-0.5,0.8-0.7,1.8-0.6,2.7c-0.8,0.6-1.3,1.5-1.6,2.5c-0.3,0.9-0.2,1.9,0.1,2.8
					C0.3,19.4,0,20.4,0,21.4c0,1,0.3,1.9,0.8,2.7C0.5,25,0.4,26,0.7,27c0.3,0.9,0.8,1.8,1.5,2.4c-0.1,1,0.1,2,0.6,2.9
					c0.5,0.8,1.2,1.5,2.1,1.9c0.1,1,0.6,1.9,1.3,2.6c0.7,0.7,1.6,1.1,2.5,1.3c0.4,0.9,1.1,1.7,2,2.2c0.7,0.4,1.5,0.6,2.3,0.6
					c0.1,0,0.3,0,0.4,0c0.6,0.8,1.5,1.3,2.4,1.6c0.4,0.1,0.8,0.2,1.2,0.2c0.6,0,1.1-0.1,1.6-0.3c0.8,0.6,1.8,0.9,2.8,0.9
					c1,0,1.9-0.3,2.7-0.8c0.5,0.2,1.1,0.3,1.7,0.3c0.4,0,0.8-0.1,1.2-0.2c0.9-0.3,1.8-0.8,2.4-1.5c0.2,0,0.3,0,0.5,0
					c0.8,0,1.6-0.2,2.3-0.6c0.8-0.5,1.5-1.2,1.9-2.1c1-0.1,1.9-0.6,2.6-1.3c0.7-0.7,1.1-1.6,1.3-2.5c0.9-0.4,1.7-1.1,2.2-2
					c0.5-0.8,0.7-1.8,0.6-2.7c0.8-0.6,1.3-1.5,1.6-2.5c0.3-0.9,0.2-1.9-0.1-2.8c0.6-0.8,0.9-1.8,0.9-2.8c0-1-0.3-1.9-0.8-2.7
					c0.4-0.9,0.4-1.9,0.2-2.9c-0.3-0.9-0.8-1.8-1.5-2.4c0.1-1-0.1-2-0.6-2.9c-0.5-0.8-1.2-1.5-2.1-1.9c-0.1-1-0.6-1.9-1.3-2.6
					c-0.7-0.7-1.6-1.1-2.5-1.3c-0.4-0.9-1.1-1.7-2-2.2c-0.7-0.4-1.5-0.6-2.3-0.6c-0.1,0-0.3,0-0.4,0c-0.6-0.8-1.5-1.3-2.4-1.6
					c-0.4-0.1-0.8-0.2-1.2-0.2c-0.6,0-1.1,0.1-1.6,0.3C23.8,0.3,22.9,0,21.8,0 M21.8,2.3c1,0,1.8,0.6,2.2,1.4c0,0.1,0.1,0.1,0.2,0.1
					c0.1,0,0.1,0,0.2-0.1C24.8,3.3,25.5,3,26.2,3c0.2,0,0.4,0,0.6,0.1c0.9,0.3,1.6,1,1.7,2c0,0.1,0.1,0.2,0.2,0.2c0,0,0.1,0,0.1,0
					c0.4-0.3,0.9-0.4,1.4-0.4c0.4,0,0.8,0.1,1.2,0.3c0.8,0.5,1.3,1.4,1.2,2.3c0,0.1,0.1,0.2,0.2,0.2c0,0,0,0,0.1,0
					c0.3-0.1,0.5-0.1,0.8-0.1c0.6,0,1.2,0.2,1.7,0.7c0.7,0.7,0.9,1.7,0.5,2.6C35.9,10.8,36,11,36.1,11c0,0,0,0,0,0
					c0.1,0,0.1,0,0.2,0c0.8,0,1.6,0.4,2.1,1.2c0.5,0.8,0.4,1.9-0.2,2.6c-0.1,0.1,0,0.3,0.1,0.3c0.9,0.2,1.6,0.8,1.9,1.7
					c0.3,0.9-0.1,1.9-0.8,2.5c-0.1,0.1-0.1,0.3,0,0.4c0.8,0.4,1.4,1.2,1.4,2.2c0,1-0.6,1.8-1.4,2.2c-0.1,0.1-0.2,0.3-0.1,0.4
					c0.7,0.6,1,1.5,0.8,2.4c-0.3,0.9-1,1.6-2,1.7c-0.2,0-0.2,0.2-0.1,0.3c0.5,0.7,0.6,1.7,0.1,2.6c-0.4,0.8-1.2,1.2-2.1,1.2
					c-0.1,0-0.2,0-0.3,0c0,0,0,0,0,0c-0.1,0-0.3,0.1-0.2,0.3c0.3,0.8,0.1,1.8-0.6,2.5c-0.5,0.5-1.1,0.7-1.7,0.7
					c-0.3,0-0.6-0.1-0.9-0.2c0,0-0.1,0-0.1,0c-0.1,0-0.2,0.1-0.2,0.2c0.1,0.9-0.4,1.8-1.2,2.3c-0.4,0.2-0.8,0.3-1.2,0.3
					c-0.5,0-1-0.2-1.4-0.5c0,0-0.1,0-0.1,0c-0.1,0-0.2,0.1-0.2,0.2c-0.2,0.9-0.8,1.6-1.7,1.9c-0.2,0.1-0.4,0.1-0.6,0.1
					c-0.7,0-1.4-0.3-1.9-0.9c0-0.1-0.1-0.1-0.2-0.1c-0.1,0-0.2,0-0.2,0.1c-0.4,0.8-1.2,1.4-2.2,1.4c-1,0-1.8-0.6-2.2-1.4
					c0-0.1-0.1-0.1-0.2-0.1c-0.1,0-0.1,0-0.2,0.1c-0.4,0.5-1.1,0.9-1.8,0.9c-0.2,0-0.4,0-0.6-0.1c-0.9-0.3-1.6-1-1.7-2
					c0-0.1-0.1-0.2-0.2-0.2c0,0-0.1,0-0.1,0c-0.4,0.3-0.9,0.4-1.4,0.4c-0.4,0-0.8-0.1-1.2-0.3c-0.8-0.5-1.3-1.4-1.2-2.3
					c0-0.1-0.1-0.2-0.2-0.2c0,0,0,0-0.1,0c-0.3,0.1-0.5,0.1-0.8,0.1c-0.6,0-1.2-0.2-1.7-0.7c-0.7-0.7-0.9-1.7-0.5-2.6
					c0.1-0.1-0.1-0.3-0.2-0.3c0,0,0,0,0,0c-0.1,0-0.1,0-0.2,0c-0.8,0-1.6-0.4-2.1-1.2c-0.5-0.8-0.4-1.9,0.2-2.6
					c0.1-0.1,0-0.3-0.1-0.3c-0.9-0.2-1.6-0.8-1.9-1.7c-0.3-0.9,0.1-1.9,0.8-2.5c0.1-0.1,0.1-0.3,0-0.4c-0.8-0.4-1.4-1.2-1.4-2.2
					c0-1,0.6-1.8,1.4-2.2c0.1-0.1,0.2-0.3,0.1-0.4c-0.7-0.6-1-1.5-0.8-2.4c0.3-0.9,1-1.6,2-1.7c0.2,0,0.2-0.2,0.1-0.3
					c-0.5-0.7-0.6-1.7-0.1-2.6c0.4-0.8,1.2-1.2,2.1-1.2c0.1,0,0.2,0,0.3,0c0,0,0,0,0,0c0.1,0,0.2-0.1,0.2-0.3
					C7.3,9.5,7.4,8.5,8.1,7.8c0.5-0.5,1.1-0.7,1.7-0.7c0.3,0,0.6,0.1,0.9,0.2c0,0,0.1,0,0.1,0c0.1,0,0.2-0.1,0.2-0.2
					c-0.1-0.9,0.4-1.8,1.2-2.3c0.4-0.2,0.8-0.3,1.2-0.3c0.5,0,1,0.2,1.4,0.5c0,0,0.1,0,0.1,0c0.1,0,0.2-0.1,0.2-0.2
					c0.2-0.9,0.8-1.6,1.7-1.9c0.2-0.1,0.4-0.1,0.6-0.1c0.7,0,1.4,0.3,1.9,0.9c0,0.1,0.1,0.1,0.2,0.1c0.1,0,0.2,0,0.2-0.1
					C20.1,2.9,20.9,2.3,21.8,2.3"/>
			</g>
		</g>
		<path id="taskade" class="st1" d="M60.1,29.2c0.3,0,0.6,0.1,0.9,0.4c0.2,0.3,0.3,0.6,0.3,1c0,0.4-0.2,0.7-0.5,1
			c-0.3,0.3-0.7,0.4-1.2,0.4h-0.5c-0.9,0-1.7-0.2-2.5-0.7c-0.8-0.5-1.3-1.1-1.8-1.9c-0.4-0.8-0.6-1.7-0.6-2.8v-6.9h-1.3
			c-0.4,0-0.7-0.1-1-0.3s-0.4-0.5-0.4-0.8c0-0.4,0.1-0.7,0.4-0.9s0.6-0.3,1-0.3h1.3v-4c0-0.4,0.1-0.7,0.4-1c0.3-0.3,0.6-0.4,1-0.4
			c0.4,0,0.7,0.1,1,0.4c0.3,0.3,0.4,0.6,0.4,1v4h2.4c0.4,0,0.7,0.1,1,0.3s0.4,0.5,0.4,0.9c0,0.3-0.1,0.6-0.4,0.8s-0.6,0.3-1,0.3H57
			v6.9c0,0.7,0.2,1.4,0.6,1.9c0.4,0.5,0.9,0.8,1.5,0.8H60.1z M70.7,16.6c1.4,0,2.7,0.3,3.9,1s2.1,1.6,2.8,2.8c0.7,1.2,1,2.5,1,4v6.2
			c0,0.4-0.1,0.8-0.4,1S77.4,32,77,32c-0.4,0-0.8-0.1-1-0.4s-0.4-0.6-0.4-1v-1c-0.7,0.8-1.4,1.4-2.4,1.9c-0.9,0.4-1.9,0.7-3,0.7
			c-1.3,0-2.6-0.3-3.7-1c-1.1-0.7-2-1.6-2.6-2.8c-0.6-1.2-0.9-2.5-0.9-4c0-1.5,0.3-2.8,1-4c0.7-1.2,1.6-2.1,2.8-2.8
			C68,16.9,69.3,16.6,70.7,16.6z M70.7,29.6c0.9,0,1.8-0.2,2.5-0.7c0.8-0.5,1.3-1.1,1.8-1.9c0.4-0.8,0.6-1.7,0.6-2.7
			c0-1-0.2-1.9-0.6-2.7c-0.4-0.8-1-1.4-1.8-1.9s-1.6-0.7-2.5-0.7c-0.9,0-1.8,0.2-2.5,0.7s-1.4,1.1-1.8,1.9c-0.4,0.8-0.7,1.7-0.7,2.7
			c0,1,0.2,1.9,0.7,2.7c0.4,0.8,1,1.4,1.8,1.9C69,29.4,69.8,29.6,70.7,29.6z M87.3,32.1c-1.3,0-2.5-0.2-3.6-0.6
			c-1.1-0.4-2-0.9-2.6-1.5c-0.2-0.2-0.4-0.5-0.4-0.9c0-0.4,0.2-0.8,0.6-1.1c0.4-0.3,0.7-0.4,1-0.4c0.4,0,0.7,0.2,1.1,0.5
			c0.4,0.4,0.9,0.7,1.6,1c0.7,0.3,1.5,0.4,2.3,0.4c1.1,0,1.9-0.2,2.5-0.5c0.6-0.4,0.9-0.8,0.9-1.4c0-0.6-0.3-1.1-0.9-1.4
			c-0.6-0.4-1.6-0.7-2.9-1c-3.6-0.7-5.4-2.2-5.4-4.4c0-0.9,0.3-1.7,0.8-2.3s1.3-1.1,2.1-1.4c0.9-0.3,1.8-0.5,2.8-0.5
			c1.2,0,2.3,0.2,3.3,0.6c1,0.4,1.7,0.9,2.3,1.6c0.2,0.3,0.4,0.6,0.4,0.9c0,0.3-0.2,0.6-0.5,0.9c-0.2,0.1-0.5,0.2-0.8,0.2
			c-0.5,0-0.9-0.2-1.3-0.5c-0.5-0.4-1-0.7-1.5-0.9c-0.5-0.2-1.2-0.3-1.9-0.3c-0.9,0-1.6,0.1-2.1,0.4c-0.6,0.3-0.8,0.7-0.8,1.2
			c0,0.4,0.1,0.7,0.3,0.9c0.2,0.3,0.5,0.5,1.1,0.7c0.5,0.2,1.3,0.4,2.3,0.6c2,0.4,3.5,1,4.3,1.7c0.8,0.7,1.3,1.7,1.3,2.8
			c0,0.9-0.2,1.6-0.7,2.3c-0.5,0.7-1.2,1.3-2.1,1.7C89.6,31.9,88.6,32.1,87.3,32.1z M107.5,30c0.2,0.2,0.3,0.5,0.3,0.8
			c0,0.4-0.2,0.8-0.5,1c-0.3,0.2-0.6,0.3-0.9,0.3c-0.4,0-0.7-0.2-1-0.5l-5.3-6.6l-1.4,1.2v4.3c0,0.4-0.1,0.7-0.4,1
			c-0.3,0.3-0.6,0.4-1,0.4s-0.7-0.1-1-0.4c-0.3-0.3-0.4-0.6-0.4-1V11.5c0-0.4,0.1-0.7,0.4-1c0.3-0.3,0.6-0.4,1-0.4s0.7,0.1,1,0.4
			c0.3,0.3,0.4,0.6,0.4,1v11.4l6.8-6.1c0.2-0.2,0.5-0.4,0.9-0.4c0.4,0,0.7,0.1,1,0.4c0.2,0.2,0.4,0.5,0.4,0.9c0,0.4-0.1,0.7-0.4,1
			l-5.2,4.6L107.5,30z M116.4,16.6c1.4,0,2.7,0.3,3.9,1s2.1,1.6,2.8,2.8c0.7,1.2,1,2.5,1,4v6.2c0,0.4-0.1,0.8-0.4,1s-0.6,0.4-1,0.4
			c-0.4,0-0.8-0.1-1-0.4s-0.4-0.6-0.4-1v-1c-0.7,0.8-1.4,1.4-2.4,1.9c-0.9,0.4-1.9,0.7-3,0.7c-1.3,0-2.6-0.3-3.7-1
			c-1.1-0.7-2-1.6-2.6-2.8c-0.6-1.2-0.9-2.5-0.9-4c0-1.5,0.3-2.8,1-4c0.7-1.2,1.6-2.1,2.8-2.8C113.7,16.9,115,16.6,116.4,16.6z
			 M116.4,29.6c0.9,0,1.8-0.2,2.5-0.7c0.8-0.5,1.3-1.1,1.8-1.9c0.4-0.8,0.6-1.7,0.6-2.7c0-1-0.2-1.9-0.6-2.7c-0.4-0.8-1-1.4-1.8-1.9
			s-1.6-0.7-2.5-0.7c-0.9,0-1.8,0.2-2.5,0.7c-0.8,0.5-1.4,1.1-1.8,1.9c-0.4,0.8-0.7,1.7-0.7,2.7c0,1,0.2,1.9,0.7,2.7
			c0.4,0.8,1,1.4,1.8,1.9C114.7,29.4,115.5,29.6,116.4,29.6z M140.6,10.1c0.4,0,0.8,0.1,1,0.4s0.4,0.6,0.4,1v12.8c0,1.5-0.3,2.8-1,4
			c-0.7,1.2-1.6,2.1-2.8,2.8s-2.5,1-3.9,1c-1.4,0-2.7-0.3-3.9-1s-2.1-1.6-2.8-2.8c-0.7-1.2-1-2.5-1-4c0-1.5,0.3-2.8,0.9-4
			c0.6-1.2,1.5-2.1,2.6-2.8s2.3-1,3.7-1c1.1,0,2.1,0.2,3,0.7c0.9,0.4,1.7,1.1,2.4,1.9v-7.6c0-0.4,0.1-0.8,0.4-1
			C139.9,10.3,140.2,10.1,140.6,10.1z M134.4,29.6c0.9,0,1.8-0.2,2.5-0.7c0.8-0.5,1.3-1.1,1.8-1.9c0.4-0.8,0.6-1.7,0.6-2.7
			c0-1-0.2-1.9-0.6-2.7c-0.4-0.8-1-1.4-1.8-1.9c-0.8-0.5-1.6-0.7-2.5-0.7c-0.9,0-1.8,0.2-2.5,0.7c-0.8,0.5-1.4,1.1-1.8,1.9
			c-0.4,0.8-0.7,1.7-0.7,2.7c0,1,0.2,1.9,0.7,2.7c0.4,0.8,1,1.4,1.8,1.9C132.6,29.4,133.4,29.6,134.4,29.6z M159.9,24.1
			c0,0.4-0.1,0.6-0.4,0.9c-0.2,0.2-0.6,0.4-0.9,0.4h-10.6c0.2,1.3,0.8,2.4,1.8,3.2c1,0.8,2.2,1.2,3.6,1.2c0.6,0,1.1-0.1,1.8-0.3
			s1.1-0.5,1.5-0.8c0.3-0.2,0.6-0.3,0.9-0.3c0.4,0,0.6,0.1,0.8,0.3c0.3,0.3,0.5,0.6,0.5,1c0,0.3-0.1,0.6-0.4,0.8
			c-0.6,0.5-1.4,0.9-2.4,1.2s-1.8,0.5-2.7,0.5c-1.5,0-2.9-0.3-4.1-1c-1.2-0.7-2.2-1.6-2.8-2.8c-0.7-1.2-1-2.5-1-4c0-1.5,0.3-2.8,1-4
			c0.6-1.2,1.5-2.1,2.7-2.8c1.1-0.7,2.4-1,3.9-1c1.4,0,2.7,0.3,3.7,1s1.8,1.5,2.4,2.7C159.6,21.3,159.9,22.6,159.9,24.1z M152.9,19
			c-1.4,0-2.5,0.4-3.3,1.1c-0.8,0.7-1.4,1.7-1.6,3h9.3c-0.2-1.3-0.6-2.2-1.4-3C155.1,19.4,154.1,19,152.9,19z"/>
	</g>
</g>
</svg>
