<svg xmlns="http://www.w3.org/2000/svg" viewBox="0 0 599.68 154.65"><defs><style>.cls-1{fill:#fff;}</style></defs><title>voice flow</title><g id="Layer_2" data-name="Layer 2"><g id="Layer_1-2" data-name="Layer 1"><path class="cls-1" d="M0,38.28c1.68-4.1,2.76-8.6,5.15-12.23C13.4,13.54,36,8.83,48.86,16.6c6.17,3.74,9,9.63,10.12,16.47,2.28,13.49-.86,26.5-3.51,39.56-1.88,9.3-3.94,18.56-5.51,27.91-.36,2.15.92,4.57,1.44,6.87,2.25-1.15,5.17-1.75,6.61-3.55A101.67,101.67,0,0,0,68.37,88.63c9.18-17.25,15-35.58,16-55.21.53-10.91-1-21.35-9.71-29.25,6.37-5.92,15-5.5,21.31,1,5.5,5.71,7.8,12.93,7.83,20.54a116,116,0,0,1-1.94,22.8C98.14,67.15,91.55,84.83,80.94,100.6A92.46,92.46,0,0,1,63.4,120.14c-4.32,3.55-10.67,5.39-16.39,6.31-7.85,1.26-13.94-2.89-14.74-10.79a129.33,129.33,0,0,1,.49-29.23C34.68,71.59,38,56.94,40.52,42.16A52.17,52.17,0,0,0,41,30.71c-.48-8.93-6.74-11.95-14-6.67-8,5.79-11.07,14.33-12,23.77-.31,3.12-.05,6.3-.05,9.46C8.76,56.91,3.7,52.56,1.54,45.88c-.49-1.54-1-3.07-1.54-4.6Z"/><path class="cls-1" d="M296.47,89.39c-.32.61-.59.89-.6,1.18-.21,6.22-.69,13.05,5.12,16.85,6,3.91,12,.38,17.19-2.94a70.16,70.16,0,0,0,26.9-32.12c3.11-7.29,3.45-15.76,5.12-24.1-2.14-.1-3.77-.21-5.4-.25-2.42,0-5.39-.13-4.69-3.42.5-2.34,3-6.33,4-6.16,8.5,1.4,9.83-4.16,12-10.23A70,70,0,0,1,364.9,11c5.89-8.23,14.84-10.54,24.48-7.54,7.83,2.43,13.59,9.32,13.42,19.09-.2,11.25-1.88,22.5-3.31,33.69-1.53,12.06-3.58,24.05-5.26,36.09a51.71,51.71,0,0,0-.39,9.47c.24,5,3.41,6.75,7.28,3.57,6-4.94,11.49-10,11.49-19.2a55.65,55.65,0,0,1,11.28-34.06c5.05-6.68,11.45-11.39,20.25-10.83,2.74.18,5.36,2.13,8.89,3.63C437.56,58.27,432.6,74.6,432.1,92.68a27.59,27.59,0,0,0,1.58,9.28c1.89,5.6,6.27,7.42,11.48,4.59a24.53,24.53,0,0,0,7.5-6.39c7.45-9.68,10.53-21,11.42-33.29-6.11-2.59-11.69-5.66-10.23-13.72a12,12,0,0,1,9.87-10c6.42-1.08,9.91,1.23,15.1,10.25,6.65-3.3,13.3-6.69,20-9.88a36.64,36.64,0,0,1,8.41-3c5.86-1.16,7.71.89,6.47,6.79-2.41,11.4-5.16,22.73-7.24,34.19a122.66,122.66,0,0,0-1.57,18.87c-.05,1.85,1.21,4.87,2.56,5.33a7,7,0,0,0,6.17-1.55A74.27,74.27,0,0,0,523.8,90.69c7.13-12.92,11.34-27,14.39-41.35,1.72-8.1,12.42-13.27,19.92-9.68,3.21,1.54,2.2,4.05,1.65,6.45-2.75,11.83-5.85,23.6-8.17,35.51-1.3,6.65-1.51,13.53-1.77,20.32-.06,1.64,1.29,4.24,2.64,4.78s4-.51,5.17-1.72c2.66-2.7,5.49-5.62,7-9,5.14-11.51,9.72-23.27,14.54-34.92,1.23-3,.63-5-2-7.28-5.27-4.64-6.15-13-2.64-18.79a13.54,13.54,0,0,1,15.66-5.74c5.92,1.91,10.25,8.58,9.33,15.5-3,22.71-10.72,43.68-25.18,61.63a45.8,45.8,0,0,1-15,12.08c-13.28,6.55-25.41-.61-27.35-15.27-.23-1.73-.44-3.46-.77-6.13-2.83,4.06-4.93,7.39-7.34,10.49-4.15,5.33-9.05,9.77-15.71,11.83-10.23,3.17-19.32-1.05-20.9-11.56-1.33-8.88-.23-18.17.31-27.25.34-5.75,1.64-11.43,2.61-17.83-3.77,1.4-7.06,2.18-9.81,3.85-1.34.81-2.05,3.2-2.39,5-2.45,12.93-6.66,25.11-14.87,35.6-5.08,6.48-11.41,11.24-19.64,12.87-13.1,2.6-20.85-1.53-29.08-15.56a31.18,31.18,0,0,1-3.49,4c-4.63,3.73-8.93,8.25-14.17,10.73-9.54,4.51-18.89-.84-19.57-11.31a129.3,129.3,0,0,1,1.37-25.83C381.25,63,384.56,44,387.42,24.85a24.19,24.19,0,0,0-.2-8.9c-.52-2.14-2.29-5.35-3.82-5.53-2-.25-4.58,1.69-6.44,3.26-1.3,1.09-2.06,3.05-2.61,4.76-2,6.14-3.78,12.35-5.89,19.32,2.65.19,4.53.32,6.41.47,4.21.33,5.75,2.81,2.86,5.75-2.5,2.55-6.45,3.66-11.16,6.15-1.39,11.25-2.75,24.31-4.68,37.29-2,13.48-4.09,27-7.09,40.28-1.36,6-4.64,11.72-7.76,17.16-3.22,5.6-8.63,8.69-15,9.72-1.17.19-2.92,0-3.57-.68s-.39-2.57.17-3.51c10.66-17.8,11.31-37.95,13.37-58-1.79,2.52-3.5,5.12-5.4,7.55-8.24,10.52-17.92,18.92-31.9,20.4s-22.92-4.39-27.51-17.74c-.32-.91-.66-1.81-1.16-3.18-3.48,3.81-6.49,7.49-9.88,10.76-7,6.69-15,11-25.06,10.37-10.28-.67-17.54-5.63-21.89-14.93-.48-1-1-2.07-1.47-3.1-3.55,3.93-6.48,8.45-10.56,11.35a38.22,38.22,0,0,1-14.68,6.5c-6.43,1.18-11.62-2.49-12.2-9a150.53,150.53,0,0,1,.42-27.26c.9-9.74,2.9-19.38,4.42-29-6.27-2.13-14.73,3-15.49,9-1.85,14.73-5.81,28.74-14.51,41-6.23,8.8-14.24,14.92-25.55,15.43-10.21.45-17.7-3.86-22.3-13-8.84-17.51-3.1-49,11.35-62.42,4.84-4.48,10.52-7.27,17.2-6.43,2.16.26,4.08,2.38,6.11,3.66a40.23,40.23,0,0,1-3.15,4.91c-12.88,14.89-17.73,32.27-15,51.5,1.34,9.53,8.78,11.62,15.92,4.9,9.06-8.52,12.35-19.87,14.48-31.68.78-4.37.94-7.69-4.47-9.64-4.18-1.51-5.91-5.82-5.33-10.37.67-5.15,3.34-9,8.42-10.83,4.55-1.65,8.56-.56,12,2.66a29,29,0,0,1,3,3.64c7.14-2.58,13.78-5.75,20.78-7.34,11.08-2.51,17.22,3.39,15.69,14.56-1.66,12-3.86,24-5.7,36a49.8,49.8,0,0,0-.59,9c.12,4.42,2.41,5.87,6.18,3.52,6.6-4.12,11.25-9.86,12-17.95,1.17-13,5.34-24.75,14.13-34.52C238.11,42,247.93,37.3,260,39.29a17.6,17.6,0,0,1,10.83,28.57A13,13,0,0,1,263.36,72c-5.2.76-8-3.65-6.36-8.62a31.34,31.34,0,0,0,1.88-9.2c0-4.65-3.6-6.69-7.5-4.18a19.9,19.9,0,0,0-6.17,6.35A64.39,64.39,0,0,0,236,96.56c1.21,12,10,16.45,19.73,9.5,10.11-7.18,18.73-15.71,20.68-29.21a50.28,50.28,0,0,1,13-27.12c7.57-8.23,16.9-12.41,28.17-11,14.56,1.82,21.22,12.8,16.52,26.74-4.47,13.24-17.57,22.65-32.94,23.65C299.55,89.23,297.92,89.31,296.47,89.39Zm.23-9.24c12.31-.86,24-15,22.36-26.21-.73-4.84-4.66-6.69-8.77-4a15,15,0,0,0-3.87,3.83C301,61.58,298.42,70.44,296.7,80.15Z"/><path class="cls-1" d="M200.65,2.37c6.72-.06,11.17,4.71,11.15,12,0,8.49-6.09,15.54-13.55,15.73-6.56.16-11.08-4.74-11.07-12C187.19,9.34,193.14,2.43,200.65,2.37Z"/></g></g></svg>